G04 #@! TF.GenerationSoftware,KiCad,Pcbnew,(5.1.10)-1*
G04 #@! TF.CreationDate,2021-08-23T14:46:07-04:00*
G04 #@! TF.ProjectId,charliepad,63686172-6c69-4657-9061-642e6b696361,rev?*
G04 #@! TF.SameCoordinates,Original*
G04 #@! TF.FileFunction,Copper,L2,Bot*
G04 #@! TF.FilePolarity,Positive*
%FSLAX46Y46*%
G04 Gerber Fmt 4.6, Leading zero omitted, Abs format (unit mm)*
G04 Created by KiCad (PCBNEW (5.1.10)-1) date 2021-08-23 14:46:07*
%MOMM*%
%LPD*%
G01*
G04 APERTURE LIST*
G04 #@! TA.AperFunction,ComponentPad*
%ADD10O,1.050000X2.100000*%
G04 #@! TD*
G04 #@! TA.AperFunction,ComponentPad*
%ADD11O,1.000000X2.000000*%
G04 #@! TD*
G04 #@! TA.AperFunction,ComponentPad*
%ADD12C,4.400000*%
G04 #@! TD*
G04 #@! TA.AperFunction,ComponentPad*
%ADD13C,0.700000*%
G04 #@! TD*
G04 #@! TA.AperFunction,ComponentPad*
%ADD14C,2.032000*%
G04 #@! TD*
G04 #@! TA.AperFunction,ComponentPad*
%ADD15O,1.600000X1.600000*%
G04 #@! TD*
G04 #@! TA.AperFunction,ComponentPad*
%ADD16R,1.600000X1.600000*%
G04 #@! TD*
G04 #@! TA.AperFunction,ViaPad*
%ADD17C,0.800000*%
G04 #@! TD*
G04 #@! TA.AperFunction,Conductor*
%ADD18C,1.000000*%
G04 #@! TD*
G04 #@! TA.AperFunction,Conductor*
%ADD19C,0.250000*%
G04 #@! TD*
G04 #@! TA.AperFunction,Conductor*
%ADD20C,0.254000*%
G04 #@! TD*
G04 #@! TA.AperFunction,Conductor*
%ADD21C,0.100000*%
G04 #@! TD*
G04 APERTURE END LIST*
D10*
G04 #@! TO.P,J1,S4*
G04 #@! TO.N,GND*
X63580000Y-95680000D03*
G04 #@! TO.P,J1,S1*
X72220000Y-95680000D03*
D11*
G04 #@! TO.P,J1,S3*
X63580000Y-91500000D03*
G04 #@! TO.P,J1,S2*
X72220000Y-91500000D03*
G04 #@! TD*
D12*
G04 #@! TO.P,M2,1*
G04 #@! TO.N,N/C*
X65700000Y-164100000D03*
D13*
X67350000Y-164100000D03*
X66866726Y-165266726D03*
X65700000Y-165750000D03*
X64533274Y-165266726D03*
X64050000Y-164100000D03*
X64533274Y-162933274D03*
X65700000Y-162450000D03*
X66866726Y-162933274D03*
G04 #@! TD*
G04 #@! TO.P,M2,1*
G04 #@! TO.N,N/C*
X103066726Y-93433274D03*
X101900000Y-92950000D03*
X100733274Y-93433274D03*
X100250000Y-94600000D03*
X100733274Y-95766726D03*
X101900000Y-96250000D03*
X103066726Y-95766726D03*
X103550000Y-94600000D03*
D12*
X101900000Y-94600000D03*
G04 #@! TD*
G04 #@! TO.P,M2,1*
G04 #@! TO.N,N/C*
X101700000Y-164000000D03*
D13*
X103350000Y-164000000D03*
X102866726Y-165166726D03*
X101700000Y-165650000D03*
X100533274Y-165166726D03*
X100050000Y-164000000D03*
X100533274Y-162833274D03*
X101700000Y-162350000D03*
X102866726Y-162833274D03*
G04 #@! TD*
G04 #@! TO.P,M2,1*
G04 #@! TO.N,N/C*
X57916726Y-93233274D03*
X56750000Y-92750000D03*
X55583274Y-93233274D03*
X55100000Y-94400000D03*
X55583274Y-95566726D03*
X56750000Y-96050000D03*
X57916726Y-95566726D03*
X58400000Y-94400000D03*
D12*
X56750000Y-94400000D03*
G04 #@! TD*
D14*
G04 #@! TO.P,SW8,1*
G04 #@! TO.N,PB2*
X79300000Y-148600000D03*
G04 #@! TO.P,SW8,2*
G04 #@! TO.N,Net-(D5-Pad2)*
X74300000Y-146500000D03*
G04 #@! TD*
G04 #@! TO.P,SW9,1*
G04 #@! TO.N,PB0*
X97300000Y-148600000D03*
G04 #@! TO.P,SW9,2*
G04 #@! TO.N,Net-(D5-Pad2)*
X92300000Y-146500000D03*
G04 #@! TD*
D15*
G04 #@! TO.P,U1,8*
G04 #@! TO.N,+5V*
X96900000Y-99020000D03*
G04 #@! TO.P,U1,4*
G04 #@! TO.N,GND*
X89280000Y-91400000D03*
G04 #@! TO.P,U1,7*
G04 #@! TO.N,PB2*
X94360000Y-99020000D03*
G04 #@! TO.P,U1,3*
G04 #@! TO.N,PB4*
X91820000Y-91400000D03*
G04 #@! TO.P,U1,6*
G04 #@! TO.N,PB1*
X91820000Y-99020000D03*
G04 #@! TO.P,U1,2*
G04 #@! TO.N,PB3*
X94360000Y-91400000D03*
G04 #@! TO.P,U1,5*
G04 #@! TO.N,PB0*
X89280000Y-99020000D03*
D16*
G04 #@! TO.P,U1,1*
G04 #@! TO.N,PB5*
X96900000Y-91400000D03*
G04 #@! TD*
D14*
G04 #@! TO.P,SW12,1*
G04 #@! TO.N,PB1*
X97300000Y-165600000D03*
G04 #@! TO.P,SW12,2*
G04 #@! TO.N,Net-(D6-Pad2)*
X92300000Y-163500000D03*
G04 #@! TD*
G04 #@! TO.P,SW11,1*
G04 #@! TO.N,PB2*
X79300000Y-165600000D03*
G04 #@! TO.P,SW11,2*
G04 #@! TO.N,Net-(D6-Pad2)*
X74300000Y-163500000D03*
G04 #@! TD*
G04 #@! TO.P,SW10,1*
G04 #@! TO.N,PB5*
X61300000Y-165600000D03*
G04 #@! TO.P,SW10,2*
G04 #@! TO.N,Net-(D6-Pad2)*
X56300000Y-163500000D03*
G04 #@! TD*
G04 #@! TO.P,SW7,1*
G04 #@! TO.N,PB5*
X61300000Y-148600000D03*
G04 #@! TO.P,SW7,2*
G04 #@! TO.N,Net-(D5-Pad2)*
X56300000Y-146500000D03*
G04 #@! TD*
G04 #@! TO.P,SW6,1*
G04 #@! TO.N,PB0*
X97300000Y-131600000D03*
G04 #@! TO.P,SW6,2*
G04 #@! TO.N,Net-(D4-Pad2)*
X92300000Y-129500000D03*
G04 #@! TD*
G04 #@! TO.P,SW5,1*
G04 #@! TO.N,PB1*
X79300000Y-131600000D03*
G04 #@! TO.P,SW5,2*
G04 #@! TO.N,Net-(D4-Pad2)*
X74300000Y-129500000D03*
G04 #@! TD*
G04 #@! TO.P,SW4,1*
G04 #@! TO.N,PB5*
X61300000Y-131600000D03*
G04 #@! TO.P,SW4,2*
G04 #@! TO.N,Net-(D4-Pad2)*
X56300000Y-129500000D03*
G04 #@! TD*
G04 #@! TO.P,SW3,1*
G04 #@! TO.N,PB0*
X97300000Y-114600000D03*
G04 #@! TO.P,SW3,2*
G04 #@! TO.N,Net-(D3-Pad2)*
X92300000Y-112500000D03*
G04 #@! TD*
G04 #@! TO.P,SW2,1*
G04 #@! TO.N,PB1*
X79300000Y-114600000D03*
G04 #@! TO.P,SW2,2*
G04 #@! TO.N,Net-(D3-Pad2)*
X74300000Y-112500000D03*
G04 #@! TD*
G04 #@! TO.P,SW1,1*
G04 #@! TO.N,PB2*
X61300000Y-114600000D03*
G04 #@! TO.P,SW1,2*
G04 #@! TO.N,Net-(D3-Pad2)*
X56300000Y-112500000D03*
G04 #@! TD*
D17*
G04 #@! TO.N,GND*
X73500000Y-97400000D03*
X99000000Y-119100000D03*
X87300000Y-133600000D03*
X68800000Y-117900000D03*
X68400000Y-151200000D03*
X60000000Y-136300000D03*
X79100000Y-154800000D03*
X61100000Y-154700000D03*
X87300000Y-116200000D03*
X101200000Y-154100000D03*
X93400000Y-140400000D03*
X101000000Y-112400000D03*
X102300000Y-129900000D03*
X65100000Y-130800000D03*
X54400000Y-123600000D03*
X54800000Y-157600000D03*
X77100000Y-165300000D03*
X85400000Y-157300000D03*
X70400000Y-102600000D03*
X54600000Y-100900000D03*
X61200000Y-91500000D03*
X64700000Y-97500000D03*
X90614500Y-97091500D03*
X89000000Y-95600000D03*
G04 #@! TO.N,+5V*
X77200000Y-93700000D03*
G04 #@! TO.N,PB5*
X64300000Y-110400000D03*
G04 #@! TO.N,PB2*
X68800000Y-107100000D03*
X64071500Y-124841000D03*
G04 #@! TO.N,PB1*
X81280000Y-141160500D03*
G04 #@! TO.N,D+*
X66900000Y-97500000D03*
X81800000Y-97000000D03*
G04 #@! TO.N,D-*
X68300000Y-97500000D03*
X77406500Y-98234500D03*
G04 #@! TO.N,Net-(J1-PadA5)*
X69400000Y-97500000D03*
X62400000Y-96100000D03*
G04 #@! TD*
D18*
G04 #@! TO.N,+5V*
X77200000Y-93700000D02*
X90705002Y-93700000D01*
X96900000Y-99020000D02*
X96900000Y-95900000D01*
X94700000Y-93700000D02*
X90705002Y-93700000D01*
X96900000Y-95900000D02*
X94700000Y-93700000D01*
D19*
G04 #@! TO.N,PB5*
X61300000Y-165600000D02*
X58100000Y-162400000D01*
X58100000Y-151800000D02*
X61300000Y-148600000D01*
X58100000Y-162400000D02*
X58100000Y-151800000D01*
X61300000Y-148600000D02*
X64700000Y-145200000D01*
X64700000Y-135000000D02*
X61300000Y-131600000D01*
X64700000Y-145200000D02*
X64700000Y-135000000D01*
X61300000Y-111800000D02*
X62900000Y-111800000D01*
X58100000Y-115000000D02*
X61300000Y-111800000D01*
X58100000Y-128400000D02*
X58100000Y-115000000D01*
X61300000Y-131600000D02*
X58100000Y-128400000D01*
X64300000Y-110400000D02*
X62900000Y-111800000D01*
G04 #@! TO.N,PB2*
X79300000Y-165600000D02*
X82600000Y-162300000D01*
X82600000Y-151900000D02*
X79300000Y-148600000D01*
X82600000Y-162300000D02*
X82600000Y-151900000D01*
X79300000Y-148600000D02*
X72500000Y-148600000D01*
X72500000Y-148600000D02*
X69400000Y-145500000D01*
X69400000Y-145500000D02*
X69400000Y-132400000D01*
X69400000Y-132400000D02*
X64100000Y-127100000D01*
X64100000Y-127100000D02*
X64100000Y-125481538D01*
X64100000Y-125481538D02*
X64100000Y-124800000D01*
X61300000Y-114600000D02*
X65400000Y-114600000D01*
X68800000Y-107100000D02*
X68800000Y-107100000D01*
X65400000Y-114600000D02*
X68800000Y-111200000D01*
X68800000Y-107100000D02*
X68800000Y-111200000D01*
G04 #@! TO.N,PB0*
X97300000Y-114600000D02*
X91400000Y-114600000D01*
X91400000Y-114600000D02*
X89200000Y-112400000D01*
X89200000Y-111900000D02*
X89200000Y-102700000D01*
X89200000Y-112400000D02*
X89200000Y-111900000D01*
X89200000Y-111900000D02*
X89200000Y-111700000D01*
X89200000Y-102700000D02*
X89200000Y-102700000D01*
X89200000Y-99100000D02*
X89280000Y-99020000D01*
X89200000Y-102700000D02*
X89200000Y-99100000D01*
G04 #@! TO.N,PB1*
X79300000Y-131600000D02*
X82400000Y-128500000D01*
X82400000Y-117700000D02*
X79300000Y-114600000D01*
X82400000Y-128500000D02*
X82400000Y-117700000D01*
X86720000Y-113380000D02*
X82400000Y-117700000D01*
X86720000Y-99020000D02*
X86720000Y-113380000D01*
X87845001Y-97894999D02*
X86720000Y-99020000D01*
X90694999Y-97894999D02*
X87845001Y-97894999D01*
X91820000Y-99020000D02*
X90694999Y-97894999D01*
X87400000Y-147280500D02*
X81280000Y-141160500D01*
X87400000Y-162200000D02*
X87400000Y-147280500D01*
X90800000Y-165600000D02*
X87400000Y-162200000D01*
X97300000Y-165600000D02*
X90800000Y-165600000D01*
G04 #@! TO.N,D+*
X69325001Y-99925001D02*
X66900000Y-97500000D01*
X79440684Y-99925001D02*
X69325001Y-99925001D01*
X81800000Y-97565685D02*
X79440684Y-99925001D01*
X81800000Y-97000000D02*
X81800000Y-97565685D01*
G04 #@! TO.N,D-*
X77288999Y-98225001D02*
X77406500Y-98107500D01*
X69051999Y-98225001D02*
X77288999Y-98225001D01*
X68326998Y-97500000D02*
X69051999Y-98225001D01*
X68300000Y-97500000D02*
X68326998Y-97500000D01*
G04 #@! TO.N,Net-(J1-PadA5)*
X62400000Y-96326998D02*
X62400000Y-96100000D01*
X63273002Y-97200000D02*
X62400000Y-96326998D01*
X63787095Y-97200000D02*
X63273002Y-97200000D01*
X64212096Y-96774999D02*
X63787095Y-97200000D01*
X68674999Y-96774999D02*
X64212096Y-96774999D01*
X69400000Y-97500000D02*
X68674999Y-96774999D01*
G04 #@! TD*
D20*
G04 #@! TO.N,GND*
X104559659Y-89461625D02*
X104809429Y-89537035D01*
X105039792Y-89659522D01*
X105241980Y-89824422D01*
X105408286Y-90025450D01*
X105532378Y-90254954D01*
X105609531Y-90504195D01*
X105640001Y-90794098D01*
X105640000Y-166167721D01*
X105611375Y-166459660D01*
X105535965Y-166709429D01*
X105413477Y-166939794D01*
X105248579Y-167141979D01*
X105047546Y-167308288D01*
X104818046Y-167432378D01*
X104568805Y-167509531D01*
X104278911Y-167540000D01*
X54332279Y-167540000D01*
X54040340Y-167511375D01*
X53790571Y-167435965D01*
X53560206Y-167313477D01*
X53358021Y-167148579D01*
X53191712Y-166947546D01*
X53067622Y-166718046D01*
X52990469Y-166468805D01*
X52960000Y-166178911D01*
X52960000Y-159553652D01*
X54314100Y-159553652D01*
X54314100Y-159846348D01*
X54371202Y-160133421D01*
X54483212Y-160403838D01*
X54645826Y-160647206D01*
X54852794Y-160854174D01*
X55096162Y-161016788D01*
X55366579Y-161128798D01*
X55653652Y-161185900D01*
X55946348Y-161185900D01*
X56233421Y-161128798D01*
X56503838Y-161016788D01*
X56747206Y-160854174D01*
X56954174Y-160647206D01*
X57116788Y-160403838D01*
X57228798Y-160133421D01*
X57285900Y-159846348D01*
X57285900Y-159553652D01*
X57228798Y-159266579D01*
X57116788Y-158996162D01*
X56954174Y-158752794D01*
X56747206Y-158545826D01*
X56503838Y-158383212D01*
X56233421Y-158271202D01*
X55946348Y-158214100D01*
X55653652Y-158214100D01*
X55366579Y-158271202D01*
X55096162Y-158383212D01*
X54852794Y-158545826D01*
X54645826Y-158752794D01*
X54483212Y-158996162D01*
X54371202Y-159266579D01*
X54314100Y-159553652D01*
X52960000Y-159553652D01*
X52960000Y-155388675D01*
X54949700Y-155388675D01*
X54949700Y-155611325D01*
X54993137Y-155829696D01*
X55078341Y-156035398D01*
X55202039Y-156220524D01*
X55359476Y-156377961D01*
X55544602Y-156501659D01*
X55750304Y-156586863D01*
X55968675Y-156630300D01*
X56191325Y-156630300D01*
X56409696Y-156586863D01*
X56615398Y-156501659D01*
X56800524Y-156377961D01*
X56957961Y-156220524D01*
X57081659Y-156035398D01*
X57166863Y-155829696D01*
X57210300Y-155611325D01*
X57210300Y-155388675D01*
X57166863Y-155170304D01*
X57081659Y-154964602D01*
X56957961Y-154779476D01*
X56800524Y-154622039D01*
X56615398Y-154498341D01*
X56409696Y-154413137D01*
X56191325Y-154369700D01*
X55968675Y-154369700D01*
X55750304Y-154413137D01*
X55544602Y-154498341D01*
X55359476Y-154622039D01*
X55202039Y-154779476D01*
X55078341Y-154964602D01*
X54993137Y-155170304D01*
X54949700Y-155388675D01*
X52960000Y-155388675D01*
X52960000Y-146337391D01*
X54649000Y-146337391D01*
X54649000Y-146662609D01*
X54712447Y-146981579D01*
X54836903Y-147282042D01*
X55017585Y-147552451D01*
X55247549Y-147782415D01*
X55517958Y-147963097D01*
X55818421Y-148087553D01*
X56137391Y-148151000D01*
X56462609Y-148151000D01*
X56781579Y-148087553D01*
X57082042Y-147963097D01*
X57352451Y-147782415D01*
X57582415Y-147552451D01*
X57763097Y-147282042D01*
X57887553Y-146981579D01*
X57951000Y-146662609D01*
X57951000Y-146337391D01*
X57887553Y-146018421D01*
X57763097Y-145717958D01*
X57582415Y-145447549D01*
X57352451Y-145217585D01*
X57082042Y-145036903D01*
X56781579Y-144912447D01*
X56462609Y-144849000D01*
X56137391Y-144849000D01*
X55818421Y-144912447D01*
X55517958Y-145036903D01*
X55247549Y-145217585D01*
X55017585Y-145447549D01*
X54836903Y-145717958D01*
X54712447Y-146018421D01*
X54649000Y-146337391D01*
X52960000Y-146337391D01*
X52960000Y-142553652D01*
X54314100Y-142553652D01*
X54314100Y-142846348D01*
X54371202Y-143133421D01*
X54483212Y-143403838D01*
X54645826Y-143647206D01*
X54852794Y-143854174D01*
X55096162Y-144016788D01*
X55366579Y-144128798D01*
X55653652Y-144185900D01*
X55946348Y-144185900D01*
X56233421Y-144128798D01*
X56503838Y-144016788D01*
X56747206Y-143854174D01*
X56954174Y-143647206D01*
X57116788Y-143403838D01*
X57228798Y-143133421D01*
X57285900Y-142846348D01*
X57285900Y-142553652D01*
X57268982Y-142468594D01*
X58950500Y-142468594D01*
X58950500Y-142931406D01*
X59040790Y-143385324D01*
X59217900Y-143812905D01*
X59475024Y-144197719D01*
X59802281Y-144524976D01*
X60187095Y-144782100D01*
X60614676Y-144959210D01*
X61068594Y-145049500D01*
X61531406Y-145049500D01*
X61985324Y-144959210D01*
X62412905Y-144782100D01*
X62797719Y-144524976D01*
X63124976Y-144197719D01*
X63382100Y-143812905D01*
X63559210Y-143385324D01*
X63649500Y-142931406D01*
X63649500Y-142468594D01*
X63559210Y-142014676D01*
X63382100Y-141587095D01*
X63124976Y-141202281D01*
X62797719Y-140875024D01*
X62412905Y-140617900D01*
X61985324Y-140440790D01*
X61531406Y-140350500D01*
X61068594Y-140350500D01*
X60614676Y-140440790D01*
X60187095Y-140617900D01*
X59802281Y-140875024D01*
X59475024Y-141202281D01*
X59217900Y-141587095D01*
X59040790Y-142014676D01*
X58950500Y-142468594D01*
X57268982Y-142468594D01*
X57228798Y-142266579D01*
X57116788Y-141996162D01*
X56954174Y-141752794D01*
X56747206Y-141545826D01*
X56503838Y-141383212D01*
X56233421Y-141271202D01*
X55946348Y-141214100D01*
X55653652Y-141214100D01*
X55366579Y-141271202D01*
X55096162Y-141383212D01*
X54852794Y-141545826D01*
X54645826Y-141752794D01*
X54483212Y-141996162D01*
X54371202Y-142266579D01*
X54314100Y-142553652D01*
X52960000Y-142553652D01*
X52960000Y-138388675D01*
X54949700Y-138388675D01*
X54949700Y-138611325D01*
X54993137Y-138829696D01*
X55078341Y-139035398D01*
X55202039Y-139220524D01*
X55359476Y-139377961D01*
X55544602Y-139501659D01*
X55750304Y-139586863D01*
X55968675Y-139630300D01*
X56191325Y-139630300D01*
X56409696Y-139586863D01*
X56615398Y-139501659D01*
X56800524Y-139377961D01*
X56957961Y-139220524D01*
X57081659Y-139035398D01*
X57166863Y-138829696D01*
X57210300Y-138611325D01*
X57210300Y-138388675D01*
X57166863Y-138170304D01*
X57081659Y-137964602D01*
X56957961Y-137779476D01*
X56800524Y-137622039D01*
X56615398Y-137498341D01*
X56409696Y-137413137D01*
X56191325Y-137369700D01*
X55968675Y-137369700D01*
X55750304Y-137413137D01*
X55544602Y-137498341D01*
X55359476Y-137622039D01*
X55202039Y-137779476D01*
X55078341Y-137964602D01*
X54993137Y-138170304D01*
X54949700Y-138388675D01*
X52960000Y-138388675D01*
X52960000Y-129337391D01*
X54649000Y-129337391D01*
X54649000Y-129662609D01*
X54712447Y-129981579D01*
X54836903Y-130282042D01*
X55017585Y-130552451D01*
X55247549Y-130782415D01*
X55517958Y-130963097D01*
X55818421Y-131087553D01*
X56137391Y-131151000D01*
X56462609Y-131151000D01*
X56781579Y-131087553D01*
X57082042Y-130963097D01*
X57352451Y-130782415D01*
X57582415Y-130552451D01*
X57763097Y-130282042D01*
X57887553Y-129981579D01*
X57951000Y-129662609D01*
X57951000Y-129337391D01*
X57948122Y-129322923D01*
X59721577Y-131096379D01*
X59712447Y-131118421D01*
X59649000Y-131437391D01*
X59649000Y-131762609D01*
X59712447Y-132081579D01*
X59836903Y-132382042D01*
X60017585Y-132652451D01*
X60247549Y-132882415D01*
X60517958Y-133063097D01*
X60818421Y-133187553D01*
X61137391Y-133251000D01*
X61462609Y-133251000D01*
X61781579Y-133187553D01*
X61803621Y-133178423D01*
X63940001Y-135314803D01*
X63940000Y-144885198D01*
X61803621Y-147021577D01*
X61781579Y-147012447D01*
X61462609Y-146949000D01*
X61137391Y-146949000D01*
X60818421Y-147012447D01*
X60517958Y-147136903D01*
X60247549Y-147317585D01*
X60017585Y-147547549D01*
X59836903Y-147817958D01*
X59712447Y-148118421D01*
X59649000Y-148437391D01*
X59649000Y-148762609D01*
X59712447Y-149081579D01*
X59721577Y-149103621D01*
X57588998Y-151236201D01*
X57560000Y-151259999D01*
X57536202Y-151288997D01*
X57536201Y-151288998D01*
X57465026Y-151375724D01*
X57394454Y-151507754D01*
X57350998Y-151651015D01*
X57336324Y-151800000D01*
X57340001Y-151837332D01*
X57340000Y-162209265D01*
X57082042Y-162036903D01*
X56781579Y-161912447D01*
X56462609Y-161849000D01*
X56137391Y-161849000D01*
X55818421Y-161912447D01*
X55517958Y-162036903D01*
X55247549Y-162217585D01*
X55017585Y-162447549D01*
X54836903Y-162717958D01*
X54712447Y-163018421D01*
X54649000Y-163337391D01*
X54649000Y-163662609D01*
X54712447Y-163981579D01*
X54836903Y-164282042D01*
X55017585Y-164552451D01*
X55247549Y-164782415D01*
X55517958Y-164963097D01*
X55818421Y-165087553D01*
X56137391Y-165151000D01*
X56462609Y-165151000D01*
X56781579Y-165087553D01*
X57082042Y-164963097D01*
X57352451Y-164782415D01*
X57582415Y-164552451D01*
X57763097Y-164282042D01*
X57887553Y-163981579D01*
X57951000Y-163662609D01*
X57951000Y-163337391D01*
X57948122Y-163322923D01*
X59721577Y-165096379D01*
X59712447Y-165118421D01*
X59649000Y-165437391D01*
X59649000Y-165762609D01*
X59712447Y-166081579D01*
X59836903Y-166382042D01*
X60017585Y-166652451D01*
X60247549Y-166882415D01*
X60517958Y-167063097D01*
X60818421Y-167187553D01*
X61137391Y-167251000D01*
X61462609Y-167251000D01*
X61781579Y-167187553D01*
X62082042Y-167063097D01*
X62352451Y-166882415D01*
X62582415Y-166652451D01*
X62763097Y-166382042D01*
X62887553Y-166081579D01*
X62951000Y-165762609D01*
X62951000Y-165437391D01*
X62887553Y-165118421D01*
X62763097Y-164817958D01*
X62582415Y-164547549D01*
X62352451Y-164317585D01*
X62082042Y-164136903D01*
X61781579Y-164012447D01*
X61462609Y-163949000D01*
X61137391Y-163949000D01*
X60818421Y-164012447D01*
X60796379Y-164021577D01*
X60595579Y-163820777D01*
X62865000Y-163820777D01*
X62865000Y-164379223D01*
X62973948Y-164926939D01*
X63187656Y-165442876D01*
X63497912Y-165907207D01*
X63892793Y-166302088D01*
X64357124Y-166612344D01*
X64873061Y-166826052D01*
X65420777Y-166935000D01*
X65979223Y-166935000D01*
X66526939Y-166826052D01*
X67042876Y-166612344D01*
X67507207Y-166302088D01*
X67902088Y-165907207D01*
X68212344Y-165442876D01*
X68426052Y-164926939D01*
X68535000Y-164379223D01*
X68535000Y-163820777D01*
X68438849Y-163337391D01*
X72649000Y-163337391D01*
X72649000Y-163662609D01*
X72712447Y-163981579D01*
X72836903Y-164282042D01*
X73017585Y-164552451D01*
X73247549Y-164782415D01*
X73517958Y-164963097D01*
X73818421Y-165087553D01*
X74137391Y-165151000D01*
X74462609Y-165151000D01*
X74781579Y-165087553D01*
X75082042Y-164963097D01*
X75352451Y-164782415D01*
X75582415Y-164552451D01*
X75763097Y-164282042D01*
X75887553Y-163981579D01*
X75951000Y-163662609D01*
X75951000Y-163337391D01*
X75887553Y-163018421D01*
X75763097Y-162717958D01*
X75582415Y-162447549D01*
X75352451Y-162217585D01*
X75082042Y-162036903D01*
X74781579Y-161912447D01*
X74462609Y-161849000D01*
X74137391Y-161849000D01*
X73818421Y-161912447D01*
X73517958Y-162036903D01*
X73247549Y-162217585D01*
X73017585Y-162447549D01*
X72836903Y-162717958D01*
X72712447Y-163018421D01*
X72649000Y-163337391D01*
X68438849Y-163337391D01*
X68426052Y-163273061D01*
X68212344Y-162757124D01*
X67902088Y-162292793D01*
X67507207Y-161897912D01*
X67042876Y-161587656D01*
X66526939Y-161373948D01*
X65979223Y-161265000D01*
X65420777Y-161265000D01*
X64873061Y-161373948D01*
X64357124Y-161587656D01*
X63892793Y-161897912D01*
X63497912Y-162292793D01*
X63187656Y-162757124D01*
X62973948Y-163273061D01*
X62865000Y-163820777D01*
X60595579Y-163820777D01*
X58860000Y-162085199D01*
X58860000Y-159468594D01*
X58950500Y-159468594D01*
X58950500Y-159931406D01*
X59040790Y-160385324D01*
X59217900Y-160812905D01*
X59475024Y-161197719D01*
X59802281Y-161524976D01*
X60187095Y-161782100D01*
X60614676Y-161959210D01*
X61068594Y-162049500D01*
X61531406Y-162049500D01*
X61985324Y-161959210D01*
X62412905Y-161782100D01*
X62797719Y-161524976D01*
X63124976Y-161197719D01*
X63382100Y-160812905D01*
X63559210Y-160385324D01*
X63649500Y-159931406D01*
X63649500Y-159553652D01*
X65314100Y-159553652D01*
X65314100Y-159846348D01*
X65371202Y-160133421D01*
X65483212Y-160403838D01*
X65645826Y-160647206D01*
X65852794Y-160854174D01*
X66096162Y-161016788D01*
X66366579Y-161128798D01*
X66653652Y-161185900D01*
X66946348Y-161185900D01*
X67233421Y-161128798D01*
X67503838Y-161016788D01*
X67747206Y-160854174D01*
X67954174Y-160647206D01*
X68116788Y-160403838D01*
X68228798Y-160133421D01*
X68285900Y-159846348D01*
X68285900Y-159553652D01*
X72314100Y-159553652D01*
X72314100Y-159846348D01*
X72371202Y-160133421D01*
X72483212Y-160403838D01*
X72645826Y-160647206D01*
X72852794Y-160854174D01*
X73096162Y-161016788D01*
X73366579Y-161128798D01*
X73653652Y-161185900D01*
X73946348Y-161185900D01*
X74233421Y-161128798D01*
X74503838Y-161016788D01*
X74747206Y-160854174D01*
X74954174Y-160647206D01*
X75116788Y-160403838D01*
X75228798Y-160133421D01*
X75285900Y-159846348D01*
X75285900Y-159553652D01*
X75268982Y-159468594D01*
X76950500Y-159468594D01*
X76950500Y-159931406D01*
X77040790Y-160385324D01*
X77217900Y-160812905D01*
X77475024Y-161197719D01*
X77802281Y-161524976D01*
X78187095Y-161782100D01*
X78614676Y-161959210D01*
X79068594Y-162049500D01*
X79531406Y-162049500D01*
X79985324Y-161959210D01*
X80412905Y-161782100D01*
X80797719Y-161524976D01*
X81124976Y-161197719D01*
X81382100Y-160812905D01*
X81559210Y-160385324D01*
X81649500Y-159931406D01*
X81649500Y-159468594D01*
X81559210Y-159014676D01*
X81382100Y-158587095D01*
X81124976Y-158202281D01*
X80797719Y-157875024D01*
X80412905Y-157617900D01*
X79985324Y-157440790D01*
X79531406Y-157350500D01*
X79068594Y-157350500D01*
X78614676Y-157440790D01*
X78187095Y-157617900D01*
X77802281Y-157875024D01*
X77475024Y-158202281D01*
X77217900Y-158587095D01*
X77040790Y-159014676D01*
X76950500Y-159468594D01*
X75268982Y-159468594D01*
X75228798Y-159266579D01*
X75116788Y-158996162D01*
X74954174Y-158752794D01*
X74747206Y-158545826D01*
X74503838Y-158383212D01*
X74233421Y-158271202D01*
X73946348Y-158214100D01*
X73653652Y-158214100D01*
X73366579Y-158271202D01*
X73096162Y-158383212D01*
X72852794Y-158545826D01*
X72645826Y-158752794D01*
X72483212Y-158996162D01*
X72371202Y-159266579D01*
X72314100Y-159553652D01*
X68285900Y-159553652D01*
X68228798Y-159266579D01*
X68116788Y-158996162D01*
X67954174Y-158752794D01*
X67747206Y-158545826D01*
X67503838Y-158383212D01*
X67233421Y-158271202D01*
X66946348Y-158214100D01*
X66653652Y-158214100D01*
X66366579Y-158271202D01*
X66096162Y-158383212D01*
X65852794Y-158545826D01*
X65645826Y-158752794D01*
X65483212Y-158996162D01*
X65371202Y-159266579D01*
X65314100Y-159553652D01*
X63649500Y-159553652D01*
X63649500Y-159468594D01*
X63559210Y-159014676D01*
X63382100Y-158587095D01*
X63124976Y-158202281D01*
X62797719Y-157875024D01*
X62412905Y-157617900D01*
X61985324Y-157440790D01*
X61531406Y-157350500D01*
X61068594Y-157350500D01*
X60614676Y-157440790D01*
X60187095Y-157617900D01*
X59802281Y-157875024D01*
X59475024Y-158202281D01*
X59217900Y-158587095D01*
X59040790Y-159014676D01*
X58950500Y-159468594D01*
X58860000Y-159468594D01*
X58860000Y-155388675D01*
X65389700Y-155388675D01*
X65389700Y-155611325D01*
X65433137Y-155829696D01*
X65518341Y-156035398D01*
X65642039Y-156220524D01*
X65799476Y-156377961D01*
X65984602Y-156501659D01*
X66190304Y-156586863D01*
X66408675Y-156630300D01*
X66631325Y-156630300D01*
X66849696Y-156586863D01*
X67055398Y-156501659D01*
X67240524Y-156377961D01*
X67397961Y-156220524D01*
X67521659Y-156035398D01*
X67606863Y-155829696D01*
X67650300Y-155611325D01*
X67650300Y-155388675D01*
X72949700Y-155388675D01*
X72949700Y-155611325D01*
X72993137Y-155829696D01*
X73078341Y-156035398D01*
X73202039Y-156220524D01*
X73359476Y-156377961D01*
X73544602Y-156501659D01*
X73750304Y-156586863D01*
X73968675Y-156630300D01*
X74191325Y-156630300D01*
X74409696Y-156586863D01*
X74615398Y-156501659D01*
X74800524Y-156377961D01*
X74957961Y-156220524D01*
X75081659Y-156035398D01*
X75166863Y-155829696D01*
X75210300Y-155611325D01*
X75210300Y-155388675D01*
X75166863Y-155170304D01*
X75081659Y-154964602D01*
X74957961Y-154779476D01*
X74800524Y-154622039D01*
X74615398Y-154498341D01*
X74409696Y-154413137D01*
X74191325Y-154369700D01*
X73968675Y-154369700D01*
X73750304Y-154413137D01*
X73544602Y-154498341D01*
X73359476Y-154622039D01*
X73202039Y-154779476D01*
X73078341Y-154964602D01*
X72993137Y-155170304D01*
X72949700Y-155388675D01*
X67650300Y-155388675D01*
X67606863Y-155170304D01*
X67521659Y-154964602D01*
X67397961Y-154779476D01*
X67240524Y-154622039D01*
X67055398Y-154498341D01*
X66849696Y-154413137D01*
X66631325Y-154369700D01*
X66408675Y-154369700D01*
X66190304Y-154413137D01*
X65984602Y-154498341D01*
X65799476Y-154622039D01*
X65642039Y-154779476D01*
X65518341Y-154964602D01*
X65433137Y-155170304D01*
X65389700Y-155388675D01*
X58860000Y-155388675D01*
X58860000Y-152114801D01*
X60796379Y-150178423D01*
X60818421Y-150187553D01*
X61137391Y-150251000D01*
X61462609Y-150251000D01*
X61781579Y-150187553D01*
X62082042Y-150063097D01*
X62352451Y-149882415D01*
X62582415Y-149652451D01*
X62763097Y-149382042D01*
X62887553Y-149081579D01*
X62951000Y-148762609D01*
X62951000Y-148437391D01*
X62887553Y-148118421D01*
X62878423Y-148096379D01*
X65211004Y-145763798D01*
X65240001Y-145740001D01*
X65266332Y-145707917D01*
X65334974Y-145624277D01*
X65405546Y-145492247D01*
X65419105Y-145447549D01*
X65449003Y-145348986D01*
X65460000Y-145237333D01*
X65460000Y-145237324D01*
X65463676Y-145200001D01*
X65460000Y-145162678D01*
X65460000Y-143347799D01*
X65483212Y-143403838D01*
X65645826Y-143647206D01*
X65852794Y-143854174D01*
X66096162Y-144016788D01*
X66366579Y-144128798D01*
X66653652Y-144185900D01*
X66946348Y-144185900D01*
X67233421Y-144128798D01*
X67503838Y-144016788D01*
X67747206Y-143854174D01*
X67954174Y-143647206D01*
X68116788Y-143403838D01*
X68228798Y-143133421D01*
X68285900Y-142846348D01*
X68285900Y-142553652D01*
X68228798Y-142266579D01*
X68116788Y-141996162D01*
X67954174Y-141752794D01*
X67747206Y-141545826D01*
X67503838Y-141383212D01*
X67233421Y-141271202D01*
X66946348Y-141214100D01*
X66653652Y-141214100D01*
X66366579Y-141271202D01*
X66096162Y-141383212D01*
X65852794Y-141545826D01*
X65645826Y-141752794D01*
X65483212Y-141996162D01*
X65460000Y-142052201D01*
X65460000Y-138894549D01*
X65518341Y-139035398D01*
X65642039Y-139220524D01*
X65799476Y-139377961D01*
X65984602Y-139501659D01*
X66190304Y-139586863D01*
X66408675Y-139630300D01*
X66631325Y-139630300D01*
X66849696Y-139586863D01*
X67055398Y-139501659D01*
X67240524Y-139377961D01*
X67397961Y-139220524D01*
X67521659Y-139035398D01*
X67606863Y-138829696D01*
X67650300Y-138611325D01*
X67650300Y-138388675D01*
X67606863Y-138170304D01*
X67521659Y-137964602D01*
X67397961Y-137779476D01*
X67240524Y-137622039D01*
X67055398Y-137498341D01*
X66849696Y-137413137D01*
X66631325Y-137369700D01*
X66408675Y-137369700D01*
X66190304Y-137413137D01*
X65984602Y-137498341D01*
X65799476Y-137622039D01*
X65642039Y-137779476D01*
X65518341Y-137964602D01*
X65460000Y-138105451D01*
X65460000Y-135037322D01*
X65463676Y-134999999D01*
X65460000Y-134962676D01*
X65460000Y-134962667D01*
X65449003Y-134851014D01*
X65405546Y-134707753D01*
X65334974Y-134575723D01*
X65263799Y-134488997D01*
X65240001Y-134459999D01*
X65211003Y-134436201D01*
X62878423Y-132103621D01*
X62887553Y-132081579D01*
X62951000Y-131762609D01*
X62951000Y-131437391D01*
X62887553Y-131118421D01*
X62763097Y-130817958D01*
X62582415Y-130547549D01*
X62352451Y-130317585D01*
X62082042Y-130136903D01*
X61781579Y-130012447D01*
X61462609Y-129949000D01*
X61137391Y-129949000D01*
X60818421Y-130012447D01*
X60796379Y-130021577D01*
X58860000Y-128085199D01*
X58860000Y-125468594D01*
X58950500Y-125468594D01*
X58950500Y-125931406D01*
X59040790Y-126385324D01*
X59217900Y-126812905D01*
X59475024Y-127197719D01*
X59802281Y-127524976D01*
X60187095Y-127782100D01*
X60614676Y-127959210D01*
X61068594Y-128049500D01*
X61531406Y-128049500D01*
X61985324Y-127959210D01*
X62412905Y-127782100D01*
X62797719Y-127524976D01*
X63124976Y-127197719D01*
X63340000Y-126875912D01*
X63340000Y-127062677D01*
X63336324Y-127100000D01*
X63340000Y-127137322D01*
X63340000Y-127137332D01*
X63350997Y-127248985D01*
X63394454Y-127392246D01*
X63465026Y-127524276D01*
X63504871Y-127572826D01*
X63559999Y-127640001D01*
X63589003Y-127663804D01*
X68640001Y-132714803D01*
X68640000Y-145462678D01*
X68636324Y-145500000D01*
X68640000Y-145537322D01*
X68640000Y-145537332D01*
X68650997Y-145648985D01*
X68678606Y-145740001D01*
X68694454Y-145792246D01*
X68765026Y-145924276D01*
X68797362Y-145963677D01*
X68859999Y-146040001D01*
X68889003Y-146063804D01*
X71936200Y-149111002D01*
X71959999Y-149140001D01*
X71988997Y-149163799D01*
X72075723Y-149234974D01*
X72207753Y-149305546D01*
X72351014Y-149349003D01*
X72462667Y-149360000D01*
X72462676Y-149360000D01*
X72499999Y-149363676D01*
X72537322Y-149360000D01*
X77827773Y-149360000D01*
X77836903Y-149382042D01*
X78017585Y-149652451D01*
X78247549Y-149882415D01*
X78517958Y-150063097D01*
X78818421Y-150187553D01*
X79137391Y-150251000D01*
X79462609Y-150251000D01*
X79781579Y-150187553D01*
X79803621Y-150178423D01*
X81840001Y-152214803D01*
X81840000Y-161985198D01*
X79803621Y-164021577D01*
X79781579Y-164012447D01*
X79462609Y-163949000D01*
X79137391Y-163949000D01*
X78818421Y-164012447D01*
X78517958Y-164136903D01*
X78247549Y-164317585D01*
X78017585Y-164547549D01*
X77836903Y-164817958D01*
X77712447Y-165118421D01*
X77649000Y-165437391D01*
X77649000Y-165762609D01*
X77712447Y-166081579D01*
X77836903Y-166382042D01*
X78017585Y-166652451D01*
X78247549Y-166882415D01*
X78517958Y-167063097D01*
X78818421Y-167187553D01*
X79137391Y-167251000D01*
X79462609Y-167251000D01*
X79781579Y-167187553D01*
X80082042Y-167063097D01*
X80352451Y-166882415D01*
X80582415Y-166652451D01*
X80763097Y-166382042D01*
X80887553Y-166081579D01*
X80951000Y-165762609D01*
X80951000Y-165437391D01*
X80887553Y-165118421D01*
X80878423Y-165096379D01*
X83111004Y-162863798D01*
X83140001Y-162840001D01*
X83234974Y-162724276D01*
X83305546Y-162592247D01*
X83349003Y-162448986D01*
X83360000Y-162337333D01*
X83360000Y-162337325D01*
X83363676Y-162300000D01*
X83360000Y-162262675D01*
X83360000Y-160077104D01*
X83371202Y-160133421D01*
X83483212Y-160403838D01*
X83645826Y-160647206D01*
X83852794Y-160854174D01*
X84096162Y-161016788D01*
X84366579Y-161128798D01*
X84653652Y-161185900D01*
X84946348Y-161185900D01*
X85233421Y-161128798D01*
X85503838Y-161016788D01*
X85747206Y-160854174D01*
X85954174Y-160647206D01*
X86116788Y-160403838D01*
X86228798Y-160133421D01*
X86285900Y-159846348D01*
X86285900Y-159553652D01*
X86228798Y-159266579D01*
X86116788Y-158996162D01*
X85954174Y-158752794D01*
X85747206Y-158545826D01*
X85503838Y-158383212D01*
X85233421Y-158271202D01*
X84946348Y-158214100D01*
X84653652Y-158214100D01*
X84366579Y-158271202D01*
X84096162Y-158383212D01*
X83852794Y-158545826D01*
X83645826Y-158752794D01*
X83483212Y-158996162D01*
X83371202Y-159266579D01*
X83360000Y-159322896D01*
X83360000Y-155388675D01*
X83389700Y-155388675D01*
X83389700Y-155611325D01*
X83433137Y-155829696D01*
X83518341Y-156035398D01*
X83642039Y-156220524D01*
X83799476Y-156377961D01*
X83984602Y-156501659D01*
X84190304Y-156586863D01*
X84408675Y-156630300D01*
X84631325Y-156630300D01*
X84849696Y-156586863D01*
X85055398Y-156501659D01*
X85240524Y-156377961D01*
X85397961Y-156220524D01*
X85521659Y-156035398D01*
X85606863Y-155829696D01*
X85650300Y-155611325D01*
X85650300Y-155388675D01*
X85606863Y-155170304D01*
X85521659Y-154964602D01*
X85397961Y-154779476D01*
X85240524Y-154622039D01*
X85055398Y-154498341D01*
X84849696Y-154413137D01*
X84631325Y-154369700D01*
X84408675Y-154369700D01*
X84190304Y-154413137D01*
X83984602Y-154498341D01*
X83799476Y-154622039D01*
X83642039Y-154779476D01*
X83518341Y-154964602D01*
X83433137Y-155170304D01*
X83389700Y-155388675D01*
X83360000Y-155388675D01*
X83360000Y-151937325D01*
X83363676Y-151900000D01*
X83360000Y-151862675D01*
X83360000Y-151862667D01*
X83349003Y-151751014D01*
X83305546Y-151607753D01*
X83234974Y-151475724D01*
X83140001Y-151359999D01*
X83111003Y-151336201D01*
X80878423Y-149103621D01*
X80887553Y-149081579D01*
X80951000Y-148762609D01*
X80951000Y-148437391D01*
X80887553Y-148118421D01*
X80763097Y-147817958D01*
X80582415Y-147547549D01*
X80352451Y-147317585D01*
X80082042Y-147136903D01*
X79781579Y-147012447D01*
X79462609Y-146949000D01*
X79137391Y-146949000D01*
X78818421Y-147012447D01*
X78517958Y-147136903D01*
X78247549Y-147317585D01*
X78017585Y-147547549D01*
X77836903Y-147817958D01*
X77827773Y-147840000D01*
X75266269Y-147840000D01*
X75352451Y-147782415D01*
X75582415Y-147552451D01*
X75763097Y-147282042D01*
X75887553Y-146981579D01*
X75951000Y-146662609D01*
X75951000Y-146337391D01*
X75887553Y-146018421D01*
X75763097Y-145717958D01*
X75582415Y-145447549D01*
X75352451Y-145217585D01*
X75082042Y-145036903D01*
X74781579Y-144912447D01*
X74462609Y-144849000D01*
X74137391Y-144849000D01*
X73818421Y-144912447D01*
X73517958Y-145036903D01*
X73247549Y-145217585D01*
X73017585Y-145447549D01*
X72836903Y-145717958D01*
X72712447Y-146018421D01*
X72649000Y-146337391D01*
X72649000Y-146662609D01*
X72712447Y-146981579D01*
X72836903Y-147282042D01*
X73017585Y-147552451D01*
X73247549Y-147782415D01*
X73333731Y-147840000D01*
X72814802Y-147840000D01*
X70160000Y-145185199D01*
X70160000Y-142553652D01*
X72314100Y-142553652D01*
X72314100Y-142846348D01*
X72371202Y-143133421D01*
X72483212Y-143403838D01*
X72645826Y-143647206D01*
X72852794Y-143854174D01*
X73096162Y-144016788D01*
X73366579Y-144128798D01*
X73653652Y-144185900D01*
X73946348Y-144185900D01*
X74233421Y-144128798D01*
X74503838Y-144016788D01*
X74747206Y-143854174D01*
X74954174Y-143647206D01*
X75116788Y-143403838D01*
X75228798Y-143133421D01*
X75285900Y-142846348D01*
X75285900Y-142553652D01*
X75268982Y-142468594D01*
X76950500Y-142468594D01*
X76950500Y-142931406D01*
X77040790Y-143385324D01*
X77217900Y-143812905D01*
X77475024Y-144197719D01*
X77802281Y-144524976D01*
X78187095Y-144782100D01*
X78614676Y-144959210D01*
X79068594Y-145049500D01*
X79531406Y-145049500D01*
X79985324Y-144959210D01*
X80412905Y-144782100D01*
X80797719Y-144524976D01*
X81124976Y-144197719D01*
X81382100Y-143812905D01*
X81559210Y-143385324D01*
X81649500Y-142931406D01*
X81649500Y-142604801D01*
X86640001Y-147595303D01*
X86640000Y-162162678D01*
X86636324Y-162200000D01*
X86640000Y-162237322D01*
X86640000Y-162237332D01*
X86650997Y-162348985D01*
X86694454Y-162492246D01*
X86765026Y-162624276D01*
X86782822Y-162645960D01*
X86859999Y-162740001D01*
X86889003Y-162763804D01*
X90236201Y-166111003D01*
X90259999Y-166140001D01*
X90288997Y-166163799D01*
X90375723Y-166234974D01*
X90501284Y-166302088D01*
X90507753Y-166305546D01*
X90651014Y-166349003D01*
X90762667Y-166360000D01*
X90762676Y-166360000D01*
X90799999Y-166363676D01*
X90837322Y-166360000D01*
X95827773Y-166360000D01*
X95836903Y-166382042D01*
X96017585Y-166652451D01*
X96247549Y-166882415D01*
X96517958Y-167063097D01*
X96818421Y-167187553D01*
X97137391Y-167251000D01*
X97462609Y-167251000D01*
X97781579Y-167187553D01*
X98082042Y-167063097D01*
X98352451Y-166882415D01*
X98582415Y-166652451D01*
X98763097Y-166382042D01*
X98887553Y-166081579D01*
X98951000Y-165762609D01*
X98951000Y-165437391D01*
X98887553Y-165118421D01*
X98763097Y-164817958D01*
X98582415Y-164547549D01*
X98352451Y-164317585D01*
X98082042Y-164136903D01*
X97781579Y-164012447D01*
X97462609Y-163949000D01*
X97137391Y-163949000D01*
X96818421Y-164012447D01*
X96517958Y-164136903D01*
X96247549Y-164317585D01*
X96017585Y-164547549D01*
X95836903Y-164817958D01*
X95827773Y-164840000D01*
X93266269Y-164840000D01*
X93352451Y-164782415D01*
X93582415Y-164552451D01*
X93763097Y-164282042D01*
X93887553Y-163981579D01*
X93939429Y-163720777D01*
X98865000Y-163720777D01*
X98865000Y-164279223D01*
X98973948Y-164826939D01*
X99187656Y-165342876D01*
X99497912Y-165807207D01*
X99892793Y-166202088D01*
X100357124Y-166512344D01*
X100873061Y-166726052D01*
X101420777Y-166835000D01*
X101979223Y-166835000D01*
X102526939Y-166726052D01*
X103042876Y-166512344D01*
X103507207Y-166202088D01*
X103902088Y-165807207D01*
X104212344Y-165342876D01*
X104426052Y-164826939D01*
X104535000Y-164279223D01*
X104535000Y-163720777D01*
X104426052Y-163173061D01*
X104212344Y-162657124D01*
X103902088Y-162192793D01*
X103507207Y-161797912D01*
X103042876Y-161487656D01*
X102526939Y-161273948D01*
X101979223Y-161165000D01*
X101420777Y-161165000D01*
X100873061Y-161273948D01*
X100357124Y-161487656D01*
X99892793Y-161797912D01*
X99497912Y-162192793D01*
X99187656Y-162657124D01*
X98973948Y-163173061D01*
X98865000Y-163720777D01*
X93939429Y-163720777D01*
X93951000Y-163662609D01*
X93951000Y-163337391D01*
X93887553Y-163018421D01*
X93763097Y-162717958D01*
X93582415Y-162447549D01*
X93352451Y-162217585D01*
X93082042Y-162036903D01*
X92781579Y-161912447D01*
X92462609Y-161849000D01*
X92137391Y-161849000D01*
X91818421Y-161912447D01*
X91517958Y-162036903D01*
X91247549Y-162217585D01*
X91017585Y-162447549D01*
X90836903Y-162717958D01*
X90712447Y-163018421D01*
X90649000Y-163337391D01*
X90649000Y-163662609D01*
X90712447Y-163981579D01*
X90836903Y-164282042D01*
X91017585Y-164552451D01*
X91247549Y-164782415D01*
X91333731Y-164840000D01*
X91114802Y-164840000D01*
X88160000Y-161885199D01*
X88160000Y-159553652D01*
X90314100Y-159553652D01*
X90314100Y-159846348D01*
X90371202Y-160133421D01*
X90483212Y-160403838D01*
X90645826Y-160647206D01*
X90852794Y-160854174D01*
X91096162Y-161016788D01*
X91366579Y-161128798D01*
X91653652Y-161185900D01*
X91946348Y-161185900D01*
X92233421Y-161128798D01*
X92503838Y-161016788D01*
X92747206Y-160854174D01*
X92954174Y-160647206D01*
X93116788Y-160403838D01*
X93228798Y-160133421D01*
X93285900Y-159846348D01*
X93285900Y-159553652D01*
X93268982Y-159468594D01*
X94950500Y-159468594D01*
X94950500Y-159931406D01*
X95040790Y-160385324D01*
X95217900Y-160812905D01*
X95475024Y-161197719D01*
X95802281Y-161524976D01*
X96187095Y-161782100D01*
X96614676Y-161959210D01*
X97068594Y-162049500D01*
X97531406Y-162049500D01*
X97985324Y-161959210D01*
X98412905Y-161782100D01*
X98797719Y-161524976D01*
X99124976Y-161197719D01*
X99382100Y-160812905D01*
X99559210Y-160385324D01*
X99649500Y-159931406D01*
X99649500Y-159553652D01*
X101314100Y-159553652D01*
X101314100Y-159846348D01*
X101371202Y-160133421D01*
X101483212Y-160403838D01*
X101645826Y-160647206D01*
X101852794Y-160854174D01*
X102096162Y-161016788D01*
X102366579Y-161128798D01*
X102653652Y-161185900D01*
X102946348Y-161185900D01*
X103233421Y-161128798D01*
X103503838Y-161016788D01*
X103747206Y-160854174D01*
X103954174Y-160647206D01*
X104116788Y-160403838D01*
X104228798Y-160133421D01*
X104285900Y-159846348D01*
X104285900Y-159553652D01*
X104228798Y-159266579D01*
X104116788Y-158996162D01*
X103954174Y-158752794D01*
X103747206Y-158545826D01*
X103503838Y-158383212D01*
X103233421Y-158271202D01*
X102946348Y-158214100D01*
X102653652Y-158214100D01*
X102366579Y-158271202D01*
X102096162Y-158383212D01*
X101852794Y-158545826D01*
X101645826Y-158752794D01*
X101483212Y-158996162D01*
X101371202Y-159266579D01*
X101314100Y-159553652D01*
X99649500Y-159553652D01*
X99649500Y-159468594D01*
X99559210Y-159014676D01*
X99382100Y-158587095D01*
X99124976Y-158202281D01*
X98797719Y-157875024D01*
X98412905Y-157617900D01*
X97985324Y-157440790D01*
X97531406Y-157350500D01*
X97068594Y-157350500D01*
X96614676Y-157440790D01*
X96187095Y-157617900D01*
X95802281Y-157875024D01*
X95475024Y-158202281D01*
X95217900Y-158587095D01*
X95040790Y-159014676D01*
X94950500Y-159468594D01*
X93268982Y-159468594D01*
X93228798Y-159266579D01*
X93116788Y-158996162D01*
X92954174Y-158752794D01*
X92747206Y-158545826D01*
X92503838Y-158383212D01*
X92233421Y-158271202D01*
X91946348Y-158214100D01*
X91653652Y-158214100D01*
X91366579Y-158271202D01*
X91096162Y-158383212D01*
X90852794Y-158545826D01*
X90645826Y-158752794D01*
X90483212Y-158996162D01*
X90371202Y-159266579D01*
X90314100Y-159553652D01*
X88160000Y-159553652D01*
X88160000Y-155388675D01*
X90949700Y-155388675D01*
X90949700Y-155611325D01*
X90993137Y-155829696D01*
X91078341Y-156035398D01*
X91202039Y-156220524D01*
X91359476Y-156377961D01*
X91544602Y-156501659D01*
X91750304Y-156586863D01*
X91968675Y-156630300D01*
X92191325Y-156630300D01*
X92409696Y-156586863D01*
X92615398Y-156501659D01*
X92800524Y-156377961D01*
X92957961Y-156220524D01*
X93081659Y-156035398D01*
X93166863Y-155829696D01*
X93210300Y-155611325D01*
X93210300Y-155388675D01*
X101389700Y-155388675D01*
X101389700Y-155611325D01*
X101433137Y-155829696D01*
X101518341Y-156035398D01*
X101642039Y-156220524D01*
X101799476Y-156377961D01*
X101984602Y-156501659D01*
X102190304Y-156586863D01*
X102408675Y-156630300D01*
X102631325Y-156630300D01*
X102849696Y-156586863D01*
X103055398Y-156501659D01*
X103240524Y-156377961D01*
X103397961Y-156220524D01*
X103521659Y-156035398D01*
X103606863Y-155829696D01*
X103650300Y-155611325D01*
X103650300Y-155388675D01*
X103606863Y-155170304D01*
X103521659Y-154964602D01*
X103397961Y-154779476D01*
X103240524Y-154622039D01*
X103055398Y-154498341D01*
X102849696Y-154413137D01*
X102631325Y-154369700D01*
X102408675Y-154369700D01*
X102190304Y-154413137D01*
X101984602Y-154498341D01*
X101799476Y-154622039D01*
X101642039Y-154779476D01*
X101518341Y-154964602D01*
X101433137Y-155170304D01*
X101389700Y-155388675D01*
X93210300Y-155388675D01*
X93166863Y-155170304D01*
X93081659Y-154964602D01*
X92957961Y-154779476D01*
X92800524Y-154622039D01*
X92615398Y-154498341D01*
X92409696Y-154413137D01*
X92191325Y-154369700D01*
X91968675Y-154369700D01*
X91750304Y-154413137D01*
X91544602Y-154498341D01*
X91359476Y-154622039D01*
X91202039Y-154779476D01*
X91078341Y-154964602D01*
X90993137Y-155170304D01*
X90949700Y-155388675D01*
X88160000Y-155388675D01*
X88160000Y-148437391D01*
X95649000Y-148437391D01*
X95649000Y-148762609D01*
X95712447Y-149081579D01*
X95836903Y-149382042D01*
X96017585Y-149652451D01*
X96247549Y-149882415D01*
X96517958Y-150063097D01*
X96818421Y-150187553D01*
X97137391Y-150251000D01*
X97462609Y-150251000D01*
X97781579Y-150187553D01*
X98082042Y-150063097D01*
X98352451Y-149882415D01*
X98582415Y-149652451D01*
X98763097Y-149382042D01*
X98887553Y-149081579D01*
X98951000Y-148762609D01*
X98951000Y-148437391D01*
X98887553Y-148118421D01*
X98763097Y-147817958D01*
X98582415Y-147547549D01*
X98352451Y-147317585D01*
X98082042Y-147136903D01*
X97781579Y-147012447D01*
X97462609Y-146949000D01*
X97137391Y-146949000D01*
X96818421Y-147012447D01*
X96517958Y-147136903D01*
X96247549Y-147317585D01*
X96017585Y-147547549D01*
X95836903Y-147817958D01*
X95712447Y-148118421D01*
X95649000Y-148437391D01*
X88160000Y-148437391D01*
X88160000Y-147317822D01*
X88163676Y-147280499D01*
X88160000Y-147243177D01*
X88160000Y-147243167D01*
X88149003Y-147131514D01*
X88105546Y-146988253D01*
X88084565Y-146949000D01*
X88034974Y-146856223D01*
X87963799Y-146769497D01*
X87940001Y-146740499D01*
X87911003Y-146716701D01*
X87531693Y-146337391D01*
X90649000Y-146337391D01*
X90649000Y-146662609D01*
X90712447Y-146981579D01*
X90836903Y-147282042D01*
X91017585Y-147552451D01*
X91247549Y-147782415D01*
X91517958Y-147963097D01*
X91818421Y-148087553D01*
X92137391Y-148151000D01*
X92462609Y-148151000D01*
X92781579Y-148087553D01*
X93082042Y-147963097D01*
X93352451Y-147782415D01*
X93582415Y-147552451D01*
X93763097Y-147282042D01*
X93887553Y-146981579D01*
X93951000Y-146662609D01*
X93951000Y-146337391D01*
X93887553Y-146018421D01*
X93763097Y-145717958D01*
X93582415Y-145447549D01*
X93352451Y-145217585D01*
X93082042Y-145036903D01*
X92781579Y-144912447D01*
X92462609Y-144849000D01*
X92137391Y-144849000D01*
X91818421Y-144912447D01*
X91517958Y-145036903D01*
X91247549Y-145217585D01*
X91017585Y-145447549D01*
X90836903Y-145717958D01*
X90712447Y-146018421D01*
X90649000Y-146337391D01*
X87531693Y-146337391D01*
X85296833Y-144102532D01*
X85503838Y-144016788D01*
X85747206Y-143854174D01*
X85954174Y-143647206D01*
X86116788Y-143403838D01*
X86228798Y-143133421D01*
X86285900Y-142846348D01*
X86285900Y-142553652D01*
X90314100Y-142553652D01*
X90314100Y-142846348D01*
X90371202Y-143133421D01*
X90483212Y-143403838D01*
X90645826Y-143647206D01*
X90852794Y-143854174D01*
X91096162Y-144016788D01*
X91366579Y-144128798D01*
X91653652Y-144185900D01*
X91946348Y-144185900D01*
X92233421Y-144128798D01*
X92503838Y-144016788D01*
X92747206Y-143854174D01*
X92954174Y-143647206D01*
X93116788Y-143403838D01*
X93228798Y-143133421D01*
X93285900Y-142846348D01*
X93285900Y-142553652D01*
X93268982Y-142468594D01*
X94950500Y-142468594D01*
X94950500Y-142931406D01*
X95040790Y-143385324D01*
X95217900Y-143812905D01*
X95475024Y-144197719D01*
X95802281Y-144524976D01*
X96187095Y-144782100D01*
X96614676Y-144959210D01*
X97068594Y-145049500D01*
X97531406Y-145049500D01*
X97985324Y-144959210D01*
X98412905Y-144782100D01*
X98797719Y-144524976D01*
X99124976Y-144197719D01*
X99382100Y-143812905D01*
X99559210Y-143385324D01*
X99649500Y-142931406D01*
X99649500Y-142553652D01*
X101314100Y-142553652D01*
X101314100Y-142846348D01*
X101371202Y-143133421D01*
X101483212Y-143403838D01*
X101645826Y-143647206D01*
X101852794Y-143854174D01*
X102096162Y-144016788D01*
X102366579Y-144128798D01*
X102653652Y-144185900D01*
X102946348Y-144185900D01*
X103233421Y-144128798D01*
X103503838Y-144016788D01*
X103747206Y-143854174D01*
X103954174Y-143647206D01*
X104116788Y-143403838D01*
X104228798Y-143133421D01*
X104285900Y-142846348D01*
X104285900Y-142553652D01*
X104228798Y-142266579D01*
X104116788Y-141996162D01*
X103954174Y-141752794D01*
X103747206Y-141545826D01*
X103503838Y-141383212D01*
X103233421Y-141271202D01*
X102946348Y-141214100D01*
X102653652Y-141214100D01*
X102366579Y-141271202D01*
X102096162Y-141383212D01*
X101852794Y-141545826D01*
X101645826Y-141752794D01*
X101483212Y-141996162D01*
X101371202Y-142266579D01*
X101314100Y-142553652D01*
X99649500Y-142553652D01*
X99649500Y-142468594D01*
X99559210Y-142014676D01*
X99382100Y-141587095D01*
X99124976Y-141202281D01*
X98797719Y-140875024D01*
X98412905Y-140617900D01*
X97985324Y-140440790D01*
X97531406Y-140350500D01*
X97068594Y-140350500D01*
X96614676Y-140440790D01*
X96187095Y-140617900D01*
X95802281Y-140875024D01*
X95475024Y-141202281D01*
X95217900Y-141587095D01*
X95040790Y-142014676D01*
X94950500Y-142468594D01*
X93268982Y-142468594D01*
X93228798Y-142266579D01*
X93116788Y-141996162D01*
X92954174Y-141752794D01*
X92747206Y-141545826D01*
X92503838Y-141383212D01*
X92233421Y-141271202D01*
X91946348Y-141214100D01*
X91653652Y-141214100D01*
X91366579Y-141271202D01*
X91096162Y-141383212D01*
X90852794Y-141545826D01*
X90645826Y-141752794D01*
X90483212Y-141996162D01*
X90371202Y-142266579D01*
X90314100Y-142553652D01*
X86285900Y-142553652D01*
X86228798Y-142266579D01*
X86116788Y-141996162D01*
X85954174Y-141752794D01*
X85747206Y-141545826D01*
X85503838Y-141383212D01*
X85233421Y-141271202D01*
X84946348Y-141214100D01*
X84653652Y-141214100D01*
X84366579Y-141271202D01*
X84096162Y-141383212D01*
X83852794Y-141545826D01*
X83645826Y-141752794D01*
X83483212Y-141996162D01*
X83397468Y-142203167D01*
X82315000Y-141120699D01*
X82315000Y-141058561D01*
X82275226Y-140858602D01*
X82197205Y-140670244D01*
X82083937Y-140500726D01*
X81939774Y-140356563D01*
X81770256Y-140243295D01*
X81581898Y-140165274D01*
X81381939Y-140125500D01*
X81178061Y-140125500D01*
X80978102Y-140165274D01*
X80789744Y-140243295D01*
X80620226Y-140356563D01*
X80476063Y-140500726D01*
X80401051Y-140612990D01*
X79985324Y-140440790D01*
X79531406Y-140350500D01*
X79068594Y-140350500D01*
X78614676Y-140440790D01*
X78187095Y-140617900D01*
X77802281Y-140875024D01*
X77475024Y-141202281D01*
X77217900Y-141587095D01*
X77040790Y-142014676D01*
X76950500Y-142468594D01*
X75268982Y-142468594D01*
X75228798Y-142266579D01*
X75116788Y-141996162D01*
X74954174Y-141752794D01*
X74747206Y-141545826D01*
X74503838Y-141383212D01*
X74233421Y-141271202D01*
X73946348Y-141214100D01*
X73653652Y-141214100D01*
X73366579Y-141271202D01*
X73096162Y-141383212D01*
X72852794Y-141545826D01*
X72645826Y-141752794D01*
X72483212Y-141996162D01*
X72371202Y-142266579D01*
X72314100Y-142553652D01*
X70160000Y-142553652D01*
X70160000Y-138388675D01*
X72949700Y-138388675D01*
X72949700Y-138611325D01*
X72993137Y-138829696D01*
X73078341Y-139035398D01*
X73202039Y-139220524D01*
X73359476Y-139377961D01*
X73544602Y-139501659D01*
X73750304Y-139586863D01*
X73968675Y-139630300D01*
X74191325Y-139630300D01*
X74409696Y-139586863D01*
X74615398Y-139501659D01*
X74800524Y-139377961D01*
X74957961Y-139220524D01*
X75081659Y-139035398D01*
X75166863Y-138829696D01*
X75210300Y-138611325D01*
X75210300Y-138388675D01*
X83389700Y-138388675D01*
X83389700Y-138611325D01*
X83433137Y-138829696D01*
X83518341Y-139035398D01*
X83642039Y-139220524D01*
X83799476Y-139377961D01*
X83984602Y-139501659D01*
X84190304Y-139586863D01*
X84408675Y-139630300D01*
X84631325Y-139630300D01*
X84849696Y-139586863D01*
X85055398Y-139501659D01*
X85240524Y-139377961D01*
X85397961Y-139220524D01*
X85521659Y-139035398D01*
X85606863Y-138829696D01*
X85650300Y-138611325D01*
X85650300Y-138388675D01*
X90949700Y-138388675D01*
X90949700Y-138611325D01*
X90993137Y-138829696D01*
X91078341Y-139035398D01*
X91202039Y-139220524D01*
X91359476Y-139377961D01*
X91544602Y-139501659D01*
X91750304Y-139586863D01*
X91968675Y-139630300D01*
X92191325Y-139630300D01*
X92409696Y-139586863D01*
X92615398Y-139501659D01*
X92800524Y-139377961D01*
X92957961Y-139220524D01*
X93081659Y-139035398D01*
X93166863Y-138829696D01*
X93210300Y-138611325D01*
X93210300Y-138388675D01*
X101389700Y-138388675D01*
X101389700Y-138611325D01*
X101433137Y-138829696D01*
X101518341Y-139035398D01*
X101642039Y-139220524D01*
X101799476Y-139377961D01*
X101984602Y-139501659D01*
X102190304Y-139586863D01*
X102408675Y-139630300D01*
X102631325Y-139630300D01*
X102849696Y-139586863D01*
X103055398Y-139501659D01*
X103240524Y-139377961D01*
X103397961Y-139220524D01*
X103521659Y-139035398D01*
X103606863Y-138829696D01*
X103650300Y-138611325D01*
X103650300Y-138388675D01*
X103606863Y-138170304D01*
X103521659Y-137964602D01*
X103397961Y-137779476D01*
X103240524Y-137622039D01*
X103055398Y-137498341D01*
X102849696Y-137413137D01*
X102631325Y-137369700D01*
X102408675Y-137369700D01*
X102190304Y-137413137D01*
X101984602Y-137498341D01*
X101799476Y-137622039D01*
X101642039Y-137779476D01*
X101518341Y-137964602D01*
X101433137Y-138170304D01*
X101389700Y-138388675D01*
X93210300Y-138388675D01*
X93166863Y-138170304D01*
X93081659Y-137964602D01*
X92957961Y-137779476D01*
X92800524Y-137622039D01*
X92615398Y-137498341D01*
X92409696Y-137413137D01*
X92191325Y-137369700D01*
X91968675Y-137369700D01*
X91750304Y-137413137D01*
X91544602Y-137498341D01*
X91359476Y-137622039D01*
X91202039Y-137779476D01*
X91078341Y-137964602D01*
X90993137Y-138170304D01*
X90949700Y-138388675D01*
X85650300Y-138388675D01*
X85606863Y-138170304D01*
X85521659Y-137964602D01*
X85397961Y-137779476D01*
X85240524Y-137622039D01*
X85055398Y-137498341D01*
X84849696Y-137413137D01*
X84631325Y-137369700D01*
X84408675Y-137369700D01*
X84190304Y-137413137D01*
X83984602Y-137498341D01*
X83799476Y-137622039D01*
X83642039Y-137779476D01*
X83518341Y-137964602D01*
X83433137Y-138170304D01*
X83389700Y-138388675D01*
X75210300Y-138388675D01*
X75166863Y-138170304D01*
X75081659Y-137964602D01*
X74957961Y-137779476D01*
X74800524Y-137622039D01*
X74615398Y-137498341D01*
X74409696Y-137413137D01*
X74191325Y-137369700D01*
X73968675Y-137369700D01*
X73750304Y-137413137D01*
X73544602Y-137498341D01*
X73359476Y-137622039D01*
X73202039Y-137779476D01*
X73078341Y-137964602D01*
X72993137Y-138170304D01*
X72949700Y-138388675D01*
X70160000Y-138388675D01*
X70160000Y-132437323D01*
X70163676Y-132400000D01*
X70160000Y-132362677D01*
X70160000Y-132362667D01*
X70149003Y-132251014D01*
X70105546Y-132107753D01*
X70060926Y-132024276D01*
X70034974Y-131975723D01*
X69963799Y-131888997D01*
X69940001Y-131859999D01*
X69911003Y-131836201D01*
X67412193Y-129337391D01*
X72649000Y-129337391D01*
X72649000Y-129662609D01*
X72712447Y-129981579D01*
X72836903Y-130282042D01*
X73017585Y-130552451D01*
X73247549Y-130782415D01*
X73517958Y-130963097D01*
X73818421Y-131087553D01*
X74137391Y-131151000D01*
X74462609Y-131151000D01*
X74781579Y-131087553D01*
X75082042Y-130963097D01*
X75352451Y-130782415D01*
X75582415Y-130552451D01*
X75763097Y-130282042D01*
X75887553Y-129981579D01*
X75951000Y-129662609D01*
X75951000Y-129337391D01*
X75887553Y-129018421D01*
X75763097Y-128717958D01*
X75582415Y-128447549D01*
X75352451Y-128217585D01*
X75082042Y-128036903D01*
X74781579Y-127912447D01*
X74462609Y-127849000D01*
X74137391Y-127849000D01*
X73818421Y-127912447D01*
X73517958Y-128036903D01*
X73247549Y-128217585D01*
X73017585Y-128447549D01*
X72836903Y-128717958D01*
X72712447Y-129018421D01*
X72649000Y-129337391D01*
X67412193Y-129337391D01*
X64860000Y-126785199D01*
X64860000Y-125553652D01*
X65314100Y-125553652D01*
X65314100Y-125846348D01*
X65371202Y-126133421D01*
X65483212Y-126403838D01*
X65645826Y-126647206D01*
X65852794Y-126854174D01*
X66096162Y-127016788D01*
X66366579Y-127128798D01*
X66653652Y-127185900D01*
X66946348Y-127185900D01*
X67233421Y-127128798D01*
X67503838Y-127016788D01*
X67747206Y-126854174D01*
X67954174Y-126647206D01*
X68116788Y-126403838D01*
X68228798Y-126133421D01*
X68285900Y-125846348D01*
X68285900Y-125553652D01*
X72314100Y-125553652D01*
X72314100Y-125846348D01*
X72371202Y-126133421D01*
X72483212Y-126403838D01*
X72645826Y-126647206D01*
X72852794Y-126854174D01*
X73096162Y-127016788D01*
X73366579Y-127128798D01*
X73653652Y-127185900D01*
X73946348Y-127185900D01*
X74233421Y-127128798D01*
X74503838Y-127016788D01*
X74747206Y-126854174D01*
X74954174Y-126647206D01*
X75116788Y-126403838D01*
X75228798Y-126133421D01*
X75285900Y-125846348D01*
X75285900Y-125553652D01*
X75228798Y-125266579D01*
X75116788Y-124996162D01*
X74954174Y-124752794D01*
X74747206Y-124545826D01*
X74503838Y-124383212D01*
X74233421Y-124271202D01*
X73946348Y-124214100D01*
X73653652Y-124214100D01*
X73366579Y-124271202D01*
X73096162Y-124383212D01*
X72852794Y-124545826D01*
X72645826Y-124752794D01*
X72483212Y-124996162D01*
X72371202Y-125266579D01*
X72314100Y-125553652D01*
X68285900Y-125553652D01*
X68228798Y-125266579D01*
X68116788Y-124996162D01*
X67954174Y-124752794D01*
X67747206Y-124545826D01*
X67503838Y-124383212D01*
X67233421Y-124271202D01*
X66946348Y-124214100D01*
X66653652Y-124214100D01*
X66366579Y-124271202D01*
X66096162Y-124383212D01*
X65852794Y-124545826D01*
X65645826Y-124752794D01*
X65483212Y-124996162D01*
X65371202Y-125266579D01*
X65314100Y-125553652D01*
X64860000Y-125553652D01*
X64860000Y-125516211D01*
X64875437Y-125500774D01*
X64988705Y-125331256D01*
X65066726Y-125142898D01*
X65106500Y-124942939D01*
X65106500Y-124739061D01*
X65066726Y-124539102D01*
X64988705Y-124350744D01*
X64875437Y-124181226D01*
X64731274Y-124037063D01*
X64561756Y-123923795D01*
X64373398Y-123845774D01*
X64173439Y-123806000D01*
X63969561Y-123806000D01*
X63769602Y-123845774D01*
X63581244Y-123923795D01*
X63411726Y-124037063D01*
X63267563Y-124181226D01*
X63189235Y-124298452D01*
X63124976Y-124202281D01*
X62797719Y-123875024D01*
X62412905Y-123617900D01*
X61985324Y-123440790D01*
X61531406Y-123350500D01*
X61068594Y-123350500D01*
X60614676Y-123440790D01*
X60187095Y-123617900D01*
X59802281Y-123875024D01*
X59475024Y-124202281D01*
X59217900Y-124587095D01*
X59040790Y-125014676D01*
X58950500Y-125468594D01*
X58860000Y-125468594D01*
X58860000Y-121388675D01*
X65389700Y-121388675D01*
X65389700Y-121611325D01*
X65433137Y-121829696D01*
X65518341Y-122035398D01*
X65642039Y-122220524D01*
X65799476Y-122377961D01*
X65984602Y-122501659D01*
X66190304Y-122586863D01*
X66408675Y-122630300D01*
X66631325Y-122630300D01*
X66849696Y-122586863D01*
X67055398Y-122501659D01*
X67240524Y-122377961D01*
X67397961Y-122220524D01*
X67521659Y-122035398D01*
X67606863Y-121829696D01*
X67650300Y-121611325D01*
X67650300Y-121388675D01*
X72949700Y-121388675D01*
X72949700Y-121611325D01*
X72993137Y-121829696D01*
X73078341Y-122035398D01*
X73202039Y-122220524D01*
X73359476Y-122377961D01*
X73544602Y-122501659D01*
X73750304Y-122586863D01*
X73968675Y-122630300D01*
X74191325Y-122630300D01*
X74409696Y-122586863D01*
X74615398Y-122501659D01*
X74800524Y-122377961D01*
X74957961Y-122220524D01*
X75081659Y-122035398D01*
X75166863Y-121829696D01*
X75210300Y-121611325D01*
X75210300Y-121388675D01*
X75166863Y-121170304D01*
X75081659Y-120964602D01*
X74957961Y-120779476D01*
X74800524Y-120622039D01*
X74615398Y-120498341D01*
X74409696Y-120413137D01*
X74191325Y-120369700D01*
X73968675Y-120369700D01*
X73750304Y-120413137D01*
X73544602Y-120498341D01*
X73359476Y-120622039D01*
X73202039Y-120779476D01*
X73078341Y-120964602D01*
X72993137Y-121170304D01*
X72949700Y-121388675D01*
X67650300Y-121388675D01*
X67606863Y-121170304D01*
X67521659Y-120964602D01*
X67397961Y-120779476D01*
X67240524Y-120622039D01*
X67055398Y-120498341D01*
X66849696Y-120413137D01*
X66631325Y-120369700D01*
X66408675Y-120369700D01*
X66190304Y-120413137D01*
X65984602Y-120498341D01*
X65799476Y-120622039D01*
X65642039Y-120779476D01*
X65518341Y-120964602D01*
X65433137Y-121170304D01*
X65389700Y-121388675D01*
X58860000Y-121388675D01*
X58860000Y-115314801D01*
X59649000Y-114525802D01*
X59649000Y-114762609D01*
X59712447Y-115081579D01*
X59836903Y-115382042D01*
X60017585Y-115652451D01*
X60247549Y-115882415D01*
X60517958Y-116063097D01*
X60818421Y-116187553D01*
X61137391Y-116251000D01*
X61462609Y-116251000D01*
X61781579Y-116187553D01*
X62082042Y-116063097D01*
X62352451Y-115882415D01*
X62582415Y-115652451D01*
X62763097Y-115382042D01*
X62772227Y-115360000D01*
X65362678Y-115360000D01*
X65400000Y-115363676D01*
X65437322Y-115360000D01*
X65437333Y-115360000D01*
X65548986Y-115349003D01*
X65692247Y-115305546D01*
X65824276Y-115234974D01*
X65940001Y-115140001D01*
X65963804Y-115110997D01*
X68737410Y-112337391D01*
X72649000Y-112337391D01*
X72649000Y-112662609D01*
X72712447Y-112981579D01*
X72836903Y-113282042D01*
X73017585Y-113552451D01*
X73247549Y-113782415D01*
X73517958Y-113963097D01*
X73818421Y-114087553D01*
X74137391Y-114151000D01*
X74462609Y-114151000D01*
X74781579Y-114087553D01*
X75082042Y-113963097D01*
X75352451Y-113782415D01*
X75582415Y-113552451D01*
X75763097Y-113282042D01*
X75887553Y-112981579D01*
X75951000Y-112662609D01*
X75951000Y-112337391D01*
X75887553Y-112018421D01*
X75763097Y-111717958D01*
X75582415Y-111447549D01*
X75352451Y-111217585D01*
X75082042Y-111036903D01*
X74781579Y-110912447D01*
X74462609Y-110849000D01*
X74137391Y-110849000D01*
X73818421Y-110912447D01*
X73517958Y-111036903D01*
X73247549Y-111217585D01*
X73017585Y-111447549D01*
X72836903Y-111717958D01*
X72712447Y-112018421D01*
X72649000Y-112337391D01*
X68737410Y-112337391D01*
X69311003Y-111763799D01*
X69340001Y-111740001D01*
X69366332Y-111707917D01*
X69434974Y-111624277D01*
X69505546Y-111492247D01*
X69531176Y-111407754D01*
X69549003Y-111348986D01*
X69560000Y-111237333D01*
X69560000Y-111237324D01*
X69563676Y-111200001D01*
X69560000Y-111162678D01*
X69560000Y-108553652D01*
X72314100Y-108553652D01*
X72314100Y-108846348D01*
X72371202Y-109133421D01*
X72483212Y-109403838D01*
X72645826Y-109647206D01*
X72852794Y-109854174D01*
X73096162Y-110016788D01*
X73366579Y-110128798D01*
X73653652Y-110185900D01*
X73946348Y-110185900D01*
X74233421Y-110128798D01*
X74503838Y-110016788D01*
X74747206Y-109854174D01*
X74954174Y-109647206D01*
X75116788Y-109403838D01*
X75228798Y-109133421D01*
X75285900Y-108846348D01*
X75285900Y-108553652D01*
X75268982Y-108468594D01*
X76950500Y-108468594D01*
X76950500Y-108931406D01*
X77040790Y-109385324D01*
X77217900Y-109812905D01*
X77475024Y-110197719D01*
X77802281Y-110524976D01*
X78187095Y-110782100D01*
X78614676Y-110959210D01*
X79068594Y-111049500D01*
X79531406Y-111049500D01*
X79985324Y-110959210D01*
X80412905Y-110782100D01*
X80797719Y-110524976D01*
X81124976Y-110197719D01*
X81382100Y-109812905D01*
X81559210Y-109385324D01*
X81649500Y-108931406D01*
X81649500Y-108468594D01*
X81559210Y-108014676D01*
X81382100Y-107587095D01*
X81124976Y-107202281D01*
X80797719Y-106875024D01*
X80412905Y-106617900D01*
X79985324Y-106440790D01*
X79531406Y-106350500D01*
X79068594Y-106350500D01*
X78614676Y-106440790D01*
X78187095Y-106617900D01*
X77802281Y-106875024D01*
X77475024Y-107202281D01*
X77217900Y-107587095D01*
X77040790Y-108014676D01*
X76950500Y-108468594D01*
X75268982Y-108468594D01*
X75228798Y-108266579D01*
X75116788Y-107996162D01*
X74954174Y-107752794D01*
X74747206Y-107545826D01*
X74503838Y-107383212D01*
X74233421Y-107271202D01*
X73946348Y-107214100D01*
X73653652Y-107214100D01*
X73366579Y-107271202D01*
X73096162Y-107383212D01*
X72852794Y-107545826D01*
X72645826Y-107752794D01*
X72483212Y-107996162D01*
X72371202Y-108266579D01*
X72314100Y-108553652D01*
X69560000Y-108553652D01*
X69560000Y-107803711D01*
X69603937Y-107759774D01*
X69717205Y-107590256D01*
X69795226Y-107401898D01*
X69835000Y-107201939D01*
X69835000Y-106998061D01*
X69795226Y-106798102D01*
X69717205Y-106609744D01*
X69603937Y-106440226D01*
X69459774Y-106296063D01*
X69290256Y-106182795D01*
X69101898Y-106104774D01*
X68901939Y-106065000D01*
X68698061Y-106065000D01*
X68498102Y-106104774D01*
X68309744Y-106182795D01*
X68140226Y-106296063D01*
X67996063Y-106440226D01*
X67882795Y-106609744D01*
X67804774Y-106798102D01*
X67765000Y-106998061D01*
X67765000Y-107201939D01*
X67804774Y-107401898D01*
X67882795Y-107590256D01*
X67996063Y-107759774D01*
X68040000Y-107803711D01*
X68040000Y-107881241D01*
X67954174Y-107752794D01*
X67747206Y-107545826D01*
X67503838Y-107383212D01*
X67233421Y-107271202D01*
X66946348Y-107214100D01*
X66653652Y-107214100D01*
X66366579Y-107271202D01*
X66096162Y-107383212D01*
X65852794Y-107545826D01*
X65645826Y-107752794D01*
X65483212Y-107996162D01*
X65371202Y-108266579D01*
X65314100Y-108553652D01*
X65314100Y-108846348D01*
X65371202Y-109133421D01*
X65483212Y-109403838D01*
X65645826Y-109647206D01*
X65852794Y-109854174D01*
X66096162Y-110016788D01*
X66366579Y-110128798D01*
X66653652Y-110185900D01*
X66946348Y-110185900D01*
X67233421Y-110128798D01*
X67503838Y-110016788D01*
X67747206Y-109854174D01*
X67954174Y-109647206D01*
X68040001Y-109518758D01*
X68040001Y-110885197D01*
X65085199Y-113840000D01*
X62772227Y-113840000D01*
X62763097Y-113817958D01*
X62582415Y-113547549D01*
X62352451Y-113317585D01*
X62082042Y-113136903D01*
X61781579Y-113012447D01*
X61462609Y-112949000D01*
X61225803Y-112949000D01*
X61614803Y-112560000D01*
X62862678Y-112560000D01*
X62900000Y-112563676D01*
X62937322Y-112560000D01*
X62937333Y-112560000D01*
X63048986Y-112549003D01*
X63192247Y-112505546D01*
X63324276Y-112434974D01*
X63440001Y-112340001D01*
X63463804Y-112310997D01*
X64339802Y-111435000D01*
X64401939Y-111435000D01*
X64601898Y-111395226D01*
X64790256Y-111317205D01*
X64959774Y-111203937D01*
X65103937Y-111059774D01*
X65217205Y-110890256D01*
X65295226Y-110701898D01*
X65335000Y-110501939D01*
X65335000Y-110298061D01*
X65295226Y-110098102D01*
X65217205Y-109909744D01*
X65103937Y-109740226D01*
X64959774Y-109596063D01*
X64790256Y-109482795D01*
X64601898Y-109404774D01*
X64401939Y-109365000D01*
X64198061Y-109365000D01*
X63998102Y-109404774D01*
X63809744Y-109482795D01*
X63640226Y-109596063D01*
X63496063Y-109740226D01*
X63382795Y-109909744D01*
X63304774Y-110098102D01*
X63265000Y-110298061D01*
X63265000Y-110360198D01*
X62585199Y-111040000D01*
X61579166Y-111040000D01*
X61985324Y-110959210D01*
X62412905Y-110782100D01*
X62797719Y-110524976D01*
X63124976Y-110197719D01*
X63382100Y-109812905D01*
X63559210Y-109385324D01*
X63649500Y-108931406D01*
X63649500Y-108468594D01*
X63559210Y-108014676D01*
X63382100Y-107587095D01*
X63124976Y-107202281D01*
X62797719Y-106875024D01*
X62412905Y-106617900D01*
X61985324Y-106440790D01*
X61531406Y-106350500D01*
X61068594Y-106350500D01*
X60614676Y-106440790D01*
X60187095Y-106617900D01*
X59802281Y-106875024D01*
X59475024Y-107202281D01*
X59217900Y-107587095D01*
X59040790Y-108014676D01*
X58950500Y-108468594D01*
X58950500Y-108931406D01*
X59040790Y-109385324D01*
X59217900Y-109812905D01*
X59475024Y-110197719D01*
X59802281Y-110524976D01*
X60187095Y-110782100D01*
X60614676Y-110959210D01*
X61068594Y-111049500D01*
X61166213Y-111049500D01*
X61151014Y-111050997D01*
X61007753Y-111094454D01*
X60875724Y-111165026D01*
X60875722Y-111165027D01*
X60875723Y-111165027D01*
X60788996Y-111236201D01*
X60788992Y-111236205D01*
X60759999Y-111259999D01*
X60736205Y-111288992D01*
X57588998Y-114436201D01*
X57560000Y-114459999D01*
X57536202Y-114488997D01*
X57536201Y-114488998D01*
X57465026Y-114575724D01*
X57394454Y-114707754D01*
X57350998Y-114851015D01*
X57336324Y-115000000D01*
X57340001Y-115037332D01*
X57340000Y-128209265D01*
X57082042Y-128036903D01*
X56781579Y-127912447D01*
X56462609Y-127849000D01*
X56137391Y-127849000D01*
X55818421Y-127912447D01*
X55517958Y-128036903D01*
X55247549Y-128217585D01*
X55017585Y-128447549D01*
X54836903Y-128717958D01*
X54712447Y-129018421D01*
X54649000Y-129337391D01*
X52960000Y-129337391D01*
X52960000Y-125553652D01*
X54314100Y-125553652D01*
X54314100Y-125846348D01*
X54371202Y-126133421D01*
X54483212Y-126403838D01*
X54645826Y-126647206D01*
X54852794Y-126854174D01*
X55096162Y-127016788D01*
X55366579Y-127128798D01*
X55653652Y-127185900D01*
X55946348Y-127185900D01*
X56233421Y-127128798D01*
X56503838Y-127016788D01*
X56747206Y-126854174D01*
X56954174Y-126647206D01*
X57116788Y-126403838D01*
X57228798Y-126133421D01*
X57285900Y-125846348D01*
X57285900Y-125553652D01*
X57228798Y-125266579D01*
X57116788Y-124996162D01*
X56954174Y-124752794D01*
X56747206Y-124545826D01*
X56503838Y-124383212D01*
X56233421Y-124271202D01*
X55946348Y-124214100D01*
X55653652Y-124214100D01*
X55366579Y-124271202D01*
X55096162Y-124383212D01*
X54852794Y-124545826D01*
X54645826Y-124752794D01*
X54483212Y-124996162D01*
X54371202Y-125266579D01*
X54314100Y-125553652D01*
X52960000Y-125553652D01*
X52960000Y-121388675D01*
X54949700Y-121388675D01*
X54949700Y-121611325D01*
X54993137Y-121829696D01*
X55078341Y-122035398D01*
X55202039Y-122220524D01*
X55359476Y-122377961D01*
X55544602Y-122501659D01*
X55750304Y-122586863D01*
X55968675Y-122630300D01*
X56191325Y-122630300D01*
X56409696Y-122586863D01*
X56615398Y-122501659D01*
X56800524Y-122377961D01*
X56957961Y-122220524D01*
X57081659Y-122035398D01*
X57166863Y-121829696D01*
X57210300Y-121611325D01*
X57210300Y-121388675D01*
X57166863Y-121170304D01*
X57081659Y-120964602D01*
X56957961Y-120779476D01*
X56800524Y-120622039D01*
X56615398Y-120498341D01*
X56409696Y-120413137D01*
X56191325Y-120369700D01*
X55968675Y-120369700D01*
X55750304Y-120413137D01*
X55544602Y-120498341D01*
X55359476Y-120622039D01*
X55202039Y-120779476D01*
X55078341Y-120964602D01*
X54993137Y-121170304D01*
X54949700Y-121388675D01*
X52960000Y-121388675D01*
X52960000Y-112337391D01*
X54649000Y-112337391D01*
X54649000Y-112662609D01*
X54712447Y-112981579D01*
X54836903Y-113282042D01*
X55017585Y-113552451D01*
X55247549Y-113782415D01*
X55517958Y-113963097D01*
X55818421Y-114087553D01*
X56137391Y-114151000D01*
X56462609Y-114151000D01*
X56781579Y-114087553D01*
X57082042Y-113963097D01*
X57352451Y-113782415D01*
X57582415Y-113552451D01*
X57763097Y-113282042D01*
X57887553Y-112981579D01*
X57951000Y-112662609D01*
X57951000Y-112337391D01*
X57887553Y-112018421D01*
X57763097Y-111717958D01*
X57582415Y-111447549D01*
X57352451Y-111217585D01*
X57082042Y-111036903D01*
X56781579Y-110912447D01*
X56462609Y-110849000D01*
X56137391Y-110849000D01*
X55818421Y-110912447D01*
X55517958Y-111036903D01*
X55247549Y-111217585D01*
X55017585Y-111447549D01*
X54836903Y-111717958D01*
X54712447Y-112018421D01*
X54649000Y-112337391D01*
X52960000Y-112337391D01*
X52960000Y-108553652D01*
X54314100Y-108553652D01*
X54314100Y-108846348D01*
X54371202Y-109133421D01*
X54483212Y-109403838D01*
X54645826Y-109647206D01*
X54852794Y-109854174D01*
X55096162Y-110016788D01*
X55366579Y-110128798D01*
X55653652Y-110185900D01*
X55946348Y-110185900D01*
X56233421Y-110128798D01*
X56503838Y-110016788D01*
X56747206Y-109854174D01*
X56954174Y-109647206D01*
X57116788Y-109403838D01*
X57228798Y-109133421D01*
X57285900Y-108846348D01*
X57285900Y-108553652D01*
X57228798Y-108266579D01*
X57116788Y-107996162D01*
X56954174Y-107752794D01*
X56747206Y-107545826D01*
X56503838Y-107383212D01*
X56233421Y-107271202D01*
X55946348Y-107214100D01*
X55653652Y-107214100D01*
X55366579Y-107271202D01*
X55096162Y-107383212D01*
X54852794Y-107545826D01*
X54645826Y-107752794D01*
X54483212Y-107996162D01*
X54371202Y-108266579D01*
X54314100Y-108553652D01*
X52960000Y-108553652D01*
X52960000Y-104388675D01*
X54949700Y-104388675D01*
X54949700Y-104611325D01*
X54993137Y-104829696D01*
X55078341Y-105035398D01*
X55202039Y-105220524D01*
X55359476Y-105377961D01*
X55544602Y-105501659D01*
X55750304Y-105586863D01*
X55968675Y-105630300D01*
X56191325Y-105630300D01*
X56409696Y-105586863D01*
X56615398Y-105501659D01*
X56800524Y-105377961D01*
X56957961Y-105220524D01*
X57081659Y-105035398D01*
X57166863Y-104829696D01*
X57210300Y-104611325D01*
X57210300Y-104388675D01*
X65389700Y-104388675D01*
X65389700Y-104611325D01*
X65433137Y-104829696D01*
X65518341Y-105035398D01*
X65642039Y-105220524D01*
X65799476Y-105377961D01*
X65984602Y-105501659D01*
X66190304Y-105586863D01*
X66408675Y-105630300D01*
X66631325Y-105630300D01*
X66849696Y-105586863D01*
X67055398Y-105501659D01*
X67240524Y-105377961D01*
X67397961Y-105220524D01*
X67521659Y-105035398D01*
X67606863Y-104829696D01*
X67650300Y-104611325D01*
X67650300Y-104388675D01*
X72949700Y-104388675D01*
X72949700Y-104611325D01*
X72993137Y-104829696D01*
X73078341Y-105035398D01*
X73202039Y-105220524D01*
X73359476Y-105377961D01*
X73544602Y-105501659D01*
X73750304Y-105586863D01*
X73968675Y-105630300D01*
X74191325Y-105630300D01*
X74409696Y-105586863D01*
X74615398Y-105501659D01*
X74800524Y-105377961D01*
X74957961Y-105220524D01*
X75081659Y-105035398D01*
X75166863Y-104829696D01*
X75210300Y-104611325D01*
X75210300Y-104388675D01*
X83389700Y-104388675D01*
X83389700Y-104611325D01*
X83433137Y-104829696D01*
X83518341Y-105035398D01*
X83642039Y-105220524D01*
X83799476Y-105377961D01*
X83984602Y-105501659D01*
X84190304Y-105586863D01*
X84408675Y-105630300D01*
X84631325Y-105630300D01*
X84849696Y-105586863D01*
X85055398Y-105501659D01*
X85240524Y-105377961D01*
X85397961Y-105220524D01*
X85521659Y-105035398D01*
X85606863Y-104829696D01*
X85650300Y-104611325D01*
X85650300Y-104388675D01*
X85606863Y-104170304D01*
X85521659Y-103964602D01*
X85397961Y-103779476D01*
X85240524Y-103622039D01*
X85055398Y-103498341D01*
X84849696Y-103413137D01*
X84631325Y-103369700D01*
X84408675Y-103369700D01*
X84190304Y-103413137D01*
X83984602Y-103498341D01*
X83799476Y-103622039D01*
X83642039Y-103779476D01*
X83518341Y-103964602D01*
X83433137Y-104170304D01*
X83389700Y-104388675D01*
X75210300Y-104388675D01*
X75166863Y-104170304D01*
X75081659Y-103964602D01*
X74957961Y-103779476D01*
X74800524Y-103622039D01*
X74615398Y-103498341D01*
X74409696Y-103413137D01*
X74191325Y-103369700D01*
X73968675Y-103369700D01*
X73750304Y-103413137D01*
X73544602Y-103498341D01*
X73359476Y-103622039D01*
X73202039Y-103779476D01*
X73078341Y-103964602D01*
X72993137Y-104170304D01*
X72949700Y-104388675D01*
X67650300Y-104388675D01*
X67606863Y-104170304D01*
X67521659Y-103964602D01*
X67397961Y-103779476D01*
X67240524Y-103622039D01*
X67055398Y-103498341D01*
X66849696Y-103413137D01*
X66631325Y-103369700D01*
X66408675Y-103369700D01*
X66190304Y-103413137D01*
X65984602Y-103498341D01*
X65799476Y-103622039D01*
X65642039Y-103779476D01*
X65518341Y-103964602D01*
X65433137Y-104170304D01*
X65389700Y-104388675D01*
X57210300Y-104388675D01*
X57166863Y-104170304D01*
X57081659Y-103964602D01*
X56957961Y-103779476D01*
X56800524Y-103622039D01*
X56615398Y-103498341D01*
X56409696Y-103413137D01*
X56191325Y-103369700D01*
X55968675Y-103369700D01*
X55750304Y-103413137D01*
X55544602Y-103498341D01*
X55359476Y-103622039D01*
X55202039Y-103779476D01*
X55078341Y-103964602D01*
X54993137Y-104170304D01*
X54949700Y-104388675D01*
X52960000Y-104388675D01*
X52960000Y-94120777D01*
X53915000Y-94120777D01*
X53915000Y-94679223D01*
X54023948Y-95226939D01*
X54237656Y-95742876D01*
X54547912Y-96207207D01*
X54942793Y-96602088D01*
X55407124Y-96912344D01*
X55923061Y-97126052D01*
X56470777Y-97235000D01*
X57029223Y-97235000D01*
X57576939Y-97126052D01*
X58092876Y-96912344D01*
X58557207Y-96602088D01*
X58952088Y-96207207D01*
X59091834Y-95998061D01*
X61365000Y-95998061D01*
X61365000Y-96201939D01*
X61404774Y-96401898D01*
X61482795Y-96590256D01*
X61596063Y-96759774D01*
X61740226Y-96903937D01*
X61909744Y-97017205D01*
X62090121Y-97091920D01*
X62709203Y-97711003D01*
X62733001Y-97740001D01*
X62848726Y-97834974D01*
X62980755Y-97905546D01*
X63124016Y-97949003D01*
X63235669Y-97960000D01*
X63235678Y-97960000D01*
X63273001Y-97963676D01*
X63310324Y-97960000D01*
X63749773Y-97960000D01*
X63787095Y-97963676D01*
X63824417Y-97960000D01*
X63824428Y-97960000D01*
X63936081Y-97949003D01*
X64079342Y-97905546D01*
X64211371Y-97834974D01*
X64327096Y-97740001D01*
X64350899Y-97710997D01*
X64526897Y-97534999D01*
X65865000Y-97534999D01*
X65865000Y-97601939D01*
X65904774Y-97801898D01*
X65982795Y-97990256D01*
X66096063Y-98159774D01*
X66240226Y-98303937D01*
X66409744Y-98417205D01*
X66598102Y-98495226D01*
X66798061Y-98535000D01*
X66860199Y-98535000D01*
X68761202Y-100436004D01*
X68785000Y-100465002D01*
X68900725Y-100559975D01*
X69032754Y-100630547D01*
X69176015Y-100674004D01*
X69287668Y-100685001D01*
X69287677Y-100685001D01*
X69325000Y-100688677D01*
X69362323Y-100685001D01*
X79403362Y-100685001D01*
X79440684Y-100688677D01*
X79478006Y-100685001D01*
X79478017Y-100685001D01*
X79589670Y-100674004D01*
X79732931Y-100630547D01*
X79864960Y-100559975D01*
X79980685Y-100465002D01*
X80004488Y-100435998D01*
X82311003Y-98129484D01*
X82340001Y-98105686D01*
X82434974Y-97989961D01*
X82505546Y-97857932D01*
X82548987Y-97714724D01*
X82603937Y-97659774D01*
X82717205Y-97490256D01*
X82795226Y-97301898D01*
X82835000Y-97101939D01*
X82835000Y-96898061D01*
X82795226Y-96698102D01*
X82717205Y-96509744D01*
X82603937Y-96340226D01*
X82459774Y-96196063D01*
X82290256Y-96082795D01*
X82101898Y-96004774D01*
X81901939Y-95965000D01*
X81698061Y-95965000D01*
X81498102Y-96004774D01*
X81309744Y-96082795D01*
X81140226Y-96196063D01*
X80996063Y-96340226D01*
X80882795Y-96509744D01*
X80804774Y-96698102D01*
X80765000Y-96898061D01*
X80765000Y-97101939D01*
X80804774Y-97301898D01*
X80858728Y-97432155D01*
X79125883Y-99165001D01*
X77864657Y-99165001D01*
X77896756Y-99151705D01*
X78066274Y-99038437D01*
X78210437Y-98894274D01*
X78323705Y-98724756D01*
X78401726Y-98536398D01*
X78441500Y-98336439D01*
X78441500Y-98132561D01*
X78401726Y-97932602D01*
X78323705Y-97744244D01*
X78210437Y-97574726D01*
X78066274Y-97430563D01*
X77896756Y-97317295D01*
X77708398Y-97239274D01*
X77508439Y-97199500D01*
X77304561Y-97199500D01*
X77104602Y-97239274D01*
X76916244Y-97317295D01*
X76746726Y-97430563D01*
X76712288Y-97465001D01*
X70435000Y-97465001D01*
X70435000Y-97398061D01*
X70395226Y-97198102D01*
X70317205Y-97009744D01*
X70203937Y-96840226D01*
X70059774Y-96696063D01*
X69890256Y-96582795D01*
X69701898Y-96504774D01*
X69501939Y-96465000D01*
X69439801Y-96465000D01*
X69238802Y-96264001D01*
X69215000Y-96234998D01*
X69099275Y-96140025D01*
X68967246Y-96069453D01*
X68823985Y-96025996D01*
X68712332Y-96014999D01*
X68712321Y-96014999D01*
X68674999Y-96011323D01*
X68637677Y-96014999D01*
X65488291Y-96014999D01*
X65621964Y-95925681D01*
X65755681Y-95791964D01*
X65860741Y-95634731D01*
X65933108Y-95460022D01*
X65970000Y-95274552D01*
X65970000Y-95085448D01*
X69830000Y-95085448D01*
X69830000Y-95274552D01*
X69866892Y-95460022D01*
X69939259Y-95634731D01*
X70044319Y-95791964D01*
X70178036Y-95925681D01*
X70335269Y-96030741D01*
X70509978Y-96103108D01*
X70695448Y-96140000D01*
X70884552Y-96140000D01*
X71070022Y-96103108D01*
X71244731Y-96030741D01*
X71401964Y-95925681D01*
X71535681Y-95791964D01*
X71640741Y-95634731D01*
X71713108Y-95460022D01*
X71750000Y-95274552D01*
X71750000Y-95085448D01*
X71713108Y-94899978D01*
X71640741Y-94725269D01*
X71535681Y-94568036D01*
X71401964Y-94434319D01*
X71244731Y-94329259D01*
X71070022Y-94256892D01*
X70884552Y-94220000D01*
X70695448Y-94220000D01*
X70509978Y-94256892D01*
X70335269Y-94329259D01*
X70178036Y-94434319D01*
X70044319Y-94568036D01*
X69939259Y-94725269D01*
X69866892Y-94899978D01*
X69830000Y-95085448D01*
X65970000Y-95085448D01*
X65933108Y-94899978D01*
X65860741Y-94725269D01*
X65755681Y-94568036D01*
X65621964Y-94434319D01*
X65464731Y-94329259D01*
X65290022Y-94256892D01*
X65104552Y-94220000D01*
X64915448Y-94220000D01*
X64729978Y-94256892D01*
X64555269Y-94329259D01*
X64398036Y-94434319D01*
X64264319Y-94568036D01*
X64159259Y-94725269D01*
X64086892Y-94899978D01*
X64050000Y-95085448D01*
X64050000Y-95274552D01*
X64086892Y-95460022D01*
X64159259Y-95634731D01*
X64264319Y-95791964D01*
X64398036Y-95925681D01*
X64531709Y-96014999D01*
X64249418Y-96014999D01*
X64212095Y-96011323D01*
X64174772Y-96014999D01*
X64174763Y-96014999D01*
X64063110Y-96025996D01*
X63919849Y-96069453D01*
X63787820Y-96140025D01*
X63672095Y-96234998D01*
X63648292Y-96264002D01*
X63530049Y-96382245D01*
X63420855Y-96273051D01*
X63435000Y-96201939D01*
X63435000Y-95998061D01*
X63395226Y-95798102D01*
X63317205Y-95609744D01*
X63203937Y-95440226D01*
X63059774Y-95296063D01*
X62890256Y-95182795D01*
X62701898Y-95104774D01*
X62501939Y-95065000D01*
X62298061Y-95065000D01*
X62098102Y-95104774D01*
X61909744Y-95182795D01*
X61740226Y-95296063D01*
X61596063Y-95440226D01*
X61482795Y-95609744D01*
X61404774Y-95798102D01*
X61365000Y-95998061D01*
X59091834Y-95998061D01*
X59262344Y-95742876D01*
X59476052Y-95226939D01*
X59585000Y-94679223D01*
X59585000Y-94120777D01*
X59501302Y-93700000D01*
X76059509Y-93700000D01*
X76081423Y-93922499D01*
X76146324Y-94136447D01*
X76251716Y-94333623D01*
X76393551Y-94506449D01*
X76566377Y-94648284D01*
X76763553Y-94753676D01*
X76977501Y-94818577D01*
X77144248Y-94835000D01*
X94229869Y-94835000D01*
X95765001Y-96370133D01*
X95765000Y-98135716D01*
X95630000Y-98337759D01*
X95474637Y-98105241D01*
X95274759Y-97905363D01*
X95039727Y-97748320D01*
X94778574Y-97640147D01*
X94501335Y-97585000D01*
X94218665Y-97585000D01*
X93941426Y-97640147D01*
X93680273Y-97748320D01*
X93445241Y-97905363D01*
X93245363Y-98105241D01*
X93090000Y-98337759D01*
X92934637Y-98105241D01*
X92734759Y-97905363D01*
X92499727Y-97748320D01*
X92238574Y-97640147D01*
X91961335Y-97585000D01*
X91678665Y-97585000D01*
X91496113Y-97621312D01*
X91258803Y-97384001D01*
X91235000Y-97354998D01*
X91119275Y-97260025D01*
X90987246Y-97189453D01*
X90843985Y-97145996D01*
X90732332Y-97134999D01*
X90732321Y-97134999D01*
X90694999Y-97131323D01*
X90657677Y-97134999D01*
X87882326Y-97134999D01*
X87845001Y-97131323D01*
X87807676Y-97134999D01*
X87807668Y-97134999D01*
X87696015Y-97145996D01*
X87552754Y-97189453D01*
X87420725Y-97260025D01*
X87305000Y-97354998D01*
X87281202Y-97383996D01*
X86209002Y-98456196D01*
X86179999Y-98479999D01*
X86149431Y-98517247D01*
X86085026Y-98595724D01*
X86072851Y-98618502D01*
X86014454Y-98727754D01*
X85970997Y-98871015D01*
X85960000Y-98982668D01*
X85960000Y-98982678D01*
X85956324Y-99020000D01*
X85960000Y-99057322D01*
X85960001Y-107761514D01*
X85954174Y-107752794D01*
X85747206Y-107545826D01*
X85503838Y-107383212D01*
X85233421Y-107271202D01*
X84946348Y-107214100D01*
X84653652Y-107214100D01*
X84366579Y-107271202D01*
X84096162Y-107383212D01*
X83852794Y-107545826D01*
X83645826Y-107752794D01*
X83483212Y-107996162D01*
X83371202Y-108266579D01*
X83314100Y-108553652D01*
X83314100Y-108846348D01*
X83371202Y-109133421D01*
X83483212Y-109403838D01*
X83645826Y-109647206D01*
X83852794Y-109854174D01*
X84096162Y-110016788D01*
X84366579Y-110128798D01*
X84653652Y-110185900D01*
X84946348Y-110185900D01*
X85233421Y-110128798D01*
X85503838Y-110016788D01*
X85747206Y-109854174D01*
X85954174Y-109647206D01*
X85960001Y-109638486D01*
X85960001Y-113065197D01*
X82400000Y-116625199D01*
X80878423Y-115103621D01*
X80887553Y-115081579D01*
X80951000Y-114762609D01*
X80951000Y-114437391D01*
X80887553Y-114118421D01*
X80763097Y-113817958D01*
X80582415Y-113547549D01*
X80352451Y-113317585D01*
X80082042Y-113136903D01*
X79781579Y-113012447D01*
X79462609Y-112949000D01*
X79137391Y-112949000D01*
X78818421Y-113012447D01*
X78517958Y-113136903D01*
X78247549Y-113317585D01*
X78017585Y-113547549D01*
X77836903Y-113817958D01*
X77712447Y-114118421D01*
X77649000Y-114437391D01*
X77649000Y-114762609D01*
X77712447Y-115081579D01*
X77836903Y-115382042D01*
X78017585Y-115652451D01*
X78247549Y-115882415D01*
X78517958Y-116063097D01*
X78818421Y-116187553D01*
X79137391Y-116251000D01*
X79462609Y-116251000D01*
X79781579Y-116187553D01*
X79803621Y-116178423D01*
X81640001Y-118014803D01*
X81640000Y-125420836D01*
X81559210Y-125014676D01*
X81382100Y-124587095D01*
X81124976Y-124202281D01*
X80797719Y-123875024D01*
X80412905Y-123617900D01*
X79985324Y-123440790D01*
X79531406Y-123350500D01*
X79068594Y-123350500D01*
X78614676Y-123440790D01*
X78187095Y-123617900D01*
X77802281Y-123875024D01*
X77475024Y-124202281D01*
X77217900Y-124587095D01*
X77040790Y-125014676D01*
X76950500Y-125468594D01*
X76950500Y-125931406D01*
X77040790Y-126385324D01*
X77217900Y-126812905D01*
X77475024Y-127197719D01*
X77802281Y-127524976D01*
X78187095Y-127782100D01*
X78614676Y-127959210D01*
X79068594Y-128049500D01*
X79531406Y-128049500D01*
X79985324Y-127959210D01*
X80412905Y-127782100D01*
X80797719Y-127524976D01*
X81124976Y-127197719D01*
X81382100Y-126812905D01*
X81559210Y-126385324D01*
X81640000Y-125979164D01*
X81640000Y-128185198D01*
X79803621Y-130021577D01*
X79781579Y-130012447D01*
X79462609Y-129949000D01*
X79137391Y-129949000D01*
X78818421Y-130012447D01*
X78517958Y-130136903D01*
X78247549Y-130317585D01*
X78017585Y-130547549D01*
X77836903Y-130817958D01*
X77712447Y-131118421D01*
X77649000Y-131437391D01*
X77649000Y-131762609D01*
X77712447Y-132081579D01*
X77836903Y-132382042D01*
X78017585Y-132652451D01*
X78247549Y-132882415D01*
X78517958Y-133063097D01*
X78818421Y-133187553D01*
X79137391Y-133251000D01*
X79462609Y-133251000D01*
X79781579Y-133187553D01*
X80082042Y-133063097D01*
X80352451Y-132882415D01*
X80582415Y-132652451D01*
X80763097Y-132382042D01*
X80887553Y-132081579D01*
X80951000Y-131762609D01*
X80951000Y-131437391D01*
X95649000Y-131437391D01*
X95649000Y-131762609D01*
X95712447Y-132081579D01*
X95836903Y-132382042D01*
X96017585Y-132652451D01*
X96247549Y-132882415D01*
X96517958Y-133063097D01*
X96818421Y-133187553D01*
X97137391Y-133251000D01*
X97462609Y-133251000D01*
X97781579Y-133187553D01*
X98082042Y-133063097D01*
X98352451Y-132882415D01*
X98582415Y-132652451D01*
X98763097Y-132382042D01*
X98887553Y-132081579D01*
X98951000Y-131762609D01*
X98951000Y-131437391D01*
X98887553Y-131118421D01*
X98763097Y-130817958D01*
X98582415Y-130547549D01*
X98352451Y-130317585D01*
X98082042Y-130136903D01*
X97781579Y-130012447D01*
X97462609Y-129949000D01*
X97137391Y-129949000D01*
X96818421Y-130012447D01*
X96517958Y-130136903D01*
X96247549Y-130317585D01*
X96017585Y-130547549D01*
X95836903Y-130817958D01*
X95712447Y-131118421D01*
X95649000Y-131437391D01*
X80951000Y-131437391D01*
X80887553Y-131118421D01*
X80878423Y-131096379D01*
X82637411Y-129337391D01*
X90649000Y-129337391D01*
X90649000Y-129662609D01*
X90712447Y-129981579D01*
X90836903Y-130282042D01*
X91017585Y-130552451D01*
X91247549Y-130782415D01*
X91517958Y-130963097D01*
X91818421Y-131087553D01*
X92137391Y-131151000D01*
X92462609Y-131151000D01*
X92781579Y-131087553D01*
X93082042Y-130963097D01*
X93352451Y-130782415D01*
X93582415Y-130552451D01*
X93763097Y-130282042D01*
X93887553Y-129981579D01*
X93951000Y-129662609D01*
X93951000Y-129337391D01*
X93887553Y-129018421D01*
X93763097Y-128717958D01*
X93582415Y-128447549D01*
X93352451Y-128217585D01*
X93082042Y-128036903D01*
X92781579Y-127912447D01*
X92462609Y-127849000D01*
X92137391Y-127849000D01*
X91818421Y-127912447D01*
X91517958Y-128036903D01*
X91247549Y-128217585D01*
X91017585Y-128447549D01*
X90836903Y-128717958D01*
X90712447Y-129018421D01*
X90649000Y-129337391D01*
X82637411Y-129337391D01*
X82911004Y-129063798D01*
X82940001Y-129040001D01*
X83022069Y-128940001D01*
X83034974Y-128924277D01*
X83105546Y-128792247D01*
X83135880Y-128692246D01*
X83149003Y-128648986D01*
X83160000Y-128537333D01*
X83160000Y-128537324D01*
X83163676Y-128500001D01*
X83160000Y-128462678D01*
X83160000Y-125553652D01*
X83314100Y-125553652D01*
X83314100Y-125846348D01*
X83371202Y-126133421D01*
X83483212Y-126403838D01*
X83645826Y-126647206D01*
X83852794Y-126854174D01*
X84096162Y-127016788D01*
X84366579Y-127128798D01*
X84653652Y-127185900D01*
X84946348Y-127185900D01*
X85233421Y-127128798D01*
X85503838Y-127016788D01*
X85747206Y-126854174D01*
X85954174Y-126647206D01*
X86116788Y-126403838D01*
X86228798Y-126133421D01*
X86285900Y-125846348D01*
X86285900Y-125553652D01*
X90314100Y-125553652D01*
X90314100Y-125846348D01*
X90371202Y-126133421D01*
X90483212Y-126403838D01*
X90645826Y-126647206D01*
X90852794Y-126854174D01*
X91096162Y-127016788D01*
X91366579Y-127128798D01*
X91653652Y-127185900D01*
X91946348Y-127185900D01*
X92233421Y-127128798D01*
X92503838Y-127016788D01*
X92747206Y-126854174D01*
X92954174Y-126647206D01*
X93116788Y-126403838D01*
X93228798Y-126133421D01*
X93285900Y-125846348D01*
X93285900Y-125553652D01*
X93268982Y-125468594D01*
X94950500Y-125468594D01*
X94950500Y-125931406D01*
X95040790Y-126385324D01*
X95217900Y-126812905D01*
X95475024Y-127197719D01*
X95802281Y-127524976D01*
X96187095Y-127782100D01*
X96614676Y-127959210D01*
X97068594Y-128049500D01*
X97531406Y-128049500D01*
X97985324Y-127959210D01*
X98412905Y-127782100D01*
X98797719Y-127524976D01*
X99124976Y-127197719D01*
X99382100Y-126812905D01*
X99559210Y-126385324D01*
X99649500Y-125931406D01*
X99649500Y-125553652D01*
X101314100Y-125553652D01*
X101314100Y-125846348D01*
X101371202Y-126133421D01*
X101483212Y-126403838D01*
X101645826Y-126647206D01*
X101852794Y-126854174D01*
X102096162Y-127016788D01*
X102366579Y-127128798D01*
X102653652Y-127185900D01*
X102946348Y-127185900D01*
X103233421Y-127128798D01*
X103503838Y-127016788D01*
X103747206Y-126854174D01*
X103954174Y-126647206D01*
X104116788Y-126403838D01*
X104228798Y-126133421D01*
X104285900Y-125846348D01*
X104285900Y-125553652D01*
X104228798Y-125266579D01*
X104116788Y-124996162D01*
X103954174Y-124752794D01*
X103747206Y-124545826D01*
X103503838Y-124383212D01*
X103233421Y-124271202D01*
X102946348Y-124214100D01*
X102653652Y-124214100D01*
X102366579Y-124271202D01*
X102096162Y-124383212D01*
X101852794Y-124545826D01*
X101645826Y-124752794D01*
X101483212Y-124996162D01*
X101371202Y-125266579D01*
X101314100Y-125553652D01*
X99649500Y-125553652D01*
X99649500Y-125468594D01*
X99559210Y-125014676D01*
X99382100Y-124587095D01*
X99124976Y-124202281D01*
X98797719Y-123875024D01*
X98412905Y-123617900D01*
X97985324Y-123440790D01*
X97531406Y-123350500D01*
X97068594Y-123350500D01*
X96614676Y-123440790D01*
X96187095Y-123617900D01*
X95802281Y-123875024D01*
X95475024Y-124202281D01*
X95217900Y-124587095D01*
X95040790Y-125014676D01*
X94950500Y-125468594D01*
X93268982Y-125468594D01*
X93228798Y-125266579D01*
X93116788Y-124996162D01*
X92954174Y-124752794D01*
X92747206Y-124545826D01*
X92503838Y-124383212D01*
X92233421Y-124271202D01*
X91946348Y-124214100D01*
X91653652Y-124214100D01*
X91366579Y-124271202D01*
X91096162Y-124383212D01*
X90852794Y-124545826D01*
X90645826Y-124752794D01*
X90483212Y-124996162D01*
X90371202Y-125266579D01*
X90314100Y-125553652D01*
X86285900Y-125553652D01*
X86228798Y-125266579D01*
X86116788Y-124996162D01*
X85954174Y-124752794D01*
X85747206Y-124545826D01*
X85503838Y-124383212D01*
X85233421Y-124271202D01*
X84946348Y-124214100D01*
X84653652Y-124214100D01*
X84366579Y-124271202D01*
X84096162Y-124383212D01*
X83852794Y-124545826D01*
X83645826Y-124752794D01*
X83483212Y-124996162D01*
X83371202Y-125266579D01*
X83314100Y-125553652D01*
X83160000Y-125553652D01*
X83160000Y-121388675D01*
X83389700Y-121388675D01*
X83389700Y-121611325D01*
X83433137Y-121829696D01*
X83518341Y-122035398D01*
X83642039Y-122220524D01*
X83799476Y-122377961D01*
X83984602Y-122501659D01*
X84190304Y-122586863D01*
X84408675Y-122630300D01*
X84631325Y-122630300D01*
X84849696Y-122586863D01*
X85055398Y-122501659D01*
X85240524Y-122377961D01*
X85397961Y-122220524D01*
X85521659Y-122035398D01*
X85606863Y-121829696D01*
X85650300Y-121611325D01*
X85650300Y-121388675D01*
X90949700Y-121388675D01*
X90949700Y-121611325D01*
X90993137Y-121829696D01*
X91078341Y-122035398D01*
X91202039Y-122220524D01*
X91359476Y-122377961D01*
X91544602Y-122501659D01*
X91750304Y-122586863D01*
X91968675Y-122630300D01*
X92191325Y-122630300D01*
X92409696Y-122586863D01*
X92615398Y-122501659D01*
X92800524Y-122377961D01*
X92957961Y-122220524D01*
X93081659Y-122035398D01*
X93166863Y-121829696D01*
X93210300Y-121611325D01*
X93210300Y-121388675D01*
X101389700Y-121388675D01*
X101389700Y-121611325D01*
X101433137Y-121829696D01*
X101518341Y-122035398D01*
X101642039Y-122220524D01*
X101799476Y-122377961D01*
X101984602Y-122501659D01*
X102190304Y-122586863D01*
X102408675Y-122630300D01*
X102631325Y-122630300D01*
X102849696Y-122586863D01*
X103055398Y-122501659D01*
X103240524Y-122377961D01*
X103397961Y-122220524D01*
X103521659Y-122035398D01*
X103606863Y-121829696D01*
X103650300Y-121611325D01*
X103650300Y-121388675D01*
X103606863Y-121170304D01*
X103521659Y-120964602D01*
X103397961Y-120779476D01*
X103240524Y-120622039D01*
X103055398Y-120498341D01*
X102849696Y-120413137D01*
X102631325Y-120369700D01*
X102408675Y-120369700D01*
X102190304Y-120413137D01*
X101984602Y-120498341D01*
X101799476Y-120622039D01*
X101642039Y-120779476D01*
X101518341Y-120964602D01*
X101433137Y-121170304D01*
X101389700Y-121388675D01*
X93210300Y-121388675D01*
X93166863Y-121170304D01*
X93081659Y-120964602D01*
X92957961Y-120779476D01*
X92800524Y-120622039D01*
X92615398Y-120498341D01*
X92409696Y-120413137D01*
X92191325Y-120369700D01*
X91968675Y-120369700D01*
X91750304Y-120413137D01*
X91544602Y-120498341D01*
X91359476Y-120622039D01*
X91202039Y-120779476D01*
X91078341Y-120964602D01*
X90993137Y-121170304D01*
X90949700Y-121388675D01*
X85650300Y-121388675D01*
X85606863Y-121170304D01*
X85521659Y-120964602D01*
X85397961Y-120779476D01*
X85240524Y-120622039D01*
X85055398Y-120498341D01*
X84849696Y-120413137D01*
X84631325Y-120369700D01*
X84408675Y-120369700D01*
X84190304Y-120413137D01*
X83984602Y-120498341D01*
X83799476Y-120622039D01*
X83642039Y-120779476D01*
X83518341Y-120964602D01*
X83433137Y-121170304D01*
X83389700Y-121388675D01*
X83160000Y-121388675D01*
X83160000Y-118014801D01*
X87231003Y-113943799D01*
X87260001Y-113920001D01*
X87354974Y-113804276D01*
X87425546Y-113672247D01*
X87469003Y-113528986D01*
X87480000Y-113417333D01*
X87483677Y-113380000D01*
X87480000Y-113342667D01*
X87480000Y-99334801D01*
X87845000Y-98969802D01*
X87845000Y-99161335D01*
X87900147Y-99438574D01*
X88008320Y-99699727D01*
X88165363Y-99934759D01*
X88365241Y-100134637D01*
X88440001Y-100184590D01*
X88440000Y-102662667D01*
X88436323Y-102700000D01*
X88440001Y-102737343D01*
X88440000Y-111662667D01*
X88440000Y-112362678D01*
X88436324Y-112400000D01*
X88440000Y-112437322D01*
X88440000Y-112437332D01*
X88450997Y-112548985D01*
X88475875Y-112630997D01*
X88494454Y-112692246D01*
X88565026Y-112824276D01*
X88577930Y-112839999D01*
X88659999Y-112940001D01*
X88689003Y-112963804D01*
X90836200Y-115111002D01*
X90859999Y-115140001D01*
X90975724Y-115234974D01*
X91107753Y-115305546D01*
X91251014Y-115349003D01*
X91362667Y-115360000D01*
X91362677Y-115360000D01*
X91400000Y-115363676D01*
X91437323Y-115360000D01*
X95827773Y-115360000D01*
X95836903Y-115382042D01*
X96017585Y-115652451D01*
X96247549Y-115882415D01*
X96517958Y-116063097D01*
X96818421Y-116187553D01*
X97137391Y-116251000D01*
X97462609Y-116251000D01*
X97781579Y-116187553D01*
X98082042Y-116063097D01*
X98352451Y-115882415D01*
X98582415Y-115652451D01*
X98763097Y-115382042D01*
X98887553Y-115081579D01*
X98951000Y-114762609D01*
X98951000Y-114437391D01*
X98887553Y-114118421D01*
X98763097Y-113817958D01*
X98582415Y-113547549D01*
X98352451Y-113317585D01*
X98082042Y-113136903D01*
X97781579Y-113012447D01*
X97462609Y-112949000D01*
X97137391Y-112949000D01*
X96818421Y-113012447D01*
X96517958Y-113136903D01*
X96247549Y-113317585D01*
X96017585Y-113547549D01*
X95836903Y-113817958D01*
X95827773Y-113840000D01*
X93266269Y-113840000D01*
X93352451Y-113782415D01*
X93582415Y-113552451D01*
X93763097Y-113282042D01*
X93887553Y-112981579D01*
X93951000Y-112662609D01*
X93951000Y-112337391D01*
X93887553Y-112018421D01*
X93763097Y-111717958D01*
X93582415Y-111447549D01*
X93352451Y-111217585D01*
X93082042Y-111036903D01*
X92781579Y-110912447D01*
X92462609Y-110849000D01*
X92137391Y-110849000D01*
X91818421Y-110912447D01*
X91517958Y-111036903D01*
X91247549Y-111217585D01*
X91017585Y-111447549D01*
X90836903Y-111717958D01*
X90712447Y-112018421D01*
X90649000Y-112337391D01*
X90649000Y-112662609D01*
X90676708Y-112801907D01*
X89960000Y-112085199D01*
X89960000Y-108553652D01*
X90314100Y-108553652D01*
X90314100Y-108846348D01*
X90371202Y-109133421D01*
X90483212Y-109403838D01*
X90645826Y-109647206D01*
X90852794Y-109854174D01*
X91096162Y-110016788D01*
X91366579Y-110128798D01*
X91653652Y-110185900D01*
X91946348Y-110185900D01*
X92233421Y-110128798D01*
X92503838Y-110016788D01*
X92747206Y-109854174D01*
X92954174Y-109647206D01*
X93116788Y-109403838D01*
X93228798Y-109133421D01*
X93285900Y-108846348D01*
X93285900Y-108553652D01*
X93268982Y-108468594D01*
X94950500Y-108468594D01*
X94950500Y-108931406D01*
X95040790Y-109385324D01*
X95217900Y-109812905D01*
X95475024Y-110197719D01*
X95802281Y-110524976D01*
X96187095Y-110782100D01*
X96614676Y-110959210D01*
X97068594Y-111049500D01*
X97531406Y-111049500D01*
X97985324Y-110959210D01*
X98412905Y-110782100D01*
X98797719Y-110524976D01*
X99124976Y-110197719D01*
X99382100Y-109812905D01*
X99559210Y-109385324D01*
X99649500Y-108931406D01*
X99649500Y-108553652D01*
X101314100Y-108553652D01*
X101314100Y-108846348D01*
X101371202Y-109133421D01*
X101483212Y-109403838D01*
X101645826Y-109647206D01*
X101852794Y-109854174D01*
X102096162Y-110016788D01*
X102366579Y-110128798D01*
X102653652Y-110185900D01*
X102946348Y-110185900D01*
X103233421Y-110128798D01*
X103503838Y-110016788D01*
X103747206Y-109854174D01*
X103954174Y-109647206D01*
X104116788Y-109403838D01*
X104228798Y-109133421D01*
X104285900Y-108846348D01*
X104285900Y-108553652D01*
X104228798Y-108266579D01*
X104116788Y-107996162D01*
X103954174Y-107752794D01*
X103747206Y-107545826D01*
X103503838Y-107383212D01*
X103233421Y-107271202D01*
X102946348Y-107214100D01*
X102653652Y-107214100D01*
X102366579Y-107271202D01*
X102096162Y-107383212D01*
X101852794Y-107545826D01*
X101645826Y-107752794D01*
X101483212Y-107996162D01*
X101371202Y-108266579D01*
X101314100Y-108553652D01*
X99649500Y-108553652D01*
X99649500Y-108468594D01*
X99559210Y-108014676D01*
X99382100Y-107587095D01*
X99124976Y-107202281D01*
X98797719Y-106875024D01*
X98412905Y-106617900D01*
X97985324Y-106440790D01*
X97531406Y-106350500D01*
X97068594Y-106350500D01*
X96614676Y-106440790D01*
X96187095Y-106617900D01*
X95802281Y-106875024D01*
X95475024Y-107202281D01*
X95217900Y-107587095D01*
X95040790Y-108014676D01*
X94950500Y-108468594D01*
X93268982Y-108468594D01*
X93228798Y-108266579D01*
X93116788Y-107996162D01*
X92954174Y-107752794D01*
X92747206Y-107545826D01*
X92503838Y-107383212D01*
X92233421Y-107271202D01*
X91946348Y-107214100D01*
X91653652Y-107214100D01*
X91366579Y-107271202D01*
X91096162Y-107383212D01*
X90852794Y-107545826D01*
X90645826Y-107752794D01*
X90483212Y-107996162D01*
X90371202Y-108266579D01*
X90314100Y-108553652D01*
X89960000Y-108553652D01*
X89960000Y-104388675D01*
X90949700Y-104388675D01*
X90949700Y-104611325D01*
X90993137Y-104829696D01*
X91078341Y-105035398D01*
X91202039Y-105220524D01*
X91359476Y-105377961D01*
X91544602Y-105501659D01*
X91750304Y-105586863D01*
X91968675Y-105630300D01*
X92191325Y-105630300D01*
X92409696Y-105586863D01*
X92615398Y-105501659D01*
X92800524Y-105377961D01*
X92957961Y-105220524D01*
X93081659Y-105035398D01*
X93166863Y-104829696D01*
X93210300Y-104611325D01*
X93210300Y-104388675D01*
X101389700Y-104388675D01*
X101389700Y-104611325D01*
X101433137Y-104829696D01*
X101518341Y-105035398D01*
X101642039Y-105220524D01*
X101799476Y-105377961D01*
X101984602Y-105501659D01*
X102190304Y-105586863D01*
X102408675Y-105630300D01*
X102631325Y-105630300D01*
X102849696Y-105586863D01*
X103055398Y-105501659D01*
X103240524Y-105377961D01*
X103397961Y-105220524D01*
X103521659Y-105035398D01*
X103606863Y-104829696D01*
X103650300Y-104611325D01*
X103650300Y-104388675D01*
X103606863Y-104170304D01*
X103521659Y-103964602D01*
X103397961Y-103779476D01*
X103240524Y-103622039D01*
X103055398Y-103498341D01*
X102849696Y-103413137D01*
X102631325Y-103369700D01*
X102408675Y-103369700D01*
X102190304Y-103413137D01*
X101984602Y-103498341D01*
X101799476Y-103622039D01*
X101642039Y-103779476D01*
X101518341Y-103964602D01*
X101433137Y-104170304D01*
X101389700Y-104388675D01*
X93210300Y-104388675D01*
X93166863Y-104170304D01*
X93081659Y-103964602D01*
X92957961Y-103779476D01*
X92800524Y-103622039D01*
X92615398Y-103498341D01*
X92409696Y-103413137D01*
X92191325Y-103369700D01*
X91968675Y-103369700D01*
X91750304Y-103413137D01*
X91544602Y-103498341D01*
X91359476Y-103622039D01*
X91202039Y-103779476D01*
X91078341Y-103964602D01*
X90993137Y-104170304D01*
X90949700Y-104388675D01*
X89960000Y-104388675D01*
X89960000Y-102737332D01*
X89963677Y-102700000D01*
X89960000Y-102662667D01*
X89960000Y-100291498D01*
X90194759Y-100134637D01*
X90394637Y-99934759D01*
X90550000Y-99702241D01*
X90705363Y-99934759D01*
X90905241Y-100134637D01*
X91140273Y-100291680D01*
X91401426Y-100399853D01*
X91678665Y-100455000D01*
X91961335Y-100455000D01*
X92238574Y-100399853D01*
X92499727Y-100291680D01*
X92734759Y-100134637D01*
X92934637Y-99934759D01*
X93090000Y-99702241D01*
X93245363Y-99934759D01*
X93445241Y-100134637D01*
X93680273Y-100291680D01*
X93941426Y-100399853D01*
X94218665Y-100455000D01*
X94501335Y-100455000D01*
X94778574Y-100399853D01*
X95039727Y-100291680D01*
X95274759Y-100134637D01*
X95474637Y-99934759D01*
X95630000Y-99702241D01*
X95785363Y-99934759D01*
X95985241Y-100134637D01*
X96220273Y-100291680D01*
X96481426Y-100399853D01*
X96758665Y-100455000D01*
X97041335Y-100455000D01*
X97318574Y-100399853D01*
X97579727Y-100291680D01*
X97814759Y-100134637D01*
X98014637Y-99934759D01*
X98171680Y-99699727D01*
X98279853Y-99438574D01*
X98335000Y-99161335D01*
X98335000Y-98878665D01*
X98279853Y-98601426D01*
X98171680Y-98340273D01*
X98035000Y-98135716D01*
X98035000Y-95955752D01*
X98040491Y-95900000D01*
X98029851Y-95791964D01*
X98018577Y-95677501D01*
X97953676Y-95463553D01*
X97848284Y-95266377D01*
X97706449Y-95093551D01*
X97663141Y-95058009D01*
X96925909Y-94320777D01*
X99065000Y-94320777D01*
X99065000Y-94879223D01*
X99173948Y-95426939D01*
X99387656Y-95942876D01*
X99697912Y-96407207D01*
X100092793Y-96802088D01*
X100557124Y-97112344D01*
X101073061Y-97326052D01*
X101620777Y-97435000D01*
X102179223Y-97435000D01*
X102726939Y-97326052D01*
X103242876Y-97112344D01*
X103707207Y-96802088D01*
X104102088Y-96407207D01*
X104412344Y-95942876D01*
X104626052Y-95426939D01*
X104735000Y-94879223D01*
X104735000Y-94320777D01*
X104626052Y-93773061D01*
X104412344Y-93257124D01*
X104102088Y-92792793D01*
X103707207Y-92397912D01*
X103242876Y-92087656D01*
X102726939Y-91873948D01*
X102179223Y-91765000D01*
X101620777Y-91765000D01*
X101073061Y-91873948D01*
X100557124Y-92087656D01*
X100092793Y-92397912D01*
X99697912Y-92792793D01*
X99387656Y-93257124D01*
X99173948Y-93773061D01*
X99065000Y-94320777D01*
X96925909Y-94320777D01*
X95541996Y-92936865D01*
X95506449Y-92893551D01*
X95333623Y-92751716D01*
X95136447Y-92646324D01*
X95096026Y-92634062D01*
X95274759Y-92514637D01*
X95473357Y-92316039D01*
X95474188Y-92324482D01*
X95510498Y-92444180D01*
X95569463Y-92554494D01*
X95648815Y-92651185D01*
X95745506Y-92730537D01*
X95855820Y-92789502D01*
X95975518Y-92825812D01*
X96100000Y-92838072D01*
X97700000Y-92838072D01*
X97824482Y-92825812D01*
X97944180Y-92789502D01*
X98054494Y-92730537D01*
X98151185Y-92651185D01*
X98230537Y-92554494D01*
X98289502Y-92444180D01*
X98325812Y-92324482D01*
X98338072Y-92200000D01*
X98338072Y-90600000D01*
X98325812Y-90475518D01*
X98289502Y-90355820D01*
X98230537Y-90245506D01*
X98151185Y-90148815D01*
X98054494Y-90069463D01*
X97944180Y-90010498D01*
X97824482Y-89974188D01*
X97700000Y-89961928D01*
X96100000Y-89961928D01*
X95975518Y-89974188D01*
X95855820Y-90010498D01*
X95745506Y-90069463D01*
X95648815Y-90148815D01*
X95569463Y-90245506D01*
X95510498Y-90355820D01*
X95474188Y-90475518D01*
X95473357Y-90483961D01*
X95274759Y-90285363D01*
X95039727Y-90128320D01*
X94778574Y-90020147D01*
X94501335Y-89965000D01*
X94218665Y-89965000D01*
X93941426Y-90020147D01*
X93680273Y-90128320D01*
X93445241Y-90285363D01*
X93245363Y-90485241D01*
X93090000Y-90717759D01*
X92934637Y-90485241D01*
X92734759Y-90285363D01*
X92499727Y-90128320D01*
X92238574Y-90020147D01*
X91961335Y-89965000D01*
X91678665Y-89965000D01*
X91401426Y-90020147D01*
X91140273Y-90128320D01*
X90905241Y-90285363D01*
X90705363Y-90485241D01*
X90548320Y-90720273D01*
X90440147Y-90981426D01*
X90385000Y-91258665D01*
X90385000Y-91541335D01*
X90440147Y-91818574D01*
X90548320Y-92079727D01*
X90705363Y-92314759D01*
X90905241Y-92514637D01*
X90980615Y-92565000D01*
X77144248Y-92565000D01*
X76977501Y-92581423D01*
X76763553Y-92646324D01*
X76566377Y-92751716D01*
X76393551Y-92893551D01*
X76251716Y-93066377D01*
X76146324Y-93263553D01*
X76081423Y-93477501D01*
X76059509Y-93700000D01*
X59501302Y-93700000D01*
X59476052Y-93573061D01*
X59262344Y-93057124D01*
X58952088Y-92592793D01*
X58557207Y-92197912D01*
X58092876Y-91887656D01*
X57576939Y-91673948D01*
X57029223Y-91565000D01*
X56470777Y-91565000D01*
X55923061Y-91673948D01*
X55407124Y-91887656D01*
X54942793Y-92197912D01*
X54547912Y-92592793D01*
X54237656Y-93057124D01*
X54023948Y-93573061D01*
X53915000Y-94120777D01*
X52960000Y-94120777D01*
X52960000Y-90805279D01*
X52988625Y-90513341D01*
X53064035Y-90263571D01*
X53186522Y-90033208D01*
X53351422Y-89831020D01*
X53552450Y-89664714D01*
X53781954Y-89540622D01*
X54031195Y-89463469D01*
X54321088Y-89433000D01*
X104267721Y-89433000D01*
X104559659Y-89461625D01*
G04 #@! TA.AperFunction,Conductor*
D21*
G36*
X104559659Y-89461625D02*
G01*
X104809429Y-89537035D01*
X105039792Y-89659522D01*
X105241980Y-89824422D01*
X105408286Y-90025450D01*
X105532378Y-90254954D01*
X105609531Y-90504195D01*
X105640001Y-90794098D01*
X105640000Y-166167721D01*
X105611375Y-166459660D01*
X105535965Y-166709429D01*
X105413477Y-166939794D01*
X105248579Y-167141979D01*
X105047546Y-167308288D01*
X104818046Y-167432378D01*
X104568805Y-167509531D01*
X104278911Y-167540000D01*
X54332279Y-167540000D01*
X54040340Y-167511375D01*
X53790571Y-167435965D01*
X53560206Y-167313477D01*
X53358021Y-167148579D01*
X53191712Y-166947546D01*
X53067622Y-166718046D01*
X52990469Y-166468805D01*
X52960000Y-166178911D01*
X52960000Y-159553652D01*
X54314100Y-159553652D01*
X54314100Y-159846348D01*
X54371202Y-160133421D01*
X54483212Y-160403838D01*
X54645826Y-160647206D01*
X54852794Y-160854174D01*
X55096162Y-161016788D01*
X55366579Y-161128798D01*
X55653652Y-161185900D01*
X55946348Y-161185900D01*
X56233421Y-161128798D01*
X56503838Y-161016788D01*
X56747206Y-160854174D01*
X56954174Y-160647206D01*
X57116788Y-160403838D01*
X57228798Y-160133421D01*
X57285900Y-159846348D01*
X57285900Y-159553652D01*
X57228798Y-159266579D01*
X57116788Y-158996162D01*
X56954174Y-158752794D01*
X56747206Y-158545826D01*
X56503838Y-158383212D01*
X56233421Y-158271202D01*
X55946348Y-158214100D01*
X55653652Y-158214100D01*
X55366579Y-158271202D01*
X55096162Y-158383212D01*
X54852794Y-158545826D01*
X54645826Y-158752794D01*
X54483212Y-158996162D01*
X54371202Y-159266579D01*
X54314100Y-159553652D01*
X52960000Y-159553652D01*
X52960000Y-155388675D01*
X54949700Y-155388675D01*
X54949700Y-155611325D01*
X54993137Y-155829696D01*
X55078341Y-156035398D01*
X55202039Y-156220524D01*
X55359476Y-156377961D01*
X55544602Y-156501659D01*
X55750304Y-156586863D01*
X55968675Y-156630300D01*
X56191325Y-156630300D01*
X56409696Y-156586863D01*
X56615398Y-156501659D01*
X56800524Y-156377961D01*
X56957961Y-156220524D01*
X57081659Y-156035398D01*
X57166863Y-155829696D01*
X57210300Y-155611325D01*
X57210300Y-155388675D01*
X57166863Y-155170304D01*
X57081659Y-154964602D01*
X56957961Y-154779476D01*
X56800524Y-154622039D01*
X56615398Y-154498341D01*
X56409696Y-154413137D01*
X56191325Y-154369700D01*
X55968675Y-154369700D01*
X55750304Y-154413137D01*
X55544602Y-154498341D01*
X55359476Y-154622039D01*
X55202039Y-154779476D01*
X55078341Y-154964602D01*
X54993137Y-155170304D01*
X54949700Y-155388675D01*
X52960000Y-155388675D01*
X52960000Y-146337391D01*
X54649000Y-146337391D01*
X54649000Y-146662609D01*
X54712447Y-146981579D01*
X54836903Y-147282042D01*
X55017585Y-147552451D01*
X55247549Y-147782415D01*
X55517958Y-147963097D01*
X55818421Y-148087553D01*
X56137391Y-148151000D01*
X56462609Y-148151000D01*
X56781579Y-148087553D01*
X57082042Y-147963097D01*
X57352451Y-147782415D01*
X57582415Y-147552451D01*
X57763097Y-147282042D01*
X57887553Y-146981579D01*
X57951000Y-146662609D01*
X57951000Y-146337391D01*
X57887553Y-146018421D01*
X57763097Y-145717958D01*
X57582415Y-145447549D01*
X57352451Y-145217585D01*
X57082042Y-145036903D01*
X56781579Y-144912447D01*
X56462609Y-144849000D01*
X56137391Y-144849000D01*
X55818421Y-144912447D01*
X55517958Y-145036903D01*
X55247549Y-145217585D01*
X55017585Y-145447549D01*
X54836903Y-145717958D01*
X54712447Y-146018421D01*
X54649000Y-146337391D01*
X52960000Y-146337391D01*
X52960000Y-142553652D01*
X54314100Y-142553652D01*
X54314100Y-142846348D01*
X54371202Y-143133421D01*
X54483212Y-143403838D01*
X54645826Y-143647206D01*
X54852794Y-143854174D01*
X55096162Y-144016788D01*
X55366579Y-144128798D01*
X55653652Y-144185900D01*
X55946348Y-144185900D01*
X56233421Y-144128798D01*
X56503838Y-144016788D01*
X56747206Y-143854174D01*
X56954174Y-143647206D01*
X57116788Y-143403838D01*
X57228798Y-143133421D01*
X57285900Y-142846348D01*
X57285900Y-142553652D01*
X57268982Y-142468594D01*
X58950500Y-142468594D01*
X58950500Y-142931406D01*
X59040790Y-143385324D01*
X59217900Y-143812905D01*
X59475024Y-144197719D01*
X59802281Y-144524976D01*
X60187095Y-144782100D01*
X60614676Y-144959210D01*
X61068594Y-145049500D01*
X61531406Y-145049500D01*
X61985324Y-144959210D01*
X62412905Y-144782100D01*
X62797719Y-144524976D01*
X63124976Y-144197719D01*
X63382100Y-143812905D01*
X63559210Y-143385324D01*
X63649500Y-142931406D01*
X63649500Y-142468594D01*
X63559210Y-142014676D01*
X63382100Y-141587095D01*
X63124976Y-141202281D01*
X62797719Y-140875024D01*
X62412905Y-140617900D01*
X61985324Y-140440790D01*
X61531406Y-140350500D01*
X61068594Y-140350500D01*
X60614676Y-140440790D01*
X60187095Y-140617900D01*
X59802281Y-140875024D01*
X59475024Y-141202281D01*
X59217900Y-141587095D01*
X59040790Y-142014676D01*
X58950500Y-142468594D01*
X57268982Y-142468594D01*
X57228798Y-142266579D01*
X57116788Y-141996162D01*
X56954174Y-141752794D01*
X56747206Y-141545826D01*
X56503838Y-141383212D01*
X56233421Y-141271202D01*
X55946348Y-141214100D01*
X55653652Y-141214100D01*
X55366579Y-141271202D01*
X55096162Y-141383212D01*
X54852794Y-141545826D01*
X54645826Y-141752794D01*
X54483212Y-141996162D01*
X54371202Y-142266579D01*
X54314100Y-142553652D01*
X52960000Y-142553652D01*
X52960000Y-138388675D01*
X54949700Y-138388675D01*
X54949700Y-138611325D01*
X54993137Y-138829696D01*
X55078341Y-139035398D01*
X55202039Y-139220524D01*
X55359476Y-139377961D01*
X55544602Y-139501659D01*
X55750304Y-139586863D01*
X55968675Y-139630300D01*
X56191325Y-139630300D01*
X56409696Y-139586863D01*
X56615398Y-139501659D01*
X56800524Y-139377961D01*
X56957961Y-139220524D01*
X57081659Y-139035398D01*
X57166863Y-138829696D01*
X57210300Y-138611325D01*
X57210300Y-138388675D01*
X57166863Y-138170304D01*
X57081659Y-137964602D01*
X56957961Y-137779476D01*
X56800524Y-137622039D01*
X56615398Y-137498341D01*
X56409696Y-137413137D01*
X56191325Y-137369700D01*
X55968675Y-137369700D01*
X55750304Y-137413137D01*
X55544602Y-137498341D01*
X55359476Y-137622039D01*
X55202039Y-137779476D01*
X55078341Y-137964602D01*
X54993137Y-138170304D01*
X54949700Y-138388675D01*
X52960000Y-138388675D01*
X52960000Y-129337391D01*
X54649000Y-129337391D01*
X54649000Y-129662609D01*
X54712447Y-129981579D01*
X54836903Y-130282042D01*
X55017585Y-130552451D01*
X55247549Y-130782415D01*
X55517958Y-130963097D01*
X55818421Y-131087553D01*
X56137391Y-131151000D01*
X56462609Y-131151000D01*
X56781579Y-131087553D01*
X57082042Y-130963097D01*
X57352451Y-130782415D01*
X57582415Y-130552451D01*
X57763097Y-130282042D01*
X57887553Y-129981579D01*
X57951000Y-129662609D01*
X57951000Y-129337391D01*
X57948122Y-129322923D01*
X59721577Y-131096379D01*
X59712447Y-131118421D01*
X59649000Y-131437391D01*
X59649000Y-131762609D01*
X59712447Y-132081579D01*
X59836903Y-132382042D01*
X60017585Y-132652451D01*
X60247549Y-132882415D01*
X60517958Y-133063097D01*
X60818421Y-133187553D01*
X61137391Y-133251000D01*
X61462609Y-133251000D01*
X61781579Y-133187553D01*
X61803621Y-133178423D01*
X63940001Y-135314803D01*
X63940000Y-144885198D01*
X61803621Y-147021577D01*
X61781579Y-147012447D01*
X61462609Y-146949000D01*
X61137391Y-146949000D01*
X60818421Y-147012447D01*
X60517958Y-147136903D01*
X60247549Y-147317585D01*
X60017585Y-147547549D01*
X59836903Y-147817958D01*
X59712447Y-148118421D01*
X59649000Y-148437391D01*
X59649000Y-148762609D01*
X59712447Y-149081579D01*
X59721577Y-149103621D01*
X57588998Y-151236201D01*
X57560000Y-151259999D01*
X57536202Y-151288997D01*
X57536201Y-151288998D01*
X57465026Y-151375724D01*
X57394454Y-151507754D01*
X57350998Y-151651015D01*
X57336324Y-151800000D01*
X57340001Y-151837332D01*
X57340000Y-162209265D01*
X57082042Y-162036903D01*
X56781579Y-161912447D01*
X56462609Y-161849000D01*
X56137391Y-161849000D01*
X55818421Y-161912447D01*
X55517958Y-162036903D01*
X55247549Y-162217585D01*
X55017585Y-162447549D01*
X54836903Y-162717958D01*
X54712447Y-163018421D01*
X54649000Y-163337391D01*
X54649000Y-163662609D01*
X54712447Y-163981579D01*
X54836903Y-164282042D01*
X55017585Y-164552451D01*
X55247549Y-164782415D01*
X55517958Y-164963097D01*
X55818421Y-165087553D01*
X56137391Y-165151000D01*
X56462609Y-165151000D01*
X56781579Y-165087553D01*
X57082042Y-164963097D01*
X57352451Y-164782415D01*
X57582415Y-164552451D01*
X57763097Y-164282042D01*
X57887553Y-163981579D01*
X57951000Y-163662609D01*
X57951000Y-163337391D01*
X57948122Y-163322923D01*
X59721577Y-165096379D01*
X59712447Y-165118421D01*
X59649000Y-165437391D01*
X59649000Y-165762609D01*
X59712447Y-166081579D01*
X59836903Y-166382042D01*
X60017585Y-166652451D01*
X60247549Y-166882415D01*
X60517958Y-167063097D01*
X60818421Y-167187553D01*
X61137391Y-167251000D01*
X61462609Y-167251000D01*
X61781579Y-167187553D01*
X62082042Y-167063097D01*
X62352451Y-166882415D01*
X62582415Y-166652451D01*
X62763097Y-166382042D01*
X62887553Y-166081579D01*
X62951000Y-165762609D01*
X62951000Y-165437391D01*
X62887553Y-165118421D01*
X62763097Y-164817958D01*
X62582415Y-164547549D01*
X62352451Y-164317585D01*
X62082042Y-164136903D01*
X61781579Y-164012447D01*
X61462609Y-163949000D01*
X61137391Y-163949000D01*
X60818421Y-164012447D01*
X60796379Y-164021577D01*
X60595579Y-163820777D01*
X62865000Y-163820777D01*
X62865000Y-164379223D01*
X62973948Y-164926939D01*
X63187656Y-165442876D01*
X63497912Y-165907207D01*
X63892793Y-166302088D01*
X64357124Y-166612344D01*
X64873061Y-166826052D01*
X65420777Y-166935000D01*
X65979223Y-166935000D01*
X66526939Y-166826052D01*
X67042876Y-166612344D01*
X67507207Y-166302088D01*
X67902088Y-165907207D01*
X68212344Y-165442876D01*
X68426052Y-164926939D01*
X68535000Y-164379223D01*
X68535000Y-163820777D01*
X68438849Y-163337391D01*
X72649000Y-163337391D01*
X72649000Y-163662609D01*
X72712447Y-163981579D01*
X72836903Y-164282042D01*
X73017585Y-164552451D01*
X73247549Y-164782415D01*
X73517958Y-164963097D01*
X73818421Y-165087553D01*
X74137391Y-165151000D01*
X74462609Y-165151000D01*
X74781579Y-165087553D01*
X75082042Y-164963097D01*
X75352451Y-164782415D01*
X75582415Y-164552451D01*
X75763097Y-164282042D01*
X75887553Y-163981579D01*
X75951000Y-163662609D01*
X75951000Y-163337391D01*
X75887553Y-163018421D01*
X75763097Y-162717958D01*
X75582415Y-162447549D01*
X75352451Y-162217585D01*
X75082042Y-162036903D01*
X74781579Y-161912447D01*
X74462609Y-161849000D01*
X74137391Y-161849000D01*
X73818421Y-161912447D01*
X73517958Y-162036903D01*
X73247549Y-162217585D01*
X73017585Y-162447549D01*
X72836903Y-162717958D01*
X72712447Y-163018421D01*
X72649000Y-163337391D01*
X68438849Y-163337391D01*
X68426052Y-163273061D01*
X68212344Y-162757124D01*
X67902088Y-162292793D01*
X67507207Y-161897912D01*
X67042876Y-161587656D01*
X66526939Y-161373948D01*
X65979223Y-161265000D01*
X65420777Y-161265000D01*
X64873061Y-161373948D01*
X64357124Y-161587656D01*
X63892793Y-161897912D01*
X63497912Y-162292793D01*
X63187656Y-162757124D01*
X62973948Y-163273061D01*
X62865000Y-163820777D01*
X60595579Y-163820777D01*
X58860000Y-162085199D01*
X58860000Y-159468594D01*
X58950500Y-159468594D01*
X58950500Y-159931406D01*
X59040790Y-160385324D01*
X59217900Y-160812905D01*
X59475024Y-161197719D01*
X59802281Y-161524976D01*
X60187095Y-161782100D01*
X60614676Y-161959210D01*
X61068594Y-162049500D01*
X61531406Y-162049500D01*
X61985324Y-161959210D01*
X62412905Y-161782100D01*
X62797719Y-161524976D01*
X63124976Y-161197719D01*
X63382100Y-160812905D01*
X63559210Y-160385324D01*
X63649500Y-159931406D01*
X63649500Y-159553652D01*
X65314100Y-159553652D01*
X65314100Y-159846348D01*
X65371202Y-160133421D01*
X65483212Y-160403838D01*
X65645826Y-160647206D01*
X65852794Y-160854174D01*
X66096162Y-161016788D01*
X66366579Y-161128798D01*
X66653652Y-161185900D01*
X66946348Y-161185900D01*
X67233421Y-161128798D01*
X67503838Y-161016788D01*
X67747206Y-160854174D01*
X67954174Y-160647206D01*
X68116788Y-160403838D01*
X68228798Y-160133421D01*
X68285900Y-159846348D01*
X68285900Y-159553652D01*
X72314100Y-159553652D01*
X72314100Y-159846348D01*
X72371202Y-160133421D01*
X72483212Y-160403838D01*
X72645826Y-160647206D01*
X72852794Y-160854174D01*
X73096162Y-161016788D01*
X73366579Y-161128798D01*
X73653652Y-161185900D01*
X73946348Y-161185900D01*
X74233421Y-161128798D01*
X74503838Y-161016788D01*
X74747206Y-160854174D01*
X74954174Y-160647206D01*
X75116788Y-160403838D01*
X75228798Y-160133421D01*
X75285900Y-159846348D01*
X75285900Y-159553652D01*
X75268982Y-159468594D01*
X76950500Y-159468594D01*
X76950500Y-159931406D01*
X77040790Y-160385324D01*
X77217900Y-160812905D01*
X77475024Y-161197719D01*
X77802281Y-161524976D01*
X78187095Y-161782100D01*
X78614676Y-161959210D01*
X79068594Y-162049500D01*
X79531406Y-162049500D01*
X79985324Y-161959210D01*
X80412905Y-161782100D01*
X80797719Y-161524976D01*
X81124976Y-161197719D01*
X81382100Y-160812905D01*
X81559210Y-160385324D01*
X81649500Y-159931406D01*
X81649500Y-159468594D01*
X81559210Y-159014676D01*
X81382100Y-158587095D01*
X81124976Y-158202281D01*
X80797719Y-157875024D01*
X80412905Y-157617900D01*
X79985324Y-157440790D01*
X79531406Y-157350500D01*
X79068594Y-157350500D01*
X78614676Y-157440790D01*
X78187095Y-157617900D01*
X77802281Y-157875024D01*
X77475024Y-158202281D01*
X77217900Y-158587095D01*
X77040790Y-159014676D01*
X76950500Y-159468594D01*
X75268982Y-159468594D01*
X75228798Y-159266579D01*
X75116788Y-158996162D01*
X74954174Y-158752794D01*
X74747206Y-158545826D01*
X74503838Y-158383212D01*
X74233421Y-158271202D01*
X73946348Y-158214100D01*
X73653652Y-158214100D01*
X73366579Y-158271202D01*
X73096162Y-158383212D01*
X72852794Y-158545826D01*
X72645826Y-158752794D01*
X72483212Y-158996162D01*
X72371202Y-159266579D01*
X72314100Y-159553652D01*
X68285900Y-159553652D01*
X68228798Y-159266579D01*
X68116788Y-158996162D01*
X67954174Y-158752794D01*
X67747206Y-158545826D01*
X67503838Y-158383212D01*
X67233421Y-158271202D01*
X66946348Y-158214100D01*
X66653652Y-158214100D01*
X66366579Y-158271202D01*
X66096162Y-158383212D01*
X65852794Y-158545826D01*
X65645826Y-158752794D01*
X65483212Y-158996162D01*
X65371202Y-159266579D01*
X65314100Y-159553652D01*
X63649500Y-159553652D01*
X63649500Y-159468594D01*
X63559210Y-159014676D01*
X63382100Y-158587095D01*
X63124976Y-158202281D01*
X62797719Y-157875024D01*
X62412905Y-157617900D01*
X61985324Y-157440790D01*
X61531406Y-157350500D01*
X61068594Y-157350500D01*
X60614676Y-157440790D01*
X60187095Y-157617900D01*
X59802281Y-157875024D01*
X59475024Y-158202281D01*
X59217900Y-158587095D01*
X59040790Y-159014676D01*
X58950500Y-159468594D01*
X58860000Y-159468594D01*
X58860000Y-155388675D01*
X65389700Y-155388675D01*
X65389700Y-155611325D01*
X65433137Y-155829696D01*
X65518341Y-156035398D01*
X65642039Y-156220524D01*
X65799476Y-156377961D01*
X65984602Y-156501659D01*
X66190304Y-156586863D01*
X66408675Y-156630300D01*
X66631325Y-156630300D01*
X66849696Y-156586863D01*
X67055398Y-156501659D01*
X67240524Y-156377961D01*
X67397961Y-156220524D01*
X67521659Y-156035398D01*
X67606863Y-155829696D01*
X67650300Y-155611325D01*
X67650300Y-155388675D01*
X72949700Y-155388675D01*
X72949700Y-155611325D01*
X72993137Y-155829696D01*
X73078341Y-156035398D01*
X73202039Y-156220524D01*
X73359476Y-156377961D01*
X73544602Y-156501659D01*
X73750304Y-156586863D01*
X73968675Y-156630300D01*
X74191325Y-156630300D01*
X74409696Y-156586863D01*
X74615398Y-156501659D01*
X74800524Y-156377961D01*
X74957961Y-156220524D01*
X75081659Y-156035398D01*
X75166863Y-155829696D01*
X75210300Y-155611325D01*
X75210300Y-155388675D01*
X75166863Y-155170304D01*
X75081659Y-154964602D01*
X74957961Y-154779476D01*
X74800524Y-154622039D01*
X74615398Y-154498341D01*
X74409696Y-154413137D01*
X74191325Y-154369700D01*
X73968675Y-154369700D01*
X73750304Y-154413137D01*
X73544602Y-154498341D01*
X73359476Y-154622039D01*
X73202039Y-154779476D01*
X73078341Y-154964602D01*
X72993137Y-155170304D01*
X72949700Y-155388675D01*
X67650300Y-155388675D01*
X67606863Y-155170304D01*
X67521659Y-154964602D01*
X67397961Y-154779476D01*
X67240524Y-154622039D01*
X67055398Y-154498341D01*
X66849696Y-154413137D01*
X66631325Y-154369700D01*
X66408675Y-154369700D01*
X66190304Y-154413137D01*
X65984602Y-154498341D01*
X65799476Y-154622039D01*
X65642039Y-154779476D01*
X65518341Y-154964602D01*
X65433137Y-155170304D01*
X65389700Y-155388675D01*
X58860000Y-155388675D01*
X58860000Y-152114801D01*
X60796379Y-150178423D01*
X60818421Y-150187553D01*
X61137391Y-150251000D01*
X61462609Y-150251000D01*
X61781579Y-150187553D01*
X62082042Y-150063097D01*
X62352451Y-149882415D01*
X62582415Y-149652451D01*
X62763097Y-149382042D01*
X62887553Y-149081579D01*
X62951000Y-148762609D01*
X62951000Y-148437391D01*
X62887553Y-148118421D01*
X62878423Y-148096379D01*
X65211004Y-145763798D01*
X65240001Y-145740001D01*
X65266332Y-145707917D01*
X65334974Y-145624277D01*
X65405546Y-145492247D01*
X65419105Y-145447549D01*
X65449003Y-145348986D01*
X65460000Y-145237333D01*
X65460000Y-145237324D01*
X65463676Y-145200001D01*
X65460000Y-145162678D01*
X65460000Y-143347799D01*
X65483212Y-143403838D01*
X65645826Y-143647206D01*
X65852794Y-143854174D01*
X66096162Y-144016788D01*
X66366579Y-144128798D01*
X66653652Y-144185900D01*
X66946348Y-144185900D01*
X67233421Y-144128798D01*
X67503838Y-144016788D01*
X67747206Y-143854174D01*
X67954174Y-143647206D01*
X68116788Y-143403838D01*
X68228798Y-143133421D01*
X68285900Y-142846348D01*
X68285900Y-142553652D01*
X68228798Y-142266579D01*
X68116788Y-141996162D01*
X67954174Y-141752794D01*
X67747206Y-141545826D01*
X67503838Y-141383212D01*
X67233421Y-141271202D01*
X66946348Y-141214100D01*
X66653652Y-141214100D01*
X66366579Y-141271202D01*
X66096162Y-141383212D01*
X65852794Y-141545826D01*
X65645826Y-141752794D01*
X65483212Y-141996162D01*
X65460000Y-142052201D01*
X65460000Y-138894549D01*
X65518341Y-139035398D01*
X65642039Y-139220524D01*
X65799476Y-139377961D01*
X65984602Y-139501659D01*
X66190304Y-139586863D01*
X66408675Y-139630300D01*
X66631325Y-139630300D01*
X66849696Y-139586863D01*
X67055398Y-139501659D01*
X67240524Y-139377961D01*
X67397961Y-139220524D01*
X67521659Y-139035398D01*
X67606863Y-138829696D01*
X67650300Y-138611325D01*
X67650300Y-138388675D01*
X67606863Y-138170304D01*
X67521659Y-137964602D01*
X67397961Y-137779476D01*
X67240524Y-137622039D01*
X67055398Y-137498341D01*
X66849696Y-137413137D01*
X66631325Y-137369700D01*
X66408675Y-137369700D01*
X66190304Y-137413137D01*
X65984602Y-137498341D01*
X65799476Y-137622039D01*
X65642039Y-137779476D01*
X65518341Y-137964602D01*
X65460000Y-138105451D01*
X65460000Y-135037322D01*
X65463676Y-134999999D01*
X65460000Y-134962676D01*
X65460000Y-134962667D01*
X65449003Y-134851014D01*
X65405546Y-134707753D01*
X65334974Y-134575723D01*
X65263799Y-134488997D01*
X65240001Y-134459999D01*
X65211003Y-134436201D01*
X62878423Y-132103621D01*
X62887553Y-132081579D01*
X62951000Y-131762609D01*
X62951000Y-131437391D01*
X62887553Y-131118421D01*
X62763097Y-130817958D01*
X62582415Y-130547549D01*
X62352451Y-130317585D01*
X62082042Y-130136903D01*
X61781579Y-130012447D01*
X61462609Y-129949000D01*
X61137391Y-129949000D01*
X60818421Y-130012447D01*
X60796379Y-130021577D01*
X58860000Y-128085199D01*
X58860000Y-125468594D01*
X58950500Y-125468594D01*
X58950500Y-125931406D01*
X59040790Y-126385324D01*
X59217900Y-126812905D01*
X59475024Y-127197719D01*
X59802281Y-127524976D01*
X60187095Y-127782100D01*
X60614676Y-127959210D01*
X61068594Y-128049500D01*
X61531406Y-128049500D01*
X61985324Y-127959210D01*
X62412905Y-127782100D01*
X62797719Y-127524976D01*
X63124976Y-127197719D01*
X63340000Y-126875912D01*
X63340000Y-127062677D01*
X63336324Y-127100000D01*
X63340000Y-127137322D01*
X63340000Y-127137332D01*
X63350997Y-127248985D01*
X63394454Y-127392246D01*
X63465026Y-127524276D01*
X63504871Y-127572826D01*
X63559999Y-127640001D01*
X63589003Y-127663804D01*
X68640001Y-132714803D01*
X68640000Y-145462678D01*
X68636324Y-145500000D01*
X68640000Y-145537322D01*
X68640000Y-145537332D01*
X68650997Y-145648985D01*
X68678606Y-145740001D01*
X68694454Y-145792246D01*
X68765026Y-145924276D01*
X68797362Y-145963677D01*
X68859999Y-146040001D01*
X68889003Y-146063804D01*
X71936200Y-149111002D01*
X71959999Y-149140001D01*
X71988997Y-149163799D01*
X72075723Y-149234974D01*
X72207753Y-149305546D01*
X72351014Y-149349003D01*
X72462667Y-149360000D01*
X72462676Y-149360000D01*
X72499999Y-149363676D01*
X72537322Y-149360000D01*
X77827773Y-149360000D01*
X77836903Y-149382042D01*
X78017585Y-149652451D01*
X78247549Y-149882415D01*
X78517958Y-150063097D01*
X78818421Y-150187553D01*
X79137391Y-150251000D01*
X79462609Y-150251000D01*
X79781579Y-150187553D01*
X79803621Y-150178423D01*
X81840001Y-152214803D01*
X81840000Y-161985198D01*
X79803621Y-164021577D01*
X79781579Y-164012447D01*
X79462609Y-163949000D01*
X79137391Y-163949000D01*
X78818421Y-164012447D01*
X78517958Y-164136903D01*
X78247549Y-164317585D01*
X78017585Y-164547549D01*
X77836903Y-164817958D01*
X77712447Y-165118421D01*
X77649000Y-165437391D01*
X77649000Y-165762609D01*
X77712447Y-166081579D01*
X77836903Y-166382042D01*
X78017585Y-166652451D01*
X78247549Y-166882415D01*
X78517958Y-167063097D01*
X78818421Y-167187553D01*
X79137391Y-167251000D01*
X79462609Y-167251000D01*
X79781579Y-167187553D01*
X80082042Y-167063097D01*
X80352451Y-166882415D01*
X80582415Y-166652451D01*
X80763097Y-166382042D01*
X80887553Y-166081579D01*
X80951000Y-165762609D01*
X80951000Y-165437391D01*
X80887553Y-165118421D01*
X80878423Y-165096379D01*
X83111004Y-162863798D01*
X83140001Y-162840001D01*
X83234974Y-162724276D01*
X83305546Y-162592247D01*
X83349003Y-162448986D01*
X83360000Y-162337333D01*
X83360000Y-162337325D01*
X83363676Y-162300000D01*
X83360000Y-162262675D01*
X83360000Y-160077104D01*
X83371202Y-160133421D01*
X83483212Y-160403838D01*
X83645826Y-160647206D01*
X83852794Y-160854174D01*
X84096162Y-161016788D01*
X84366579Y-161128798D01*
X84653652Y-161185900D01*
X84946348Y-161185900D01*
X85233421Y-161128798D01*
X85503838Y-161016788D01*
X85747206Y-160854174D01*
X85954174Y-160647206D01*
X86116788Y-160403838D01*
X86228798Y-160133421D01*
X86285900Y-159846348D01*
X86285900Y-159553652D01*
X86228798Y-159266579D01*
X86116788Y-158996162D01*
X85954174Y-158752794D01*
X85747206Y-158545826D01*
X85503838Y-158383212D01*
X85233421Y-158271202D01*
X84946348Y-158214100D01*
X84653652Y-158214100D01*
X84366579Y-158271202D01*
X84096162Y-158383212D01*
X83852794Y-158545826D01*
X83645826Y-158752794D01*
X83483212Y-158996162D01*
X83371202Y-159266579D01*
X83360000Y-159322896D01*
X83360000Y-155388675D01*
X83389700Y-155388675D01*
X83389700Y-155611325D01*
X83433137Y-155829696D01*
X83518341Y-156035398D01*
X83642039Y-156220524D01*
X83799476Y-156377961D01*
X83984602Y-156501659D01*
X84190304Y-156586863D01*
X84408675Y-156630300D01*
X84631325Y-156630300D01*
X84849696Y-156586863D01*
X85055398Y-156501659D01*
X85240524Y-156377961D01*
X85397961Y-156220524D01*
X85521659Y-156035398D01*
X85606863Y-155829696D01*
X85650300Y-155611325D01*
X85650300Y-155388675D01*
X85606863Y-155170304D01*
X85521659Y-154964602D01*
X85397961Y-154779476D01*
X85240524Y-154622039D01*
X85055398Y-154498341D01*
X84849696Y-154413137D01*
X84631325Y-154369700D01*
X84408675Y-154369700D01*
X84190304Y-154413137D01*
X83984602Y-154498341D01*
X83799476Y-154622039D01*
X83642039Y-154779476D01*
X83518341Y-154964602D01*
X83433137Y-155170304D01*
X83389700Y-155388675D01*
X83360000Y-155388675D01*
X83360000Y-151937325D01*
X83363676Y-151900000D01*
X83360000Y-151862675D01*
X83360000Y-151862667D01*
X83349003Y-151751014D01*
X83305546Y-151607753D01*
X83234974Y-151475724D01*
X83140001Y-151359999D01*
X83111003Y-151336201D01*
X80878423Y-149103621D01*
X80887553Y-149081579D01*
X80951000Y-148762609D01*
X80951000Y-148437391D01*
X80887553Y-148118421D01*
X80763097Y-147817958D01*
X80582415Y-147547549D01*
X80352451Y-147317585D01*
X80082042Y-147136903D01*
X79781579Y-147012447D01*
X79462609Y-146949000D01*
X79137391Y-146949000D01*
X78818421Y-147012447D01*
X78517958Y-147136903D01*
X78247549Y-147317585D01*
X78017585Y-147547549D01*
X77836903Y-147817958D01*
X77827773Y-147840000D01*
X75266269Y-147840000D01*
X75352451Y-147782415D01*
X75582415Y-147552451D01*
X75763097Y-147282042D01*
X75887553Y-146981579D01*
X75951000Y-146662609D01*
X75951000Y-146337391D01*
X75887553Y-146018421D01*
X75763097Y-145717958D01*
X75582415Y-145447549D01*
X75352451Y-145217585D01*
X75082042Y-145036903D01*
X74781579Y-144912447D01*
X74462609Y-144849000D01*
X74137391Y-144849000D01*
X73818421Y-144912447D01*
X73517958Y-145036903D01*
X73247549Y-145217585D01*
X73017585Y-145447549D01*
X72836903Y-145717958D01*
X72712447Y-146018421D01*
X72649000Y-146337391D01*
X72649000Y-146662609D01*
X72712447Y-146981579D01*
X72836903Y-147282042D01*
X73017585Y-147552451D01*
X73247549Y-147782415D01*
X73333731Y-147840000D01*
X72814802Y-147840000D01*
X70160000Y-145185199D01*
X70160000Y-142553652D01*
X72314100Y-142553652D01*
X72314100Y-142846348D01*
X72371202Y-143133421D01*
X72483212Y-143403838D01*
X72645826Y-143647206D01*
X72852794Y-143854174D01*
X73096162Y-144016788D01*
X73366579Y-144128798D01*
X73653652Y-144185900D01*
X73946348Y-144185900D01*
X74233421Y-144128798D01*
X74503838Y-144016788D01*
X74747206Y-143854174D01*
X74954174Y-143647206D01*
X75116788Y-143403838D01*
X75228798Y-143133421D01*
X75285900Y-142846348D01*
X75285900Y-142553652D01*
X75268982Y-142468594D01*
X76950500Y-142468594D01*
X76950500Y-142931406D01*
X77040790Y-143385324D01*
X77217900Y-143812905D01*
X77475024Y-144197719D01*
X77802281Y-144524976D01*
X78187095Y-144782100D01*
X78614676Y-144959210D01*
X79068594Y-145049500D01*
X79531406Y-145049500D01*
X79985324Y-144959210D01*
X80412905Y-144782100D01*
X80797719Y-144524976D01*
X81124976Y-144197719D01*
X81382100Y-143812905D01*
X81559210Y-143385324D01*
X81649500Y-142931406D01*
X81649500Y-142604801D01*
X86640001Y-147595303D01*
X86640000Y-162162678D01*
X86636324Y-162200000D01*
X86640000Y-162237322D01*
X86640000Y-162237332D01*
X86650997Y-162348985D01*
X86694454Y-162492246D01*
X86765026Y-162624276D01*
X86782822Y-162645960D01*
X86859999Y-162740001D01*
X86889003Y-162763804D01*
X90236201Y-166111003D01*
X90259999Y-166140001D01*
X90288997Y-166163799D01*
X90375723Y-166234974D01*
X90501284Y-166302088D01*
X90507753Y-166305546D01*
X90651014Y-166349003D01*
X90762667Y-166360000D01*
X90762676Y-166360000D01*
X90799999Y-166363676D01*
X90837322Y-166360000D01*
X95827773Y-166360000D01*
X95836903Y-166382042D01*
X96017585Y-166652451D01*
X96247549Y-166882415D01*
X96517958Y-167063097D01*
X96818421Y-167187553D01*
X97137391Y-167251000D01*
X97462609Y-167251000D01*
X97781579Y-167187553D01*
X98082042Y-167063097D01*
X98352451Y-166882415D01*
X98582415Y-166652451D01*
X98763097Y-166382042D01*
X98887553Y-166081579D01*
X98951000Y-165762609D01*
X98951000Y-165437391D01*
X98887553Y-165118421D01*
X98763097Y-164817958D01*
X98582415Y-164547549D01*
X98352451Y-164317585D01*
X98082042Y-164136903D01*
X97781579Y-164012447D01*
X97462609Y-163949000D01*
X97137391Y-163949000D01*
X96818421Y-164012447D01*
X96517958Y-164136903D01*
X96247549Y-164317585D01*
X96017585Y-164547549D01*
X95836903Y-164817958D01*
X95827773Y-164840000D01*
X93266269Y-164840000D01*
X93352451Y-164782415D01*
X93582415Y-164552451D01*
X93763097Y-164282042D01*
X93887553Y-163981579D01*
X93939429Y-163720777D01*
X98865000Y-163720777D01*
X98865000Y-164279223D01*
X98973948Y-164826939D01*
X99187656Y-165342876D01*
X99497912Y-165807207D01*
X99892793Y-166202088D01*
X100357124Y-166512344D01*
X100873061Y-166726052D01*
X101420777Y-166835000D01*
X101979223Y-166835000D01*
X102526939Y-166726052D01*
X103042876Y-166512344D01*
X103507207Y-166202088D01*
X103902088Y-165807207D01*
X104212344Y-165342876D01*
X104426052Y-164826939D01*
X104535000Y-164279223D01*
X104535000Y-163720777D01*
X104426052Y-163173061D01*
X104212344Y-162657124D01*
X103902088Y-162192793D01*
X103507207Y-161797912D01*
X103042876Y-161487656D01*
X102526939Y-161273948D01*
X101979223Y-161165000D01*
X101420777Y-161165000D01*
X100873061Y-161273948D01*
X100357124Y-161487656D01*
X99892793Y-161797912D01*
X99497912Y-162192793D01*
X99187656Y-162657124D01*
X98973948Y-163173061D01*
X98865000Y-163720777D01*
X93939429Y-163720777D01*
X93951000Y-163662609D01*
X93951000Y-163337391D01*
X93887553Y-163018421D01*
X93763097Y-162717958D01*
X93582415Y-162447549D01*
X93352451Y-162217585D01*
X93082042Y-162036903D01*
X92781579Y-161912447D01*
X92462609Y-161849000D01*
X92137391Y-161849000D01*
X91818421Y-161912447D01*
X91517958Y-162036903D01*
X91247549Y-162217585D01*
X91017585Y-162447549D01*
X90836903Y-162717958D01*
X90712447Y-163018421D01*
X90649000Y-163337391D01*
X90649000Y-163662609D01*
X90712447Y-163981579D01*
X90836903Y-164282042D01*
X91017585Y-164552451D01*
X91247549Y-164782415D01*
X91333731Y-164840000D01*
X91114802Y-164840000D01*
X88160000Y-161885199D01*
X88160000Y-159553652D01*
X90314100Y-159553652D01*
X90314100Y-159846348D01*
X90371202Y-160133421D01*
X90483212Y-160403838D01*
X90645826Y-160647206D01*
X90852794Y-160854174D01*
X91096162Y-161016788D01*
X91366579Y-161128798D01*
X91653652Y-161185900D01*
X91946348Y-161185900D01*
X92233421Y-161128798D01*
X92503838Y-161016788D01*
X92747206Y-160854174D01*
X92954174Y-160647206D01*
X93116788Y-160403838D01*
X93228798Y-160133421D01*
X93285900Y-159846348D01*
X93285900Y-159553652D01*
X93268982Y-159468594D01*
X94950500Y-159468594D01*
X94950500Y-159931406D01*
X95040790Y-160385324D01*
X95217900Y-160812905D01*
X95475024Y-161197719D01*
X95802281Y-161524976D01*
X96187095Y-161782100D01*
X96614676Y-161959210D01*
X97068594Y-162049500D01*
X97531406Y-162049500D01*
X97985324Y-161959210D01*
X98412905Y-161782100D01*
X98797719Y-161524976D01*
X99124976Y-161197719D01*
X99382100Y-160812905D01*
X99559210Y-160385324D01*
X99649500Y-159931406D01*
X99649500Y-159553652D01*
X101314100Y-159553652D01*
X101314100Y-159846348D01*
X101371202Y-160133421D01*
X101483212Y-160403838D01*
X101645826Y-160647206D01*
X101852794Y-160854174D01*
X102096162Y-161016788D01*
X102366579Y-161128798D01*
X102653652Y-161185900D01*
X102946348Y-161185900D01*
X103233421Y-161128798D01*
X103503838Y-161016788D01*
X103747206Y-160854174D01*
X103954174Y-160647206D01*
X104116788Y-160403838D01*
X104228798Y-160133421D01*
X104285900Y-159846348D01*
X104285900Y-159553652D01*
X104228798Y-159266579D01*
X104116788Y-158996162D01*
X103954174Y-158752794D01*
X103747206Y-158545826D01*
X103503838Y-158383212D01*
X103233421Y-158271202D01*
X102946348Y-158214100D01*
X102653652Y-158214100D01*
X102366579Y-158271202D01*
X102096162Y-158383212D01*
X101852794Y-158545826D01*
X101645826Y-158752794D01*
X101483212Y-158996162D01*
X101371202Y-159266579D01*
X101314100Y-159553652D01*
X99649500Y-159553652D01*
X99649500Y-159468594D01*
X99559210Y-159014676D01*
X99382100Y-158587095D01*
X99124976Y-158202281D01*
X98797719Y-157875024D01*
X98412905Y-157617900D01*
X97985324Y-157440790D01*
X97531406Y-157350500D01*
X97068594Y-157350500D01*
X96614676Y-157440790D01*
X96187095Y-157617900D01*
X95802281Y-157875024D01*
X95475024Y-158202281D01*
X95217900Y-158587095D01*
X95040790Y-159014676D01*
X94950500Y-159468594D01*
X93268982Y-159468594D01*
X93228798Y-159266579D01*
X93116788Y-158996162D01*
X92954174Y-158752794D01*
X92747206Y-158545826D01*
X92503838Y-158383212D01*
X92233421Y-158271202D01*
X91946348Y-158214100D01*
X91653652Y-158214100D01*
X91366579Y-158271202D01*
X91096162Y-158383212D01*
X90852794Y-158545826D01*
X90645826Y-158752794D01*
X90483212Y-158996162D01*
X90371202Y-159266579D01*
X90314100Y-159553652D01*
X88160000Y-159553652D01*
X88160000Y-155388675D01*
X90949700Y-155388675D01*
X90949700Y-155611325D01*
X90993137Y-155829696D01*
X91078341Y-156035398D01*
X91202039Y-156220524D01*
X91359476Y-156377961D01*
X91544602Y-156501659D01*
X91750304Y-156586863D01*
X91968675Y-156630300D01*
X92191325Y-156630300D01*
X92409696Y-156586863D01*
X92615398Y-156501659D01*
X92800524Y-156377961D01*
X92957961Y-156220524D01*
X93081659Y-156035398D01*
X93166863Y-155829696D01*
X93210300Y-155611325D01*
X93210300Y-155388675D01*
X101389700Y-155388675D01*
X101389700Y-155611325D01*
X101433137Y-155829696D01*
X101518341Y-156035398D01*
X101642039Y-156220524D01*
X101799476Y-156377961D01*
X101984602Y-156501659D01*
X102190304Y-156586863D01*
X102408675Y-156630300D01*
X102631325Y-156630300D01*
X102849696Y-156586863D01*
X103055398Y-156501659D01*
X103240524Y-156377961D01*
X103397961Y-156220524D01*
X103521659Y-156035398D01*
X103606863Y-155829696D01*
X103650300Y-155611325D01*
X103650300Y-155388675D01*
X103606863Y-155170304D01*
X103521659Y-154964602D01*
X103397961Y-154779476D01*
X103240524Y-154622039D01*
X103055398Y-154498341D01*
X102849696Y-154413137D01*
X102631325Y-154369700D01*
X102408675Y-154369700D01*
X102190304Y-154413137D01*
X101984602Y-154498341D01*
X101799476Y-154622039D01*
X101642039Y-154779476D01*
X101518341Y-154964602D01*
X101433137Y-155170304D01*
X101389700Y-155388675D01*
X93210300Y-155388675D01*
X93166863Y-155170304D01*
X93081659Y-154964602D01*
X92957961Y-154779476D01*
X92800524Y-154622039D01*
X92615398Y-154498341D01*
X92409696Y-154413137D01*
X92191325Y-154369700D01*
X91968675Y-154369700D01*
X91750304Y-154413137D01*
X91544602Y-154498341D01*
X91359476Y-154622039D01*
X91202039Y-154779476D01*
X91078341Y-154964602D01*
X90993137Y-155170304D01*
X90949700Y-155388675D01*
X88160000Y-155388675D01*
X88160000Y-148437391D01*
X95649000Y-148437391D01*
X95649000Y-148762609D01*
X95712447Y-149081579D01*
X95836903Y-149382042D01*
X96017585Y-149652451D01*
X96247549Y-149882415D01*
X96517958Y-150063097D01*
X96818421Y-150187553D01*
X97137391Y-150251000D01*
X97462609Y-150251000D01*
X97781579Y-150187553D01*
X98082042Y-150063097D01*
X98352451Y-149882415D01*
X98582415Y-149652451D01*
X98763097Y-149382042D01*
X98887553Y-149081579D01*
X98951000Y-148762609D01*
X98951000Y-148437391D01*
X98887553Y-148118421D01*
X98763097Y-147817958D01*
X98582415Y-147547549D01*
X98352451Y-147317585D01*
X98082042Y-147136903D01*
X97781579Y-147012447D01*
X97462609Y-146949000D01*
X97137391Y-146949000D01*
X96818421Y-147012447D01*
X96517958Y-147136903D01*
X96247549Y-147317585D01*
X96017585Y-147547549D01*
X95836903Y-147817958D01*
X95712447Y-148118421D01*
X95649000Y-148437391D01*
X88160000Y-148437391D01*
X88160000Y-147317822D01*
X88163676Y-147280499D01*
X88160000Y-147243177D01*
X88160000Y-147243167D01*
X88149003Y-147131514D01*
X88105546Y-146988253D01*
X88084565Y-146949000D01*
X88034974Y-146856223D01*
X87963799Y-146769497D01*
X87940001Y-146740499D01*
X87911003Y-146716701D01*
X87531693Y-146337391D01*
X90649000Y-146337391D01*
X90649000Y-146662609D01*
X90712447Y-146981579D01*
X90836903Y-147282042D01*
X91017585Y-147552451D01*
X91247549Y-147782415D01*
X91517958Y-147963097D01*
X91818421Y-148087553D01*
X92137391Y-148151000D01*
X92462609Y-148151000D01*
X92781579Y-148087553D01*
X93082042Y-147963097D01*
X93352451Y-147782415D01*
X93582415Y-147552451D01*
X93763097Y-147282042D01*
X93887553Y-146981579D01*
X93951000Y-146662609D01*
X93951000Y-146337391D01*
X93887553Y-146018421D01*
X93763097Y-145717958D01*
X93582415Y-145447549D01*
X93352451Y-145217585D01*
X93082042Y-145036903D01*
X92781579Y-144912447D01*
X92462609Y-144849000D01*
X92137391Y-144849000D01*
X91818421Y-144912447D01*
X91517958Y-145036903D01*
X91247549Y-145217585D01*
X91017585Y-145447549D01*
X90836903Y-145717958D01*
X90712447Y-146018421D01*
X90649000Y-146337391D01*
X87531693Y-146337391D01*
X85296833Y-144102532D01*
X85503838Y-144016788D01*
X85747206Y-143854174D01*
X85954174Y-143647206D01*
X86116788Y-143403838D01*
X86228798Y-143133421D01*
X86285900Y-142846348D01*
X86285900Y-142553652D01*
X90314100Y-142553652D01*
X90314100Y-142846348D01*
X90371202Y-143133421D01*
X90483212Y-143403838D01*
X90645826Y-143647206D01*
X90852794Y-143854174D01*
X91096162Y-144016788D01*
X91366579Y-144128798D01*
X91653652Y-144185900D01*
X91946348Y-144185900D01*
X92233421Y-144128798D01*
X92503838Y-144016788D01*
X92747206Y-143854174D01*
X92954174Y-143647206D01*
X93116788Y-143403838D01*
X93228798Y-143133421D01*
X93285900Y-142846348D01*
X93285900Y-142553652D01*
X93268982Y-142468594D01*
X94950500Y-142468594D01*
X94950500Y-142931406D01*
X95040790Y-143385324D01*
X95217900Y-143812905D01*
X95475024Y-144197719D01*
X95802281Y-144524976D01*
X96187095Y-144782100D01*
X96614676Y-144959210D01*
X97068594Y-145049500D01*
X97531406Y-145049500D01*
X97985324Y-144959210D01*
X98412905Y-144782100D01*
X98797719Y-144524976D01*
X99124976Y-144197719D01*
X99382100Y-143812905D01*
X99559210Y-143385324D01*
X99649500Y-142931406D01*
X99649500Y-142553652D01*
X101314100Y-142553652D01*
X101314100Y-142846348D01*
X101371202Y-143133421D01*
X101483212Y-143403838D01*
X101645826Y-143647206D01*
X101852794Y-143854174D01*
X102096162Y-144016788D01*
X102366579Y-144128798D01*
X102653652Y-144185900D01*
X102946348Y-144185900D01*
X103233421Y-144128798D01*
X103503838Y-144016788D01*
X103747206Y-143854174D01*
X103954174Y-143647206D01*
X104116788Y-143403838D01*
X104228798Y-143133421D01*
X104285900Y-142846348D01*
X104285900Y-142553652D01*
X104228798Y-142266579D01*
X104116788Y-141996162D01*
X103954174Y-141752794D01*
X103747206Y-141545826D01*
X103503838Y-141383212D01*
X103233421Y-141271202D01*
X102946348Y-141214100D01*
X102653652Y-141214100D01*
X102366579Y-141271202D01*
X102096162Y-141383212D01*
X101852794Y-141545826D01*
X101645826Y-141752794D01*
X101483212Y-141996162D01*
X101371202Y-142266579D01*
X101314100Y-142553652D01*
X99649500Y-142553652D01*
X99649500Y-142468594D01*
X99559210Y-142014676D01*
X99382100Y-141587095D01*
X99124976Y-141202281D01*
X98797719Y-140875024D01*
X98412905Y-140617900D01*
X97985324Y-140440790D01*
X97531406Y-140350500D01*
X97068594Y-140350500D01*
X96614676Y-140440790D01*
X96187095Y-140617900D01*
X95802281Y-140875024D01*
X95475024Y-141202281D01*
X95217900Y-141587095D01*
X95040790Y-142014676D01*
X94950500Y-142468594D01*
X93268982Y-142468594D01*
X93228798Y-142266579D01*
X93116788Y-141996162D01*
X92954174Y-141752794D01*
X92747206Y-141545826D01*
X92503838Y-141383212D01*
X92233421Y-141271202D01*
X91946348Y-141214100D01*
X91653652Y-141214100D01*
X91366579Y-141271202D01*
X91096162Y-141383212D01*
X90852794Y-141545826D01*
X90645826Y-141752794D01*
X90483212Y-141996162D01*
X90371202Y-142266579D01*
X90314100Y-142553652D01*
X86285900Y-142553652D01*
X86228798Y-142266579D01*
X86116788Y-141996162D01*
X85954174Y-141752794D01*
X85747206Y-141545826D01*
X85503838Y-141383212D01*
X85233421Y-141271202D01*
X84946348Y-141214100D01*
X84653652Y-141214100D01*
X84366579Y-141271202D01*
X84096162Y-141383212D01*
X83852794Y-141545826D01*
X83645826Y-141752794D01*
X83483212Y-141996162D01*
X83397468Y-142203167D01*
X82315000Y-141120699D01*
X82315000Y-141058561D01*
X82275226Y-140858602D01*
X82197205Y-140670244D01*
X82083937Y-140500726D01*
X81939774Y-140356563D01*
X81770256Y-140243295D01*
X81581898Y-140165274D01*
X81381939Y-140125500D01*
X81178061Y-140125500D01*
X80978102Y-140165274D01*
X80789744Y-140243295D01*
X80620226Y-140356563D01*
X80476063Y-140500726D01*
X80401051Y-140612990D01*
X79985324Y-140440790D01*
X79531406Y-140350500D01*
X79068594Y-140350500D01*
X78614676Y-140440790D01*
X78187095Y-140617900D01*
X77802281Y-140875024D01*
X77475024Y-141202281D01*
X77217900Y-141587095D01*
X77040790Y-142014676D01*
X76950500Y-142468594D01*
X75268982Y-142468594D01*
X75228798Y-142266579D01*
X75116788Y-141996162D01*
X74954174Y-141752794D01*
X74747206Y-141545826D01*
X74503838Y-141383212D01*
X74233421Y-141271202D01*
X73946348Y-141214100D01*
X73653652Y-141214100D01*
X73366579Y-141271202D01*
X73096162Y-141383212D01*
X72852794Y-141545826D01*
X72645826Y-141752794D01*
X72483212Y-141996162D01*
X72371202Y-142266579D01*
X72314100Y-142553652D01*
X70160000Y-142553652D01*
X70160000Y-138388675D01*
X72949700Y-138388675D01*
X72949700Y-138611325D01*
X72993137Y-138829696D01*
X73078341Y-139035398D01*
X73202039Y-139220524D01*
X73359476Y-139377961D01*
X73544602Y-139501659D01*
X73750304Y-139586863D01*
X73968675Y-139630300D01*
X74191325Y-139630300D01*
X74409696Y-139586863D01*
X74615398Y-139501659D01*
X74800524Y-139377961D01*
X74957961Y-139220524D01*
X75081659Y-139035398D01*
X75166863Y-138829696D01*
X75210300Y-138611325D01*
X75210300Y-138388675D01*
X83389700Y-138388675D01*
X83389700Y-138611325D01*
X83433137Y-138829696D01*
X83518341Y-139035398D01*
X83642039Y-139220524D01*
X83799476Y-139377961D01*
X83984602Y-139501659D01*
X84190304Y-139586863D01*
X84408675Y-139630300D01*
X84631325Y-139630300D01*
X84849696Y-139586863D01*
X85055398Y-139501659D01*
X85240524Y-139377961D01*
X85397961Y-139220524D01*
X85521659Y-139035398D01*
X85606863Y-138829696D01*
X85650300Y-138611325D01*
X85650300Y-138388675D01*
X90949700Y-138388675D01*
X90949700Y-138611325D01*
X90993137Y-138829696D01*
X91078341Y-139035398D01*
X91202039Y-139220524D01*
X91359476Y-139377961D01*
X91544602Y-139501659D01*
X91750304Y-139586863D01*
X91968675Y-139630300D01*
X92191325Y-139630300D01*
X92409696Y-139586863D01*
X92615398Y-139501659D01*
X92800524Y-139377961D01*
X92957961Y-139220524D01*
X93081659Y-139035398D01*
X93166863Y-138829696D01*
X93210300Y-138611325D01*
X93210300Y-138388675D01*
X101389700Y-138388675D01*
X101389700Y-138611325D01*
X101433137Y-138829696D01*
X101518341Y-139035398D01*
X101642039Y-139220524D01*
X101799476Y-139377961D01*
X101984602Y-139501659D01*
X102190304Y-139586863D01*
X102408675Y-139630300D01*
X102631325Y-139630300D01*
X102849696Y-139586863D01*
X103055398Y-139501659D01*
X103240524Y-139377961D01*
X103397961Y-139220524D01*
X103521659Y-139035398D01*
X103606863Y-138829696D01*
X103650300Y-138611325D01*
X103650300Y-138388675D01*
X103606863Y-138170304D01*
X103521659Y-137964602D01*
X103397961Y-137779476D01*
X103240524Y-137622039D01*
X103055398Y-137498341D01*
X102849696Y-137413137D01*
X102631325Y-137369700D01*
X102408675Y-137369700D01*
X102190304Y-137413137D01*
X101984602Y-137498341D01*
X101799476Y-137622039D01*
X101642039Y-137779476D01*
X101518341Y-137964602D01*
X101433137Y-138170304D01*
X101389700Y-138388675D01*
X93210300Y-138388675D01*
X93166863Y-138170304D01*
X93081659Y-137964602D01*
X92957961Y-137779476D01*
X92800524Y-137622039D01*
X92615398Y-137498341D01*
X92409696Y-137413137D01*
X92191325Y-137369700D01*
X91968675Y-137369700D01*
X91750304Y-137413137D01*
X91544602Y-137498341D01*
X91359476Y-137622039D01*
X91202039Y-137779476D01*
X91078341Y-137964602D01*
X90993137Y-138170304D01*
X90949700Y-138388675D01*
X85650300Y-138388675D01*
X85606863Y-138170304D01*
X85521659Y-137964602D01*
X85397961Y-137779476D01*
X85240524Y-137622039D01*
X85055398Y-137498341D01*
X84849696Y-137413137D01*
X84631325Y-137369700D01*
X84408675Y-137369700D01*
X84190304Y-137413137D01*
X83984602Y-137498341D01*
X83799476Y-137622039D01*
X83642039Y-137779476D01*
X83518341Y-137964602D01*
X83433137Y-138170304D01*
X83389700Y-138388675D01*
X75210300Y-138388675D01*
X75166863Y-138170304D01*
X75081659Y-137964602D01*
X74957961Y-137779476D01*
X74800524Y-137622039D01*
X74615398Y-137498341D01*
X74409696Y-137413137D01*
X74191325Y-137369700D01*
X73968675Y-137369700D01*
X73750304Y-137413137D01*
X73544602Y-137498341D01*
X73359476Y-137622039D01*
X73202039Y-137779476D01*
X73078341Y-137964602D01*
X72993137Y-138170304D01*
X72949700Y-138388675D01*
X70160000Y-138388675D01*
X70160000Y-132437323D01*
X70163676Y-132400000D01*
X70160000Y-132362677D01*
X70160000Y-132362667D01*
X70149003Y-132251014D01*
X70105546Y-132107753D01*
X70060926Y-132024276D01*
X70034974Y-131975723D01*
X69963799Y-131888997D01*
X69940001Y-131859999D01*
X69911003Y-131836201D01*
X67412193Y-129337391D01*
X72649000Y-129337391D01*
X72649000Y-129662609D01*
X72712447Y-129981579D01*
X72836903Y-130282042D01*
X73017585Y-130552451D01*
X73247549Y-130782415D01*
X73517958Y-130963097D01*
X73818421Y-131087553D01*
X74137391Y-131151000D01*
X74462609Y-131151000D01*
X74781579Y-131087553D01*
X75082042Y-130963097D01*
X75352451Y-130782415D01*
X75582415Y-130552451D01*
X75763097Y-130282042D01*
X75887553Y-129981579D01*
X75951000Y-129662609D01*
X75951000Y-129337391D01*
X75887553Y-129018421D01*
X75763097Y-128717958D01*
X75582415Y-128447549D01*
X75352451Y-128217585D01*
X75082042Y-128036903D01*
X74781579Y-127912447D01*
X74462609Y-127849000D01*
X74137391Y-127849000D01*
X73818421Y-127912447D01*
X73517958Y-128036903D01*
X73247549Y-128217585D01*
X73017585Y-128447549D01*
X72836903Y-128717958D01*
X72712447Y-129018421D01*
X72649000Y-129337391D01*
X67412193Y-129337391D01*
X64860000Y-126785199D01*
X64860000Y-125553652D01*
X65314100Y-125553652D01*
X65314100Y-125846348D01*
X65371202Y-126133421D01*
X65483212Y-126403838D01*
X65645826Y-126647206D01*
X65852794Y-126854174D01*
X66096162Y-127016788D01*
X66366579Y-127128798D01*
X66653652Y-127185900D01*
X66946348Y-127185900D01*
X67233421Y-127128798D01*
X67503838Y-127016788D01*
X67747206Y-126854174D01*
X67954174Y-126647206D01*
X68116788Y-126403838D01*
X68228798Y-126133421D01*
X68285900Y-125846348D01*
X68285900Y-125553652D01*
X72314100Y-125553652D01*
X72314100Y-125846348D01*
X72371202Y-126133421D01*
X72483212Y-126403838D01*
X72645826Y-126647206D01*
X72852794Y-126854174D01*
X73096162Y-127016788D01*
X73366579Y-127128798D01*
X73653652Y-127185900D01*
X73946348Y-127185900D01*
X74233421Y-127128798D01*
X74503838Y-127016788D01*
X74747206Y-126854174D01*
X74954174Y-126647206D01*
X75116788Y-126403838D01*
X75228798Y-126133421D01*
X75285900Y-125846348D01*
X75285900Y-125553652D01*
X75228798Y-125266579D01*
X75116788Y-124996162D01*
X74954174Y-124752794D01*
X74747206Y-124545826D01*
X74503838Y-124383212D01*
X74233421Y-124271202D01*
X73946348Y-124214100D01*
X73653652Y-124214100D01*
X73366579Y-124271202D01*
X73096162Y-124383212D01*
X72852794Y-124545826D01*
X72645826Y-124752794D01*
X72483212Y-124996162D01*
X72371202Y-125266579D01*
X72314100Y-125553652D01*
X68285900Y-125553652D01*
X68228798Y-125266579D01*
X68116788Y-124996162D01*
X67954174Y-124752794D01*
X67747206Y-124545826D01*
X67503838Y-124383212D01*
X67233421Y-124271202D01*
X66946348Y-124214100D01*
X66653652Y-124214100D01*
X66366579Y-124271202D01*
X66096162Y-124383212D01*
X65852794Y-124545826D01*
X65645826Y-124752794D01*
X65483212Y-124996162D01*
X65371202Y-125266579D01*
X65314100Y-125553652D01*
X64860000Y-125553652D01*
X64860000Y-125516211D01*
X64875437Y-125500774D01*
X64988705Y-125331256D01*
X65066726Y-125142898D01*
X65106500Y-124942939D01*
X65106500Y-124739061D01*
X65066726Y-124539102D01*
X64988705Y-124350744D01*
X64875437Y-124181226D01*
X64731274Y-124037063D01*
X64561756Y-123923795D01*
X64373398Y-123845774D01*
X64173439Y-123806000D01*
X63969561Y-123806000D01*
X63769602Y-123845774D01*
X63581244Y-123923795D01*
X63411726Y-124037063D01*
X63267563Y-124181226D01*
X63189235Y-124298452D01*
X63124976Y-124202281D01*
X62797719Y-123875024D01*
X62412905Y-123617900D01*
X61985324Y-123440790D01*
X61531406Y-123350500D01*
X61068594Y-123350500D01*
X60614676Y-123440790D01*
X60187095Y-123617900D01*
X59802281Y-123875024D01*
X59475024Y-124202281D01*
X59217900Y-124587095D01*
X59040790Y-125014676D01*
X58950500Y-125468594D01*
X58860000Y-125468594D01*
X58860000Y-121388675D01*
X65389700Y-121388675D01*
X65389700Y-121611325D01*
X65433137Y-121829696D01*
X65518341Y-122035398D01*
X65642039Y-122220524D01*
X65799476Y-122377961D01*
X65984602Y-122501659D01*
X66190304Y-122586863D01*
X66408675Y-122630300D01*
X66631325Y-122630300D01*
X66849696Y-122586863D01*
X67055398Y-122501659D01*
X67240524Y-122377961D01*
X67397961Y-122220524D01*
X67521659Y-122035398D01*
X67606863Y-121829696D01*
X67650300Y-121611325D01*
X67650300Y-121388675D01*
X72949700Y-121388675D01*
X72949700Y-121611325D01*
X72993137Y-121829696D01*
X73078341Y-122035398D01*
X73202039Y-122220524D01*
X73359476Y-122377961D01*
X73544602Y-122501659D01*
X73750304Y-122586863D01*
X73968675Y-122630300D01*
X74191325Y-122630300D01*
X74409696Y-122586863D01*
X74615398Y-122501659D01*
X74800524Y-122377961D01*
X74957961Y-122220524D01*
X75081659Y-122035398D01*
X75166863Y-121829696D01*
X75210300Y-121611325D01*
X75210300Y-121388675D01*
X75166863Y-121170304D01*
X75081659Y-120964602D01*
X74957961Y-120779476D01*
X74800524Y-120622039D01*
X74615398Y-120498341D01*
X74409696Y-120413137D01*
X74191325Y-120369700D01*
X73968675Y-120369700D01*
X73750304Y-120413137D01*
X73544602Y-120498341D01*
X73359476Y-120622039D01*
X73202039Y-120779476D01*
X73078341Y-120964602D01*
X72993137Y-121170304D01*
X72949700Y-121388675D01*
X67650300Y-121388675D01*
X67606863Y-121170304D01*
X67521659Y-120964602D01*
X67397961Y-120779476D01*
X67240524Y-120622039D01*
X67055398Y-120498341D01*
X66849696Y-120413137D01*
X66631325Y-120369700D01*
X66408675Y-120369700D01*
X66190304Y-120413137D01*
X65984602Y-120498341D01*
X65799476Y-120622039D01*
X65642039Y-120779476D01*
X65518341Y-120964602D01*
X65433137Y-121170304D01*
X65389700Y-121388675D01*
X58860000Y-121388675D01*
X58860000Y-115314801D01*
X59649000Y-114525802D01*
X59649000Y-114762609D01*
X59712447Y-115081579D01*
X59836903Y-115382042D01*
X60017585Y-115652451D01*
X60247549Y-115882415D01*
X60517958Y-116063097D01*
X60818421Y-116187553D01*
X61137391Y-116251000D01*
X61462609Y-116251000D01*
X61781579Y-116187553D01*
X62082042Y-116063097D01*
X62352451Y-115882415D01*
X62582415Y-115652451D01*
X62763097Y-115382042D01*
X62772227Y-115360000D01*
X65362678Y-115360000D01*
X65400000Y-115363676D01*
X65437322Y-115360000D01*
X65437333Y-115360000D01*
X65548986Y-115349003D01*
X65692247Y-115305546D01*
X65824276Y-115234974D01*
X65940001Y-115140001D01*
X65963804Y-115110997D01*
X68737410Y-112337391D01*
X72649000Y-112337391D01*
X72649000Y-112662609D01*
X72712447Y-112981579D01*
X72836903Y-113282042D01*
X73017585Y-113552451D01*
X73247549Y-113782415D01*
X73517958Y-113963097D01*
X73818421Y-114087553D01*
X74137391Y-114151000D01*
X74462609Y-114151000D01*
X74781579Y-114087553D01*
X75082042Y-113963097D01*
X75352451Y-113782415D01*
X75582415Y-113552451D01*
X75763097Y-113282042D01*
X75887553Y-112981579D01*
X75951000Y-112662609D01*
X75951000Y-112337391D01*
X75887553Y-112018421D01*
X75763097Y-111717958D01*
X75582415Y-111447549D01*
X75352451Y-111217585D01*
X75082042Y-111036903D01*
X74781579Y-110912447D01*
X74462609Y-110849000D01*
X74137391Y-110849000D01*
X73818421Y-110912447D01*
X73517958Y-111036903D01*
X73247549Y-111217585D01*
X73017585Y-111447549D01*
X72836903Y-111717958D01*
X72712447Y-112018421D01*
X72649000Y-112337391D01*
X68737410Y-112337391D01*
X69311003Y-111763799D01*
X69340001Y-111740001D01*
X69366332Y-111707917D01*
X69434974Y-111624277D01*
X69505546Y-111492247D01*
X69531176Y-111407754D01*
X69549003Y-111348986D01*
X69560000Y-111237333D01*
X69560000Y-111237324D01*
X69563676Y-111200001D01*
X69560000Y-111162678D01*
X69560000Y-108553652D01*
X72314100Y-108553652D01*
X72314100Y-108846348D01*
X72371202Y-109133421D01*
X72483212Y-109403838D01*
X72645826Y-109647206D01*
X72852794Y-109854174D01*
X73096162Y-110016788D01*
X73366579Y-110128798D01*
X73653652Y-110185900D01*
X73946348Y-110185900D01*
X74233421Y-110128798D01*
X74503838Y-110016788D01*
X74747206Y-109854174D01*
X74954174Y-109647206D01*
X75116788Y-109403838D01*
X75228798Y-109133421D01*
X75285900Y-108846348D01*
X75285900Y-108553652D01*
X75268982Y-108468594D01*
X76950500Y-108468594D01*
X76950500Y-108931406D01*
X77040790Y-109385324D01*
X77217900Y-109812905D01*
X77475024Y-110197719D01*
X77802281Y-110524976D01*
X78187095Y-110782100D01*
X78614676Y-110959210D01*
X79068594Y-111049500D01*
X79531406Y-111049500D01*
X79985324Y-110959210D01*
X80412905Y-110782100D01*
X80797719Y-110524976D01*
X81124976Y-110197719D01*
X81382100Y-109812905D01*
X81559210Y-109385324D01*
X81649500Y-108931406D01*
X81649500Y-108468594D01*
X81559210Y-108014676D01*
X81382100Y-107587095D01*
X81124976Y-107202281D01*
X80797719Y-106875024D01*
X80412905Y-106617900D01*
X79985324Y-106440790D01*
X79531406Y-106350500D01*
X79068594Y-106350500D01*
X78614676Y-106440790D01*
X78187095Y-106617900D01*
X77802281Y-106875024D01*
X77475024Y-107202281D01*
X77217900Y-107587095D01*
X77040790Y-108014676D01*
X76950500Y-108468594D01*
X75268982Y-108468594D01*
X75228798Y-108266579D01*
X75116788Y-107996162D01*
X74954174Y-107752794D01*
X74747206Y-107545826D01*
X74503838Y-107383212D01*
X74233421Y-107271202D01*
X73946348Y-107214100D01*
X73653652Y-107214100D01*
X73366579Y-107271202D01*
X73096162Y-107383212D01*
X72852794Y-107545826D01*
X72645826Y-107752794D01*
X72483212Y-107996162D01*
X72371202Y-108266579D01*
X72314100Y-108553652D01*
X69560000Y-108553652D01*
X69560000Y-107803711D01*
X69603937Y-107759774D01*
X69717205Y-107590256D01*
X69795226Y-107401898D01*
X69835000Y-107201939D01*
X69835000Y-106998061D01*
X69795226Y-106798102D01*
X69717205Y-106609744D01*
X69603937Y-106440226D01*
X69459774Y-106296063D01*
X69290256Y-106182795D01*
X69101898Y-106104774D01*
X68901939Y-106065000D01*
X68698061Y-106065000D01*
X68498102Y-106104774D01*
X68309744Y-106182795D01*
X68140226Y-106296063D01*
X67996063Y-106440226D01*
X67882795Y-106609744D01*
X67804774Y-106798102D01*
X67765000Y-106998061D01*
X67765000Y-107201939D01*
X67804774Y-107401898D01*
X67882795Y-107590256D01*
X67996063Y-107759774D01*
X68040000Y-107803711D01*
X68040000Y-107881241D01*
X67954174Y-107752794D01*
X67747206Y-107545826D01*
X67503838Y-107383212D01*
X67233421Y-107271202D01*
X66946348Y-107214100D01*
X66653652Y-107214100D01*
X66366579Y-107271202D01*
X66096162Y-107383212D01*
X65852794Y-107545826D01*
X65645826Y-107752794D01*
X65483212Y-107996162D01*
X65371202Y-108266579D01*
X65314100Y-108553652D01*
X65314100Y-108846348D01*
X65371202Y-109133421D01*
X65483212Y-109403838D01*
X65645826Y-109647206D01*
X65852794Y-109854174D01*
X66096162Y-110016788D01*
X66366579Y-110128798D01*
X66653652Y-110185900D01*
X66946348Y-110185900D01*
X67233421Y-110128798D01*
X67503838Y-110016788D01*
X67747206Y-109854174D01*
X67954174Y-109647206D01*
X68040001Y-109518758D01*
X68040001Y-110885197D01*
X65085199Y-113840000D01*
X62772227Y-113840000D01*
X62763097Y-113817958D01*
X62582415Y-113547549D01*
X62352451Y-113317585D01*
X62082042Y-113136903D01*
X61781579Y-113012447D01*
X61462609Y-112949000D01*
X61225803Y-112949000D01*
X61614803Y-112560000D01*
X62862678Y-112560000D01*
X62900000Y-112563676D01*
X62937322Y-112560000D01*
X62937333Y-112560000D01*
X63048986Y-112549003D01*
X63192247Y-112505546D01*
X63324276Y-112434974D01*
X63440001Y-112340001D01*
X63463804Y-112310997D01*
X64339802Y-111435000D01*
X64401939Y-111435000D01*
X64601898Y-111395226D01*
X64790256Y-111317205D01*
X64959774Y-111203937D01*
X65103937Y-111059774D01*
X65217205Y-110890256D01*
X65295226Y-110701898D01*
X65335000Y-110501939D01*
X65335000Y-110298061D01*
X65295226Y-110098102D01*
X65217205Y-109909744D01*
X65103937Y-109740226D01*
X64959774Y-109596063D01*
X64790256Y-109482795D01*
X64601898Y-109404774D01*
X64401939Y-109365000D01*
X64198061Y-109365000D01*
X63998102Y-109404774D01*
X63809744Y-109482795D01*
X63640226Y-109596063D01*
X63496063Y-109740226D01*
X63382795Y-109909744D01*
X63304774Y-110098102D01*
X63265000Y-110298061D01*
X63265000Y-110360198D01*
X62585199Y-111040000D01*
X61579166Y-111040000D01*
X61985324Y-110959210D01*
X62412905Y-110782100D01*
X62797719Y-110524976D01*
X63124976Y-110197719D01*
X63382100Y-109812905D01*
X63559210Y-109385324D01*
X63649500Y-108931406D01*
X63649500Y-108468594D01*
X63559210Y-108014676D01*
X63382100Y-107587095D01*
X63124976Y-107202281D01*
X62797719Y-106875024D01*
X62412905Y-106617900D01*
X61985324Y-106440790D01*
X61531406Y-106350500D01*
X61068594Y-106350500D01*
X60614676Y-106440790D01*
X60187095Y-106617900D01*
X59802281Y-106875024D01*
X59475024Y-107202281D01*
X59217900Y-107587095D01*
X59040790Y-108014676D01*
X58950500Y-108468594D01*
X58950500Y-108931406D01*
X59040790Y-109385324D01*
X59217900Y-109812905D01*
X59475024Y-110197719D01*
X59802281Y-110524976D01*
X60187095Y-110782100D01*
X60614676Y-110959210D01*
X61068594Y-111049500D01*
X61166213Y-111049500D01*
X61151014Y-111050997D01*
X61007753Y-111094454D01*
X60875724Y-111165026D01*
X60875722Y-111165027D01*
X60875723Y-111165027D01*
X60788996Y-111236201D01*
X60788992Y-111236205D01*
X60759999Y-111259999D01*
X60736205Y-111288992D01*
X57588998Y-114436201D01*
X57560000Y-114459999D01*
X57536202Y-114488997D01*
X57536201Y-114488998D01*
X57465026Y-114575724D01*
X57394454Y-114707754D01*
X57350998Y-114851015D01*
X57336324Y-115000000D01*
X57340001Y-115037332D01*
X57340000Y-128209265D01*
X57082042Y-128036903D01*
X56781579Y-127912447D01*
X56462609Y-127849000D01*
X56137391Y-127849000D01*
X55818421Y-127912447D01*
X55517958Y-128036903D01*
X55247549Y-128217585D01*
X55017585Y-128447549D01*
X54836903Y-128717958D01*
X54712447Y-129018421D01*
X54649000Y-129337391D01*
X52960000Y-129337391D01*
X52960000Y-125553652D01*
X54314100Y-125553652D01*
X54314100Y-125846348D01*
X54371202Y-126133421D01*
X54483212Y-126403838D01*
X54645826Y-126647206D01*
X54852794Y-126854174D01*
X55096162Y-127016788D01*
X55366579Y-127128798D01*
X55653652Y-127185900D01*
X55946348Y-127185900D01*
X56233421Y-127128798D01*
X56503838Y-127016788D01*
X56747206Y-126854174D01*
X56954174Y-126647206D01*
X57116788Y-126403838D01*
X57228798Y-126133421D01*
X57285900Y-125846348D01*
X57285900Y-125553652D01*
X57228798Y-125266579D01*
X57116788Y-124996162D01*
X56954174Y-124752794D01*
X56747206Y-124545826D01*
X56503838Y-124383212D01*
X56233421Y-124271202D01*
X55946348Y-124214100D01*
X55653652Y-124214100D01*
X55366579Y-124271202D01*
X55096162Y-124383212D01*
X54852794Y-124545826D01*
X54645826Y-124752794D01*
X54483212Y-124996162D01*
X54371202Y-125266579D01*
X54314100Y-125553652D01*
X52960000Y-125553652D01*
X52960000Y-121388675D01*
X54949700Y-121388675D01*
X54949700Y-121611325D01*
X54993137Y-121829696D01*
X55078341Y-122035398D01*
X55202039Y-122220524D01*
X55359476Y-122377961D01*
X55544602Y-122501659D01*
X55750304Y-122586863D01*
X55968675Y-122630300D01*
X56191325Y-122630300D01*
X56409696Y-122586863D01*
X56615398Y-122501659D01*
X56800524Y-122377961D01*
X56957961Y-122220524D01*
X57081659Y-122035398D01*
X57166863Y-121829696D01*
X57210300Y-121611325D01*
X57210300Y-121388675D01*
X57166863Y-121170304D01*
X57081659Y-120964602D01*
X56957961Y-120779476D01*
X56800524Y-120622039D01*
X56615398Y-120498341D01*
X56409696Y-120413137D01*
X56191325Y-120369700D01*
X55968675Y-120369700D01*
X55750304Y-120413137D01*
X55544602Y-120498341D01*
X55359476Y-120622039D01*
X55202039Y-120779476D01*
X55078341Y-120964602D01*
X54993137Y-121170304D01*
X54949700Y-121388675D01*
X52960000Y-121388675D01*
X52960000Y-112337391D01*
X54649000Y-112337391D01*
X54649000Y-112662609D01*
X54712447Y-112981579D01*
X54836903Y-113282042D01*
X55017585Y-113552451D01*
X55247549Y-113782415D01*
X55517958Y-113963097D01*
X55818421Y-114087553D01*
X56137391Y-114151000D01*
X56462609Y-114151000D01*
X56781579Y-114087553D01*
X57082042Y-113963097D01*
X57352451Y-113782415D01*
X57582415Y-113552451D01*
X57763097Y-113282042D01*
X57887553Y-112981579D01*
X57951000Y-112662609D01*
X57951000Y-112337391D01*
X57887553Y-112018421D01*
X57763097Y-111717958D01*
X57582415Y-111447549D01*
X57352451Y-111217585D01*
X57082042Y-111036903D01*
X56781579Y-110912447D01*
X56462609Y-110849000D01*
X56137391Y-110849000D01*
X55818421Y-110912447D01*
X55517958Y-111036903D01*
X55247549Y-111217585D01*
X55017585Y-111447549D01*
X54836903Y-111717958D01*
X54712447Y-112018421D01*
X54649000Y-112337391D01*
X52960000Y-112337391D01*
X52960000Y-108553652D01*
X54314100Y-108553652D01*
X54314100Y-108846348D01*
X54371202Y-109133421D01*
X54483212Y-109403838D01*
X54645826Y-109647206D01*
X54852794Y-109854174D01*
X55096162Y-110016788D01*
X55366579Y-110128798D01*
X55653652Y-110185900D01*
X55946348Y-110185900D01*
X56233421Y-110128798D01*
X56503838Y-110016788D01*
X56747206Y-109854174D01*
X56954174Y-109647206D01*
X57116788Y-109403838D01*
X57228798Y-109133421D01*
X57285900Y-108846348D01*
X57285900Y-108553652D01*
X57228798Y-108266579D01*
X57116788Y-107996162D01*
X56954174Y-107752794D01*
X56747206Y-107545826D01*
X56503838Y-107383212D01*
X56233421Y-107271202D01*
X55946348Y-107214100D01*
X55653652Y-107214100D01*
X55366579Y-107271202D01*
X55096162Y-107383212D01*
X54852794Y-107545826D01*
X54645826Y-107752794D01*
X54483212Y-107996162D01*
X54371202Y-108266579D01*
X54314100Y-108553652D01*
X52960000Y-108553652D01*
X52960000Y-104388675D01*
X54949700Y-104388675D01*
X54949700Y-104611325D01*
X54993137Y-104829696D01*
X55078341Y-105035398D01*
X55202039Y-105220524D01*
X55359476Y-105377961D01*
X55544602Y-105501659D01*
X55750304Y-105586863D01*
X55968675Y-105630300D01*
X56191325Y-105630300D01*
X56409696Y-105586863D01*
X56615398Y-105501659D01*
X56800524Y-105377961D01*
X56957961Y-105220524D01*
X57081659Y-105035398D01*
X57166863Y-104829696D01*
X57210300Y-104611325D01*
X57210300Y-104388675D01*
X65389700Y-104388675D01*
X65389700Y-104611325D01*
X65433137Y-104829696D01*
X65518341Y-105035398D01*
X65642039Y-105220524D01*
X65799476Y-105377961D01*
X65984602Y-105501659D01*
X66190304Y-105586863D01*
X66408675Y-105630300D01*
X66631325Y-105630300D01*
X66849696Y-105586863D01*
X67055398Y-105501659D01*
X67240524Y-105377961D01*
X67397961Y-105220524D01*
X67521659Y-105035398D01*
X67606863Y-104829696D01*
X67650300Y-104611325D01*
X67650300Y-104388675D01*
X72949700Y-104388675D01*
X72949700Y-104611325D01*
X72993137Y-104829696D01*
X73078341Y-105035398D01*
X73202039Y-105220524D01*
X73359476Y-105377961D01*
X73544602Y-105501659D01*
X73750304Y-105586863D01*
X73968675Y-105630300D01*
X74191325Y-105630300D01*
X74409696Y-105586863D01*
X74615398Y-105501659D01*
X74800524Y-105377961D01*
X74957961Y-105220524D01*
X75081659Y-105035398D01*
X75166863Y-104829696D01*
X75210300Y-104611325D01*
X75210300Y-104388675D01*
X83389700Y-104388675D01*
X83389700Y-104611325D01*
X83433137Y-104829696D01*
X83518341Y-105035398D01*
X83642039Y-105220524D01*
X83799476Y-105377961D01*
X83984602Y-105501659D01*
X84190304Y-105586863D01*
X84408675Y-105630300D01*
X84631325Y-105630300D01*
X84849696Y-105586863D01*
X85055398Y-105501659D01*
X85240524Y-105377961D01*
X85397961Y-105220524D01*
X85521659Y-105035398D01*
X85606863Y-104829696D01*
X85650300Y-104611325D01*
X85650300Y-104388675D01*
X85606863Y-104170304D01*
X85521659Y-103964602D01*
X85397961Y-103779476D01*
X85240524Y-103622039D01*
X85055398Y-103498341D01*
X84849696Y-103413137D01*
X84631325Y-103369700D01*
X84408675Y-103369700D01*
X84190304Y-103413137D01*
X83984602Y-103498341D01*
X83799476Y-103622039D01*
X83642039Y-103779476D01*
X83518341Y-103964602D01*
X83433137Y-104170304D01*
X83389700Y-104388675D01*
X75210300Y-104388675D01*
X75166863Y-104170304D01*
X75081659Y-103964602D01*
X74957961Y-103779476D01*
X74800524Y-103622039D01*
X74615398Y-103498341D01*
X74409696Y-103413137D01*
X74191325Y-103369700D01*
X73968675Y-103369700D01*
X73750304Y-103413137D01*
X73544602Y-103498341D01*
X73359476Y-103622039D01*
X73202039Y-103779476D01*
X73078341Y-103964602D01*
X72993137Y-104170304D01*
X72949700Y-104388675D01*
X67650300Y-104388675D01*
X67606863Y-104170304D01*
X67521659Y-103964602D01*
X67397961Y-103779476D01*
X67240524Y-103622039D01*
X67055398Y-103498341D01*
X66849696Y-103413137D01*
X66631325Y-103369700D01*
X66408675Y-103369700D01*
X66190304Y-103413137D01*
X65984602Y-103498341D01*
X65799476Y-103622039D01*
X65642039Y-103779476D01*
X65518341Y-103964602D01*
X65433137Y-104170304D01*
X65389700Y-104388675D01*
X57210300Y-104388675D01*
X57166863Y-104170304D01*
X57081659Y-103964602D01*
X56957961Y-103779476D01*
X56800524Y-103622039D01*
X56615398Y-103498341D01*
X56409696Y-103413137D01*
X56191325Y-103369700D01*
X55968675Y-103369700D01*
X55750304Y-103413137D01*
X55544602Y-103498341D01*
X55359476Y-103622039D01*
X55202039Y-103779476D01*
X55078341Y-103964602D01*
X54993137Y-104170304D01*
X54949700Y-104388675D01*
X52960000Y-104388675D01*
X52960000Y-94120777D01*
X53915000Y-94120777D01*
X53915000Y-94679223D01*
X54023948Y-95226939D01*
X54237656Y-95742876D01*
X54547912Y-96207207D01*
X54942793Y-96602088D01*
X55407124Y-96912344D01*
X55923061Y-97126052D01*
X56470777Y-97235000D01*
X57029223Y-97235000D01*
X57576939Y-97126052D01*
X58092876Y-96912344D01*
X58557207Y-96602088D01*
X58952088Y-96207207D01*
X59091834Y-95998061D01*
X61365000Y-95998061D01*
X61365000Y-96201939D01*
X61404774Y-96401898D01*
X61482795Y-96590256D01*
X61596063Y-96759774D01*
X61740226Y-96903937D01*
X61909744Y-97017205D01*
X62090121Y-97091920D01*
X62709203Y-97711003D01*
X62733001Y-97740001D01*
X62848726Y-97834974D01*
X62980755Y-97905546D01*
X63124016Y-97949003D01*
X63235669Y-97960000D01*
X63235678Y-97960000D01*
X63273001Y-97963676D01*
X63310324Y-97960000D01*
X63749773Y-97960000D01*
X63787095Y-97963676D01*
X63824417Y-97960000D01*
X63824428Y-97960000D01*
X63936081Y-97949003D01*
X64079342Y-97905546D01*
X64211371Y-97834974D01*
X64327096Y-97740001D01*
X64350899Y-97710997D01*
X64526897Y-97534999D01*
X65865000Y-97534999D01*
X65865000Y-97601939D01*
X65904774Y-97801898D01*
X65982795Y-97990256D01*
X66096063Y-98159774D01*
X66240226Y-98303937D01*
X66409744Y-98417205D01*
X66598102Y-98495226D01*
X66798061Y-98535000D01*
X66860199Y-98535000D01*
X68761202Y-100436004D01*
X68785000Y-100465002D01*
X68900725Y-100559975D01*
X69032754Y-100630547D01*
X69176015Y-100674004D01*
X69287668Y-100685001D01*
X69287677Y-100685001D01*
X69325000Y-100688677D01*
X69362323Y-100685001D01*
X79403362Y-100685001D01*
X79440684Y-100688677D01*
X79478006Y-100685001D01*
X79478017Y-100685001D01*
X79589670Y-100674004D01*
X79732931Y-100630547D01*
X79864960Y-100559975D01*
X79980685Y-100465002D01*
X80004488Y-100435998D01*
X82311003Y-98129484D01*
X82340001Y-98105686D01*
X82434974Y-97989961D01*
X82505546Y-97857932D01*
X82548987Y-97714724D01*
X82603937Y-97659774D01*
X82717205Y-97490256D01*
X82795226Y-97301898D01*
X82835000Y-97101939D01*
X82835000Y-96898061D01*
X82795226Y-96698102D01*
X82717205Y-96509744D01*
X82603937Y-96340226D01*
X82459774Y-96196063D01*
X82290256Y-96082795D01*
X82101898Y-96004774D01*
X81901939Y-95965000D01*
X81698061Y-95965000D01*
X81498102Y-96004774D01*
X81309744Y-96082795D01*
X81140226Y-96196063D01*
X80996063Y-96340226D01*
X80882795Y-96509744D01*
X80804774Y-96698102D01*
X80765000Y-96898061D01*
X80765000Y-97101939D01*
X80804774Y-97301898D01*
X80858728Y-97432155D01*
X79125883Y-99165001D01*
X77864657Y-99165001D01*
X77896756Y-99151705D01*
X78066274Y-99038437D01*
X78210437Y-98894274D01*
X78323705Y-98724756D01*
X78401726Y-98536398D01*
X78441500Y-98336439D01*
X78441500Y-98132561D01*
X78401726Y-97932602D01*
X78323705Y-97744244D01*
X78210437Y-97574726D01*
X78066274Y-97430563D01*
X77896756Y-97317295D01*
X77708398Y-97239274D01*
X77508439Y-97199500D01*
X77304561Y-97199500D01*
X77104602Y-97239274D01*
X76916244Y-97317295D01*
X76746726Y-97430563D01*
X76712288Y-97465001D01*
X70435000Y-97465001D01*
X70435000Y-97398061D01*
X70395226Y-97198102D01*
X70317205Y-97009744D01*
X70203937Y-96840226D01*
X70059774Y-96696063D01*
X69890256Y-96582795D01*
X69701898Y-96504774D01*
X69501939Y-96465000D01*
X69439801Y-96465000D01*
X69238802Y-96264001D01*
X69215000Y-96234998D01*
X69099275Y-96140025D01*
X68967246Y-96069453D01*
X68823985Y-96025996D01*
X68712332Y-96014999D01*
X68712321Y-96014999D01*
X68674999Y-96011323D01*
X68637677Y-96014999D01*
X65488291Y-96014999D01*
X65621964Y-95925681D01*
X65755681Y-95791964D01*
X65860741Y-95634731D01*
X65933108Y-95460022D01*
X65970000Y-95274552D01*
X65970000Y-95085448D01*
X69830000Y-95085448D01*
X69830000Y-95274552D01*
X69866892Y-95460022D01*
X69939259Y-95634731D01*
X70044319Y-95791964D01*
X70178036Y-95925681D01*
X70335269Y-96030741D01*
X70509978Y-96103108D01*
X70695448Y-96140000D01*
X70884552Y-96140000D01*
X71070022Y-96103108D01*
X71244731Y-96030741D01*
X71401964Y-95925681D01*
X71535681Y-95791964D01*
X71640741Y-95634731D01*
X71713108Y-95460022D01*
X71750000Y-95274552D01*
X71750000Y-95085448D01*
X71713108Y-94899978D01*
X71640741Y-94725269D01*
X71535681Y-94568036D01*
X71401964Y-94434319D01*
X71244731Y-94329259D01*
X71070022Y-94256892D01*
X70884552Y-94220000D01*
X70695448Y-94220000D01*
X70509978Y-94256892D01*
X70335269Y-94329259D01*
X70178036Y-94434319D01*
X70044319Y-94568036D01*
X69939259Y-94725269D01*
X69866892Y-94899978D01*
X69830000Y-95085448D01*
X65970000Y-95085448D01*
X65933108Y-94899978D01*
X65860741Y-94725269D01*
X65755681Y-94568036D01*
X65621964Y-94434319D01*
X65464731Y-94329259D01*
X65290022Y-94256892D01*
X65104552Y-94220000D01*
X64915448Y-94220000D01*
X64729978Y-94256892D01*
X64555269Y-94329259D01*
X64398036Y-94434319D01*
X64264319Y-94568036D01*
X64159259Y-94725269D01*
X64086892Y-94899978D01*
X64050000Y-95085448D01*
X64050000Y-95274552D01*
X64086892Y-95460022D01*
X64159259Y-95634731D01*
X64264319Y-95791964D01*
X64398036Y-95925681D01*
X64531709Y-96014999D01*
X64249418Y-96014999D01*
X64212095Y-96011323D01*
X64174772Y-96014999D01*
X64174763Y-96014999D01*
X64063110Y-96025996D01*
X63919849Y-96069453D01*
X63787820Y-96140025D01*
X63672095Y-96234998D01*
X63648292Y-96264002D01*
X63530049Y-96382245D01*
X63420855Y-96273051D01*
X63435000Y-96201939D01*
X63435000Y-95998061D01*
X63395226Y-95798102D01*
X63317205Y-95609744D01*
X63203937Y-95440226D01*
X63059774Y-95296063D01*
X62890256Y-95182795D01*
X62701898Y-95104774D01*
X62501939Y-95065000D01*
X62298061Y-95065000D01*
X62098102Y-95104774D01*
X61909744Y-95182795D01*
X61740226Y-95296063D01*
X61596063Y-95440226D01*
X61482795Y-95609744D01*
X61404774Y-95798102D01*
X61365000Y-95998061D01*
X59091834Y-95998061D01*
X59262344Y-95742876D01*
X59476052Y-95226939D01*
X59585000Y-94679223D01*
X59585000Y-94120777D01*
X59501302Y-93700000D01*
X76059509Y-93700000D01*
X76081423Y-93922499D01*
X76146324Y-94136447D01*
X76251716Y-94333623D01*
X76393551Y-94506449D01*
X76566377Y-94648284D01*
X76763553Y-94753676D01*
X76977501Y-94818577D01*
X77144248Y-94835000D01*
X94229869Y-94835000D01*
X95765001Y-96370133D01*
X95765000Y-98135716D01*
X95630000Y-98337759D01*
X95474637Y-98105241D01*
X95274759Y-97905363D01*
X95039727Y-97748320D01*
X94778574Y-97640147D01*
X94501335Y-97585000D01*
X94218665Y-97585000D01*
X93941426Y-97640147D01*
X93680273Y-97748320D01*
X93445241Y-97905363D01*
X93245363Y-98105241D01*
X93090000Y-98337759D01*
X92934637Y-98105241D01*
X92734759Y-97905363D01*
X92499727Y-97748320D01*
X92238574Y-97640147D01*
X91961335Y-97585000D01*
X91678665Y-97585000D01*
X91496113Y-97621312D01*
X91258803Y-97384001D01*
X91235000Y-97354998D01*
X91119275Y-97260025D01*
X90987246Y-97189453D01*
X90843985Y-97145996D01*
X90732332Y-97134999D01*
X90732321Y-97134999D01*
X90694999Y-97131323D01*
X90657677Y-97134999D01*
X87882326Y-97134999D01*
X87845001Y-97131323D01*
X87807676Y-97134999D01*
X87807668Y-97134999D01*
X87696015Y-97145996D01*
X87552754Y-97189453D01*
X87420725Y-97260025D01*
X87305000Y-97354998D01*
X87281202Y-97383996D01*
X86209002Y-98456196D01*
X86179999Y-98479999D01*
X86149431Y-98517247D01*
X86085026Y-98595724D01*
X86072851Y-98618502D01*
X86014454Y-98727754D01*
X85970997Y-98871015D01*
X85960000Y-98982668D01*
X85960000Y-98982678D01*
X85956324Y-99020000D01*
X85960000Y-99057322D01*
X85960001Y-107761514D01*
X85954174Y-107752794D01*
X85747206Y-107545826D01*
X85503838Y-107383212D01*
X85233421Y-107271202D01*
X84946348Y-107214100D01*
X84653652Y-107214100D01*
X84366579Y-107271202D01*
X84096162Y-107383212D01*
X83852794Y-107545826D01*
X83645826Y-107752794D01*
X83483212Y-107996162D01*
X83371202Y-108266579D01*
X83314100Y-108553652D01*
X83314100Y-108846348D01*
X83371202Y-109133421D01*
X83483212Y-109403838D01*
X83645826Y-109647206D01*
X83852794Y-109854174D01*
X84096162Y-110016788D01*
X84366579Y-110128798D01*
X84653652Y-110185900D01*
X84946348Y-110185900D01*
X85233421Y-110128798D01*
X85503838Y-110016788D01*
X85747206Y-109854174D01*
X85954174Y-109647206D01*
X85960001Y-109638486D01*
X85960001Y-113065197D01*
X82400000Y-116625199D01*
X80878423Y-115103621D01*
X80887553Y-115081579D01*
X80951000Y-114762609D01*
X80951000Y-114437391D01*
X80887553Y-114118421D01*
X80763097Y-113817958D01*
X80582415Y-113547549D01*
X80352451Y-113317585D01*
X80082042Y-113136903D01*
X79781579Y-113012447D01*
X79462609Y-112949000D01*
X79137391Y-112949000D01*
X78818421Y-113012447D01*
X78517958Y-113136903D01*
X78247549Y-113317585D01*
X78017585Y-113547549D01*
X77836903Y-113817958D01*
X77712447Y-114118421D01*
X77649000Y-114437391D01*
X77649000Y-114762609D01*
X77712447Y-115081579D01*
X77836903Y-115382042D01*
X78017585Y-115652451D01*
X78247549Y-115882415D01*
X78517958Y-116063097D01*
X78818421Y-116187553D01*
X79137391Y-116251000D01*
X79462609Y-116251000D01*
X79781579Y-116187553D01*
X79803621Y-116178423D01*
X81640001Y-118014803D01*
X81640000Y-125420836D01*
X81559210Y-125014676D01*
X81382100Y-124587095D01*
X81124976Y-124202281D01*
X80797719Y-123875024D01*
X80412905Y-123617900D01*
X79985324Y-123440790D01*
X79531406Y-123350500D01*
X79068594Y-123350500D01*
X78614676Y-123440790D01*
X78187095Y-123617900D01*
X77802281Y-123875024D01*
X77475024Y-124202281D01*
X77217900Y-124587095D01*
X77040790Y-125014676D01*
X76950500Y-125468594D01*
X76950500Y-125931406D01*
X77040790Y-126385324D01*
X77217900Y-126812905D01*
X77475024Y-127197719D01*
X77802281Y-127524976D01*
X78187095Y-127782100D01*
X78614676Y-127959210D01*
X79068594Y-128049500D01*
X79531406Y-128049500D01*
X79985324Y-127959210D01*
X80412905Y-127782100D01*
X80797719Y-127524976D01*
X81124976Y-127197719D01*
X81382100Y-126812905D01*
X81559210Y-126385324D01*
X81640000Y-125979164D01*
X81640000Y-128185198D01*
X79803621Y-130021577D01*
X79781579Y-130012447D01*
X79462609Y-129949000D01*
X79137391Y-129949000D01*
X78818421Y-130012447D01*
X78517958Y-130136903D01*
X78247549Y-130317585D01*
X78017585Y-130547549D01*
X77836903Y-130817958D01*
X77712447Y-131118421D01*
X77649000Y-131437391D01*
X77649000Y-131762609D01*
X77712447Y-132081579D01*
X77836903Y-132382042D01*
X78017585Y-132652451D01*
X78247549Y-132882415D01*
X78517958Y-133063097D01*
X78818421Y-133187553D01*
X79137391Y-133251000D01*
X79462609Y-133251000D01*
X79781579Y-133187553D01*
X80082042Y-133063097D01*
X80352451Y-132882415D01*
X80582415Y-132652451D01*
X80763097Y-132382042D01*
X80887553Y-132081579D01*
X80951000Y-131762609D01*
X80951000Y-131437391D01*
X95649000Y-131437391D01*
X95649000Y-131762609D01*
X95712447Y-132081579D01*
X95836903Y-132382042D01*
X96017585Y-132652451D01*
X96247549Y-132882415D01*
X96517958Y-133063097D01*
X96818421Y-133187553D01*
X97137391Y-133251000D01*
X97462609Y-133251000D01*
X97781579Y-133187553D01*
X98082042Y-133063097D01*
X98352451Y-132882415D01*
X98582415Y-132652451D01*
X98763097Y-132382042D01*
X98887553Y-132081579D01*
X98951000Y-131762609D01*
X98951000Y-131437391D01*
X98887553Y-131118421D01*
X98763097Y-130817958D01*
X98582415Y-130547549D01*
X98352451Y-130317585D01*
X98082042Y-130136903D01*
X97781579Y-130012447D01*
X97462609Y-129949000D01*
X97137391Y-129949000D01*
X96818421Y-130012447D01*
X96517958Y-130136903D01*
X96247549Y-130317585D01*
X96017585Y-130547549D01*
X95836903Y-130817958D01*
X95712447Y-131118421D01*
X95649000Y-131437391D01*
X80951000Y-131437391D01*
X80887553Y-131118421D01*
X80878423Y-131096379D01*
X82637411Y-129337391D01*
X90649000Y-129337391D01*
X90649000Y-129662609D01*
X90712447Y-129981579D01*
X90836903Y-130282042D01*
X91017585Y-130552451D01*
X91247549Y-130782415D01*
X91517958Y-130963097D01*
X91818421Y-131087553D01*
X92137391Y-131151000D01*
X92462609Y-131151000D01*
X92781579Y-131087553D01*
X93082042Y-130963097D01*
X93352451Y-130782415D01*
X93582415Y-130552451D01*
X93763097Y-130282042D01*
X93887553Y-129981579D01*
X93951000Y-129662609D01*
X93951000Y-129337391D01*
X93887553Y-129018421D01*
X93763097Y-128717958D01*
X93582415Y-128447549D01*
X93352451Y-128217585D01*
X93082042Y-128036903D01*
X92781579Y-127912447D01*
X92462609Y-127849000D01*
X92137391Y-127849000D01*
X91818421Y-127912447D01*
X91517958Y-128036903D01*
X91247549Y-128217585D01*
X91017585Y-128447549D01*
X90836903Y-128717958D01*
X90712447Y-129018421D01*
X90649000Y-129337391D01*
X82637411Y-129337391D01*
X82911004Y-129063798D01*
X82940001Y-129040001D01*
X83022069Y-128940001D01*
X83034974Y-128924277D01*
X83105546Y-128792247D01*
X83135880Y-128692246D01*
X83149003Y-128648986D01*
X83160000Y-128537333D01*
X83160000Y-128537324D01*
X83163676Y-128500001D01*
X83160000Y-128462678D01*
X83160000Y-125553652D01*
X83314100Y-125553652D01*
X83314100Y-125846348D01*
X83371202Y-126133421D01*
X83483212Y-126403838D01*
X83645826Y-126647206D01*
X83852794Y-126854174D01*
X84096162Y-127016788D01*
X84366579Y-127128798D01*
X84653652Y-127185900D01*
X84946348Y-127185900D01*
X85233421Y-127128798D01*
X85503838Y-127016788D01*
X85747206Y-126854174D01*
X85954174Y-126647206D01*
X86116788Y-126403838D01*
X86228798Y-126133421D01*
X86285900Y-125846348D01*
X86285900Y-125553652D01*
X90314100Y-125553652D01*
X90314100Y-125846348D01*
X90371202Y-126133421D01*
X90483212Y-126403838D01*
X90645826Y-126647206D01*
X90852794Y-126854174D01*
X91096162Y-127016788D01*
X91366579Y-127128798D01*
X91653652Y-127185900D01*
X91946348Y-127185900D01*
X92233421Y-127128798D01*
X92503838Y-127016788D01*
X92747206Y-126854174D01*
X92954174Y-126647206D01*
X93116788Y-126403838D01*
X93228798Y-126133421D01*
X93285900Y-125846348D01*
X93285900Y-125553652D01*
X93268982Y-125468594D01*
X94950500Y-125468594D01*
X94950500Y-125931406D01*
X95040790Y-126385324D01*
X95217900Y-126812905D01*
X95475024Y-127197719D01*
X95802281Y-127524976D01*
X96187095Y-127782100D01*
X96614676Y-127959210D01*
X97068594Y-128049500D01*
X97531406Y-128049500D01*
X97985324Y-127959210D01*
X98412905Y-127782100D01*
X98797719Y-127524976D01*
X99124976Y-127197719D01*
X99382100Y-126812905D01*
X99559210Y-126385324D01*
X99649500Y-125931406D01*
X99649500Y-125553652D01*
X101314100Y-125553652D01*
X101314100Y-125846348D01*
X101371202Y-126133421D01*
X101483212Y-126403838D01*
X101645826Y-126647206D01*
X101852794Y-126854174D01*
X102096162Y-127016788D01*
X102366579Y-127128798D01*
X102653652Y-127185900D01*
X102946348Y-127185900D01*
X103233421Y-127128798D01*
X103503838Y-127016788D01*
X103747206Y-126854174D01*
X103954174Y-126647206D01*
X104116788Y-126403838D01*
X104228798Y-126133421D01*
X104285900Y-125846348D01*
X104285900Y-125553652D01*
X104228798Y-125266579D01*
X104116788Y-124996162D01*
X103954174Y-124752794D01*
X103747206Y-124545826D01*
X103503838Y-124383212D01*
X103233421Y-124271202D01*
X102946348Y-124214100D01*
X102653652Y-124214100D01*
X102366579Y-124271202D01*
X102096162Y-124383212D01*
X101852794Y-124545826D01*
X101645826Y-124752794D01*
X101483212Y-124996162D01*
X101371202Y-125266579D01*
X101314100Y-125553652D01*
X99649500Y-125553652D01*
X99649500Y-125468594D01*
X99559210Y-125014676D01*
X99382100Y-124587095D01*
X99124976Y-124202281D01*
X98797719Y-123875024D01*
X98412905Y-123617900D01*
X97985324Y-123440790D01*
X97531406Y-123350500D01*
X97068594Y-123350500D01*
X96614676Y-123440790D01*
X96187095Y-123617900D01*
X95802281Y-123875024D01*
X95475024Y-124202281D01*
X95217900Y-124587095D01*
X95040790Y-125014676D01*
X94950500Y-125468594D01*
X93268982Y-125468594D01*
X93228798Y-125266579D01*
X93116788Y-124996162D01*
X92954174Y-124752794D01*
X92747206Y-124545826D01*
X92503838Y-124383212D01*
X92233421Y-124271202D01*
X91946348Y-124214100D01*
X91653652Y-124214100D01*
X91366579Y-124271202D01*
X91096162Y-124383212D01*
X90852794Y-124545826D01*
X90645826Y-124752794D01*
X90483212Y-124996162D01*
X90371202Y-125266579D01*
X90314100Y-125553652D01*
X86285900Y-125553652D01*
X86228798Y-125266579D01*
X86116788Y-124996162D01*
X85954174Y-124752794D01*
X85747206Y-124545826D01*
X85503838Y-124383212D01*
X85233421Y-124271202D01*
X84946348Y-124214100D01*
X84653652Y-124214100D01*
X84366579Y-124271202D01*
X84096162Y-124383212D01*
X83852794Y-124545826D01*
X83645826Y-124752794D01*
X83483212Y-124996162D01*
X83371202Y-125266579D01*
X83314100Y-125553652D01*
X83160000Y-125553652D01*
X83160000Y-121388675D01*
X83389700Y-121388675D01*
X83389700Y-121611325D01*
X83433137Y-121829696D01*
X83518341Y-122035398D01*
X83642039Y-122220524D01*
X83799476Y-122377961D01*
X83984602Y-122501659D01*
X84190304Y-122586863D01*
X84408675Y-122630300D01*
X84631325Y-122630300D01*
X84849696Y-122586863D01*
X85055398Y-122501659D01*
X85240524Y-122377961D01*
X85397961Y-122220524D01*
X85521659Y-122035398D01*
X85606863Y-121829696D01*
X85650300Y-121611325D01*
X85650300Y-121388675D01*
X90949700Y-121388675D01*
X90949700Y-121611325D01*
X90993137Y-121829696D01*
X91078341Y-122035398D01*
X91202039Y-122220524D01*
X91359476Y-122377961D01*
X91544602Y-122501659D01*
X91750304Y-122586863D01*
X91968675Y-122630300D01*
X92191325Y-122630300D01*
X92409696Y-122586863D01*
X92615398Y-122501659D01*
X92800524Y-122377961D01*
X92957961Y-122220524D01*
X93081659Y-122035398D01*
X93166863Y-121829696D01*
X93210300Y-121611325D01*
X93210300Y-121388675D01*
X101389700Y-121388675D01*
X101389700Y-121611325D01*
X101433137Y-121829696D01*
X101518341Y-122035398D01*
X101642039Y-122220524D01*
X101799476Y-122377961D01*
X101984602Y-122501659D01*
X102190304Y-122586863D01*
X102408675Y-122630300D01*
X102631325Y-122630300D01*
X102849696Y-122586863D01*
X103055398Y-122501659D01*
X103240524Y-122377961D01*
X103397961Y-122220524D01*
X103521659Y-122035398D01*
X103606863Y-121829696D01*
X103650300Y-121611325D01*
X103650300Y-121388675D01*
X103606863Y-121170304D01*
X103521659Y-120964602D01*
X103397961Y-120779476D01*
X103240524Y-120622039D01*
X103055398Y-120498341D01*
X102849696Y-120413137D01*
X102631325Y-120369700D01*
X102408675Y-120369700D01*
X102190304Y-120413137D01*
X101984602Y-120498341D01*
X101799476Y-120622039D01*
X101642039Y-120779476D01*
X101518341Y-120964602D01*
X101433137Y-121170304D01*
X101389700Y-121388675D01*
X93210300Y-121388675D01*
X93166863Y-121170304D01*
X93081659Y-120964602D01*
X92957961Y-120779476D01*
X92800524Y-120622039D01*
X92615398Y-120498341D01*
X92409696Y-120413137D01*
X92191325Y-120369700D01*
X91968675Y-120369700D01*
X91750304Y-120413137D01*
X91544602Y-120498341D01*
X91359476Y-120622039D01*
X91202039Y-120779476D01*
X91078341Y-120964602D01*
X90993137Y-121170304D01*
X90949700Y-121388675D01*
X85650300Y-121388675D01*
X85606863Y-121170304D01*
X85521659Y-120964602D01*
X85397961Y-120779476D01*
X85240524Y-120622039D01*
X85055398Y-120498341D01*
X84849696Y-120413137D01*
X84631325Y-120369700D01*
X84408675Y-120369700D01*
X84190304Y-120413137D01*
X83984602Y-120498341D01*
X83799476Y-120622039D01*
X83642039Y-120779476D01*
X83518341Y-120964602D01*
X83433137Y-121170304D01*
X83389700Y-121388675D01*
X83160000Y-121388675D01*
X83160000Y-118014801D01*
X87231003Y-113943799D01*
X87260001Y-113920001D01*
X87354974Y-113804276D01*
X87425546Y-113672247D01*
X87469003Y-113528986D01*
X87480000Y-113417333D01*
X87483677Y-113380000D01*
X87480000Y-113342667D01*
X87480000Y-99334801D01*
X87845000Y-98969802D01*
X87845000Y-99161335D01*
X87900147Y-99438574D01*
X88008320Y-99699727D01*
X88165363Y-99934759D01*
X88365241Y-100134637D01*
X88440001Y-100184590D01*
X88440000Y-102662667D01*
X88436323Y-102700000D01*
X88440001Y-102737343D01*
X88440000Y-111662667D01*
X88440000Y-112362678D01*
X88436324Y-112400000D01*
X88440000Y-112437322D01*
X88440000Y-112437332D01*
X88450997Y-112548985D01*
X88475875Y-112630997D01*
X88494454Y-112692246D01*
X88565026Y-112824276D01*
X88577930Y-112839999D01*
X88659999Y-112940001D01*
X88689003Y-112963804D01*
X90836200Y-115111002D01*
X90859999Y-115140001D01*
X90975724Y-115234974D01*
X91107753Y-115305546D01*
X91251014Y-115349003D01*
X91362667Y-115360000D01*
X91362677Y-115360000D01*
X91400000Y-115363676D01*
X91437323Y-115360000D01*
X95827773Y-115360000D01*
X95836903Y-115382042D01*
X96017585Y-115652451D01*
X96247549Y-115882415D01*
X96517958Y-116063097D01*
X96818421Y-116187553D01*
X97137391Y-116251000D01*
X97462609Y-116251000D01*
X97781579Y-116187553D01*
X98082042Y-116063097D01*
X98352451Y-115882415D01*
X98582415Y-115652451D01*
X98763097Y-115382042D01*
X98887553Y-115081579D01*
X98951000Y-114762609D01*
X98951000Y-114437391D01*
X98887553Y-114118421D01*
X98763097Y-113817958D01*
X98582415Y-113547549D01*
X98352451Y-113317585D01*
X98082042Y-113136903D01*
X97781579Y-113012447D01*
X97462609Y-112949000D01*
X97137391Y-112949000D01*
X96818421Y-113012447D01*
X96517958Y-113136903D01*
X96247549Y-113317585D01*
X96017585Y-113547549D01*
X95836903Y-113817958D01*
X95827773Y-113840000D01*
X93266269Y-113840000D01*
X93352451Y-113782415D01*
X93582415Y-113552451D01*
X93763097Y-113282042D01*
X93887553Y-112981579D01*
X93951000Y-112662609D01*
X93951000Y-112337391D01*
X93887553Y-112018421D01*
X93763097Y-111717958D01*
X93582415Y-111447549D01*
X93352451Y-111217585D01*
X93082042Y-111036903D01*
X92781579Y-110912447D01*
X92462609Y-110849000D01*
X92137391Y-110849000D01*
X91818421Y-110912447D01*
X91517958Y-111036903D01*
X91247549Y-111217585D01*
X91017585Y-111447549D01*
X90836903Y-111717958D01*
X90712447Y-112018421D01*
X90649000Y-112337391D01*
X90649000Y-112662609D01*
X90676708Y-112801907D01*
X89960000Y-112085199D01*
X89960000Y-108553652D01*
X90314100Y-108553652D01*
X90314100Y-108846348D01*
X90371202Y-109133421D01*
X90483212Y-109403838D01*
X90645826Y-109647206D01*
X90852794Y-109854174D01*
X91096162Y-110016788D01*
X91366579Y-110128798D01*
X91653652Y-110185900D01*
X91946348Y-110185900D01*
X92233421Y-110128798D01*
X92503838Y-110016788D01*
X92747206Y-109854174D01*
X92954174Y-109647206D01*
X93116788Y-109403838D01*
X93228798Y-109133421D01*
X93285900Y-108846348D01*
X93285900Y-108553652D01*
X93268982Y-108468594D01*
X94950500Y-108468594D01*
X94950500Y-108931406D01*
X95040790Y-109385324D01*
X95217900Y-109812905D01*
X95475024Y-110197719D01*
X95802281Y-110524976D01*
X96187095Y-110782100D01*
X96614676Y-110959210D01*
X97068594Y-111049500D01*
X97531406Y-111049500D01*
X97985324Y-110959210D01*
X98412905Y-110782100D01*
X98797719Y-110524976D01*
X99124976Y-110197719D01*
X99382100Y-109812905D01*
X99559210Y-109385324D01*
X99649500Y-108931406D01*
X99649500Y-108553652D01*
X101314100Y-108553652D01*
X101314100Y-108846348D01*
X101371202Y-109133421D01*
X101483212Y-109403838D01*
X101645826Y-109647206D01*
X101852794Y-109854174D01*
X102096162Y-110016788D01*
X102366579Y-110128798D01*
X102653652Y-110185900D01*
X102946348Y-110185900D01*
X103233421Y-110128798D01*
X103503838Y-110016788D01*
X103747206Y-109854174D01*
X103954174Y-109647206D01*
X104116788Y-109403838D01*
X104228798Y-109133421D01*
X104285900Y-108846348D01*
X104285900Y-108553652D01*
X104228798Y-108266579D01*
X104116788Y-107996162D01*
X103954174Y-107752794D01*
X103747206Y-107545826D01*
X103503838Y-107383212D01*
X103233421Y-107271202D01*
X102946348Y-107214100D01*
X102653652Y-107214100D01*
X102366579Y-107271202D01*
X102096162Y-107383212D01*
X101852794Y-107545826D01*
X101645826Y-107752794D01*
X101483212Y-107996162D01*
X101371202Y-108266579D01*
X101314100Y-108553652D01*
X99649500Y-108553652D01*
X99649500Y-108468594D01*
X99559210Y-108014676D01*
X99382100Y-107587095D01*
X99124976Y-107202281D01*
X98797719Y-106875024D01*
X98412905Y-106617900D01*
X97985324Y-106440790D01*
X97531406Y-106350500D01*
X97068594Y-106350500D01*
X96614676Y-106440790D01*
X96187095Y-106617900D01*
X95802281Y-106875024D01*
X95475024Y-107202281D01*
X95217900Y-107587095D01*
X95040790Y-108014676D01*
X94950500Y-108468594D01*
X93268982Y-108468594D01*
X93228798Y-108266579D01*
X93116788Y-107996162D01*
X92954174Y-107752794D01*
X92747206Y-107545826D01*
X92503838Y-107383212D01*
X92233421Y-107271202D01*
X91946348Y-107214100D01*
X91653652Y-107214100D01*
X91366579Y-107271202D01*
X91096162Y-107383212D01*
X90852794Y-107545826D01*
X90645826Y-107752794D01*
X90483212Y-107996162D01*
X90371202Y-108266579D01*
X90314100Y-108553652D01*
X89960000Y-108553652D01*
X89960000Y-104388675D01*
X90949700Y-104388675D01*
X90949700Y-104611325D01*
X90993137Y-104829696D01*
X91078341Y-105035398D01*
X91202039Y-105220524D01*
X91359476Y-105377961D01*
X91544602Y-105501659D01*
X91750304Y-105586863D01*
X91968675Y-105630300D01*
X92191325Y-105630300D01*
X92409696Y-105586863D01*
X92615398Y-105501659D01*
X92800524Y-105377961D01*
X92957961Y-105220524D01*
X93081659Y-105035398D01*
X93166863Y-104829696D01*
X93210300Y-104611325D01*
X93210300Y-104388675D01*
X101389700Y-104388675D01*
X101389700Y-104611325D01*
X101433137Y-104829696D01*
X101518341Y-105035398D01*
X101642039Y-105220524D01*
X101799476Y-105377961D01*
X101984602Y-105501659D01*
X102190304Y-105586863D01*
X102408675Y-105630300D01*
X102631325Y-105630300D01*
X102849696Y-105586863D01*
X103055398Y-105501659D01*
X103240524Y-105377961D01*
X103397961Y-105220524D01*
X103521659Y-105035398D01*
X103606863Y-104829696D01*
X103650300Y-104611325D01*
X103650300Y-104388675D01*
X103606863Y-104170304D01*
X103521659Y-103964602D01*
X103397961Y-103779476D01*
X103240524Y-103622039D01*
X103055398Y-103498341D01*
X102849696Y-103413137D01*
X102631325Y-103369700D01*
X102408675Y-103369700D01*
X102190304Y-103413137D01*
X101984602Y-103498341D01*
X101799476Y-103622039D01*
X101642039Y-103779476D01*
X101518341Y-103964602D01*
X101433137Y-104170304D01*
X101389700Y-104388675D01*
X93210300Y-104388675D01*
X93166863Y-104170304D01*
X93081659Y-103964602D01*
X92957961Y-103779476D01*
X92800524Y-103622039D01*
X92615398Y-103498341D01*
X92409696Y-103413137D01*
X92191325Y-103369700D01*
X91968675Y-103369700D01*
X91750304Y-103413137D01*
X91544602Y-103498341D01*
X91359476Y-103622039D01*
X91202039Y-103779476D01*
X91078341Y-103964602D01*
X90993137Y-104170304D01*
X90949700Y-104388675D01*
X89960000Y-104388675D01*
X89960000Y-102737332D01*
X89963677Y-102700000D01*
X89960000Y-102662667D01*
X89960000Y-100291498D01*
X90194759Y-100134637D01*
X90394637Y-99934759D01*
X90550000Y-99702241D01*
X90705363Y-99934759D01*
X90905241Y-100134637D01*
X91140273Y-100291680D01*
X91401426Y-100399853D01*
X91678665Y-100455000D01*
X91961335Y-100455000D01*
X92238574Y-100399853D01*
X92499727Y-100291680D01*
X92734759Y-100134637D01*
X92934637Y-99934759D01*
X93090000Y-99702241D01*
X93245363Y-99934759D01*
X93445241Y-100134637D01*
X93680273Y-100291680D01*
X93941426Y-100399853D01*
X94218665Y-100455000D01*
X94501335Y-100455000D01*
X94778574Y-100399853D01*
X95039727Y-100291680D01*
X95274759Y-100134637D01*
X95474637Y-99934759D01*
X95630000Y-99702241D01*
X95785363Y-99934759D01*
X95985241Y-100134637D01*
X96220273Y-100291680D01*
X96481426Y-100399853D01*
X96758665Y-100455000D01*
X97041335Y-100455000D01*
X97318574Y-100399853D01*
X97579727Y-100291680D01*
X97814759Y-100134637D01*
X98014637Y-99934759D01*
X98171680Y-99699727D01*
X98279853Y-99438574D01*
X98335000Y-99161335D01*
X98335000Y-98878665D01*
X98279853Y-98601426D01*
X98171680Y-98340273D01*
X98035000Y-98135716D01*
X98035000Y-95955752D01*
X98040491Y-95900000D01*
X98029851Y-95791964D01*
X98018577Y-95677501D01*
X97953676Y-95463553D01*
X97848284Y-95266377D01*
X97706449Y-95093551D01*
X97663141Y-95058009D01*
X96925909Y-94320777D01*
X99065000Y-94320777D01*
X99065000Y-94879223D01*
X99173948Y-95426939D01*
X99387656Y-95942876D01*
X99697912Y-96407207D01*
X100092793Y-96802088D01*
X100557124Y-97112344D01*
X101073061Y-97326052D01*
X101620777Y-97435000D01*
X102179223Y-97435000D01*
X102726939Y-97326052D01*
X103242876Y-97112344D01*
X103707207Y-96802088D01*
X104102088Y-96407207D01*
X104412344Y-95942876D01*
X104626052Y-95426939D01*
X104735000Y-94879223D01*
X104735000Y-94320777D01*
X104626052Y-93773061D01*
X104412344Y-93257124D01*
X104102088Y-92792793D01*
X103707207Y-92397912D01*
X103242876Y-92087656D01*
X102726939Y-91873948D01*
X102179223Y-91765000D01*
X101620777Y-91765000D01*
X101073061Y-91873948D01*
X100557124Y-92087656D01*
X100092793Y-92397912D01*
X99697912Y-92792793D01*
X99387656Y-93257124D01*
X99173948Y-93773061D01*
X99065000Y-94320777D01*
X96925909Y-94320777D01*
X95541996Y-92936865D01*
X95506449Y-92893551D01*
X95333623Y-92751716D01*
X95136447Y-92646324D01*
X95096026Y-92634062D01*
X95274759Y-92514637D01*
X95473357Y-92316039D01*
X95474188Y-92324482D01*
X95510498Y-92444180D01*
X95569463Y-92554494D01*
X95648815Y-92651185D01*
X95745506Y-92730537D01*
X95855820Y-92789502D01*
X95975518Y-92825812D01*
X96100000Y-92838072D01*
X97700000Y-92838072D01*
X97824482Y-92825812D01*
X97944180Y-92789502D01*
X98054494Y-92730537D01*
X98151185Y-92651185D01*
X98230537Y-92554494D01*
X98289502Y-92444180D01*
X98325812Y-92324482D01*
X98338072Y-92200000D01*
X98338072Y-90600000D01*
X98325812Y-90475518D01*
X98289502Y-90355820D01*
X98230537Y-90245506D01*
X98151185Y-90148815D01*
X98054494Y-90069463D01*
X97944180Y-90010498D01*
X97824482Y-89974188D01*
X97700000Y-89961928D01*
X96100000Y-89961928D01*
X95975518Y-89974188D01*
X95855820Y-90010498D01*
X95745506Y-90069463D01*
X95648815Y-90148815D01*
X95569463Y-90245506D01*
X95510498Y-90355820D01*
X95474188Y-90475518D01*
X95473357Y-90483961D01*
X95274759Y-90285363D01*
X95039727Y-90128320D01*
X94778574Y-90020147D01*
X94501335Y-89965000D01*
X94218665Y-89965000D01*
X93941426Y-90020147D01*
X93680273Y-90128320D01*
X93445241Y-90285363D01*
X93245363Y-90485241D01*
X93090000Y-90717759D01*
X92934637Y-90485241D01*
X92734759Y-90285363D01*
X92499727Y-90128320D01*
X92238574Y-90020147D01*
X91961335Y-89965000D01*
X91678665Y-89965000D01*
X91401426Y-90020147D01*
X91140273Y-90128320D01*
X90905241Y-90285363D01*
X90705363Y-90485241D01*
X90548320Y-90720273D01*
X90440147Y-90981426D01*
X90385000Y-91258665D01*
X90385000Y-91541335D01*
X90440147Y-91818574D01*
X90548320Y-92079727D01*
X90705363Y-92314759D01*
X90905241Y-92514637D01*
X90980615Y-92565000D01*
X77144248Y-92565000D01*
X76977501Y-92581423D01*
X76763553Y-92646324D01*
X76566377Y-92751716D01*
X76393551Y-92893551D01*
X76251716Y-93066377D01*
X76146324Y-93263553D01*
X76081423Y-93477501D01*
X76059509Y-93700000D01*
X59501302Y-93700000D01*
X59476052Y-93573061D01*
X59262344Y-93057124D01*
X58952088Y-92592793D01*
X58557207Y-92197912D01*
X58092876Y-91887656D01*
X57576939Y-91673948D01*
X57029223Y-91565000D01*
X56470777Y-91565000D01*
X55923061Y-91673948D01*
X55407124Y-91887656D01*
X54942793Y-92197912D01*
X54547912Y-92592793D01*
X54237656Y-93057124D01*
X54023948Y-93573061D01*
X53915000Y-94120777D01*
X52960000Y-94120777D01*
X52960000Y-90805279D01*
X52988625Y-90513341D01*
X53064035Y-90263571D01*
X53186522Y-90033208D01*
X53351422Y-89831020D01*
X53552450Y-89664714D01*
X53781954Y-89540622D01*
X54031195Y-89463469D01*
X54321088Y-89433000D01*
X104267721Y-89433000D01*
X104559659Y-89461625D01*
G37*
G04 #@! TD.AperFunction*
G04 #@! TD*
M02*
