M48
; DRILL file {KiCad 5.1.10-88a1d61d58~90~ubuntu20.04.1} date Fri Sep  3 02:40:33 2021
; FORMAT={-:-/ absolute / metric / decimal}
; #@! TF.CreationDate,2021-09-03T02:40:33-04:00
; #@! TF.GenerationSoftware,Kicad,Pcbnew,5.1.10-88a1d61d58~90~ubuntu20.04.1
; #@! TF.FileFunction,Plated,1,2,PTH
FMAT,2
METRIC
T1C0.400
T2C0.600
T3C0.800
T4C1.270
%
G90
G05
T1
X56.794Y-123.723
X58.191Y-97.638
X60.96Y-137.211
X61.036Y-155.016
X61.239Y-103.937
X64.072Y-124.841
X64.922Y-110.414
X65.075Y-94.793
X66.37Y-94.945
X67.843Y-99.187
X74.651Y-92.354
X76.378Y-141.783
X77.876Y-90.449
X79.019Y-103.937
X79.019Y-121.006
X79.197Y-155.118
X81.28Y-141.16
X87.782Y-107.493
X93.751Y-154.407
X97.18Y-120.929
X97.46Y-138.354
T3
X75.87Y-90.881
X75.87Y-93.421
X75.87Y-95.961
X75.87Y-98.501
X83.49Y-90.881
X83.49Y-93.421
X83.49Y-95.961
X83.49Y-98.501
T4
X56.3Y-112.5
X56.3Y-129.5
X56.3Y-146.5
X56.3Y-163.5
X61.3Y-114.6
X61.3Y-131.6
X61.3Y-148.6
X61.3Y-165.6
X74.3Y-112.5
X74.3Y-129.5
X74.3Y-146.5
X74.3Y-163.5
X79.3Y-114.6
X79.3Y-131.6
X79.3Y-148.6
X79.3Y-165.6
X92.3Y-112.5
X92.3Y-129.5
X92.3Y-146.5
X92.3Y-163.5
X97.3Y-114.6
X97.3Y-131.6
X97.3Y-148.6
X97.3Y-165.6
T2
G00X60.552Y-92.373
M15
G01X60.552Y-91.573
M16
G05
G00X60.552Y-96.703
M15
G01X60.552Y-95.603
M16
G05
G00X69.192Y-92.373
M15
G01X69.192Y-91.573
M16
G05
G00X69.192Y-96.703
M15
G01X69.192Y-95.603
M16
G05
T0
M30
