%FSLAX45Y45*%
G04 Gerber Fmt 4.5, Leading zero omitted, Abs format (unit mm)*
G04 Created by KiCad (PCBNEW (5.1.10)-1) date 2021-08-23 14:46:12*
%MOMM*%
%LPD*%
G01*
G04 APERTURE LIST*
%TA.AperFunction,Profile*%
%ADD10C,0.050000*%
%TD*%
%ADD11C,0.200000*%
%ADD12C,0.300000*%
G04 APERTURE END LIST*
D10*
X6305550Y-8877300D02*
X5430000Y-8877300D01*
X6369050Y-8877300D02*
X10430000Y-8877300D01*
X6305550Y-8877300D02*
X6369050Y-8877300D01*
X5230000Y-9077300D02*
G75*
G02*
X5430000Y-8877300I200000J0D01*
G01*
X10430000Y-8877300D02*
G75*
G02*
X10630000Y-9077300I0J-200000D01*
G01*
X10630000Y-16620000D02*
G75*
G02*
X10430000Y-16820000I-200000J0D01*
G01*
X5430000Y-16820000D02*
G75*
G02*
X5230000Y-16620000I0J200000D01*
G01*
X10630000Y-16620000D02*
X10630000Y-9077300D01*
X5430000Y-16820000D02*
X10430000Y-16820000D01*
X5230000Y-16620000D02*
X5230000Y-9077300D01*
D11*
X5420000Y-12340000D02*
X5460000Y-12380000D01*
X5460000Y-12340000D02*
X5420000Y-12380000D01*
X5440000Y-10070000D02*
X5480000Y-10110000D01*
X5480000Y-10070000D02*
X5440000Y-10110000D01*
X5460000Y-15740000D02*
X5500000Y-15780000D01*
X5500000Y-15740000D02*
X5460000Y-15780000D01*
X5490000Y-9420000D02*
X5530000Y-9460000D01*
X5530000Y-9420000D02*
X5490000Y-9460000D01*
X5538327Y-9303327D02*
X5578327Y-9343327D01*
X5578327Y-9303327D02*
X5538327Y-9343327D01*
X5538327Y-9536673D02*
X5578327Y-9576673D01*
X5578327Y-9536673D02*
X5538327Y-9576673D01*
X5655000Y-9255000D02*
X5695000Y-9295000D01*
X5695000Y-9255000D02*
X5655000Y-9295000D01*
X5655000Y-9585000D02*
X5695000Y-9625000D01*
X5695000Y-9585000D02*
X5655000Y-9625000D01*
X5771673Y-9303327D02*
X5811673Y-9343327D01*
X5811673Y-9303327D02*
X5771673Y-9343327D01*
X5771673Y-9536673D02*
X5811673Y-9576673D01*
X5811673Y-9536673D02*
X5771673Y-9576673D01*
X5820000Y-9420000D02*
X5860000Y-9460000D01*
X5860000Y-9420000D02*
X5820000Y-9460000D01*
X5980000Y-13610000D02*
X6020000Y-13650000D01*
X6020000Y-13610000D02*
X5980000Y-13650000D01*
X6090000Y-15450000D02*
X6130000Y-15490000D01*
X6130000Y-15450000D02*
X6090000Y-15490000D01*
X6100000Y-9130000D02*
X6140000Y-9170000D01*
X6140000Y-9130000D02*
X6100000Y-9170000D01*
X6220000Y-9590000D02*
X6260000Y-9630000D01*
X6260000Y-9590000D02*
X6220000Y-9630000D01*
X6385000Y-16390000D02*
X6425000Y-16430000D01*
X6425000Y-16390000D02*
X6385000Y-16430000D01*
X6387150Y-12464100D02*
X6427150Y-12504100D01*
X6427150Y-12464100D02*
X6387150Y-12504100D01*
X6410000Y-11020000D02*
X6450000Y-11060000D01*
X6450000Y-11020000D02*
X6410000Y-11060000D01*
X6433327Y-16273327D02*
X6473327Y-16313327D01*
X6473327Y-16273327D02*
X6433327Y-16313327D01*
X6433327Y-16506673D02*
X6473327Y-16546673D01*
X6473327Y-16506673D02*
X6433327Y-16546673D01*
X6450000Y-9730000D02*
X6490000Y-9770000D01*
X6490000Y-9730000D02*
X6450000Y-9770000D01*
X6490000Y-13060000D02*
X6530000Y-13100000D01*
X6530000Y-13060000D02*
X6490000Y-13100000D01*
X6550000Y-16225000D02*
X6590000Y-16265000D01*
X6590000Y-16225000D02*
X6550000Y-16265000D01*
X6550000Y-16555000D02*
X6590000Y-16595000D01*
X6590000Y-16555000D02*
X6550000Y-16595000D01*
X6666673Y-16273327D02*
X6706673Y-16313327D01*
X6706673Y-16273327D02*
X6666673Y-16313327D01*
X6666673Y-16506673D02*
X6706673Y-16546673D01*
X6706673Y-16506673D02*
X6666673Y-16546673D01*
X6670000Y-9730000D02*
X6710000Y-9770000D01*
X6710000Y-9730000D02*
X6670000Y-9770000D01*
X6715000Y-16390000D02*
X6755000Y-16430000D01*
X6755000Y-16390000D02*
X6715000Y-16430000D01*
X6810000Y-9730000D02*
X6850000Y-9770000D01*
X6850000Y-9730000D02*
X6810000Y-9770000D01*
X6820000Y-15100000D02*
X6860000Y-15140000D01*
X6860000Y-15100000D02*
X6820000Y-15140000D01*
X6860000Y-10690000D02*
X6900000Y-10730000D01*
X6900000Y-10690000D02*
X6860000Y-10730000D01*
X6860000Y-11770000D02*
X6900000Y-11810000D01*
X6900000Y-11770000D02*
X6860000Y-11810000D01*
X6920000Y-9730000D02*
X6960000Y-9770000D01*
X6960000Y-9730000D02*
X6920000Y-9770000D01*
X7020000Y-10240000D02*
X7060000Y-10280000D01*
X7060000Y-10240000D02*
X7020000Y-10280000D01*
X7330000Y-9720000D02*
X7370000Y-9760000D01*
X7370000Y-9720000D02*
X7330000Y-9760000D01*
X7690000Y-16510000D02*
X7730000Y-16550000D01*
X7730000Y-16510000D02*
X7690000Y-16550000D01*
X7700000Y-9350000D02*
X7740000Y-9390000D01*
X7740000Y-9350000D02*
X7700000Y-9390000D01*
X7720650Y-9803450D02*
X7760650Y-9843450D01*
X7760650Y-9803450D02*
X7720650Y-9843450D01*
X7890000Y-15460000D02*
X7930000Y-15500000D01*
X7930000Y-15460000D02*
X7890000Y-15500000D01*
X8108000Y-14096050D02*
X8148000Y-14136050D01*
X8148000Y-14096050D02*
X8108000Y-14136050D01*
X8160000Y-9680000D02*
X8200000Y-9720000D01*
X8200000Y-9680000D02*
X8160000Y-9720000D01*
X8520000Y-15710000D02*
X8560000Y-15750000D01*
X8560000Y-15710000D02*
X8520000Y-15750000D01*
X8710000Y-11600000D02*
X8750000Y-11640000D01*
X8750000Y-11600000D02*
X8710000Y-11640000D01*
X8710000Y-13340000D02*
X8750000Y-13380000D01*
X8750000Y-13340000D02*
X8710000Y-13380000D01*
X8880000Y-9540000D02*
X8920000Y-9580000D01*
X8920000Y-9540000D02*
X8880000Y-9580000D01*
X9041450Y-9689150D02*
X9081450Y-9729150D01*
X9081450Y-9689150D02*
X9041450Y-9729150D01*
X9320000Y-14020000D02*
X9360000Y-14060000D01*
X9360000Y-14020000D02*
X9320000Y-14060000D01*
X9880000Y-11890000D02*
X9920000Y-11930000D01*
X9920000Y-11890000D02*
X9880000Y-11930000D01*
X9985000Y-16380000D02*
X10025000Y-16420000D01*
X10025000Y-16380000D02*
X9985000Y-16420000D01*
X10005000Y-9440000D02*
X10045000Y-9480000D01*
X10045000Y-9440000D02*
X10005000Y-9480000D01*
X10033327Y-16263327D02*
X10073327Y-16303327D01*
X10073327Y-16263327D02*
X10033327Y-16303327D01*
X10033327Y-16496673D02*
X10073327Y-16536673D01*
X10073327Y-16496673D02*
X10033327Y-16536673D01*
X10053327Y-9323327D02*
X10093327Y-9363327D01*
X10093327Y-9323327D02*
X10053327Y-9363327D01*
X10053327Y-9556673D02*
X10093327Y-9596673D01*
X10093327Y-9556673D02*
X10053327Y-9596673D01*
X10080000Y-11220000D02*
X10120000Y-11260000D01*
X10120000Y-11220000D02*
X10080000Y-11260000D01*
X10100000Y-15390000D02*
X10140000Y-15430000D01*
X10140000Y-15390000D02*
X10100000Y-15430000D01*
X10150000Y-16215000D02*
X10190000Y-16255000D01*
X10190000Y-16215000D02*
X10150000Y-16255000D01*
X10150000Y-16545000D02*
X10190000Y-16585000D01*
X10190000Y-16545000D02*
X10150000Y-16585000D01*
X10170000Y-9275000D02*
X10210000Y-9315000D01*
X10210000Y-9275000D02*
X10170000Y-9315000D01*
X10170000Y-9605000D02*
X10210000Y-9645000D01*
X10210000Y-9605000D02*
X10170000Y-9645000D01*
X10210000Y-12970000D02*
X10250000Y-13010000D01*
X10250000Y-12970000D02*
X10210000Y-13010000D01*
X10266673Y-16263327D02*
X10306673Y-16303327D01*
X10306673Y-16263327D02*
X10266673Y-16303327D01*
X10266673Y-16496673D02*
X10306673Y-16536673D01*
X10306673Y-16496673D02*
X10266673Y-16536673D01*
X10286673Y-9323327D02*
X10326673Y-9363327D01*
X10326673Y-9323327D02*
X10286673Y-9363327D01*
X10286673Y-9556673D02*
X10326673Y-9596673D01*
X10326673Y-9556673D02*
X10286673Y-9596673D01*
X10315000Y-16380000D02*
X10355000Y-16420000D01*
X10355000Y-16380000D02*
X10315000Y-16420000D01*
X10335000Y-9440000D02*
X10375000Y-9480000D01*
X10375000Y-9440000D02*
X10335000Y-9480000D01*
X6388000Y-9150000D02*
G75*
G03*
X6388000Y-9150000I-30000J0D01*
G01*
X6378000Y-9190000D02*
X6378000Y-9110000D01*
X6338000Y-9190000D02*
X6338000Y-9110000D01*
X6378000Y-9110000D02*
G75*
G03*
X6338000Y-9110000I-20000J0D01*
G01*
X6338000Y-9190000D02*
G75*
G03*
X6378000Y-9190000I20000J0D01*
G01*
X6388000Y-9568000D02*
G75*
G03*
X6388000Y-9568000I-30000J0D01*
G01*
X6378000Y-9623000D02*
X6378000Y-9513000D01*
X6338000Y-9623000D02*
X6338000Y-9513000D01*
X6378000Y-9513000D02*
G75*
G03*
X6338000Y-9513000I-20000J0D01*
G01*
X6338000Y-9623000D02*
G75*
G03*
X6378000Y-9623000I20000J0D01*
G01*
X7252000Y-9150000D02*
G75*
G03*
X7252000Y-9150000I-30000J0D01*
G01*
X7242000Y-9190000D02*
X7242000Y-9110000D01*
X7202000Y-9190000D02*
X7202000Y-9110000D01*
X7242000Y-9110000D02*
G75*
G03*
X7202000Y-9110000I-20000J0D01*
G01*
X7202000Y-9190000D02*
G75*
G03*
X7242000Y-9190000I20000J0D01*
G01*
X7252000Y-9568000D02*
G75*
G03*
X7252000Y-9568000I-30000J0D01*
G01*
X7242000Y-9623000D02*
X7242000Y-9513000D01*
X7202000Y-9623000D02*
X7202000Y-9513000D01*
X7242000Y-9513000D02*
G75*
G03*
X7202000Y-9513000I-20000J0D01*
G01*
X7202000Y-9623000D02*
G75*
G03*
X7242000Y-9623000I20000J0D01*
G01*
X8928000Y-9100000D02*
X8928000Y-9180000D01*
X8888000Y-9140000D02*
X8968000Y-9140000D01*
X8928000Y-9862000D02*
X8928000Y-9942000D01*
X8888000Y-9902000D02*
X8968000Y-9902000D01*
X9182000Y-9100000D02*
X9182000Y-9180000D01*
X9142000Y-9140000D02*
X9222000Y-9140000D01*
X9182000Y-9862000D02*
X9182000Y-9942000D01*
X9142000Y-9902000D02*
X9222000Y-9902000D01*
X9436000Y-9100000D02*
X9436000Y-9180000D01*
X9396000Y-9140000D02*
X9476000Y-9140000D01*
X9436000Y-9862000D02*
X9436000Y-9942000D01*
X9396000Y-9902000D02*
X9476000Y-9902000D01*
X9690000Y-9100000D02*
X9690000Y-9180000D01*
X9650000Y-9140000D02*
X9730000Y-9140000D01*
X9690000Y-9862000D02*
X9690000Y-9942000D01*
X9650000Y-9902000D02*
X9730000Y-9902000D01*
X5674902Y-11294902D02*
X5674902Y-11205098D01*
X5585098Y-11205098D01*
X5585098Y-11294902D01*
X5674902Y-11294902D01*
X5674902Y-12994902D02*
X5674902Y-12905098D01*
X5585098Y-12905098D01*
X5585098Y-12994902D01*
X5674902Y-12994902D01*
X5674902Y-14694902D02*
X5674902Y-14605098D01*
X5585098Y-14605098D01*
X5585098Y-14694902D01*
X5674902Y-14694902D01*
X5674902Y-16394902D02*
X5674902Y-16305098D01*
X5585098Y-16305098D01*
X5585098Y-16394902D01*
X5674902Y-16394902D01*
X6174902Y-11504902D02*
X6174902Y-11415098D01*
X6085098Y-11415098D01*
X6085098Y-11504902D01*
X6174902Y-11504902D01*
X6174902Y-13204902D02*
X6174902Y-13115098D01*
X6085098Y-13115098D01*
X6085098Y-13204902D01*
X6174902Y-13204902D01*
X6174902Y-14904902D02*
X6174902Y-14815098D01*
X6085098Y-14815098D01*
X6085098Y-14904902D01*
X6174902Y-14904902D01*
X6174902Y-16604902D02*
X6174902Y-16515098D01*
X6085098Y-16515098D01*
X6085098Y-16604902D01*
X6174902Y-16604902D01*
X7474902Y-11294902D02*
X7474902Y-11205098D01*
X7385098Y-11205098D01*
X7385098Y-11294902D01*
X7474902Y-11294902D01*
X7474902Y-12994902D02*
X7474902Y-12905098D01*
X7385098Y-12905098D01*
X7385098Y-12994902D01*
X7474902Y-12994902D01*
X7474902Y-14694902D02*
X7474902Y-14605098D01*
X7385098Y-14605098D01*
X7385098Y-14694902D01*
X7474902Y-14694902D01*
X7474902Y-16394902D02*
X7474902Y-16305098D01*
X7385098Y-16305098D01*
X7385098Y-16394902D01*
X7474902Y-16394902D01*
X7974902Y-11504902D02*
X7974902Y-11415098D01*
X7885098Y-11415098D01*
X7885098Y-11504902D01*
X7974902Y-11504902D01*
X7974902Y-13204902D02*
X7974902Y-13115098D01*
X7885098Y-13115098D01*
X7885098Y-13204902D01*
X7974902Y-13204902D01*
X7974902Y-14904902D02*
X7974902Y-14815098D01*
X7885098Y-14815098D01*
X7885098Y-14904902D01*
X7974902Y-14904902D01*
X7974902Y-16604902D02*
X7974902Y-16515098D01*
X7885098Y-16515098D01*
X7885098Y-16604902D01*
X7974902Y-16604902D01*
X9274902Y-11294902D02*
X9274902Y-11205098D01*
X9185098Y-11205098D01*
X9185098Y-11294902D01*
X9274902Y-11294902D01*
X9274902Y-12994902D02*
X9274902Y-12905098D01*
X9185098Y-12905098D01*
X9185098Y-12994902D01*
X9274902Y-12994902D01*
X9274902Y-14694902D02*
X9274902Y-14605098D01*
X9185098Y-14605098D01*
X9185098Y-14694902D01*
X9274902Y-14694902D01*
X9274902Y-16394902D02*
X9274902Y-16305098D01*
X9185098Y-16305098D01*
X9185098Y-16394902D01*
X9274902Y-16394902D01*
X9774902Y-11504902D02*
X9774902Y-11415098D01*
X9685098Y-11415098D01*
X9685098Y-11504902D01*
X9774902Y-11504902D01*
X9774902Y-13204902D02*
X9774902Y-13115098D01*
X9685098Y-13115098D01*
X9685098Y-13204902D01*
X9774902Y-13204902D01*
X9774902Y-14904902D02*
X9774902Y-14815098D01*
X9685098Y-14815098D01*
X9685098Y-14904902D01*
X9774902Y-14904902D01*
X9774902Y-16604902D02*
X9774902Y-16515098D01*
X9685098Y-16515098D01*
X9685098Y-16604902D01*
X9774902Y-16604902D01*
X5675000Y-9550000D02*
X5785000Y-9440000D01*
X5675000Y-9330000D01*
X5565000Y-9440000D01*
X5675000Y-9550000D01*
X6570000Y-16520000D02*
X6680000Y-16410000D01*
X6570000Y-16300000D01*
X6460000Y-16410000D01*
X6570000Y-16520000D01*
X10170000Y-16510000D02*
X10280000Y-16400000D01*
X10170000Y-16290000D01*
X10060000Y-16400000D01*
X10170000Y-16510000D01*
X10190000Y-9570000D02*
X10300000Y-9460000D01*
X10190000Y-9350000D01*
X10080000Y-9460000D01*
X10190000Y-9570000D01*
D12*
X5513928Y-17288214D02*
X5513928Y-16988214D01*
X5585357Y-16988214D01*
X5628214Y-17002500D01*
X5656786Y-17031072D01*
X5671071Y-17059643D01*
X5685357Y-17116786D01*
X5685357Y-17159643D01*
X5671071Y-17216786D01*
X5656786Y-17245357D01*
X5628214Y-17273929D01*
X5585357Y-17288214D01*
X5513928Y-17288214D01*
X5813928Y-17288214D02*
X5813928Y-17088214D01*
X5813928Y-17145357D02*
X5828214Y-17116786D01*
X5842500Y-17102500D01*
X5871071Y-17088214D01*
X5899643Y-17088214D01*
X5999643Y-17288214D02*
X5999643Y-17088214D01*
X5999643Y-16988214D02*
X5985357Y-17002500D01*
X5999643Y-17016786D01*
X6013928Y-17002500D01*
X5999643Y-16988214D01*
X5999643Y-17016786D01*
X6185357Y-17288214D02*
X6156786Y-17273929D01*
X6142500Y-17245357D01*
X6142500Y-16988214D01*
X6342500Y-17288214D02*
X6313928Y-17273929D01*
X6299643Y-17245357D01*
X6299643Y-16988214D01*
X6685357Y-17288214D02*
X6685357Y-16988214D01*
X6785357Y-17202500D01*
X6885357Y-16988214D01*
X6885357Y-17288214D01*
X7156786Y-17288214D02*
X7156786Y-17131072D01*
X7142500Y-17102500D01*
X7113928Y-17088214D01*
X7056786Y-17088214D01*
X7028214Y-17102500D01*
X7156786Y-17273929D02*
X7128214Y-17288214D01*
X7056786Y-17288214D01*
X7028214Y-17273929D01*
X7013928Y-17245357D01*
X7013928Y-17216786D01*
X7028214Y-17188214D01*
X7056786Y-17173929D01*
X7128214Y-17173929D01*
X7156786Y-17159643D01*
X7299643Y-17088214D02*
X7299643Y-17388214D01*
X7299643Y-17102500D02*
X7328214Y-17088214D01*
X7385357Y-17088214D01*
X7413928Y-17102500D01*
X7428214Y-17116786D01*
X7442500Y-17145357D01*
X7442500Y-17231072D01*
X7428214Y-17259643D01*
X7413928Y-17273929D01*
X7385357Y-17288214D01*
X7328214Y-17288214D01*
X7299643Y-17273929D01*
X7571071Y-17259643D02*
X7585357Y-17273929D01*
X7571071Y-17288214D01*
X7556786Y-17273929D01*
X7571071Y-17259643D01*
X7571071Y-17288214D01*
X7571071Y-17102500D02*
X7585357Y-17116786D01*
X7571071Y-17131072D01*
X7556786Y-17116786D01*
X7571071Y-17102500D01*
X7571071Y-17131072D01*
X5187500Y-17762500D02*
X5227500Y-17802500D01*
X5227500Y-17762500D02*
X5187500Y-17802500D01*
X5571071Y-17618214D02*
X5599643Y-17618214D01*
X5628214Y-17632500D01*
X5642500Y-17646786D01*
X5656786Y-17675357D01*
X5671071Y-17732500D01*
X5671071Y-17803929D01*
X5656786Y-17861072D01*
X5642500Y-17889643D01*
X5628214Y-17903929D01*
X5599643Y-17918214D01*
X5571071Y-17918214D01*
X5542500Y-17903929D01*
X5528214Y-17889643D01*
X5513928Y-17861072D01*
X5499643Y-17803929D01*
X5499643Y-17732500D01*
X5513928Y-17675357D01*
X5528214Y-17646786D01*
X5542500Y-17632500D01*
X5571071Y-17618214D01*
X5799643Y-17889643D02*
X5813928Y-17903929D01*
X5799643Y-17918214D01*
X5785357Y-17903929D01*
X5799643Y-17889643D01*
X5799643Y-17918214D01*
X6071071Y-17718214D02*
X6071071Y-17918214D01*
X5999643Y-17603929D02*
X5928214Y-17818214D01*
X6113928Y-17818214D01*
X6285357Y-17618214D02*
X6313928Y-17618214D01*
X6342500Y-17632500D01*
X6356786Y-17646786D01*
X6371071Y-17675357D01*
X6385357Y-17732500D01*
X6385357Y-17803929D01*
X6371071Y-17861072D01*
X6356786Y-17889643D01*
X6342500Y-17903929D01*
X6313928Y-17918214D01*
X6285357Y-17918214D01*
X6256786Y-17903929D01*
X6242500Y-17889643D01*
X6228214Y-17861072D01*
X6213928Y-17803929D01*
X6213928Y-17732500D01*
X6228214Y-17675357D01*
X6242500Y-17646786D01*
X6256786Y-17632500D01*
X6285357Y-17618214D01*
X6571071Y-17618214D02*
X6599643Y-17618214D01*
X6628214Y-17632500D01*
X6642500Y-17646786D01*
X6656786Y-17675357D01*
X6671071Y-17732500D01*
X6671071Y-17803929D01*
X6656786Y-17861072D01*
X6642500Y-17889643D01*
X6628214Y-17903929D01*
X6599643Y-17918214D01*
X6571071Y-17918214D01*
X6542500Y-17903929D01*
X6528214Y-17889643D01*
X6513928Y-17861072D01*
X6499643Y-17803929D01*
X6499643Y-17732500D01*
X6513928Y-17675357D01*
X6528214Y-17646786D01*
X6542500Y-17632500D01*
X6571071Y-17618214D01*
X6799643Y-17918214D02*
X6799643Y-17718214D01*
X6799643Y-17746786D02*
X6813928Y-17732500D01*
X6842500Y-17718214D01*
X6885357Y-17718214D01*
X6913928Y-17732500D01*
X6928214Y-17761072D01*
X6928214Y-17918214D01*
X6928214Y-17761072D02*
X6942500Y-17732500D01*
X6971071Y-17718214D01*
X7013928Y-17718214D01*
X7042500Y-17732500D01*
X7056786Y-17761072D01*
X7056786Y-17918214D01*
X7199643Y-17918214D02*
X7199643Y-17718214D01*
X7199643Y-17746786D02*
X7213928Y-17732500D01*
X7242500Y-17718214D01*
X7285357Y-17718214D01*
X7313928Y-17732500D01*
X7328214Y-17761072D01*
X7328214Y-17918214D01*
X7328214Y-17761072D02*
X7342500Y-17732500D01*
X7371071Y-17718214D01*
X7413928Y-17718214D01*
X7442500Y-17732500D01*
X7456786Y-17761072D01*
X7456786Y-17918214D01*
X8042500Y-17603929D02*
X7785357Y-17989643D01*
X8428214Y-17618214D02*
X8456786Y-17618214D01*
X8485357Y-17632500D01*
X8499643Y-17646786D01*
X8513928Y-17675357D01*
X8528214Y-17732500D01*
X8528214Y-17803929D01*
X8513928Y-17861072D01*
X8499643Y-17889643D01*
X8485357Y-17903929D01*
X8456786Y-17918214D01*
X8428214Y-17918214D01*
X8399643Y-17903929D01*
X8385357Y-17889643D01*
X8371071Y-17861072D01*
X8356786Y-17803929D01*
X8356786Y-17732500D01*
X8371071Y-17675357D01*
X8385357Y-17646786D01*
X8399643Y-17632500D01*
X8428214Y-17618214D01*
X8656786Y-17889643D02*
X8671071Y-17903929D01*
X8656786Y-17918214D01*
X8642500Y-17903929D01*
X8656786Y-17889643D01*
X8656786Y-17918214D01*
X8856786Y-17618214D02*
X8885357Y-17618214D01*
X8913928Y-17632500D01*
X8928214Y-17646786D01*
X8942500Y-17675357D01*
X8956786Y-17732500D01*
X8956786Y-17803929D01*
X8942500Y-17861072D01*
X8928214Y-17889643D01*
X8913928Y-17903929D01*
X8885357Y-17918214D01*
X8856786Y-17918214D01*
X8828214Y-17903929D01*
X8813928Y-17889643D01*
X8799643Y-17861072D01*
X8785357Y-17803929D01*
X8785357Y-17732500D01*
X8799643Y-17675357D01*
X8813928Y-17646786D01*
X8828214Y-17632500D01*
X8856786Y-17618214D01*
X9242500Y-17918214D02*
X9071071Y-17918214D01*
X9156786Y-17918214D02*
X9156786Y-17618214D01*
X9128214Y-17661072D01*
X9099643Y-17689643D01*
X9071071Y-17703929D01*
X9513928Y-17618214D02*
X9371071Y-17618214D01*
X9356786Y-17761072D01*
X9371071Y-17746786D01*
X9399643Y-17732500D01*
X9471071Y-17732500D01*
X9499643Y-17746786D01*
X9513928Y-17761072D01*
X9528214Y-17789643D01*
X9528214Y-17861072D01*
X9513928Y-17889643D01*
X9499643Y-17903929D01*
X9471071Y-17918214D01*
X9399643Y-17918214D01*
X9371071Y-17903929D01*
X9356786Y-17889643D01*
X9628214Y-17618214D02*
X9828214Y-17618214D01*
X9699643Y-17918214D01*
X9928214Y-17618214D02*
X9928214Y-17675357D01*
X10042500Y-17618214D02*
X10042500Y-17675357D01*
X10485357Y-18032500D02*
X10471071Y-18018214D01*
X10442500Y-17975357D01*
X10428214Y-17946786D01*
X10413928Y-17903929D01*
X10399643Y-17832500D01*
X10399643Y-17775357D01*
X10413928Y-17703929D01*
X10428214Y-17661072D01*
X10442500Y-17632500D01*
X10471071Y-17589643D01*
X10485357Y-17575357D01*
X10728214Y-17618214D02*
X10671071Y-17618214D01*
X10642500Y-17632500D01*
X10628214Y-17646786D01*
X10599643Y-17689643D01*
X10585357Y-17746786D01*
X10585357Y-17861072D01*
X10599643Y-17889643D01*
X10613928Y-17903929D01*
X10642500Y-17918214D01*
X10699643Y-17918214D01*
X10728214Y-17903929D01*
X10742500Y-17889643D01*
X10756786Y-17861072D01*
X10756786Y-17789643D01*
X10742500Y-17761072D01*
X10728214Y-17746786D01*
X10699643Y-17732500D01*
X10642500Y-17732500D01*
X10613928Y-17746786D01*
X10599643Y-17761072D01*
X10585357Y-17789643D01*
X10856786Y-17618214D02*
X11056786Y-17618214D01*
X10928214Y-17918214D01*
X11399643Y-17918214D02*
X11399643Y-17618214D01*
X11528214Y-17918214D02*
X11528214Y-17761072D01*
X11513928Y-17732500D01*
X11485357Y-17718214D01*
X11442500Y-17718214D01*
X11413928Y-17732500D01*
X11399643Y-17746786D01*
X11713928Y-17918214D02*
X11685357Y-17903929D01*
X11671071Y-17889643D01*
X11656786Y-17861072D01*
X11656786Y-17775357D01*
X11671071Y-17746786D01*
X11685357Y-17732500D01*
X11713928Y-17718214D01*
X11756786Y-17718214D01*
X11785357Y-17732500D01*
X11799643Y-17746786D01*
X11813928Y-17775357D01*
X11813928Y-17861072D01*
X11799643Y-17889643D01*
X11785357Y-17903929D01*
X11756786Y-17918214D01*
X11713928Y-17918214D01*
X11985357Y-17918214D02*
X11956786Y-17903929D01*
X11942500Y-17875357D01*
X11942500Y-17618214D01*
X12213928Y-17903929D02*
X12185357Y-17918214D01*
X12128214Y-17918214D01*
X12099643Y-17903929D01*
X12085357Y-17875357D01*
X12085357Y-17761072D01*
X12099643Y-17732500D01*
X12128214Y-17718214D01*
X12185357Y-17718214D01*
X12213928Y-17732500D01*
X12228214Y-17761072D01*
X12228214Y-17789643D01*
X12085357Y-17818214D01*
X12342500Y-17903929D02*
X12371071Y-17918214D01*
X12428214Y-17918214D01*
X12456786Y-17903929D01*
X12471071Y-17875357D01*
X12471071Y-17861072D01*
X12456786Y-17832500D01*
X12428214Y-17818214D01*
X12385357Y-17818214D01*
X12356786Y-17803929D01*
X12342500Y-17775357D01*
X12342500Y-17761072D01*
X12356786Y-17732500D01*
X12385357Y-17718214D01*
X12428214Y-17718214D01*
X12456786Y-17732500D01*
X12571071Y-18032500D02*
X12585357Y-18018214D01*
X12613928Y-17975357D01*
X12628214Y-17946786D01*
X12642500Y-17903929D01*
X12656786Y-17832500D01*
X12656786Y-17775357D01*
X12642500Y-17703929D01*
X12628214Y-17661072D01*
X12613928Y-17632500D01*
X12585357Y-17589643D01*
X12571071Y-17575357D01*
X5227500Y-18178500D02*
G75*
G03*
X5227500Y-18178500I-30000J0D01*
G01*
X5571071Y-18014214D02*
X5599643Y-18014214D01*
X5628214Y-18028500D01*
X5642500Y-18042786D01*
X5656786Y-18071357D01*
X5671071Y-18128500D01*
X5671071Y-18199929D01*
X5656786Y-18257072D01*
X5642500Y-18285643D01*
X5628214Y-18299929D01*
X5599643Y-18314214D01*
X5571071Y-18314214D01*
X5542500Y-18299929D01*
X5528214Y-18285643D01*
X5513928Y-18257072D01*
X5499643Y-18199929D01*
X5499643Y-18128500D01*
X5513928Y-18071357D01*
X5528214Y-18042786D01*
X5542500Y-18028500D01*
X5571071Y-18014214D01*
X5799643Y-18285643D02*
X5813928Y-18299929D01*
X5799643Y-18314214D01*
X5785357Y-18299929D01*
X5799643Y-18285643D01*
X5799643Y-18314214D01*
X6071071Y-18014214D02*
X6013928Y-18014214D01*
X5985357Y-18028500D01*
X5971071Y-18042786D01*
X5942500Y-18085643D01*
X5928214Y-18142786D01*
X5928214Y-18257072D01*
X5942500Y-18285643D01*
X5956786Y-18299929D01*
X5985357Y-18314214D01*
X6042500Y-18314214D01*
X6071071Y-18299929D01*
X6085357Y-18285643D01*
X6099643Y-18257072D01*
X6099643Y-18185643D01*
X6085357Y-18157072D01*
X6071071Y-18142786D01*
X6042500Y-18128500D01*
X5985357Y-18128500D01*
X5956786Y-18142786D01*
X5942500Y-18157072D01*
X5928214Y-18185643D01*
X6285357Y-18014214D02*
X6313928Y-18014214D01*
X6342500Y-18028500D01*
X6356786Y-18042786D01*
X6371071Y-18071357D01*
X6385357Y-18128500D01*
X6385357Y-18199929D01*
X6371071Y-18257072D01*
X6356786Y-18285643D01*
X6342500Y-18299929D01*
X6313928Y-18314214D01*
X6285357Y-18314214D01*
X6256786Y-18299929D01*
X6242500Y-18285643D01*
X6228214Y-18257072D01*
X6213928Y-18199929D01*
X6213928Y-18128500D01*
X6228214Y-18071357D01*
X6242500Y-18042786D01*
X6256786Y-18028500D01*
X6285357Y-18014214D01*
X6571071Y-18014214D02*
X6599643Y-18014214D01*
X6628214Y-18028500D01*
X6642500Y-18042786D01*
X6656786Y-18071357D01*
X6671071Y-18128500D01*
X6671071Y-18199929D01*
X6656786Y-18257072D01*
X6642500Y-18285643D01*
X6628214Y-18299929D01*
X6599643Y-18314214D01*
X6571071Y-18314214D01*
X6542500Y-18299929D01*
X6528214Y-18285643D01*
X6513928Y-18257072D01*
X6499643Y-18199929D01*
X6499643Y-18128500D01*
X6513928Y-18071357D01*
X6528214Y-18042786D01*
X6542500Y-18028500D01*
X6571071Y-18014214D01*
X6799643Y-18314214D02*
X6799643Y-18114214D01*
X6799643Y-18142786D02*
X6813928Y-18128500D01*
X6842500Y-18114214D01*
X6885357Y-18114214D01*
X6913928Y-18128500D01*
X6928214Y-18157072D01*
X6928214Y-18314214D01*
X6928214Y-18157072D02*
X6942500Y-18128500D01*
X6971071Y-18114214D01*
X7013928Y-18114214D01*
X7042500Y-18128500D01*
X7056786Y-18157072D01*
X7056786Y-18314214D01*
X7199643Y-18314214D02*
X7199643Y-18114214D01*
X7199643Y-18142786D02*
X7213928Y-18128500D01*
X7242500Y-18114214D01*
X7285357Y-18114214D01*
X7313928Y-18128500D01*
X7328214Y-18157072D01*
X7328214Y-18314214D01*
X7328214Y-18157072D02*
X7342500Y-18128500D01*
X7371071Y-18114214D01*
X7413928Y-18114214D01*
X7442500Y-18128500D01*
X7456786Y-18157072D01*
X7456786Y-18314214D01*
X8042500Y-17999929D02*
X7785357Y-18385643D01*
X8428214Y-18014214D02*
X8456786Y-18014214D01*
X8485357Y-18028500D01*
X8499643Y-18042786D01*
X8513928Y-18071357D01*
X8528214Y-18128500D01*
X8528214Y-18199929D01*
X8513928Y-18257072D01*
X8499643Y-18285643D01*
X8485357Y-18299929D01*
X8456786Y-18314214D01*
X8428214Y-18314214D01*
X8399643Y-18299929D01*
X8385357Y-18285643D01*
X8371071Y-18257072D01*
X8356786Y-18199929D01*
X8356786Y-18128500D01*
X8371071Y-18071357D01*
X8385357Y-18042786D01*
X8399643Y-18028500D01*
X8428214Y-18014214D01*
X8656786Y-18285643D02*
X8671071Y-18299929D01*
X8656786Y-18314214D01*
X8642500Y-18299929D01*
X8656786Y-18285643D01*
X8656786Y-18314214D01*
X8856786Y-18014214D02*
X8885357Y-18014214D01*
X8913928Y-18028500D01*
X8928214Y-18042786D01*
X8942500Y-18071357D01*
X8956786Y-18128500D01*
X8956786Y-18199929D01*
X8942500Y-18257072D01*
X8928214Y-18285643D01*
X8913928Y-18299929D01*
X8885357Y-18314214D01*
X8856786Y-18314214D01*
X8828214Y-18299929D01*
X8813928Y-18285643D01*
X8799643Y-18257072D01*
X8785357Y-18199929D01*
X8785357Y-18128500D01*
X8799643Y-18071357D01*
X8813928Y-18042786D01*
X8828214Y-18028500D01*
X8856786Y-18014214D01*
X9071071Y-18042786D02*
X9085357Y-18028500D01*
X9113928Y-18014214D01*
X9185357Y-18014214D01*
X9213928Y-18028500D01*
X9228214Y-18042786D01*
X9242500Y-18071357D01*
X9242500Y-18099929D01*
X9228214Y-18142786D01*
X9056786Y-18314214D01*
X9242500Y-18314214D01*
X9342500Y-18014214D02*
X9528214Y-18014214D01*
X9428214Y-18128500D01*
X9471071Y-18128500D01*
X9499643Y-18142786D01*
X9513928Y-18157072D01*
X9528214Y-18185643D01*
X9528214Y-18257072D01*
X9513928Y-18285643D01*
X9499643Y-18299929D01*
X9471071Y-18314214D01*
X9385357Y-18314214D01*
X9356786Y-18299929D01*
X9342500Y-18285643D01*
X9785357Y-18014214D02*
X9728214Y-18014214D01*
X9699643Y-18028500D01*
X9685357Y-18042786D01*
X9656786Y-18085643D01*
X9642500Y-18142786D01*
X9642500Y-18257072D01*
X9656786Y-18285643D01*
X9671071Y-18299929D01*
X9699643Y-18314214D01*
X9756786Y-18314214D01*
X9785357Y-18299929D01*
X9799643Y-18285643D01*
X9813928Y-18257072D01*
X9813928Y-18185643D01*
X9799643Y-18157072D01*
X9785357Y-18142786D01*
X9756786Y-18128500D01*
X9699643Y-18128500D01*
X9671071Y-18142786D01*
X9656786Y-18157072D01*
X9642500Y-18185643D01*
X9928214Y-18014214D02*
X9928214Y-18071357D01*
X10042500Y-18014214D02*
X10042500Y-18071357D01*
X10485357Y-18428500D02*
X10471071Y-18414214D01*
X10442500Y-18371357D01*
X10428214Y-18342786D01*
X10413928Y-18299929D01*
X10399643Y-18228500D01*
X10399643Y-18171357D01*
X10413928Y-18099929D01*
X10428214Y-18057072D01*
X10442500Y-18028500D01*
X10471071Y-17985643D01*
X10485357Y-17971357D01*
X10656786Y-18014214D02*
X10685357Y-18014214D01*
X10713928Y-18028500D01*
X10728214Y-18042786D01*
X10742500Y-18071357D01*
X10756786Y-18128500D01*
X10756786Y-18199929D01*
X10742500Y-18257072D01*
X10728214Y-18285643D01*
X10713928Y-18299929D01*
X10685357Y-18314214D01*
X10656786Y-18314214D01*
X10628214Y-18299929D01*
X10613928Y-18285643D01*
X10599643Y-18257072D01*
X10585357Y-18199929D01*
X10585357Y-18128500D01*
X10599643Y-18071357D01*
X10613928Y-18042786D01*
X10628214Y-18028500D01*
X10656786Y-18014214D01*
X11113928Y-18314214D02*
X11113928Y-18014214D01*
X11242500Y-18314214D02*
X11242500Y-18157072D01*
X11228214Y-18128500D01*
X11199643Y-18114214D01*
X11156786Y-18114214D01*
X11128214Y-18128500D01*
X11113928Y-18142786D01*
X11428214Y-18314214D02*
X11399643Y-18299929D01*
X11385357Y-18285643D01*
X11371071Y-18257072D01*
X11371071Y-18171357D01*
X11385357Y-18142786D01*
X11399643Y-18128500D01*
X11428214Y-18114214D01*
X11471071Y-18114214D01*
X11499643Y-18128500D01*
X11513928Y-18142786D01*
X11528214Y-18171357D01*
X11528214Y-18257072D01*
X11513928Y-18285643D01*
X11499643Y-18299929D01*
X11471071Y-18314214D01*
X11428214Y-18314214D01*
X11699643Y-18314214D02*
X11671071Y-18299929D01*
X11656786Y-18271357D01*
X11656786Y-18014214D01*
X11928214Y-18299929D02*
X11899643Y-18314214D01*
X11842500Y-18314214D01*
X11813928Y-18299929D01*
X11799643Y-18271357D01*
X11799643Y-18157072D01*
X11813928Y-18128500D01*
X11842500Y-18114214D01*
X11899643Y-18114214D01*
X11928214Y-18128500D01*
X11942500Y-18157072D01*
X11942500Y-18185643D01*
X11799643Y-18214214D01*
X12056786Y-18299929D02*
X12085357Y-18314214D01*
X12142500Y-18314214D01*
X12171071Y-18299929D01*
X12185357Y-18271357D01*
X12185357Y-18257072D01*
X12171071Y-18228500D01*
X12142500Y-18214214D01*
X12099643Y-18214214D01*
X12071071Y-18199929D01*
X12056786Y-18171357D01*
X12056786Y-18157072D01*
X12071071Y-18128500D01*
X12099643Y-18114214D01*
X12142500Y-18114214D01*
X12171071Y-18128500D01*
X12542500Y-18199929D02*
X12771071Y-18199929D01*
X12656786Y-18314214D02*
X12656786Y-18085643D01*
X13271071Y-18114214D02*
X13271071Y-18314214D01*
X13199643Y-17999929D02*
X13128214Y-18214214D01*
X13313928Y-18214214D01*
X13642500Y-18299929D02*
X13671071Y-18314214D01*
X13728214Y-18314214D01*
X13756786Y-18299929D01*
X13771071Y-18271357D01*
X13771071Y-18257072D01*
X13756786Y-18228500D01*
X13728214Y-18214214D01*
X13685357Y-18214214D01*
X13656786Y-18199929D01*
X13642500Y-18171357D01*
X13642500Y-18157072D01*
X13656786Y-18128500D01*
X13685357Y-18114214D01*
X13728214Y-18114214D01*
X13756786Y-18128500D01*
X13942500Y-18314214D02*
X13913928Y-18299929D01*
X13899643Y-18271357D01*
X13899643Y-18014214D01*
X14099643Y-18314214D02*
X14071071Y-18299929D01*
X14056786Y-18285643D01*
X14042500Y-18257072D01*
X14042500Y-18171357D01*
X14056786Y-18142786D01*
X14071071Y-18128500D01*
X14099643Y-18114214D01*
X14142500Y-18114214D01*
X14171071Y-18128500D01*
X14185357Y-18142786D01*
X14199643Y-18171357D01*
X14199643Y-18257072D01*
X14185357Y-18285643D01*
X14171071Y-18299929D01*
X14142500Y-18314214D01*
X14099643Y-18314214D01*
X14285357Y-18114214D02*
X14399643Y-18114214D01*
X14328214Y-18014214D02*
X14328214Y-18271357D01*
X14342500Y-18299929D01*
X14371071Y-18314214D01*
X14399643Y-18314214D01*
X14485357Y-18299929D02*
X14513928Y-18314214D01*
X14571071Y-18314214D01*
X14599643Y-18299929D01*
X14613928Y-18271357D01*
X14613928Y-18257072D01*
X14599643Y-18228500D01*
X14571071Y-18214214D01*
X14528214Y-18214214D01*
X14499643Y-18199929D01*
X14485357Y-18171357D01*
X14485357Y-18157072D01*
X14499643Y-18128500D01*
X14528214Y-18114214D01*
X14571071Y-18114214D01*
X14599643Y-18128500D01*
X14713928Y-18428500D02*
X14728214Y-18414214D01*
X14756786Y-18371357D01*
X14771071Y-18342786D01*
X14785357Y-18299929D01*
X14799643Y-18228500D01*
X14799643Y-18171357D01*
X14785357Y-18099929D01*
X14771071Y-18057072D01*
X14756786Y-18028500D01*
X14728214Y-17985643D01*
X14713928Y-17971357D01*
X5187500Y-18534500D02*
X5187500Y-18614500D01*
X5147500Y-18574500D02*
X5227500Y-18574500D01*
X5571071Y-18410214D02*
X5599643Y-18410214D01*
X5628214Y-18424500D01*
X5642500Y-18438786D01*
X5656786Y-18467357D01*
X5671071Y-18524500D01*
X5671071Y-18595929D01*
X5656786Y-18653072D01*
X5642500Y-18681643D01*
X5628214Y-18695929D01*
X5599643Y-18710214D01*
X5571071Y-18710214D01*
X5542500Y-18695929D01*
X5528214Y-18681643D01*
X5513928Y-18653072D01*
X5499643Y-18595929D01*
X5499643Y-18524500D01*
X5513928Y-18467357D01*
X5528214Y-18438786D01*
X5542500Y-18424500D01*
X5571071Y-18410214D01*
X5799643Y-18681643D02*
X5813928Y-18695929D01*
X5799643Y-18710214D01*
X5785357Y-18695929D01*
X5799643Y-18681643D01*
X5799643Y-18710214D01*
X5985357Y-18538786D02*
X5956786Y-18524500D01*
X5942500Y-18510214D01*
X5928214Y-18481643D01*
X5928214Y-18467357D01*
X5942500Y-18438786D01*
X5956786Y-18424500D01*
X5985357Y-18410214D01*
X6042500Y-18410214D01*
X6071071Y-18424500D01*
X6085357Y-18438786D01*
X6099643Y-18467357D01*
X6099643Y-18481643D01*
X6085357Y-18510214D01*
X6071071Y-18524500D01*
X6042500Y-18538786D01*
X5985357Y-18538786D01*
X5956786Y-18553072D01*
X5942500Y-18567357D01*
X5928214Y-18595929D01*
X5928214Y-18653072D01*
X5942500Y-18681643D01*
X5956786Y-18695929D01*
X5985357Y-18710214D01*
X6042500Y-18710214D01*
X6071071Y-18695929D01*
X6085357Y-18681643D01*
X6099643Y-18653072D01*
X6099643Y-18595929D01*
X6085357Y-18567357D01*
X6071071Y-18553072D01*
X6042500Y-18538786D01*
X6285357Y-18410214D02*
X6313928Y-18410214D01*
X6342500Y-18424500D01*
X6356786Y-18438786D01*
X6371071Y-18467357D01*
X6385357Y-18524500D01*
X6385357Y-18595929D01*
X6371071Y-18653072D01*
X6356786Y-18681643D01*
X6342500Y-18695929D01*
X6313928Y-18710214D01*
X6285357Y-18710214D01*
X6256786Y-18695929D01*
X6242500Y-18681643D01*
X6228214Y-18653072D01*
X6213928Y-18595929D01*
X6213928Y-18524500D01*
X6228214Y-18467357D01*
X6242500Y-18438786D01*
X6256786Y-18424500D01*
X6285357Y-18410214D01*
X6571071Y-18410214D02*
X6599643Y-18410214D01*
X6628214Y-18424500D01*
X6642500Y-18438786D01*
X6656786Y-18467357D01*
X6671071Y-18524500D01*
X6671071Y-18595929D01*
X6656786Y-18653072D01*
X6642500Y-18681643D01*
X6628214Y-18695929D01*
X6599643Y-18710214D01*
X6571071Y-18710214D01*
X6542500Y-18695929D01*
X6528214Y-18681643D01*
X6513928Y-18653072D01*
X6499643Y-18595929D01*
X6499643Y-18524500D01*
X6513928Y-18467357D01*
X6528214Y-18438786D01*
X6542500Y-18424500D01*
X6571071Y-18410214D01*
X6799643Y-18710214D02*
X6799643Y-18510214D01*
X6799643Y-18538786D02*
X6813928Y-18524500D01*
X6842500Y-18510214D01*
X6885357Y-18510214D01*
X6913928Y-18524500D01*
X6928214Y-18553072D01*
X6928214Y-18710214D01*
X6928214Y-18553072D02*
X6942500Y-18524500D01*
X6971071Y-18510214D01*
X7013928Y-18510214D01*
X7042500Y-18524500D01*
X7056786Y-18553072D01*
X7056786Y-18710214D01*
X7199643Y-18710214D02*
X7199643Y-18510214D01*
X7199643Y-18538786D02*
X7213928Y-18524500D01*
X7242500Y-18510214D01*
X7285357Y-18510214D01*
X7313928Y-18524500D01*
X7328214Y-18553072D01*
X7328214Y-18710214D01*
X7328214Y-18553072D02*
X7342500Y-18524500D01*
X7371071Y-18510214D01*
X7413928Y-18510214D01*
X7442500Y-18524500D01*
X7456786Y-18553072D01*
X7456786Y-18710214D01*
X8042500Y-18395929D02*
X7785357Y-18781643D01*
X8428214Y-18410214D02*
X8456786Y-18410214D01*
X8485357Y-18424500D01*
X8499643Y-18438786D01*
X8513928Y-18467357D01*
X8528214Y-18524500D01*
X8528214Y-18595929D01*
X8513928Y-18653072D01*
X8499643Y-18681643D01*
X8485357Y-18695929D01*
X8456786Y-18710214D01*
X8428214Y-18710214D01*
X8399643Y-18695929D01*
X8385357Y-18681643D01*
X8371071Y-18653072D01*
X8356786Y-18595929D01*
X8356786Y-18524500D01*
X8371071Y-18467357D01*
X8385357Y-18438786D01*
X8399643Y-18424500D01*
X8428214Y-18410214D01*
X8656786Y-18681643D02*
X8671071Y-18695929D01*
X8656786Y-18710214D01*
X8642500Y-18695929D01*
X8656786Y-18681643D01*
X8656786Y-18710214D01*
X8856786Y-18410214D02*
X8885357Y-18410214D01*
X8913928Y-18424500D01*
X8928214Y-18438786D01*
X8942500Y-18467357D01*
X8956786Y-18524500D01*
X8956786Y-18595929D01*
X8942500Y-18653072D01*
X8928214Y-18681643D01*
X8913928Y-18695929D01*
X8885357Y-18710214D01*
X8856786Y-18710214D01*
X8828214Y-18695929D01*
X8813928Y-18681643D01*
X8799643Y-18653072D01*
X8785357Y-18595929D01*
X8785357Y-18524500D01*
X8799643Y-18467357D01*
X8813928Y-18438786D01*
X8828214Y-18424500D01*
X8856786Y-18410214D01*
X9056786Y-18410214D02*
X9242500Y-18410214D01*
X9142500Y-18524500D01*
X9185357Y-18524500D01*
X9213928Y-18538786D01*
X9228214Y-18553072D01*
X9242500Y-18581643D01*
X9242500Y-18653072D01*
X9228214Y-18681643D01*
X9213928Y-18695929D01*
X9185357Y-18710214D01*
X9099643Y-18710214D01*
X9071071Y-18695929D01*
X9056786Y-18681643D01*
X9528214Y-18710214D02*
X9356786Y-18710214D01*
X9442500Y-18710214D02*
X9442500Y-18410214D01*
X9413928Y-18453072D01*
X9385357Y-18481643D01*
X9356786Y-18495929D01*
X9799643Y-18410214D02*
X9656786Y-18410214D01*
X9642500Y-18553072D01*
X9656786Y-18538786D01*
X9685357Y-18524500D01*
X9756786Y-18524500D01*
X9785357Y-18538786D01*
X9799643Y-18553072D01*
X9813928Y-18581643D01*
X9813928Y-18653072D01*
X9799643Y-18681643D01*
X9785357Y-18695929D01*
X9756786Y-18710214D01*
X9685357Y-18710214D01*
X9656786Y-18695929D01*
X9642500Y-18681643D01*
X9928214Y-18410214D02*
X9928214Y-18467357D01*
X10042500Y-18410214D02*
X10042500Y-18467357D01*
X10485357Y-18824500D02*
X10471071Y-18810214D01*
X10442500Y-18767357D01*
X10428214Y-18738786D01*
X10413928Y-18695929D01*
X10399643Y-18624500D01*
X10399643Y-18567357D01*
X10413928Y-18495929D01*
X10428214Y-18453072D01*
X10442500Y-18424500D01*
X10471071Y-18381643D01*
X10485357Y-18367357D01*
X10642500Y-18538786D02*
X10613928Y-18524500D01*
X10599643Y-18510214D01*
X10585357Y-18481643D01*
X10585357Y-18467357D01*
X10599643Y-18438786D01*
X10613928Y-18424500D01*
X10642500Y-18410214D01*
X10699643Y-18410214D01*
X10728214Y-18424500D01*
X10742500Y-18438786D01*
X10756786Y-18467357D01*
X10756786Y-18481643D01*
X10742500Y-18510214D01*
X10728214Y-18524500D01*
X10699643Y-18538786D01*
X10642500Y-18538786D01*
X10613928Y-18553072D01*
X10599643Y-18567357D01*
X10585357Y-18595929D01*
X10585357Y-18653072D01*
X10599643Y-18681643D01*
X10613928Y-18695929D01*
X10642500Y-18710214D01*
X10699643Y-18710214D01*
X10728214Y-18695929D01*
X10742500Y-18681643D01*
X10756786Y-18653072D01*
X10756786Y-18595929D01*
X10742500Y-18567357D01*
X10728214Y-18553072D01*
X10699643Y-18538786D01*
X11113928Y-18710214D02*
X11113928Y-18410214D01*
X11242500Y-18710214D02*
X11242500Y-18553072D01*
X11228214Y-18524500D01*
X11199643Y-18510214D01*
X11156786Y-18510214D01*
X11128214Y-18524500D01*
X11113928Y-18538786D01*
X11428214Y-18710214D02*
X11399643Y-18695929D01*
X11385357Y-18681643D01*
X11371071Y-18653072D01*
X11371071Y-18567357D01*
X11385357Y-18538786D01*
X11399643Y-18524500D01*
X11428214Y-18510214D01*
X11471071Y-18510214D01*
X11499643Y-18524500D01*
X11513928Y-18538786D01*
X11528214Y-18567357D01*
X11528214Y-18653072D01*
X11513928Y-18681643D01*
X11499643Y-18695929D01*
X11471071Y-18710214D01*
X11428214Y-18710214D01*
X11699643Y-18710214D02*
X11671071Y-18695929D01*
X11656786Y-18667357D01*
X11656786Y-18410214D01*
X11928214Y-18695929D02*
X11899643Y-18710214D01*
X11842500Y-18710214D01*
X11813928Y-18695929D01*
X11799643Y-18667357D01*
X11799643Y-18553072D01*
X11813928Y-18524500D01*
X11842500Y-18510214D01*
X11899643Y-18510214D01*
X11928214Y-18524500D01*
X11942500Y-18553072D01*
X11942500Y-18581643D01*
X11799643Y-18610214D01*
X12056786Y-18695929D02*
X12085357Y-18710214D01*
X12142500Y-18710214D01*
X12171071Y-18695929D01*
X12185357Y-18667357D01*
X12185357Y-18653072D01*
X12171071Y-18624500D01*
X12142500Y-18610214D01*
X12099643Y-18610214D01*
X12071071Y-18595929D01*
X12056786Y-18567357D01*
X12056786Y-18553072D01*
X12071071Y-18524500D01*
X12099643Y-18510214D01*
X12142500Y-18510214D01*
X12171071Y-18524500D01*
X12285357Y-18824500D02*
X12299643Y-18810214D01*
X12328214Y-18767357D01*
X12342500Y-18738786D01*
X12356786Y-18695929D01*
X12371071Y-18624500D01*
X12371071Y-18567357D01*
X12356786Y-18495929D01*
X12342500Y-18453072D01*
X12328214Y-18424500D01*
X12299643Y-18381643D01*
X12285357Y-18367357D01*
X5208902Y-19015402D02*
X5208902Y-18925598D01*
X5119098Y-18925598D01*
X5119098Y-19015402D01*
X5208902Y-19015402D01*
X5671071Y-19106214D02*
X5499643Y-19106214D01*
X5585357Y-19106214D02*
X5585357Y-18806214D01*
X5556786Y-18849072D01*
X5528214Y-18877643D01*
X5499643Y-18891929D01*
X5799643Y-19077643D02*
X5813928Y-19091929D01*
X5799643Y-19106214D01*
X5785357Y-19091929D01*
X5799643Y-19077643D01*
X5799643Y-19106214D01*
X5928214Y-18834786D02*
X5942500Y-18820500D01*
X5971071Y-18806214D01*
X6042500Y-18806214D01*
X6071071Y-18820500D01*
X6085357Y-18834786D01*
X6099643Y-18863357D01*
X6099643Y-18891929D01*
X6085357Y-18934786D01*
X5913928Y-19106214D01*
X6099643Y-19106214D01*
X6199643Y-18806214D02*
X6399643Y-18806214D01*
X6271071Y-19106214D01*
X6571071Y-18806214D02*
X6599643Y-18806214D01*
X6628214Y-18820500D01*
X6642500Y-18834786D01*
X6656786Y-18863357D01*
X6671071Y-18920500D01*
X6671071Y-18991929D01*
X6656786Y-19049072D01*
X6642500Y-19077643D01*
X6628214Y-19091929D01*
X6599643Y-19106214D01*
X6571071Y-19106214D01*
X6542500Y-19091929D01*
X6528214Y-19077643D01*
X6513928Y-19049072D01*
X6499643Y-18991929D01*
X6499643Y-18920500D01*
X6513928Y-18863357D01*
X6528214Y-18834786D01*
X6542500Y-18820500D01*
X6571071Y-18806214D01*
X6799643Y-19106214D02*
X6799643Y-18906214D01*
X6799643Y-18934786D02*
X6813928Y-18920500D01*
X6842500Y-18906214D01*
X6885357Y-18906214D01*
X6913928Y-18920500D01*
X6928214Y-18949072D01*
X6928214Y-19106214D01*
X6928214Y-18949072D02*
X6942500Y-18920500D01*
X6971071Y-18906214D01*
X7013928Y-18906214D01*
X7042500Y-18920500D01*
X7056786Y-18949072D01*
X7056786Y-19106214D01*
X7199643Y-19106214D02*
X7199643Y-18906214D01*
X7199643Y-18934786D02*
X7213928Y-18920500D01*
X7242500Y-18906214D01*
X7285357Y-18906214D01*
X7313928Y-18920500D01*
X7328214Y-18949072D01*
X7328214Y-19106214D01*
X7328214Y-18949072D02*
X7342500Y-18920500D01*
X7371071Y-18906214D01*
X7413928Y-18906214D01*
X7442500Y-18920500D01*
X7456786Y-18949072D01*
X7456786Y-19106214D01*
X8042500Y-18791929D02*
X7785357Y-19177643D01*
X8428214Y-18806214D02*
X8456786Y-18806214D01*
X8485357Y-18820500D01*
X8499643Y-18834786D01*
X8513928Y-18863357D01*
X8528214Y-18920500D01*
X8528214Y-18991929D01*
X8513928Y-19049072D01*
X8499643Y-19077643D01*
X8485357Y-19091929D01*
X8456786Y-19106214D01*
X8428214Y-19106214D01*
X8399643Y-19091929D01*
X8385357Y-19077643D01*
X8371071Y-19049072D01*
X8356786Y-18991929D01*
X8356786Y-18920500D01*
X8371071Y-18863357D01*
X8385357Y-18834786D01*
X8399643Y-18820500D01*
X8428214Y-18806214D01*
X8656786Y-19077643D02*
X8671071Y-19091929D01*
X8656786Y-19106214D01*
X8642500Y-19091929D01*
X8656786Y-19077643D01*
X8656786Y-19106214D01*
X8856786Y-18806214D02*
X8885357Y-18806214D01*
X8913928Y-18820500D01*
X8928214Y-18834786D01*
X8942500Y-18863357D01*
X8956786Y-18920500D01*
X8956786Y-18991929D01*
X8942500Y-19049072D01*
X8928214Y-19077643D01*
X8913928Y-19091929D01*
X8885357Y-19106214D01*
X8856786Y-19106214D01*
X8828214Y-19091929D01*
X8813928Y-19077643D01*
X8799643Y-19049072D01*
X8785357Y-18991929D01*
X8785357Y-18920500D01*
X8799643Y-18863357D01*
X8813928Y-18834786D01*
X8828214Y-18820500D01*
X8856786Y-18806214D01*
X9228214Y-18806214D02*
X9085357Y-18806214D01*
X9071071Y-18949072D01*
X9085357Y-18934786D01*
X9113928Y-18920500D01*
X9185357Y-18920500D01*
X9213928Y-18934786D01*
X9228214Y-18949072D01*
X9242500Y-18977643D01*
X9242500Y-19049072D01*
X9228214Y-19077643D01*
X9213928Y-19091929D01*
X9185357Y-19106214D01*
X9113928Y-19106214D01*
X9085357Y-19091929D01*
X9071071Y-19077643D01*
X9428214Y-18806214D02*
X9456786Y-18806214D01*
X9485357Y-18820500D01*
X9499643Y-18834786D01*
X9513928Y-18863357D01*
X9528214Y-18920500D01*
X9528214Y-18991929D01*
X9513928Y-19049072D01*
X9499643Y-19077643D01*
X9485357Y-19091929D01*
X9456786Y-19106214D01*
X9428214Y-19106214D01*
X9399643Y-19091929D01*
X9385357Y-19077643D01*
X9371071Y-19049072D01*
X9356786Y-18991929D01*
X9356786Y-18920500D01*
X9371071Y-18863357D01*
X9385357Y-18834786D01*
X9399643Y-18820500D01*
X9428214Y-18806214D01*
X9713928Y-18806214D02*
X9742500Y-18806214D01*
X9771071Y-18820500D01*
X9785357Y-18834786D01*
X9799643Y-18863357D01*
X9813928Y-18920500D01*
X9813928Y-18991929D01*
X9799643Y-19049072D01*
X9785357Y-19077643D01*
X9771071Y-19091929D01*
X9742500Y-19106214D01*
X9713928Y-19106214D01*
X9685357Y-19091929D01*
X9671071Y-19077643D01*
X9656786Y-19049072D01*
X9642500Y-18991929D01*
X9642500Y-18920500D01*
X9656786Y-18863357D01*
X9671071Y-18834786D01*
X9685357Y-18820500D01*
X9713928Y-18806214D01*
X9928214Y-18806214D02*
X9928214Y-18863357D01*
X10042500Y-18806214D02*
X10042500Y-18863357D01*
X10485357Y-19220500D02*
X10471071Y-19206214D01*
X10442500Y-19163357D01*
X10428214Y-19134786D01*
X10413928Y-19091929D01*
X10399643Y-19020500D01*
X10399643Y-18963357D01*
X10413928Y-18891929D01*
X10428214Y-18849072D01*
X10442500Y-18820500D01*
X10471071Y-18777643D01*
X10485357Y-18763357D01*
X10585357Y-18834786D02*
X10599643Y-18820500D01*
X10628214Y-18806214D01*
X10699643Y-18806214D01*
X10728214Y-18820500D01*
X10742500Y-18834786D01*
X10756786Y-18863357D01*
X10756786Y-18891929D01*
X10742500Y-18934786D01*
X10571071Y-19106214D01*
X10756786Y-19106214D01*
X11013928Y-18906214D02*
X11013928Y-19106214D01*
X10942500Y-18791929D02*
X10871071Y-19006214D01*
X11056786Y-19006214D01*
X11399643Y-19106214D02*
X11399643Y-18806214D01*
X11528214Y-19106214D02*
X11528214Y-18949072D01*
X11513928Y-18920500D01*
X11485357Y-18906214D01*
X11442500Y-18906214D01*
X11413928Y-18920500D01*
X11399643Y-18934786D01*
X11713928Y-19106214D02*
X11685357Y-19091929D01*
X11671071Y-19077643D01*
X11656786Y-19049072D01*
X11656786Y-18963357D01*
X11671071Y-18934786D01*
X11685357Y-18920500D01*
X11713928Y-18906214D01*
X11756786Y-18906214D01*
X11785357Y-18920500D01*
X11799643Y-18934786D01*
X11813928Y-18963357D01*
X11813928Y-19049072D01*
X11799643Y-19077643D01*
X11785357Y-19091929D01*
X11756786Y-19106214D01*
X11713928Y-19106214D01*
X11985357Y-19106214D02*
X11956786Y-19091929D01*
X11942500Y-19063357D01*
X11942500Y-18806214D01*
X12213928Y-19091929D02*
X12185357Y-19106214D01*
X12128214Y-19106214D01*
X12099643Y-19091929D01*
X12085357Y-19063357D01*
X12085357Y-18949072D01*
X12099643Y-18920500D01*
X12128214Y-18906214D01*
X12185357Y-18906214D01*
X12213928Y-18920500D01*
X12228214Y-18949072D01*
X12228214Y-18977643D01*
X12085357Y-19006214D01*
X12342500Y-19091929D02*
X12371071Y-19106214D01*
X12428214Y-19106214D01*
X12456786Y-19091929D01*
X12471071Y-19063357D01*
X12471071Y-19049072D01*
X12456786Y-19020500D01*
X12428214Y-19006214D01*
X12385357Y-19006214D01*
X12356786Y-18991929D01*
X12342500Y-18963357D01*
X12342500Y-18949072D01*
X12356786Y-18920500D01*
X12385357Y-18906214D01*
X12428214Y-18906214D01*
X12456786Y-18920500D01*
X12571071Y-19220500D02*
X12585357Y-19206214D01*
X12613928Y-19163357D01*
X12628214Y-19134786D01*
X12642500Y-19091929D01*
X12656786Y-19020500D01*
X12656786Y-18963357D01*
X12642500Y-18891929D01*
X12628214Y-18849072D01*
X12613928Y-18820500D01*
X12585357Y-18777643D01*
X12571071Y-18763357D01*
X5117500Y-19476500D02*
X5227500Y-19366500D01*
X5117500Y-19256500D01*
X5007500Y-19366500D01*
X5117500Y-19476500D01*
X5499643Y-19230786D02*
X5513928Y-19216500D01*
X5542500Y-19202214D01*
X5613928Y-19202214D01*
X5642500Y-19216500D01*
X5656786Y-19230786D01*
X5671071Y-19259357D01*
X5671071Y-19287929D01*
X5656786Y-19330786D01*
X5485357Y-19502214D01*
X5671071Y-19502214D01*
X5799643Y-19473643D02*
X5813928Y-19487929D01*
X5799643Y-19502214D01*
X5785357Y-19487929D01*
X5799643Y-19473643D01*
X5799643Y-19502214D01*
X5928214Y-19230786D02*
X5942500Y-19216500D01*
X5971071Y-19202214D01*
X6042500Y-19202214D01*
X6071071Y-19216500D01*
X6085357Y-19230786D01*
X6099643Y-19259357D01*
X6099643Y-19287929D01*
X6085357Y-19330786D01*
X5913928Y-19502214D01*
X6099643Y-19502214D01*
X6285357Y-19202214D02*
X6313928Y-19202214D01*
X6342500Y-19216500D01*
X6356786Y-19230786D01*
X6371071Y-19259357D01*
X6385357Y-19316500D01*
X6385357Y-19387929D01*
X6371071Y-19445072D01*
X6356786Y-19473643D01*
X6342500Y-19487929D01*
X6313928Y-19502214D01*
X6285357Y-19502214D01*
X6256786Y-19487929D01*
X6242500Y-19473643D01*
X6228214Y-19445072D01*
X6213928Y-19387929D01*
X6213928Y-19316500D01*
X6228214Y-19259357D01*
X6242500Y-19230786D01*
X6256786Y-19216500D01*
X6285357Y-19202214D01*
X6571071Y-19202214D02*
X6599643Y-19202214D01*
X6628214Y-19216500D01*
X6642500Y-19230786D01*
X6656786Y-19259357D01*
X6671071Y-19316500D01*
X6671071Y-19387929D01*
X6656786Y-19445072D01*
X6642500Y-19473643D01*
X6628214Y-19487929D01*
X6599643Y-19502214D01*
X6571071Y-19502214D01*
X6542500Y-19487929D01*
X6528214Y-19473643D01*
X6513928Y-19445072D01*
X6499643Y-19387929D01*
X6499643Y-19316500D01*
X6513928Y-19259357D01*
X6528214Y-19230786D01*
X6542500Y-19216500D01*
X6571071Y-19202214D01*
X6799643Y-19502214D02*
X6799643Y-19302214D01*
X6799643Y-19330786D02*
X6813928Y-19316500D01*
X6842500Y-19302214D01*
X6885357Y-19302214D01*
X6913928Y-19316500D01*
X6928214Y-19345072D01*
X6928214Y-19502214D01*
X6928214Y-19345072D02*
X6942500Y-19316500D01*
X6971071Y-19302214D01*
X7013928Y-19302214D01*
X7042500Y-19316500D01*
X7056786Y-19345072D01*
X7056786Y-19502214D01*
X7199643Y-19502214D02*
X7199643Y-19302214D01*
X7199643Y-19330786D02*
X7213928Y-19316500D01*
X7242500Y-19302214D01*
X7285357Y-19302214D01*
X7313928Y-19316500D01*
X7328214Y-19345072D01*
X7328214Y-19502214D01*
X7328214Y-19345072D02*
X7342500Y-19316500D01*
X7371071Y-19302214D01*
X7413928Y-19302214D01*
X7442500Y-19316500D01*
X7456786Y-19345072D01*
X7456786Y-19502214D01*
X8042500Y-19187929D02*
X7785357Y-19573643D01*
X8428214Y-19202214D02*
X8456786Y-19202214D01*
X8485357Y-19216500D01*
X8499643Y-19230786D01*
X8513928Y-19259357D01*
X8528214Y-19316500D01*
X8528214Y-19387929D01*
X8513928Y-19445072D01*
X8499643Y-19473643D01*
X8485357Y-19487929D01*
X8456786Y-19502214D01*
X8428214Y-19502214D01*
X8399643Y-19487929D01*
X8385357Y-19473643D01*
X8371071Y-19445072D01*
X8356786Y-19387929D01*
X8356786Y-19316500D01*
X8371071Y-19259357D01*
X8385357Y-19230786D01*
X8399643Y-19216500D01*
X8428214Y-19202214D01*
X8656786Y-19473643D02*
X8671071Y-19487929D01*
X8656786Y-19502214D01*
X8642500Y-19487929D01*
X8656786Y-19473643D01*
X8656786Y-19502214D01*
X8856786Y-19202214D02*
X8885357Y-19202214D01*
X8913928Y-19216500D01*
X8928214Y-19230786D01*
X8942500Y-19259357D01*
X8956786Y-19316500D01*
X8956786Y-19387929D01*
X8942500Y-19445072D01*
X8928214Y-19473643D01*
X8913928Y-19487929D01*
X8885357Y-19502214D01*
X8856786Y-19502214D01*
X8828214Y-19487929D01*
X8813928Y-19473643D01*
X8799643Y-19445072D01*
X8785357Y-19387929D01*
X8785357Y-19316500D01*
X8799643Y-19259357D01*
X8813928Y-19230786D01*
X8828214Y-19216500D01*
X8856786Y-19202214D01*
X9128214Y-19330786D02*
X9099643Y-19316500D01*
X9085357Y-19302214D01*
X9071071Y-19273643D01*
X9071071Y-19259357D01*
X9085357Y-19230786D01*
X9099643Y-19216500D01*
X9128214Y-19202214D01*
X9185357Y-19202214D01*
X9213928Y-19216500D01*
X9228214Y-19230786D01*
X9242500Y-19259357D01*
X9242500Y-19273643D01*
X9228214Y-19302214D01*
X9213928Y-19316500D01*
X9185357Y-19330786D01*
X9128214Y-19330786D01*
X9099643Y-19345072D01*
X9085357Y-19359357D01*
X9071071Y-19387929D01*
X9071071Y-19445072D01*
X9085357Y-19473643D01*
X9099643Y-19487929D01*
X9128214Y-19502214D01*
X9185357Y-19502214D01*
X9213928Y-19487929D01*
X9228214Y-19473643D01*
X9242500Y-19445072D01*
X9242500Y-19387929D01*
X9228214Y-19359357D01*
X9213928Y-19345072D01*
X9185357Y-19330786D01*
X9499643Y-19202214D02*
X9442500Y-19202214D01*
X9413928Y-19216500D01*
X9399643Y-19230786D01*
X9371071Y-19273643D01*
X9356786Y-19330786D01*
X9356786Y-19445072D01*
X9371071Y-19473643D01*
X9385357Y-19487929D01*
X9413928Y-19502214D01*
X9471071Y-19502214D01*
X9499643Y-19487929D01*
X9513928Y-19473643D01*
X9528214Y-19445072D01*
X9528214Y-19373643D01*
X9513928Y-19345072D01*
X9499643Y-19330786D01*
X9471071Y-19316500D01*
X9413928Y-19316500D01*
X9385357Y-19330786D01*
X9371071Y-19345072D01*
X9356786Y-19373643D01*
X9785357Y-19202214D02*
X9728214Y-19202214D01*
X9699643Y-19216500D01*
X9685357Y-19230786D01*
X9656786Y-19273643D01*
X9642500Y-19330786D01*
X9642500Y-19445072D01*
X9656786Y-19473643D01*
X9671071Y-19487929D01*
X9699643Y-19502214D01*
X9756786Y-19502214D01*
X9785357Y-19487929D01*
X9799643Y-19473643D01*
X9813928Y-19445072D01*
X9813928Y-19373643D01*
X9799643Y-19345072D01*
X9785357Y-19330786D01*
X9756786Y-19316500D01*
X9699643Y-19316500D01*
X9671071Y-19330786D01*
X9656786Y-19345072D01*
X9642500Y-19373643D01*
X9928214Y-19202214D02*
X9928214Y-19259357D01*
X10042500Y-19202214D02*
X10042500Y-19259357D01*
X10485357Y-19616500D02*
X10471071Y-19602214D01*
X10442500Y-19559357D01*
X10428214Y-19530786D01*
X10413928Y-19487929D01*
X10399643Y-19416500D01*
X10399643Y-19359357D01*
X10413928Y-19287929D01*
X10428214Y-19245072D01*
X10442500Y-19216500D01*
X10471071Y-19173643D01*
X10485357Y-19159357D01*
X10728214Y-19302214D02*
X10728214Y-19502214D01*
X10656786Y-19187929D02*
X10585357Y-19402214D01*
X10771071Y-19402214D01*
X11113928Y-19502214D02*
X11113928Y-19202214D01*
X11242500Y-19502214D02*
X11242500Y-19345072D01*
X11228214Y-19316500D01*
X11199643Y-19302214D01*
X11156786Y-19302214D01*
X11128214Y-19316500D01*
X11113928Y-19330786D01*
X11428214Y-19502214D02*
X11399643Y-19487929D01*
X11385357Y-19473643D01*
X11371071Y-19445072D01*
X11371071Y-19359357D01*
X11385357Y-19330786D01*
X11399643Y-19316500D01*
X11428214Y-19302214D01*
X11471071Y-19302214D01*
X11499643Y-19316500D01*
X11513928Y-19330786D01*
X11528214Y-19359357D01*
X11528214Y-19445072D01*
X11513928Y-19473643D01*
X11499643Y-19487929D01*
X11471071Y-19502214D01*
X11428214Y-19502214D01*
X11699643Y-19502214D02*
X11671071Y-19487929D01*
X11656786Y-19459357D01*
X11656786Y-19202214D01*
X11928214Y-19487929D02*
X11899643Y-19502214D01*
X11842500Y-19502214D01*
X11813928Y-19487929D01*
X11799643Y-19459357D01*
X11799643Y-19345072D01*
X11813928Y-19316500D01*
X11842500Y-19302214D01*
X11899643Y-19302214D01*
X11928214Y-19316500D01*
X11942500Y-19345072D01*
X11942500Y-19373643D01*
X11799643Y-19402214D01*
X12056786Y-19487929D02*
X12085357Y-19502214D01*
X12142500Y-19502214D01*
X12171071Y-19487929D01*
X12185357Y-19459357D01*
X12185357Y-19445072D01*
X12171071Y-19416500D01*
X12142500Y-19402214D01*
X12099643Y-19402214D01*
X12071071Y-19387929D01*
X12056786Y-19359357D01*
X12056786Y-19345072D01*
X12071071Y-19316500D01*
X12099643Y-19302214D01*
X12142500Y-19302214D01*
X12171071Y-19316500D01*
X12285357Y-19616500D02*
X12299643Y-19602214D01*
X12328214Y-19559357D01*
X12342500Y-19530786D01*
X12356786Y-19487929D01*
X12371071Y-19416500D01*
X12371071Y-19359357D01*
X12356786Y-19287929D01*
X12342500Y-19245072D01*
X12328214Y-19216500D01*
X12299643Y-19173643D01*
X12285357Y-19159357D01*
M02*
