M48
; DRILL file {KiCad (5.1.10)-1} date 08/23/21 14:46:11
; FORMAT={-:-/ absolute / metric / decimal}
; #@! TF.CreationDate,2021-08-23T14:46:11-04:00
; #@! TF.GenerationSoftware,Kicad,Pcbnew,(5.1.10)-1
; #@! TF.FileFunction,Plated,1,2,PTH
FMAT,2
METRIC
T1C0.400
T2C0.600
T3C0.800
T4C1.270
T5C2.200
%
G90
G05
T1
X54.4Y-123.6
X54.6Y-100.9
X54.8Y-157.6
X55.1Y-94.4
X55.583Y-93.233
X55.583Y-95.567
X56.75Y-92.75
X56.75Y-96.05
X57.917Y-93.233
X57.917Y-95.567
X58.4Y-94.4
X60.0Y-136.3
X61.1Y-154.7
X61.2Y-91.5
X62.4Y-96.1
X64.05Y-164.1
X64.072Y-124.841
X64.3Y-110.4
X64.533Y-162.933
X64.533Y-165.267
X64.7Y-97.5
X65.1Y-130.8
X65.7Y-162.45
X65.7Y-165.75
X66.867Y-162.933
X66.867Y-165.267
X66.9Y-97.5
X67.35Y-164.1
X68.3Y-97.5
X68.4Y-151.2
X68.8Y-107.1
X68.8Y-117.9
X69.4Y-97.5
X70.4Y-102.6
X73.5Y-97.4
X77.1Y-165.3
X77.2Y-93.7
X77.406Y-98.234
X79.1Y-154.8
X81.28Y-141.16
X81.8Y-97.0
X85.4Y-157.3
X87.3Y-116.2
X87.3Y-133.6
X89.0Y-95.6
X90.614Y-97.091
X93.4Y-140.4
X99.0Y-119.1
X100.05Y-164.0
X100.25Y-94.6
X100.533Y-162.833
X100.533Y-165.167
X100.733Y-93.433
X100.733Y-95.767
X101.0Y-112.4
X101.2Y-154.1
X101.7Y-162.35
X101.7Y-165.65
X101.9Y-92.95
X101.9Y-96.25
X102.3Y-129.9
X102.867Y-162.833
X102.867Y-165.167
X103.067Y-93.433
X103.067Y-95.767
X103.35Y-164.0
X103.55Y-94.6
T3
X89.28Y-91.4
X89.28Y-99.02
X91.82Y-91.4
X91.82Y-99.02
X94.36Y-91.4
X94.36Y-99.02
X96.9Y-91.4
X96.9Y-99.02
T4
X56.3Y-112.5
X56.3Y-129.5
X56.3Y-146.5
X56.3Y-163.5
X61.3Y-114.6
X61.3Y-131.6
X61.3Y-148.6
X61.3Y-165.6
X74.3Y-112.5
X74.3Y-129.5
X74.3Y-146.5
X74.3Y-163.5
X79.3Y-114.6
X79.3Y-131.6
X79.3Y-148.6
X79.3Y-165.6
X92.3Y-112.5
X92.3Y-129.5
X92.3Y-146.5
X92.3Y-163.5
X97.3Y-114.6
X97.3Y-131.6
X97.3Y-148.6
X97.3Y-165.6
T5
X56.75Y-94.4
X65.7Y-164.1
X101.7Y-164.0
X101.9Y-94.6
T2
G00X63.58Y-91.9
M15
G01X63.58Y-91.1
M16
G05
G00X63.58Y-96.23
M15
G01X63.58Y-95.13
M16
G05
G00X72.22Y-91.9
M15
G01X72.22Y-91.1
M16
G05
G00X72.22Y-96.23
M15
G01X72.22Y-95.13
M16
G05
T0
M30
