G04 #@! TF.GenerationSoftware,KiCad,Pcbnew,5.1.10-88a1d61d58~90~ubuntu20.04.1*
G04 #@! TF.CreationDate,2021-09-03T02:40:30-04:00*
G04 #@! TF.ProjectId,charliepad,63686172-6c69-4657-9061-642e6b696361,rev?*
G04 #@! TF.SameCoordinates,Original*
G04 #@! TF.FileFunction,Copper,L2,Bot*
G04 #@! TF.FilePolarity,Positive*
%FSLAX46Y46*%
G04 Gerber Fmt 4.6, Leading zero omitted, Abs format (unit mm)*
G04 Created by KiCad (PCBNEW 5.1.10-88a1d61d58~90~ubuntu20.04.1) date 2021-09-03 02:40:30*
%MOMM*%
%LPD*%
G01*
G04 APERTURE LIST*
G04 #@! TA.AperFunction,ComponentPad*
%ADD10O,1.600000X1.600000*%
G04 #@! TD*
G04 #@! TA.AperFunction,ComponentPad*
%ADD11R,1.600000X1.600000*%
G04 #@! TD*
G04 #@! TA.AperFunction,ComponentPad*
%ADD12O,1.050000X2.100000*%
G04 #@! TD*
G04 #@! TA.AperFunction,ComponentPad*
%ADD13O,1.000000X2.000000*%
G04 #@! TD*
G04 #@! TA.AperFunction,ComponentPad*
%ADD14C,2.032000*%
G04 #@! TD*
G04 #@! TA.AperFunction,ViaPad*
%ADD15C,0.800000*%
G04 #@! TD*
G04 #@! TA.AperFunction,Conductor*
%ADD16C,0.250000*%
G04 #@! TD*
G04 #@! TA.AperFunction,Conductor*
%ADD17C,0.254000*%
G04 #@! TD*
G04 #@! TA.AperFunction,Conductor*
%ADD18C,0.100000*%
G04 #@! TD*
G04 APERTURE END LIST*
D10*
G04 #@! TO.P,U1,8*
G04 #@! TO.N,+5V*
X83489800Y-90881200D03*
G04 #@! TO.P,U1,4*
G04 #@! TO.N,GND*
X75869800Y-98501200D03*
G04 #@! TO.P,U1,7*
G04 #@! TO.N,PB2*
X83489800Y-93421200D03*
G04 #@! TO.P,U1,3*
G04 #@! TO.N,PB4*
X75869800Y-95961200D03*
G04 #@! TO.P,U1,6*
G04 #@! TO.N,PB1*
X83489800Y-95961200D03*
G04 #@! TO.P,U1,2*
G04 #@! TO.N,PB3*
X75869800Y-93421200D03*
G04 #@! TO.P,U1,5*
G04 #@! TO.N,PB0*
X83489800Y-98501200D03*
D11*
G04 #@! TO.P,U1,1*
G04 #@! TO.N,PB5*
X75869800Y-90881200D03*
G04 #@! TD*
D12*
G04 #@! TO.P,J1,S4*
G04 #@! TO.N,GND*
X60551600Y-96153400D03*
G04 #@! TO.P,J1,S1*
X69191600Y-96153400D03*
D13*
G04 #@! TO.P,J1,S3*
X60551600Y-91973400D03*
G04 #@! TO.P,J1,S2*
X69191600Y-91973400D03*
G04 #@! TD*
D14*
G04 #@! TO.P,SW8,1*
G04 #@! TO.N,PB2*
X79300000Y-148600000D03*
G04 #@! TO.P,SW8,2*
G04 #@! TO.N,Net-(D5-Pad2)*
X74300000Y-146500000D03*
G04 #@! TD*
G04 #@! TO.P,SW9,1*
G04 #@! TO.N,PB0*
X97300000Y-148600000D03*
G04 #@! TO.P,SW9,2*
G04 #@! TO.N,Net-(D5-Pad2)*
X92300000Y-146500000D03*
G04 #@! TD*
G04 #@! TO.P,SW12,1*
G04 #@! TO.N,PB1*
X97300000Y-165600000D03*
G04 #@! TO.P,SW12,2*
G04 #@! TO.N,Net-(D6-Pad2)*
X92300000Y-163500000D03*
G04 #@! TD*
G04 #@! TO.P,SW11,1*
G04 #@! TO.N,PB2*
X79300000Y-165600000D03*
G04 #@! TO.P,SW11,2*
G04 #@! TO.N,Net-(D6-Pad2)*
X74300000Y-163500000D03*
G04 #@! TD*
G04 #@! TO.P,SW10,1*
G04 #@! TO.N,PB5*
X61300000Y-165600000D03*
G04 #@! TO.P,SW10,2*
G04 #@! TO.N,Net-(D6-Pad2)*
X56300000Y-163500000D03*
G04 #@! TD*
G04 #@! TO.P,SW7,1*
G04 #@! TO.N,PB5*
X61300000Y-148600000D03*
G04 #@! TO.P,SW7,2*
G04 #@! TO.N,Net-(D5-Pad2)*
X56300000Y-146500000D03*
G04 #@! TD*
G04 #@! TO.P,SW6,1*
G04 #@! TO.N,PB0*
X97300000Y-131600000D03*
G04 #@! TO.P,SW6,2*
G04 #@! TO.N,Net-(D4-Pad2)*
X92300000Y-129500000D03*
G04 #@! TD*
G04 #@! TO.P,SW5,1*
G04 #@! TO.N,PB1*
X79300000Y-131600000D03*
G04 #@! TO.P,SW5,2*
G04 #@! TO.N,Net-(D4-Pad2)*
X74300000Y-129500000D03*
G04 #@! TD*
G04 #@! TO.P,SW4,1*
G04 #@! TO.N,PB5*
X61300000Y-131600000D03*
G04 #@! TO.P,SW4,2*
G04 #@! TO.N,Net-(D4-Pad2)*
X56300000Y-129500000D03*
G04 #@! TD*
G04 #@! TO.P,SW3,1*
G04 #@! TO.N,PB0*
X97300000Y-114600000D03*
G04 #@! TO.P,SW3,2*
G04 #@! TO.N,Net-(D3-Pad2)*
X92300000Y-112500000D03*
G04 #@! TD*
G04 #@! TO.P,SW2,1*
G04 #@! TO.N,PB1*
X79300000Y-114600000D03*
G04 #@! TO.P,SW2,2*
G04 #@! TO.N,Net-(D3-Pad2)*
X74300000Y-112500000D03*
G04 #@! TD*
G04 #@! TO.P,SW1,1*
G04 #@! TO.N,PB2*
X61300000Y-114600000D03*
G04 #@! TO.P,SW1,2*
G04 #@! TO.N,Net-(D3-Pad2)*
X56300000Y-112500000D03*
G04 #@! TD*
D15*
G04 #@! TO.N,GND*
X67843400Y-99187000D03*
X65074800Y-94792800D03*
X87782400Y-107492800D03*
X77876400Y-90449400D03*
X61239400Y-103936800D03*
X79019400Y-103936800D03*
X97180400Y-120929400D03*
X79019400Y-121005600D03*
X56794400Y-123723400D03*
X60960000Y-137210800D03*
X76377800Y-141782800D03*
X97459800Y-138353800D03*
X93751400Y-154406600D03*
X79197200Y-155117800D03*
X61036200Y-155016200D03*
G04 #@! TO.N,+5V*
X74650600Y-92354400D03*
G04 #@! TO.N,PB5*
X64922400Y-110413800D03*
G04 #@! TO.N,PB2*
X64071500Y-124841000D03*
G04 #@! TO.N,PB1*
X81280000Y-141160500D03*
G04 #@! TO.N,Net-(J1-PadA5)*
X66370200Y-94945200D03*
X58191400Y-97637600D03*
G04 #@! TD*
D16*
G04 #@! TO.N,GND*
X60551600Y-96153400D02*
X60551600Y-96121398D01*
X75336400Y-99034600D02*
X75869800Y-98501200D01*
G04 #@! TO.N,+5V*
X74828400Y-92176600D02*
X74650600Y-92354400D01*
X78003400Y-92176600D02*
X74828400Y-92176600D01*
X79298800Y-90881200D02*
X78003400Y-92176600D01*
X83489800Y-90881200D02*
X79298800Y-90881200D01*
G04 #@! TO.N,PB5*
X61300000Y-165600000D02*
X58100000Y-162400000D01*
X58100000Y-151800000D02*
X61300000Y-148600000D01*
X58100000Y-162400000D02*
X58100000Y-151800000D01*
X61300000Y-148600000D02*
X64700000Y-145200000D01*
X64700000Y-135000000D02*
X61300000Y-131600000D01*
X64700000Y-145200000D02*
X64700000Y-135000000D01*
X63652400Y-111683800D02*
X64922400Y-110413800D01*
X58100000Y-113604000D02*
X59791600Y-111912400D01*
X58100000Y-128400000D02*
X58100000Y-113604000D01*
X61300000Y-131600000D02*
X58100000Y-128400000D01*
X63423800Y-111912400D02*
X63652400Y-111683800D01*
X59791600Y-111912400D02*
X63423800Y-111912400D01*
G04 #@! TO.N,PB2*
X79300000Y-165600000D02*
X82600000Y-162300000D01*
X82600000Y-151900000D02*
X79300000Y-148600000D01*
X82600000Y-162300000D02*
X82600000Y-151900000D01*
X79300000Y-148600000D02*
X72500000Y-148600000D01*
X72500000Y-148600000D02*
X69400000Y-145500000D01*
X69400000Y-145500000D02*
X69400000Y-132400000D01*
X69400000Y-132400000D02*
X64100000Y-127100000D01*
X64100000Y-127100000D02*
X64100000Y-125481538D01*
X64100000Y-125481538D02*
X64100000Y-124800000D01*
X83413600Y-93826734D02*
X75030734Y-102209600D01*
X83413600Y-93599000D02*
X83413600Y-93826734D01*
X75030734Y-102209600D02*
X74168000Y-102209600D01*
X74168000Y-102209600D02*
X69367400Y-107010200D01*
X69367400Y-107010200D02*
X69367400Y-110058200D01*
X64825600Y-114600000D02*
X61300000Y-114600000D01*
X69367400Y-110058200D02*
X64825600Y-114600000D01*
G04 #@! TO.N,PB0*
X97300000Y-114600000D02*
X97300000Y-112997200D01*
X97300000Y-112997200D02*
X94056200Y-109753400D01*
X94056200Y-109753400D02*
X94056200Y-107543600D01*
X94056200Y-107543600D02*
X93014800Y-106502200D01*
X91236800Y-106502200D02*
X83413600Y-98679000D01*
X93014800Y-106502200D02*
X91236800Y-106502200D01*
G04 #@! TO.N,PB1*
X79300000Y-131600000D02*
X82400000Y-128500000D01*
X82400000Y-117700000D02*
X79300000Y-114600000D01*
X82400000Y-128500000D02*
X82400000Y-117700000D01*
X87400000Y-147280500D02*
X81280000Y-141160500D01*
X87400000Y-162200000D02*
X87400000Y-147280500D01*
X90800000Y-165600000D02*
X87400000Y-162200000D01*
X97300000Y-165600000D02*
X90800000Y-165600000D01*
X82288599Y-111611401D02*
X79300000Y-114600000D01*
X82288599Y-97264001D02*
X82288599Y-111611401D01*
X83413600Y-96139000D02*
X82288599Y-97264001D01*
G04 #@! TO.N,Net-(J1-PadA5)*
X66370200Y-94945200D02*
X63576200Y-97739200D01*
X58216800Y-97739200D02*
X58191400Y-97713800D01*
X63576200Y-97739200D02*
X58216800Y-97739200D01*
G04 #@! TD*
D17*
G04 #@! TO.N,GND*
X74443988Y-89956718D02*
X74431728Y-90081200D01*
X74431728Y-91342659D01*
X74348702Y-91359174D01*
X74160344Y-91437195D01*
X73990826Y-91550463D01*
X73846663Y-91694626D01*
X73733395Y-91864144D01*
X73655374Y-92052502D01*
X73615600Y-92252461D01*
X73615600Y-92456339D01*
X73655374Y-92656298D01*
X73733395Y-92844656D01*
X73846663Y-93014174D01*
X73990826Y-93158337D01*
X74160344Y-93271605D01*
X74348702Y-93349626D01*
X74434800Y-93366752D01*
X74434800Y-93562535D01*
X74489947Y-93839774D01*
X74598120Y-94100927D01*
X74755163Y-94335959D01*
X74955041Y-94535837D01*
X75187559Y-94691200D01*
X74955041Y-94846563D01*
X74755163Y-95046441D01*
X74598120Y-95281473D01*
X74489947Y-95542626D01*
X74434800Y-95819865D01*
X74434800Y-96102535D01*
X74489947Y-96379774D01*
X74598120Y-96640927D01*
X74755163Y-96875959D01*
X74955041Y-97075837D01*
X75190073Y-97232880D01*
X75451226Y-97341053D01*
X75728465Y-97396200D01*
X76011135Y-97396200D01*
X76288374Y-97341053D01*
X76549527Y-97232880D01*
X76784559Y-97075837D01*
X76984437Y-96875959D01*
X77141480Y-96640927D01*
X77249653Y-96379774D01*
X77304800Y-96102535D01*
X77304800Y-95819865D01*
X77249653Y-95542626D01*
X77141480Y-95281473D01*
X76984437Y-95046441D01*
X76784559Y-94846563D01*
X76552041Y-94691200D01*
X76784559Y-94535837D01*
X76984437Y-94335959D01*
X77141480Y-94100927D01*
X77249653Y-93839774D01*
X77304800Y-93562535D01*
X77304800Y-93279865D01*
X77249653Y-93002626D01*
X77222304Y-92936600D01*
X77966078Y-92936600D01*
X78003400Y-92940276D01*
X78040722Y-92936600D01*
X78040733Y-92936600D01*
X78152386Y-92925603D01*
X78295647Y-92882146D01*
X78427676Y-92811574D01*
X78543401Y-92716601D01*
X78567204Y-92687597D01*
X79613602Y-91641200D01*
X82271757Y-91641200D01*
X82375163Y-91795959D01*
X82575041Y-91995837D01*
X82807559Y-92151200D01*
X82575041Y-92306563D01*
X82375163Y-92506441D01*
X82218120Y-92741473D01*
X82109947Y-93002626D01*
X82054800Y-93279865D01*
X82054800Y-93562535D01*
X82109947Y-93839774D01*
X82173157Y-93992376D01*
X74715933Y-101449600D01*
X74205333Y-101449600D01*
X74168000Y-101445923D01*
X74130667Y-101449600D01*
X74019014Y-101460597D01*
X73875753Y-101504054D01*
X73743724Y-101574626D01*
X73627999Y-101669599D01*
X73604201Y-101698597D01*
X68856403Y-106446396D01*
X68827399Y-106470199D01*
X68801137Y-106502200D01*
X68732426Y-106585924D01*
X68661855Y-106717953D01*
X68661854Y-106717954D01*
X68618397Y-106861215D01*
X68607400Y-106972868D01*
X68607400Y-106972878D01*
X68603724Y-107010200D01*
X68607400Y-107047523D01*
X68607401Y-109743397D01*
X64510799Y-113840000D01*
X62772227Y-113840000D01*
X62763097Y-113817958D01*
X62582415Y-113547549D01*
X62352451Y-113317585D01*
X62082042Y-113136903D01*
X61781579Y-113012447D01*
X61462609Y-112949000D01*
X61137391Y-112949000D01*
X60818421Y-113012447D01*
X60517958Y-113136903D01*
X60247549Y-113317585D01*
X60017585Y-113547549D01*
X59836903Y-113817958D01*
X59712447Y-114118421D01*
X59649000Y-114437391D01*
X59649000Y-114762609D01*
X59712447Y-115081579D01*
X59836903Y-115382042D01*
X60017585Y-115652451D01*
X60247549Y-115882415D01*
X60517958Y-116063097D01*
X60818421Y-116187553D01*
X61137391Y-116251000D01*
X61462609Y-116251000D01*
X61781579Y-116187553D01*
X62082042Y-116063097D01*
X62352451Y-115882415D01*
X62582415Y-115652451D01*
X62763097Y-115382042D01*
X62772227Y-115360000D01*
X64788278Y-115360000D01*
X64825600Y-115363676D01*
X64862922Y-115360000D01*
X64862933Y-115360000D01*
X64974586Y-115349003D01*
X65117847Y-115305546D01*
X65249876Y-115234974D01*
X65365601Y-115140001D01*
X65389404Y-115110997D01*
X68163010Y-112337391D01*
X72649000Y-112337391D01*
X72649000Y-112662609D01*
X72712447Y-112981579D01*
X72836903Y-113282042D01*
X73017585Y-113552451D01*
X73247549Y-113782415D01*
X73517958Y-113963097D01*
X73818421Y-114087553D01*
X74137391Y-114151000D01*
X74462609Y-114151000D01*
X74781579Y-114087553D01*
X75082042Y-113963097D01*
X75352451Y-113782415D01*
X75582415Y-113552451D01*
X75763097Y-113282042D01*
X75887553Y-112981579D01*
X75951000Y-112662609D01*
X75951000Y-112337391D01*
X75887553Y-112018421D01*
X75763097Y-111717958D01*
X75582415Y-111447549D01*
X75352451Y-111217585D01*
X75082042Y-111036903D01*
X74781579Y-110912447D01*
X74462609Y-110849000D01*
X74137391Y-110849000D01*
X73818421Y-110912447D01*
X73517958Y-111036903D01*
X73247549Y-111217585D01*
X73017585Y-111447549D01*
X72836903Y-111717958D01*
X72712447Y-112018421D01*
X72649000Y-112337391D01*
X68163010Y-112337391D01*
X69878403Y-110621999D01*
X69907401Y-110598201D01*
X70002374Y-110482476D01*
X70072946Y-110350447D01*
X70116403Y-110207186D01*
X70127400Y-110095533D01*
X70127400Y-110095524D01*
X70131076Y-110058201D01*
X70127400Y-110020878D01*
X70127400Y-108553652D01*
X72314100Y-108553652D01*
X72314100Y-108846348D01*
X72371202Y-109133421D01*
X72483212Y-109403838D01*
X72645826Y-109647206D01*
X72852794Y-109854174D01*
X73096162Y-110016788D01*
X73366579Y-110128798D01*
X73653652Y-110185900D01*
X73946348Y-110185900D01*
X74233421Y-110128798D01*
X74503838Y-110016788D01*
X74747206Y-109854174D01*
X74954174Y-109647206D01*
X75116788Y-109403838D01*
X75228798Y-109133421D01*
X75285900Y-108846348D01*
X75285900Y-108553652D01*
X75228798Y-108266579D01*
X75116788Y-107996162D01*
X74954174Y-107752794D01*
X74747206Y-107545826D01*
X74503838Y-107383212D01*
X74233421Y-107271202D01*
X73946348Y-107214100D01*
X73653652Y-107214100D01*
X73366579Y-107271202D01*
X73096162Y-107383212D01*
X72852794Y-107545826D01*
X72645826Y-107752794D01*
X72483212Y-107996162D01*
X72371202Y-108266579D01*
X72314100Y-108553652D01*
X70127400Y-108553652D01*
X70127400Y-107325001D01*
X72949700Y-104502702D01*
X72949700Y-104611325D01*
X72993137Y-104829696D01*
X73078341Y-105035398D01*
X73202039Y-105220524D01*
X73359476Y-105377961D01*
X73544602Y-105501659D01*
X73750304Y-105586863D01*
X73968675Y-105630300D01*
X74191325Y-105630300D01*
X74409696Y-105586863D01*
X74615398Y-105501659D01*
X74800524Y-105377961D01*
X74957961Y-105220524D01*
X75081659Y-105035398D01*
X75166863Y-104829696D01*
X75210300Y-104611325D01*
X75210300Y-104388675D01*
X75166863Y-104170304D01*
X75081659Y-103964602D01*
X74957961Y-103779476D01*
X74800524Y-103622039D01*
X74615398Y-103498341D01*
X74409696Y-103413137D01*
X74191325Y-103369700D01*
X74082702Y-103369700D01*
X74482802Y-102969600D01*
X74993412Y-102969600D01*
X75030734Y-102973276D01*
X75068056Y-102969600D01*
X75068067Y-102969600D01*
X75179720Y-102958603D01*
X75322981Y-102915146D01*
X75455010Y-102844574D01*
X75570735Y-102749601D01*
X75594538Y-102720597D01*
X82080981Y-96234155D01*
X82107969Y-96369830D01*
X81777601Y-96700197D01*
X81748598Y-96724000D01*
X81693470Y-96791175D01*
X81653625Y-96839725D01*
X81594615Y-96950124D01*
X81583053Y-96971755D01*
X81539596Y-97115016D01*
X81528599Y-97226669D01*
X81528599Y-97226679D01*
X81524923Y-97264001D01*
X81528599Y-97301323D01*
X81528600Y-107940776D01*
X81382100Y-107587095D01*
X81124976Y-107202281D01*
X80797719Y-106875024D01*
X80412905Y-106617900D01*
X79985324Y-106440790D01*
X79531406Y-106350500D01*
X79068594Y-106350500D01*
X78614676Y-106440790D01*
X78187095Y-106617900D01*
X77802281Y-106875024D01*
X77475024Y-107202281D01*
X77217900Y-107587095D01*
X77040790Y-108014676D01*
X76950500Y-108468594D01*
X76950500Y-108931406D01*
X77040790Y-109385324D01*
X77217900Y-109812905D01*
X77475024Y-110197719D01*
X77802281Y-110524976D01*
X78187095Y-110782100D01*
X78614676Y-110959210D01*
X79068594Y-111049500D01*
X79531406Y-111049500D01*
X79985324Y-110959210D01*
X80412905Y-110782100D01*
X80797719Y-110524976D01*
X81124976Y-110197719D01*
X81382100Y-109812905D01*
X81528600Y-109459223D01*
X81528600Y-111296598D01*
X79803621Y-113021577D01*
X79781579Y-113012447D01*
X79462609Y-112949000D01*
X79137391Y-112949000D01*
X78818421Y-113012447D01*
X78517958Y-113136903D01*
X78247549Y-113317585D01*
X78017585Y-113547549D01*
X77836903Y-113817958D01*
X77712447Y-114118421D01*
X77649000Y-114437391D01*
X77649000Y-114762609D01*
X77712447Y-115081579D01*
X77836903Y-115382042D01*
X78017585Y-115652451D01*
X78247549Y-115882415D01*
X78517958Y-116063097D01*
X78818421Y-116187553D01*
X79137391Y-116251000D01*
X79462609Y-116251000D01*
X79781579Y-116187553D01*
X79803621Y-116178423D01*
X81640001Y-118014803D01*
X81640000Y-125420836D01*
X81559210Y-125014676D01*
X81382100Y-124587095D01*
X81124976Y-124202281D01*
X80797719Y-123875024D01*
X80412905Y-123617900D01*
X79985324Y-123440790D01*
X79531406Y-123350500D01*
X79068594Y-123350500D01*
X78614676Y-123440790D01*
X78187095Y-123617900D01*
X77802281Y-123875024D01*
X77475024Y-124202281D01*
X77217900Y-124587095D01*
X77040790Y-125014676D01*
X76950500Y-125468594D01*
X76950500Y-125931406D01*
X77040790Y-126385324D01*
X77217900Y-126812905D01*
X77475024Y-127197719D01*
X77802281Y-127524976D01*
X78187095Y-127782100D01*
X78614676Y-127959210D01*
X79068594Y-128049500D01*
X79531406Y-128049500D01*
X79985324Y-127959210D01*
X80412905Y-127782100D01*
X80797719Y-127524976D01*
X81124976Y-127197719D01*
X81382100Y-126812905D01*
X81559210Y-126385324D01*
X81640000Y-125979164D01*
X81640000Y-128185198D01*
X79803621Y-130021577D01*
X79781579Y-130012447D01*
X79462609Y-129949000D01*
X79137391Y-129949000D01*
X78818421Y-130012447D01*
X78517958Y-130136903D01*
X78247549Y-130317585D01*
X78017585Y-130547549D01*
X77836903Y-130817958D01*
X77712447Y-131118421D01*
X77649000Y-131437391D01*
X77649000Y-131762609D01*
X77712447Y-132081579D01*
X77836903Y-132382042D01*
X78017585Y-132652451D01*
X78247549Y-132882415D01*
X78517958Y-133063097D01*
X78818421Y-133187553D01*
X79137391Y-133251000D01*
X79462609Y-133251000D01*
X79781579Y-133187553D01*
X80082042Y-133063097D01*
X80352451Y-132882415D01*
X80582415Y-132652451D01*
X80763097Y-132382042D01*
X80887553Y-132081579D01*
X80951000Y-131762609D01*
X80951000Y-131437391D01*
X95649000Y-131437391D01*
X95649000Y-131762609D01*
X95712447Y-132081579D01*
X95836903Y-132382042D01*
X96017585Y-132652451D01*
X96247549Y-132882415D01*
X96517958Y-133063097D01*
X96818421Y-133187553D01*
X97137391Y-133251000D01*
X97462609Y-133251000D01*
X97781579Y-133187553D01*
X98082042Y-133063097D01*
X98352451Y-132882415D01*
X98582415Y-132652451D01*
X98763097Y-132382042D01*
X98887553Y-132081579D01*
X98951000Y-131762609D01*
X98951000Y-131437391D01*
X98887553Y-131118421D01*
X98763097Y-130817958D01*
X98582415Y-130547549D01*
X98352451Y-130317585D01*
X98082042Y-130136903D01*
X97781579Y-130012447D01*
X97462609Y-129949000D01*
X97137391Y-129949000D01*
X96818421Y-130012447D01*
X96517958Y-130136903D01*
X96247549Y-130317585D01*
X96017585Y-130547549D01*
X95836903Y-130817958D01*
X95712447Y-131118421D01*
X95649000Y-131437391D01*
X80951000Y-131437391D01*
X80887553Y-131118421D01*
X80878423Y-131096379D01*
X82637411Y-129337391D01*
X90649000Y-129337391D01*
X90649000Y-129662609D01*
X90712447Y-129981579D01*
X90836903Y-130282042D01*
X91017585Y-130552451D01*
X91247549Y-130782415D01*
X91517958Y-130963097D01*
X91818421Y-131087553D01*
X92137391Y-131151000D01*
X92462609Y-131151000D01*
X92781579Y-131087553D01*
X93082042Y-130963097D01*
X93352451Y-130782415D01*
X93582415Y-130552451D01*
X93763097Y-130282042D01*
X93887553Y-129981579D01*
X93951000Y-129662609D01*
X93951000Y-129337391D01*
X93887553Y-129018421D01*
X93763097Y-128717958D01*
X93582415Y-128447549D01*
X93352451Y-128217585D01*
X93082042Y-128036903D01*
X92781579Y-127912447D01*
X92462609Y-127849000D01*
X92137391Y-127849000D01*
X91818421Y-127912447D01*
X91517958Y-128036903D01*
X91247549Y-128217585D01*
X91017585Y-128447549D01*
X90836903Y-128717958D01*
X90712447Y-129018421D01*
X90649000Y-129337391D01*
X82637411Y-129337391D01*
X82911004Y-129063798D01*
X82940001Y-129040001D01*
X83022069Y-128940001D01*
X83034974Y-128924277D01*
X83105546Y-128792247D01*
X83135880Y-128692246D01*
X83149003Y-128648986D01*
X83160000Y-128537333D01*
X83160000Y-128537324D01*
X83163676Y-128500001D01*
X83160000Y-128462678D01*
X83160000Y-125553652D01*
X83314100Y-125553652D01*
X83314100Y-125846348D01*
X83371202Y-126133421D01*
X83483212Y-126403838D01*
X83645826Y-126647206D01*
X83852794Y-126854174D01*
X84096162Y-127016788D01*
X84366579Y-127128798D01*
X84653652Y-127185900D01*
X84946348Y-127185900D01*
X85233421Y-127128798D01*
X85503838Y-127016788D01*
X85747206Y-126854174D01*
X85954174Y-126647206D01*
X86116788Y-126403838D01*
X86228798Y-126133421D01*
X86285900Y-125846348D01*
X86285900Y-125553652D01*
X90314100Y-125553652D01*
X90314100Y-125846348D01*
X90371202Y-126133421D01*
X90483212Y-126403838D01*
X90645826Y-126647206D01*
X90852794Y-126854174D01*
X91096162Y-127016788D01*
X91366579Y-127128798D01*
X91653652Y-127185900D01*
X91946348Y-127185900D01*
X92233421Y-127128798D01*
X92503838Y-127016788D01*
X92747206Y-126854174D01*
X92954174Y-126647206D01*
X93116788Y-126403838D01*
X93228798Y-126133421D01*
X93285900Y-125846348D01*
X93285900Y-125553652D01*
X93268982Y-125468594D01*
X94950500Y-125468594D01*
X94950500Y-125931406D01*
X95040790Y-126385324D01*
X95217900Y-126812905D01*
X95475024Y-127197719D01*
X95802281Y-127524976D01*
X96187095Y-127782100D01*
X96614676Y-127959210D01*
X97068594Y-128049500D01*
X97531406Y-128049500D01*
X97985324Y-127959210D01*
X98412905Y-127782100D01*
X98797719Y-127524976D01*
X99124976Y-127197719D01*
X99382100Y-126812905D01*
X99559210Y-126385324D01*
X99649500Y-125931406D01*
X99649500Y-125553652D01*
X101314100Y-125553652D01*
X101314100Y-125846348D01*
X101371202Y-126133421D01*
X101483212Y-126403838D01*
X101645826Y-126647206D01*
X101852794Y-126854174D01*
X102096162Y-127016788D01*
X102366579Y-127128798D01*
X102653652Y-127185900D01*
X102946348Y-127185900D01*
X103233421Y-127128798D01*
X103503838Y-127016788D01*
X103747206Y-126854174D01*
X103954174Y-126647206D01*
X104116788Y-126403838D01*
X104228798Y-126133421D01*
X104285900Y-125846348D01*
X104285900Y-125553652D01*
X104228798Y-125266579D01*
X104116788Y-124996162D01*
X103954174Y-124752794D01*
X103747206Y-124545826D01*
X103503838Y-124383212D01*
X103233421Y-124271202D01*
X102946348Y-124214100D01*
X102653652Y-124214100D01*
X102366579Y-124271202D01*
X102096162Y-124383212D01*
X101852794Y-124545826D01*
X101645826Y-124752794D01*
X101483212Y-124996162D01*
X101371202Y-125266579D01*
X101314100Y-125553652D01*
X99649500Y-125553652D01*
X99649500Y-125468594D01*
X99559210Y-125014676D01*
X99382100Y-124587095D01*
X99124976Y-124202281D01*
X98797719Y-123875024D01*
X98412905Y-123617900D01*
X97985324Y-123440790D01*
X97531406Y-123350500D01*
X97068594Y-123350500D01*
X96614676Y-123440790D01*
X96187095Y-123617900D01*
X95802281Y-123875024D01*
X95475024Y-124202281D01*
X95217900Y-124587095D01*
X95040790Y-125014676D01*
X94950500Y-125468594D01*
X93268982Y-125468594D01*
X93228798Y-125266579D01*
X93116788Y-124996162D01*
X92954174Y-124752794D01*
X92747206Y-124545826D01*
X92503838Y-124383212D01*
X92233421Y-124271202D01*
X91946348Y-124214100D01*
X91653652Y-124214100D01*
X91366579Y-124271202D01*
X91096162Y-124383212D01*
X90852794Y-124545826D01*
X90645826Y-124752794D01*
X90483212Y-124996162D01*
X90371202Y-125266579D01*
X90314100Y-125553652D01*
X86285900Y-125553652D01*
X86228798Y-125266579D01*
X86116788Y-124996162D01*
X85954174Y-124752794D01*
X85747206Y-124545826D01*
X85503838Y-124383212D01*
X85233421Y-124271202D01*
X84946348Y-124214100D01*
X84653652Y-124214100D01*
X84366579Y-124271202D01*
X84096162Y-124383212D01*
X83852794Y-124545826D01*
X83645826Y-124752794D01*
X83483212Y-124996162D01*
X83371202Y-125266579D01*
X83314100Y-125553652D01*
X83160000Y-125553652D01*
X83160000Y-121388675D01*
X83389700Y-121388675D01*
X83389700Y-121611325D01*
X83433137Y-121829696D01*
X83518341Y-122035398D01*
X83642039Y-122220524D01*
X83799476Y-122377961D01*
X83984602Y-122501659D01*
X84190304Y-122586863D01*
X84408675Y-122630300D01*
X84631325Y-122630300D01*
X84849696Y-122586863D01*
X85055398Y-122501659D01*
X85240524Y-122377961D01*
X85397961Y-122220524D01*
X85521659Y-122035398D01*
X85606863Y-121829696D01*
X85650300Y-121611325D01*
X85650300Y-121388675D01*
X90949700Y-121388675D01*
X90949700Y-121611325D01*
X90993137Y-121829696D01*
X91078341Y-122035398D01*
X91202039Y-122220524D01*
X91359476Y-122377961D01*
X91544602Y-122501659D01*
X91750304Y-122586863D01*
X91968675Y-122630300D01*
X92191325Y-122630300D01*
X92409696Y-122586863D01*
X92615398Y-122501659D01*
X92800524Y-122377961D01*
X92957961Y-122220524D01*
X93081659Y-122035398D01*
X93166863Y-121829696D01*
X93210300Y-121611325D01*
X93210300Y-121388675D01*
X101389700Y-121388675D01*
X101389700Y-121611325D01*
X101433137Y-121829696D01*
X101518341Y-122035398D01*
X101642039Y-122220524D01*
X101799476Y-122377961D01*
X101984602Y-122501659D01*
X102190304Y-122586863D01*
X102408675Y-122630300D01*
X102631325Y-122630300D01*
X102849696Y-122586863D01*
X103055398Y-122501659D01*
X103240524Y-122377961D01*
X103397961Y-122220524D01*
X103521659Y-122035398D01*
X103606863Y-121829696D01*
X103650300Y-121611325D01*
X103650300Y-121388675D01*
X103606863Y-121170304D01*
X103521659Y-120964602D01*
X103397961Y-120779476D01*
X103240524Y-120622039D01*
X103055398Y-120498341D01*
X102849696Y-120413137D01*
X102631325Y-120369700D01*
X102408675Y-120369700D01*
X102190304Y-120413137D01*
X101984602Y-120498341D01*
X101799476Y-120622039D01*
X101642039Y-120779476D01*
X101518341Y-120964602D01*
X101433137Y-121170304D01*
X101389700Y-121388675D01*
X93210300Y-121388675D01*
X93166863Y-121170304D01*
X93081659Y-120964602D01*
X92957961Y-120779476D01*
X92800524Y-120622039D01*
X92615398Y-120498341D01*
X92409696Y-120413137D01*
X92191325Y-120369700D01*
X91968675Y-120369700D01*
X91750304Y-120413137D01*
X91544602Y-120498341D01*
X91359476Y-120622039D01*
X91202039Y-120779476D01*
X91078341Y-120964602D01*
X90993137Y-121170304D01*
X90949700Y-121388675D01*
X85650300Y-121388675D01*
X85606863Y-121170304D01*
X85521659Y-120964602D01*
X85397961Y-120779476D01*
X85240524Y-120622039D01*
X85055398Y-120498341D01*
X84849696Y-120413137D01*
X84631325Y-120369700D01*
X84408675Y-120369700D01*
X84190304Y-120413137D01*
X83984602Y-120498341D01*
X83799476Y-120622039D01*
X83642039Y-120779476D01*
X83518341Y-120964602D01*
X83433137Y-121170304D01*
X83389700Y-121388675D01*
X83160000Y-121388675D01*
X83160000Y-117737322D01*
X83163676Y-117699999D01*
X83160000Y-117662676D01*
X83160000Y-117662667D01*
X83149003Y-117551014D01*
X83105546Y-117407753D01*
X83034974Y-117275723D01*
X82963799Y-117188997D01*
X82940001Y-117159999D01*
X82911003Y-117136201D01*
X80878423Y-115103621D01*
X80887553Y-115081579D01*
X80951000Y-114762609D01*
X80951000Y-114437391D01*
X80887553Y-114118421D01*
X80878423Y-114096379D01*
X82637411Y-112337391D01*
X90649000Y-112337391D01*
X90649000Y-112662609D01*
X90712447Y-112981579D01*
X90836903Y-113282042D01*
X91017585Y-113552451D01*
X91247549Y-113782415D01*
X91517958Y-113963097D01*
X91818421Y-114087553D01*
X92137391Y-114151000D01*
X92462609Y-114151000D01*
X92781579Y-114087553D01*
X93082042Y-113963097D01*
X93352451Y-113782415D01*
X93582415Y-113552451D01*
X93763097Y-113282042D01*
X93887553Y-112981579D01*
X93951000Y-112662609D01*
X93951000Y-112337391D01*
X93887553Y-112018421D01*
X93763097Y-111717958D01*
X93582415Y-111447549D01*
X93352451Y-111217585D01*
X93082042Y-111036903D01*
X92781579Y-110912447D01*
X92462609Y-110849000D01*
X92137391Y-110849000D01*
X91818421Y-110912447D01*
X91517958Y-111036903D01*
X91247549Y-111217585D01*
X91017585Y-111447549D01*
X90836903Y-111717958D01*
X90712447Y-112018421D01*
X90649000Y-112337391D01*
X82637411Y-112337391D01*
X82799602Y-112175200D01*
X82828600Y-112151402D01*
X82923573Y-112035677D01*
X82994145Y-111903648D01*
X83037602Y-111760387D01*
X83048599Y-111648734D01*
X83048599Y-111648725D01*
X83052275Y-111611402D01*
X83048599Y-111574079D01*
X83048599Y-108553652D01*
X83314100Y-108553652D01*
X83314100Y-108846348D01*
X83371202Y-109133421D01*
X83483212Y-109403838D01*
X83645826Y-109647206D01*
X83852794Y-109854174D01*
X84096162Y-110016788D01*
X84366579Y-110128798D01*
X84653652Y-110185900D01*
X84946348Y-110185900D01*
X85233421Y-110128798D01*
X85503838Y-110016788D01*
X85747206Y-109854174D01*
X85954174Y-109647206D01*
X86116788Y-109403838D01*
X86228798Y-109133421D01*
X86285900Y-108846348D01*
X86285900Y-108553652D01*
X86228798Y-108266579D01*
X86116788Y-107996162D01*
X85954174Y-107752794D01*
X85747206Y-107545826D01*
X85503838Y-107383212D01*
X85233421Y-107271202D01*
X84946348Y-107214100D01*
X84653652Y-107214100D01*
X84366579Y-107271202D01*
X84096162Y-107383212D01*
X83852794Y-107545826D01*
X83645826Y-107752794D01*
X83483212Y-107996162D01*
X83371202Y-108266579D01*
X83314100Y-108553652D01*
X83048599Y-108553652D01*
X83048599Y-104388675D01*
X83389700Y-104388675D01*
X83389700Y-104611325D01*
X83433137Y-104829696D01*
X83518341Y-105035398D01*
X83642039Y-105220524D01*
X83799476Y-105377961D01*
X83984602Y-105501659D01*
X84190304Y-105586863D01*
X84408675Y-105630300D01*
X84631325Y-105630300D01*
X84849696Y-105586863D01*
X85055398Y-105501659D01*
X85240524Y-105377961D01*
X85397961Y-105220524D01*
X85521659Y-105035398D01*
X85606863Y-104829696D01*
X85650300Y-104611325D01*
X85650300Y-104388675D01*
X85606863Y-104170304D01*
X85521659Y-103964602D01*
X85397961Y-103779476D01*
X85240524Y-103622039D01*
X85055398Y-103498341D01*
X84849696Y-103413137D01*
X84631325Y-103369700D01*
X84408675Y-103369700D01*
X84190304Y-103413137D01*
X83984602Y-103498341D01*
X83799476Y-103622039D01*
X83642039Y-103779476D01*
X83518341Y-103964602D01*
X83433137Y-104170304D01*
X83389700Y-104388675D01*
X83048599Y-104388675D01*
X83048599Y-99871681D01*
X83071226Y-99881053D01*
X83348465Y-99936200D01*
X83595999Y-99936200D01*
X90673000Y-107013202D01*
X90696799Y-107042201D01*
X90725797Y-107065999D01*
X90812524Y-107137174D01*
X90944553Y-107207746D01*
X91087814Y-107251203D01*
X91236800Y-107265877D01*
X91274133Y-107262200D01*
X91411835Y-107262200D01*
X91366579Y-107271202D01*
X91096162Y-107383212D01*
X90852794Y-107545826D01*
X90645826Y-107752794D01*
X90483212Y-107996162D01*
X90371202Y-108266579D01*
X90314100Y-108553652D01*
X90314100Y-108846348D01*
X90371202Y-109133421D01*
X90483212Y-109403838D01*
X90645826Y-109647206D01*
X90852794Y-109854174D01*
X91096162Y-110016788D01*
X91366579Y-110128798D01*
X91653652Y-110185900D01*
X91946348Y-110185900D01*
X92233421Y-110128798D01*
X92503838Y-110016788D01*
X92747206Y-109854174D01*
X92954174Y-109647206D01*
X93116788Y-109403838D01*
X93228798Y-109133421D01*
X93285900Y-108846348D01*
X93285900Y-108553652D01*
X93228798Y-108266579D01*
X93116788Y-107996162D01*
X92954174Y-107752794D01*
X92747206Y-107545826D01*
X92503838Y-107383212D01*
X92233421Y-107271202D01*
X92188165Y-107262200D01*
X92699999Y-107262200D01*
X93296201Y-107858403D01*
X93296200Y-109716077D01*
X93292524Y-109753400D01*
X93296200Y-109790722D01*
X93296200Y-109790732D01*
X93307197Y-109902385D01*
X93341900Y-110016788D01*
X93350654Y-110045646D01*
X93421226Y-110177676D01*
X93461071Y-110226226D01*
X93516199Y-110293401D01*
X93545203Y-110317204D01*
X96426207Y-113198209D01*
X96247549Y-113317585D01*
X96017585Y-113547549D01*
X95836903Y-113817958D01*
X95712447Y-114118421D01*
X95649000Y-114437391D01*
X95649000Y-114762609D01*
X95712447Y-115081579D01*
X95836903Y-115382042D01*
X96017585Y-115652451D01*
X96247549Y-115882415D01*
X96517958Y-116063097D01*
X96818421Y-116187553D01*
X97137391Y-116251000D01*
X97462609Y-116251000D01*
X97781579Y-116187553D01*
X98082042Y-116063097D01*
X98352451Y-115882415D01*
X98582415Y-115652451D01*
X98763097Y-115382042D01*
X98887553Y-115081579D01*
X98951000Y-114762609D01*
X98951000Y-114437391D01*
X98887553Y-114118421D01*
X98763097Y-113817958D01*
X98582415Y-113547549D01*
X98352451Y-113317585D01*
X98082042Y-113136903D01*
X98060000Y-113127773D01*
X98060000Y-113034523D01*
X98063676Y-112997200D01*
X98060000Y-112959877D01*
X98060000Y-112959867D01*
X98049003Y-112848214D01*
X98005546Y-112704953D01*
X97988146Y-112672400D01*
X97934974Y-112572923D01*
X97863799Y-112486197D01*
X97840001Y-112457199D01*
X97811003Y-112433401D01*
X96104540Y-110726939D01*
X96187095Y-110782100D01*
X96614676Y-110959210D01*
X97068594Y-111049500D01*
X97531406Y-111049500D01*
X97985324Y-110959210D01*
X98412905Y-110782100D01*
X98797719Y-110524976D01*
X99124976Y-110197719D01*
X99382100Y-109812905D01*
X99559210Y-109385324D01*
X99649500Y-108931406D01*
X99649500Y-108553652D01*
X101314100Y-108553652D01*
X101314100Y-108846348D01*
X101371202Y-109133421D01*
X101483212Y-109403838D01*
X101645826Y-109647206D01*
X101852794Y-109854174D01*
X102096162Y-110016788D01*
X102366579Y-110128798D01*
X102653652Y-110185900D01*
X102946348Y-110185900D01*
X103233421Y-110128798D01*
X103503838Y-110016788D01*
X103747206Y-109854174D01*
X103954174Y-109647206D01*
X104116788Y-109403838D01*
X104228798Y-109133421D01*
X104285900Y-108846348D01*
X104285900Y-108553652D01*
X104228798Y-108266579D01*
X104116788Y-107996162D01*
X103954174Y-107752794D01*
X103747206Y-107545826D01*
X103503838Y-107383212D01*
X103233421Y-107271202D01*
X102946348Y-107214100D01*
X102653652Y-107214100D01*
X102366579Y-107271202D01*
X102096162Y-107383212D01*
X101852794Y-107545826D01*
X101645826Y-107752794D01*
X101483212Y-107996162D01*
X101371202Y-108266579D01*
X101314100Y-108553652D01*
X99649500Y-108553652D01*
X99649500Y-108468594D01*
X99559210Y-108014676D01*
X99382100Y-107587095D01*
X99124976Y-107202281D01*
X98797719Y-106875024D01*
X98412905Y-106617900D01*
X97985324Y-106440790D01*
X97531406Y-106350500D01*
X97068594Y-106350500D01*
X96614676Y-106440790D01*
X96187095Y-106617900D01*
X95802281Y-106875024D01*
X95475024Y-107202281D01*
X95217900Y-107587095D01*
X95040790Y-108014676D01*
X94950500Y-108468594D01*
X94950500Y-108931406D01*
X95040790Y-109385324D01*
X95217900Y-109812905D01*
X95273062Y-109895461D01*
X94816200Y-109438599D01*
X94816200Y-107580922D01*
X94819876Y-107543599D01*
X94816200Y-107506277D01*
X94816200Y-107506267D01*
X94805203Y-107394614D01*
X94761746Y-107251353D01*
X94735516Y-107202281D01*
X94691174Y-107119323D01*
X94619999Y-107032597D01*
X94596201Y-107003599D01*
X94567203Y-106979801D01*
X93578604Y-105991202D01*
X93554801Y-105962199D01*
X93439076Y-105867226D01*
X93307047Y-105796654D01*
X93163786Y-105753197D01*
X93052133Y-105742200D01*
X93052122Y-105742200D01*
X93014800Y-105738524D01*
X92977478Y-105742200D01*
X91551602Y-105742200D01*
X90198077Y-104388675D01*
X90949700Y-104388675D01*
X90949700Y-104611325D01*
X90993137Y-104829696D01*
X91078341Y-105035398D01*
X91202039Y-105220524D01*
X91359476Y-105377961D01*
X91544602Y-105501659D01*
X91750304Y-105586863D01*
X91968675Y-105630300D01*
X92191325Y-105630300D01*
X92409696Y-105586863D01*
X92615398Y-105501659D01*
X92800524Y-105377961D01*
X92957961Y-105220524D01*
X93081659Y-105035398D01*
X93166863Y-104829696D01*
X93210300Y-104611325D01*
X93210300Y-104388675D01*
X101389700Y-104388675D01*
X101389700Y-104611325D01*
X101433137Y-104829696D01*
X101518341Y-105035398D01*
X101642039Y-105220524D01*
X101799476Y-105377961D01*
X101984602Y-105501659D01*
X102190304Y-105586863D01*
X102408675Y-105630300D01*
X102631325Y-105630300D01*
X102849696Y-105586863D01*
X103055398Y-105501659D01*
X103240524Y-105377961D01*
X103397961Y-105220524D01*
X103521659Y-105035398D01*
X103606863Y-104829696D01*
X103650300Y-104611325D01*
X103650300Y-104388675D01*
X103606863Y-104170304D01*
X103521659Y-103964602D01*
X103397961Y-103779476D01*
X103240524Y-103622039D01*
X103055398Y-103498341D01*
X102849696Y-103413137D01*
X102631325Y-103369700D01*
X102408675Y-103369700D01*
X102190304Y-103413137D01*
X101984602Y-103498341D01*
X101799476Y-103622039D01*
X101642039Y-103779476D01*
X101518341Y-103964602D01*
X101433137Y-104170304D01*
X101389700Y-104388675D01*
X93210300Y-104388675D01*
X93166863Y-104170304D01*
X93081659Y-103964602D01*
X92957961Y-103779476D01*
X92800524Y-103622039D01*
X92615398Y-103498341D01*
X92409696Y-103413137D01*
X92191325Y-103369700D01*
X91968675Y-103369700D01*
X91750304Y-103413137D01*
X91544602Y-103498341D01*
X91359476Y-103622039D01*
X91202039Y-103779476D01*
X91078341Y-103964602D01*
X90993137Y-104170304D01*
X90949700Y-104388675D01*
X90198077Y-104388675D01*
X84828508Y-99019107D01*
X84869653Y-98919774D01*
X84924800Y-98642535D01*
X84924800Y-98359865D01*
X84869653Y-98082626D01*
X84761480Y-97821473D01*
X84604437Y-97586441D01*
X84404559Y-97386563D01*
X84172041Y-97231200D01*
X84404559Y-97075837D01*
X84604437Y-96875959D01*
X84761480Y-96640927D01*
X84869653Y-96379774D01*
X84924800Y-96102535D01*
X84924800Y-95819865D01*
X84869653Y-95542626D01*
X84761480Y-95281473D01*
X84604437Y-95046441D01*
X84404559Y-94846563D01*
X84172041Y-94691200D01*
X84404559Y-94535837D01*
X84604437Y-94335959D01*
X84761480Y-94100927D01*
X84869653Y-93839774D01*
X84924800Y-93562535D01*
X84924800Y-93279865D01*
X84869653Y-93002626D01*
X84761480Y-92741473D01*
X84604437Y-92506441D01*
X84404559Y-92306563D01*
X84172041Y-92151200D01*
X84404559Y-91995837D01*
X84604437Y-91795959D01*
X84761480Y-91560927D01*
X84869653Y-91299774D01*
X84924800Y-91022535D01*
X84924800Y-90739865D01*
X84869653Y-90462626D01*
X84761480Y-90201473D01*
X84604437Y-89966441D01*
X84528196Y-89890200D01*
X104266721Y-89890200D01*
X104558659Y-89918825D01*
X104808429Y-89994235D01*
X105038792Y-90116722D01*
X105240980Y-90281622D01*
X105407286Y-90482650D01*
X105531378Y-90712154D01*
X105608531Y-90961395D01*
X105639001Y-91251295D01*
X105640000Y-166167720D01*
X105611375Y-166459660D01*
X105535965Y-166709429D01*
X105413477Y-166939794D01*
X105248579Y-167141979D01*
X105047546Y-167308288D01*
X104818046Y-167432378D01*
X104568805Y-167509531D01*
X104278911Y-167540000D01*
X54332279Y-167540000D01*
X54040340Y-167511375D01*
X53790571Y-167435965D01*
X53560206Y-167313477D01*
X53358021Y-167148579D01*
X53191712Y-166947546D01*
X53067622Y-166718046D01*
X52990469Y-166468805D01*
X52960000Y-166178911D01*
X52960000Y-159553652D01*
X54314100Y-159553652D01*
X54314100Y-159846348D01*
X54371202Y-160133421D01*
X54483212Y-160403838D01*
X54645826Y-160647206D01*
X54852794Y-160854174D01*
X55096162Y-161016788D01*
X55366579Y-161128798D01*
X55653652Y-161185900D01*
X55946348Y-161185900D01*
X56233421Y-161128798D01*
X56503838Y-161016788D01*
X56747206Y-160854174D01*
X56954174Y-160647206D01*
X57116788Y-160403838D01*
X57228798Y-160133421D01*
X57285900Y-159846348D01*
X57285900Y-159553652D01*
X57228798Y-159266579D01*
X57116788Y-158996162D01*
X56954174Y-158752794D01*
X56747206Y-158545826D01*
X56503838Y-158383212D01*
X56233421Y-158271202D01*
X55946348Y-158214100D01*
X55653652Y-158214100D01*
X55366579Y-158271202D01*
X55096162Y-158383212D01*
X54852794Y-158545826D01*
X54645826Y-158752794D01*
X54483212Y-158996162D01*
X54371202Y-159266579D01*
X54314100Y-159553652D01*
X52960000Y-159553652D01*
X52960000Y-155388675D01*
X54949700Y-155388675D01*
X54949700Y-155611325D01*
X54993137Y-155829696D01*
X55078341Y-156035398D01*
X55202039Y-156220524D01*
X55359476Y-156377961D01*
X55544602Y-156501659D01*
X55750304Y-156586863D01*
X55968675Y-156630300D01*
X56191325Y-156630300D01*
X56409696Y-156586863D01*
X56615398Y-156501659D01*
X56800524Y-156377961D01*
X56957961Y-156220524D01*
X57081659Y-156035398D01*
X57166863Y-155829696D01*
X57210300Y-155611325D01*
X57210300Y-155388675D01*
X57166863Y-155170304D01*
X57081659Y-154964602D01*
X56957961Y-154779476D01*
X56800524Y-154622039D01*
X56615398Y-154498341D01*
X56409696Y-154413137D01*
X56191325Y-154369700D01*
X55968675Y-154369700D01*
X55750304Y-154413137D01*
X55544602Y-154498341D01*
X55359476Y-154622039D01*
X55202039Y-154779476D01*
X55078341Y-154964602D01*
X54993137Y-155170304D01*
X54949700Y-155388675D01*
X52960000Y-155388675D01*
X52960000Y-146337391D01*
X54649000Y-146337391D01*
X54649000Y-146662609D01*
X54712447Y-146981579D01*
X54836903Y-147282042D01*
X55017585Y-147552451D01*
X55247549Y-147782415D01*
X55517958Y-147963097D01*
X55818421Y-148087553D01*
X56137391Y-148151000D01*
X56462609Y-148151000D01*
X56781579Y-148087553D01*
X57082042Y-147963097D01*
X57352451Y-147782415D01*
X57582415Y-147552451D01*
X57763097Y-147282042D01*
X57887553Y-146981579D01*
X57951000Y-146662609D01*
X57951000Y-146337391D01*
X57887553Y-146018421D01*
X57763097Y-145717958D01*
X57582415Y-145447549D01*
X57352451Y-145217585D01*
X57082042Y-145036903D01*
X56781579Y-144912447D01*
X56462609Y-144849000D01*
X56137391Y-144849000D01*
X55818421Y-144912447D01*
X55517958Y-145036903D01*
X55247549Y-145217585D01*
X55017585Y-145447549D01*
X54836903Y-145717958D01*
X54712447Y-146018421D01*
X54649000Y-146337391D01*
X52960000Y-146337391D01*
X52960000Y-142553652D01*
X54314100Y-142553652D01*
X54314100Y-142846348D01*
X54371202Y-143133421D01*
X54483212Y-143403838D01*
X54645826Y-143647206D01*
X54852794Y-143854174D01*
X55096162Y-144016788D01*
X55366579Y-144128798D01*
X55653652Y-144185900D01*
X55946348Y-144185900D01*
X56233421Y-144128798D01*
X56503838Y-144016788D01*
X56747206Y-143854174D01*
X56954174Y-143647206D01*
X57116788Y-143403838D01*
X57228798Y-143133421D01*
X57285900Y-142846348D01*
X57285900Y-142553652D01*
X57268982Y-142468594D01*
X58950500Y-142468594D01*
X58950500Y-142931406D01*
X59040790Y-143385324D01*
X59217900Y-143812905D01*
X59475024Y-144197719D01*
X59802281Y-144524976D01*
X60187095Y-144782100D01*
X60614676Y-144959210D01*
X61068594Y-145049500D01*
X61531406Y-145049500D01*
X61985324Y-144959210D01*
X62412905Y-144782100D01*
X62797719Y-144524976D01*
X63124976Y-144197719D01*
X63382100Y-143812905D01*
X63559210Y-143385324D01*
X63649500Y-142931406D01*
X63649500Y-142468594D01*
X63559210Y-142014676D01*
X63382100Y-141587095D01*
X63124976Y-141202281D01*
X62797719Y-140875024D01*
X62412905Y-140617900D01*
X61985324Y-140440790D01*
X61531406Y-140350500D01*
X61068594Y-140350500D01*
X60614676Y-140440790D01*
X60187095Y-140617900D01*
X59802281Y-140875024D01*
X59475024Y-141202281D01*
X59217900Y-141587095D01*
X59040790Y-142014676D01*
X58950500Y-142468594D01*
X57268982Y-142468594D01*
X57228798Y-142266579D01*
X57116788Y-141996162D01*
X56954174Y-141752794D01*
X56747206Y-141545826D01*
X56503838Y-141383212D01*
X56233421Y-141271202D01*
X55946348Y-141214100D01*
X55653652Y-141214100D01*
X55366579Y-141271202D01*
X55096162Y-141383212D01*
X54852794Y-141545826D01*
X54645826Y-141752794D01*
X54483212Y-141996162D01*
X54371202Y-142266579D01*
X54314100Y-142553652D01*
X52960000Y-142553652D01*
X52960000Y-138388675D01*
X54949700Y-138388675D01*
X54949700Y-138611325D01*
X54993137Y-138829696D01*
X55078341Y-139035398D01*
X55202039Y-139220524D01*
X55359476Y-139377961D01*
X55544602Y-139501659D01*
X55750304Y-139586863D01*
X55968675Y-139630300D01*
X56191325Y-139630300D01*
X56409696Y-139586863D01*
X56615398Y-139501659D01*
X56800524Y-139377961D01*
X56957961Y-139220524D01*
X57081659Y-139035398D01*
X57166863Y-138829696D01*
X57210300Y-138611325D01*
X57210300Y-138388675D01*
X57166863Y-138170304D01*
X57081659Y-137964602D01*
X56957961Y-137779476D01*
X56800524Y-137622039D01*
X56615398Y-137498341D01*
X56409696Y-137413137D01*
X56191325Y-137369700D01*
X55968675Y-137369700D01*
X55750304Y-137413137D01*
X55544602Y-137498341D01*
X55359476Y-137622039D01*
X55202039Y-137779476D01*
X55078341Y-137964602D01*
X54993137Y-138170304D01*
X54949700Y-138388675D01*
X52960000Y-138388675D01*
X52960000Y-125553652D01*
X54314100Y-125553652D01*
X54314100Y-125846348D01*
X54371202Y-126133421D01*
X54483212Y-126403838D01*
X54645826Y-126647206D01*
X54852794Y-126854174D01*
X55096162Y-127016788D01*
X55366579Y-127128798D01*
X55653652Y-127185900D01*
X55946348Y-127185900D01*
X56233421Y-127128798D01*
X56503838Y-127016788D01*
X56747206Y-126854174D01*
X56954174Y-126647206D01*
X57116788Y-126403838D01*
X57228798Y-126133421D01*
X57285900Y-125846348D01*
X57285900Y-125553652D01*
X57228798Y-125266579D01*
X57116788Y-124996162D01*
X56954174Y-124752794D01*
X56747206Y-124545826D01*
X56503838Y-124383212D01*
X56233421Y-124271202D01*
X55946348Y-124214100D01*
X55653652Y-124214100D01*
X55366579Y-124271202D01*
X55096162Y-124383212D01*
X54852794Y-124545826D01*
X54645826Y-124752794D01*
X54483212Y-124996162D01*
X54371202Y-125266579D01*
X54314100Y-125553652D01*
X52960000Y-125553652D01*
X52960000Y-121388675D01*
X54949700Y-121388675D01*
X54949700Y-121611325D01*
X54993137Y-121829696D01*
X55078341Y-122035398D01*
X55202039Y-122220524D01*
X55359476Y-122377961D01*
X55544602Y-122501659D01*
X55750304Y-122586863D01*
X55968675Y-122630300D01*
X56191325Y-122630300D01*
X56409696Y-122586863D01*
X56615398Y-122501659D01*
X56800524Y-122377961D01*
X56957961Y-122220524D01*
X57081659Y-122035398D01*
X57166863Y-121829696D01*
X57210300Y-121611325D01*
X57210300Y-121388675D01*
X57166863Y-121170304D01*
X57081659Y-120964602D01*
X56957961Y-120779476D01*
X56800524Y-120622039D01*
X56615398Y-120498341D01*
X56409696Y-120413137D01*
X56191325Y-120369700D01*
X55968675Y-120369700D01*
X55750304Y-120413137D01*
X55544602Y-120498341D01*
X55359476Y-120622039D01*
X55202039Y-120779476D01*
X55078341Y-120964602D01*
X54993137Y-121170304D01*
X54949700Y-121388675D01*
X52960000Y-121388675D01*
X52960000Y-112337391D01*
X54649000Y-112337391D01*
X54649000Y-112662609D01*
X54712447Y-112981579D01*
X54836903Y-113282042D01*
X55017585Y-113552451D01*
X55247549Y-113782415D01*
X55517958Y-113963097D01*
X55818421Y-114087553D01*
X56137391Y-114151000D01*
X56462609Y-114151000D01*
X56781579Y-114087553D01*
X57082042Y-113963097D01*
X57340001Y-113790734D01*
X57340000Y-128209265D01*
X57082042Y-128036903D01*
X56781579Y-127912447D01*
X56462609Y-127849000D01*
X56137391Y-127849000D01*
X55818421Y-127912447D01*
X55517958Y-128036903D01*
X55247549Y-128217585D01*
X55017585Y-128447549D01*
X54836903Y-128717958D01*
X54712447Y-129018421D01*
X54649000Y-129337391D01*
X54649000Y-129662609D01*
X54712447Y-129981579D01*
X54836903Y-130282042D01*
X55017585Y-130552451D01*
X55247549Y-130782415D01*
X55517958Y-130963097D01*
X55818421Y-131087553D01*
X56137391Y-131151000D01*
X56462609Y-131151000D01*
X56781579Y-131087553D01*
X57082042Y-130963097D01*
X57352451Y-130782415D01*
X57582415Y-130552451D01*
X57763097Y-130282042D01*
X57887553Y-129981579D01*
X57951000Y-129662609D01*
X57951000Y-129337391D01*
X57948122Y-129322923D01*
X59721577Y-131096379D01*
X59712447Y-131118421D01*
X59649000Y-131437391D01*
X59649000Y-131762609D01*
X59712447Y-132081579D01*
X59836903Y-132382042D01*
X60017585Y-132652451D01*
X60247549Y-132882415D01*
X60517958Y-133063097D01*
X60818421Y-133187553D01*
X61137391Y-133251000D01*
X61462609Y-133251000D01*
X61781579Y-133187553D01*
X61803621Y-133178423D01*
X63940001Y-135314803D01*
X63940000Y-144885198D01*
X61803621Y-147021577D01*
X61781579Y-147012447D01*
X61462609Y-146949000D01*
X61137391Y-146949000D01*
X60818421Y-147012447D01*
X60517958Y-147136903D01*
X60247549Y-147317585D01*
X60017585Y-147547549D01*
X59836903Y-147817958D01*
X59712447Y-148118421D01*
X59649000Y-148437391D01*
X59649000Y-148762609D01*
X59712447Y-149081579D01*
X59721577Y-149103621D01*
X57588998Y-151236201D01*
X57560000Y-151259999D01*
X57536202Y-151288997D01*
X57536201Y-151288998D01*
X57465026Y-151375724D01*
X57394454Y-151507754D01*
X57350998Y-151651015D01*
X57336324Y-151800000D01*
X57340001Y-151837332D01*
X57340000Y-162209265D01*
X57082042Y-162036903D01*
X56781579Y-161912447D01*
X56462609Y-161849000D01*
X56137391Y-161849000D01*
X55818421Y-161912447D01*
X55517958Y-162036903D01*
X55247549Y-162217585D01*
X55017585Y-162447549D01*
X54836903Y-162717958D01*
X54712447Y-163018421D01*
X54649000Y-163337391D01*
X54649000Y-163662609D01*
X54712447Y-163981579D01*
X54836903Y-164282042D01*
X55017585Y-164552451D01*
X55247549Y-164782415D01*
X55517958Y-164963097D01*
X55818421Y-165087553D01*
X56137391Y-165151000D01*
X56462609Y-165151000D01*
X56781579Y-165087553D01*
X57082042Y-164963097D01*
X57352451Y-164782415D01*
X57582415Y-164552451D01*
X57763097Y-164282042D01*
X57887553Y-163981579D01*
X57951000Y-163662609D01*
X57951000Y-163337391D01*
X57948122Y-163322923D01*
X59721577Y-165096379D01*
X59712447Y-165118421D01*
X59649000Y-165437391D01*
X59649000Y-165762609D01*
X59712447Y-166081579D01*
X59836903Y-166382042D01*
X60017585Y-166652451D01*
X60247549Y-166882415D01*
X60517958Y-167063097D01*
X60818421Y-167187553D01*
X61137391Y-167251000D01*
X61462609Y-167251000D01*
X61781579Y-167187553D01*
X62082042Y-167063097D01*
X62352451Y-166882415D01*
X62582415Y-166652451D01*
X62763097Y-166382042D01*
X62887553Y-166081579D01*
X62951000Y-165762609D01*
X62951000Y-165437391D01*
X62887553Y-165118421D01*
X62763097Y-164817958D01*
X62582415Y-164547549D01*
X62352451Y-164317585D01*
X62082042Y-164136903D01*
X61781579Y-164012447D01*
X61462609Y-163949000D01*
X61137391Y-163949000D01*
X60818421Y-164012447D01*
X60796379Y-164021577D01*
X60112193Y-163337391D01*
X72649000Y-163337391D01*
X72649000Y-163662609D01*
X72712447Y-163981579D01*
X72836903Y-164282042D01*
X73017585Y-164552451D01*
X73247549Y-164782415D01*
X73517958Y-164963097D01*
X73818421Y-165087553D01*
X74137391Y-165151000D01*
X74462609Y-165151000D01*
X74781579Y-165087553D01*
X75082042Y-164963097D01*
X75352451Y-164782415D01*
X75582415Y-164552451D01*
X75763097Y-164282042D01*
X75887553Y-163981579D01*
X75951000Y-163662609D01*
X75951000Y-163337391D01*
X75887553Y-163018421D01*
X75763097Y-162717958D01*
X75582415Y-162447549D01*
X75352451Y-162217585D01*
X75082042Y-162036903D01*
X74781579Y-161912447D01*
X74462609Y-161849000D01*
X74137391Y-161849000D01*
X73818421Y-161912447D01*
X73517958Y-162036903D01*
X73247549Y-162217585D01*
X73017585Y-162447549D01*
X72836903Y-162717958D01*
X72712447Y-163018421D01*
X72649000Y-163337391D01*
X60112193Y-163337391D01*
X58860000Y-162085199D01*
X58860000Y-159468594D01*
X58950500Y-159468594D01*
X58950500Y-159931406D01*
X59040790Y-160385324D01*
X59217900Y-160812905D01*
X59475024Y-161197719D01*
X59802281Y-161524976D01*
X60187095Y-161782100D01*
X60614676Y-161959210D01*
X61068594Y-162049500D01*
X61531406Y-162049500D01*
X61985324Y-161959210D01*
X62412905Y-161782100D01*
X62797719Y-161524976D01*
X63124976Y-161197719D01*
X63382100Y-160812905D01*
X63559210Y-160385324D01*
X63649500Y-159931406D01*
X63649500Y-159553652D01*
X65314100Y-159553652D01*
X65314100Y-159846348D01*
X65371202Y-160133421D01*
X65483212Y-160403838D01*
X65645826Y-160647206D01*
X65852794Y-160854174D01*
X66096162Y-161016788D01*
X66366579Y-161128798D01*
X66653652Y-161185900D01*
X66946348Y-161185900D01*
X67233421Y-161128798D01*
X67503838Y-161016788D01*
X67747206Y-160854174D01*
X67954174Y-160647206D01*
X68116788Y-160403838D01*
X68228798Y-160133421D01*
X68285900Y-159846348D01*
X68285900Y-159553652D01*
X72314100Y-159553652D01*
X72314100Y-159846348D01*
X72371202Y-160133421D01*
X72483212Y-160403838D01*
X72645826Y-160647206D01*
X72852794Y-160854174D01*
X73096162Y-161016788D01*
X73366579Y-161128798D01*
X73653652Y-161185900D01*
X73946348Y-161185900D01*
X74233421Y-161128798D01*
X74503838Y-161016788D01*
X74747206Y-160854174D01*
X74954174Y-160647206D01*
X75116788Y-160403838D01*
X75228798Y-160133421D01*
X75285900Y-159846348D01*
X75285900Y-159553652D01*
X75268982Y-159468594D01*
X76950500Y-159468594D01*
X76950500Y-159931406D01*
X77040790Y-160385324D01*
X77217900Y-160812905D01*
X77475024Y-161197719D01*
X77802281Y-161524976D01*
X78187095Y-161782100D01*
X78614676Y-161959210D01*
X79068594Y-162049500D01*
X79531406Y-162049500D01*
X79985324Y-161959210D01*
X80412905Y-161782100D01*
X80797719Y-161524976D01*
X81124976Y-161197719D01*
X81382100Y-160812905D01*
X81559210Y-160385324D01*
X81649500Y-159931406D01*
X81649500Y-159468594D01*
X81559210Y-159014676D01*
X81382100Y-158587095D01*
X81124976Y-158202281D01*
X80797719Y-157875024D01*
X80412905Y-157617900D01*
X79985324Y-157440790D01*
X79531406Y-157350500D01*
X79068594Y-157350500D01*
X78614676Y-157440790D01*
X78187095Y-157617900D01*
X77802281Y-157875024D01*
X77475024Y-158202281D01*
X77217900Y-158587095D01*
X77040790Y-159014676D01*
X76950500Y-159468594D01*
X75268982Y-159468594D01*
X75228798Y-159266579D01*
X75116788Y-158996162D01*
X74954174Y-158752794D01*
X74747206Y-158545826D01*
X74503838Y-158383212D01*
X74233421Y-158271202D01*
X73946348Y-158214100D01*
X73653652Y-158214100D01*
X73366579Y-158271202D01*
X73096162Y-158383212D01*
X72852794Y-158545826D01*
X72645826Y-158752794D01*
X72483212Y-158996162D01*
X72371202Y-159266579D01*
X72314100Y-159553652D01*
X68285900Y-159553652D01*
X68228798Y-159266579D01*
X68116788Y-158996162D01*
X67954174Y-158752794D01*
X67747206Y-158545826D01*
X67503838Y-158383212D01*
X67233421Y-158271202D01*
X66946348Y-158214100D01*
X66653652Y-158214100D01*
X66366579Y-158271202D01*
X66096162Y-158383212D01*
X65852794Y-158545826D01*
X65645826Y-158752794D01*
X65483212Y-158996162D01*
X65371202Y-159266579D01*
X65314100Y-159553652D01*
X63649500Y-159553652D01*
X63649500Y-159468594D01*
X63559210Y-159014676D01*
X63382100Y-158587095D01*
X63124976Y-158202281D01*
X62797719Y-157875024D01*
X62412905Y-157617900D01*
X61985324Y-157440790D01*
X61531406Y-157350500D01*
X61068594Y-157350500D01*
X60614676Y-157440790D01*
X60187095Y-157617900D01*
X59802281Y-157875024D01*
X59475024Y-158202281D01*
X59217900Y-158587095D01*
X59040790Y-159014676D01*
X58950500Y-159468594D01*
X58860000Y-159468594D01*
X58860000Y-155388675D01*
X65389700Y-155388675D01*
X65389700Y-155611325D01*
X65433137Y-155829696D01*
X65518341Y-156035398D01*
X65642039Y-156220524D01*
X65799476Y-156377961D01*
X65984602Y-156501659D01*
X66190304Y-156586863D01*
X66408675Y-156630300D01*
X66631325Y-156630300D01*
X66849696Y-156586863D01*
X67055398Y-156501659D01*
X67240524Y-156377961D01*
X67397961Y-156220524D01*
X67521659Y-156035398D01*
X67606863Y-155829696D01*
X67650300Y-155611325D01*
X67650300Y-155388675D01*
X72949700Y-155388675D01*
X72949700Y-155611325D01*
X72993137Y-155829696D01*
X73078341Y-156035398D01*
X73202039Y-156220524D01*
X73359476Y-156377961D01*
X73544602Y-156501659D01*
X73750304Y-156586863D01*
X73968675Y-156630300D01*
X74191325Y-156630300D01*
X74409696Y-156586863D01*
X74615398Y-156501659D01*
X74800524Y-156377961D01*
X74957961Y-156220524D01*
X75081659Y-156035398D01*
X75166863Y-155829696D01*
X75210300Y-155611325D01*
X75210300Y-155388675D01*
X75166863Y-155170304D01*
X75081659Y-154964602D01*
X74957961Y-154779476D01*
X74800524Y-154622039D01*
X74615398Y-154498341D01*
X74409696Y-154413137D01*
X74191325Y-154369700D01*
X73968675Y-154369700D01*
X73750304Y-154413137D01*
X73544602Y-154498341D01*
X73359476Y-154622039D01*
X73202039Y-154779476D01*
X73078341Y-154964602D01*
X72993137Y-155170304D01*
X72949700Y-155388675D01*
X67650300Y-155388675D01*
X67606863Y-155170304D01*
X67521659Y-154964602D01*
X67397961Y-154779476D01*
X67240524Y-154622039D01*
X67055398Y-154498341D01*
X66849696Y-154413137D01*
X66631325Y-154369700D01*
X66408675Y-154369700D01*
X66190304Y-154413137D01*
X65984602Y-154498341D01*
X65799476Y-154622039D01*
X65642039Y-154779476D01*
X65518341Y-154964602D01*
X65433137Y-155170304D01*
X65389700Y-155388675D01*
X58860000Y-155388675D01*
X58860000Y-152114801D01*
X60796379Y-150178423D01*
X60818421Y-150187553D01*
X61137391Y-150251000D01*
X61462609Y-150251000D01*
X61781579Y-150187553D01*
X62082042Y-150063097D01*
X62352451Y-149882415D01*
X62582415Y-149652451D01*
X62763097Y-149382042D01*
X62887553Y-149081579D01*
X62951000Y-148762609D01*
X62951000Y-148437391D01*
X62887553Y-148118421D01*
X62878423Y-148096379D01*
X65211004Y-145763798D01*
X65240001Y-145740001D01*
X65266332Y-145707917D01*
X65334974Y-145624277D01*
X65405546Y-145492247D01*
X65419105Y-145447549D01*
X65449003Y-145348986D01*
X65460000Y-145237333D01*
X65460000Y-145237324D01*
X65463676Y-145200001D01*
X65460000Y-145162678D01*
X65460000Y-143347799D01*
X65483212Y-143403838D01*
X65645826Y-143647206D01*
X65852794Y-143854174D01*
X66096162Y-144016788D01*
X66366579Y-144128798D01*
X66653652Y-144185900D01*
X66946348Y-144185900D01*
X67233421Y-144128798D01*
X67503838Y-144016788D01*
X67747206Y-143854174D01*
X67954174Y-143647206D01*
X68116788Y-143403838D01*
X68228798Y-143133421D01*
X68285900Y-142846348D01*
X68285900Y-142553652D01*
X68228798Y-142266579D01*
X68116788Y-141996162D01*
X67954174Y-141752794D01*
X67747206Y-141545826D01*
X67503838Y-141383212D01*
X67233421Y-141271202D01*
X66946348Y-141214100D01*
X66653652Y-141214100D01*
X66366579Y-141271202D01*
X66096162Y-141383212D01*
X65852794Y-141545826D01*
X65645826Y-141752794D01*
X65483212Y-141996162D01*
X65460000Y-142052201D01*
X65460000Y-138894549D01*
X65518341Y-139035398D01*
X65642039Y-139220524D01*
X65799476Y-139377961D01*
X65984602Y-139501659D01*
X66190304Y-139586863D01*
X66408675Y-139630300D01*
X66631325Y-139630300D01*
X66849696Y-139586863D01*
X67055398Y-139501659D01*
X67240524Y-139377961D01*
X67397961Y-139220524D01*
X67521659Y-139035398D01*
X67606863Y-138829696D01*
X67650300Y-138611325D01*
X67650300Y-138388675D01*
X67606863Y-138170304D01*
X67521659Y-137964602D01*
X67397961Y-137779476D01*
X67240524Y-137622039D01*
X67055398Y-137498341D01*
X66849696Y-137413137D01*
X66631325Y-137369700D01*
X66408675Y-137369700D01*
X66190304Y-137413137D01*
X65984602Y-137498341D01*
X65799476Y-137622039D01*
X65642039Y-137779476D01*
X65518341Y-137964602D01*
X65460000Y-138105451D01*
X65460000Y-135037322D01*
X65463676Y-134999999D01*
X65460000Y-134962676D01*
X65460000Y-134962667D01*
X65449003Y-134851014D01*
X65405546Y-134707753D01*
X65334974Y-134575723D01*
X65263799Y-134488997D01*
X65240001Y-134459999D01*
X65211003Y-134436201D01*
X62878423Y-132103621D01*
X62887553Y-132081579D01*
X62951000Y-131762609D01*
X62951000Y-131437391D01*
X62887553Y-131118421D01*
X62763097Y-130817958D01*
X62582415Y-130547549D01*
X62352451Y-130317585D01*
X62082042Y-130136903D01*
X61781579Y-130012447D01*
X61462609Y-129949000D01*
X61137391Y-129949000D01*
X60818421Y-130012447D01*
X60796379Y-130021577D01*
X58860000Y-128085199D01*
X58860000Y-125468594D01*
X58950500Y-125468594D01*
X58950500Y-125931406D01*
X59040790Y-126385324D01*
X59217900Y-126812905D01*
X59475024Y-127197719D01*
X59802281Y-127524976D01*
X60187095Y-127782100D01*
X60614676Y-127959210D01*
X61068594Y-128049500D01*
X61531406Y-128049500D01*
X61985324Y-127959210D01*
X62412905Y-127782100D01*
X62797719Y-127524976D01*
X63124976Y-127197719D01*
X63340000Y-126875912D01*
X63340000Y-127062677D01*
X63336324Y-127100000D01*
X63340000Y-127137322D01*
X63340000Y-127137332D01*
X63350997Y-127248985D01*
X63394454Y-127392246D01*
X63465026Y-127524276D01*
X63504871Y-127572826D01*
X63559999Y-127640001D01*
X63589003Y-127663804D01*
X68640001Y-132714803D01*
X68640000Y-145462678D01*
X68636324Y-145500000D01*
X68640000Y-145537322D01*
X68640000Y-145537332D01*
X68650997Y-145648985D01*
X68678606Y-145740001D01*
X68694454Y-145792246D01*
X68765026Y-145924276D01*
X68797362Y-145963677D01*
X68859999Y-146040001D01*
X68889003Y-146063804D01*
X71936200Y-149111002D01*
X71959999Y-149140001D01*
X71988997Y-149163799D01*
X72075723Y-149234974D01*
X72207753Y-149305546D01*
X72351014Y-149349003D01*
X72462667Y-149360000D01*
X72462676Y-149360000D01*
X72499999Y-149363676D01*
X72537322Y-149360000D01*
X77827773Y-149360000D01*
X77836903Y-149382042D01*
X78017585Y-149652451D01*
X78247549Y-149882415D01*
X78517958Y-150063097D01*
X78818421Y-150187553D01*
X79137391Y-150251000D01*
X79462609Y-150251000D01*
X79781579Y-150187553D01*
X79803621Y-150178423D01*
X81840001Y-152214803D01*
X81840000Y-161985198D01*
X79803621Y-164021577D01*
X79781579Y-164012447D01*
X79462609Y-163949000D01*
X79137391Y-163949000D01*
X78818421Y-164012447D01*
X78517958Y-164136903D01*
X78247549Y-164317585D01*
X78017585Y-164547549D01*
X77836903Y-164817958D01*
X77712447Y-165118421D01*
X77649000Y-165437391D01*
X77649000Y-165762609D01*
X77712447Y-166081579D01*
X77836903Y-166382042D01*
X78017585Y-166652451D01*
X78247549Y-166882415D01*
X78517958Y-167063097D01*
X78818421Y-167187553D01*
X79137391Y-167251000D01*
X79462609Y-167251000D01*
X79781579Y-167187553D01*
X80082042Y-167063097D01*
X80352451Y-166882415D01*
X80582415Y-166652451D01*
X80763097Y-166382042D01*
X80887553Y-166081579D01*
X80951000Y-165762609D01*
X80951000Y-165437391D01*
X80887553Y-165118421D01*
X80878423Y-165096379D01*
X83111004Y-162863798D01*
X83140001Y-162840001D01*
X83234974Y-162724276D01*
X83305546Y-162592247D01*
X83349003Y-162448986D01*
X83360000Y-162337333D01*
X83360000Y-162337325D01*
X83363676Y-162300000D01*
X83360000Y-162262675D01*
X83360000Y-160077104D01*
X83371202Y-160133421D01*
X83483212Y-160403838D01*
X83645826Y-160647206D01*
X83852794Y-160854174D01*
X84096162Y-161016788D01*
X84366579Y-161128798D01*
X84653652Y-161185900D01*
X84946348Y-161185900D01*
X85233421Y-161128798D01*
X85503838Y-161016788D01*
X85747206Y-160854174D01*
X85954174Y-160647206D01*
X86116788Y-160403838D01*
X86228798Y-160133421D01*
X86285900Y-159846348D01*
X86285900Y-159553652D01*
X86228798Y-159266579D01*
X86116788Y-158996162D01*
X85954174Y-158752794D01*
X85747206Y-158545826D01*
X85503838Y-158383212D01*
X85233421Y-158271202D01*
X84946348Y-158214100D01*
X84653652Y-158214100D01*
X84366579Y-158271202D01*
X84096162Y-158383212D01*
X83852794Y-158545826D01*
X83645826Y-158752794D01*
X83483212Y-158996162D01*
X83371202Y-159266579D01*
X83360000Y-159322896D01*
X83360000Y-155388675D01*
X83389700Y-155388675D01*
X83389700Y-155611325D01*
X83433137Y-155829696D01*
X83518341Y-156035398D01*
X83642039Y-156220524D01*
X83799476Y-156377961D01*
X83984602Y-156501659D01*
X84190304Y-156586863D01*
X84408675Y-156630300D01*
X84631325Y-156630300D01*
X84849696Y-156586863D01*
X85055398Y-156501659D01*
X85240524Y-156377961D01*
X85397961Y-156220524D01*
X85521659Y-156035398D01*
X85606863Y-155829696D01*
X85650300Y-155611325D01*
X85650300Y-155388675D01*
X85606863Y-155170304D01*
X85521659Y-154964602D01*
X85397961Y-154779476D01*
X85240524Y-154622039D01*
X85055398Y-154498341D01*
X84849696Y-154413137D01*
X84631325Y-154369700D01*
X84408675Y-154369700D01*
X84190304Y-154413137D01*
X83984602Y-154498341D01*
X83799476Y-154622039D01*
X83642039Y-154779476D01*
X83518341Y-154964602D01*
X83433137Y-155170304D01*
X83389700Y-155388675D01*
X83360000Y-155388675D01*
X83360000Y-151937325D01*
X83363676Y-151900000D01*
X83360000Y-151862675D01*
X83360000Y-151862667D01*
X83349003Y-151751014D01*
X83305546Y-151607753D01*
X83234974Y-151475724D01*
X83140001Y-151359999D01*
X83111003Y-151336201D01*
X80878423Y-149103621D01*
X80887553Y-149081579D01*
X80951000Y-148762609D01*
X80951000Y-148437391D01*
X80887553Y-148118421D01*
X80763097Y-147817958D01*
X80582415Y-147547549D01*
X80352451Y-147317585D01*
X80082042Y-147136903D01*
X79781579Y-147012447D01*
X79462609Y-146949000D01*
X79137391Y-146949000D01*
X78818421Y-147012447D01*
X78517958Y-147136903D01*
X78247549Y-147317585D01*
X78017585Y-147547549D01*
X77836903Y-147817958D01*
X77827773Y-147840000D01*
X75266269Y-147840000D01*
X75352451Y-147782415D01*
X75582415Y-147552451D01*
X75763097Y-147282042D01*
X75887553Y-146981579D01*
X75951000Y-146662609D01*
X75951000Y-146337391D01*
X75887553Y-146018421D01*
X75763097Y-145717958D01*
X75582415Y-145447549D01*
X75352451Y-145217585D01*
X75082042Y-145036903D01*
X74781579Y-144912447D01*
X74462609Y-144849000D01*
X74137391Y-144849000D01*
X73818421Y-144912447D01*
X73517958Y-145036903D01*
X73247549Y-145217585D01*
X73017585Y-145447549D01*
X72836903Y-145717958D01*
X72712447Y-146018421D01*
X72649000Y-146337391D01*
X72649000Y-146662609D01*
X72712447Y-146981579D01*
X72836903Y-147282042D01*
X73017585Y-147552451D01*
X73247549Y-147782415D01*
X73333731Y-147840000D01*
X72814802Y-147840000D01*
X70160000Y-145185199D01*
X70160000Y-142553652D01*
X72314100Y-142553652D01*
X72314100Y-142846348D01*
X72371202Y-143133421D01*
X72483212Y-143403838D01*
X72645826Y-143647206D01*
X72852794Y-143854174D01*
X73096162Y-144016788D01*
X73366579Y-144128798D01*
X73653652Y-144185900D01*
X73946348Y-144185900D01*
X74233421Y-144128798D01*
X74503838Y-144016788D01*
X74747206Y-143854174D01*
X74954174Y-143647206D01*
X75116788Y-143403838D01*
X75228798Y-143133421D01*
X75285900Y-142846348D01*
X75285900Y-142553652D01*
X75268982Y-142468594D01*
X76950500Y-142468594D01*
X76950500Y-142931406D01*
X77040790Y-143385324D01*
X77217900Y-143812905D01*
X77475024Y-144197719D01*
X77802281Y-144524976D01*
X78187095Y-144782100D01*
X78614676Y-144959210D01*
X79068594Y-145049500D01*
X79531406Y-145049500D01*
X79985324Y-144959210D01*
X80412905Y-144782100D01*
X80797719Y-144524976D01*
X81124976Y-144197719D01*
X81382100Y-143812905D01*
X81559210Y-143385324D01*
X81649500Y-142931406D01*
X81649500Y-142604801D01*
X86640001Y-147595303D01*
X86640000Y-162162678D01*
X86636324Y-162200000D01*
X86640000Y-162237322D01*
X86640000Y-162237332D01*
X86650997Y-162348985D01*
X86694454Y-162492246D01*
X86765026Y-162624276D01*
X86804871Y-162672826D01*
X86859999Y-162740001D01*
X86889003Y-162763804D01*
X90236201Y-166111003D01*
X90259999Y-166140001D01*
X90288997Y-166163799D01*
X90375723Y-166234974D01*
X90506466Y-166304858D01*
X90507753Y-166305546D01*
X90651014Y-166349003D01*
X90762667Y-166360000D01*
X90762676Y-166360000D01*
X90799999Y-166363676D01*
X90837322Y-166360000D01*
X95827773Y-166360000D01*
X95836903Y-166382042D01*
X96017585Y-166652451D01*
X96247549Y-166882415D01*
X96517958Y-167063097D01*
X96818421Y-167187553D01*
X97137391Y-167251000D01*
X97462609Y-167251000D01*
X97781579Y-167187553D01*
X98082042Y-167063097D01*
X98352451Y-166882415D01*
X98582415Y-166652451D01*
X98763097Y-166382042D01*
X98887553Y-166081579D01*
X98951000Y-165762609D01*
X98951000Y-165437391D01*
X98887553Y-165118421D01*
X98763097Y-164817958D01*
X98582415Y-164547549D01*
X98352451Y-164317585D01*
X98082042Y-164136903D01*
X97781579Y-164012447D01*
X97462609Y-163949000D01*
X97137391Y-163949000D01*
X96818421Y-164012447D01*
X96517958Y-164136903D01*
X96247549Y-164317585D01*
X96017585Y-164547549D01*
X95836903Y-164817958D01*
X95827773Y-164840000D01*
X93266269Y-164840000D01*
X93352451Y-164782415D01*
X93582415Y-164552451D01*
X93763097Y-164282042D01*
X93887553Y-163981579D01*
X93951000Y-163662609D01*
X93951000Y-163337391D01*
X93887553Y-163018421D01*
X93763097Y-162717958D01*
X93582415Y-162447549D01*
X93352451Y-162217585D01*
X93082042Y-162036903D01*
X92781579Y-161912447D01*
X92462609Y-161849000D01*
X92137391Y-161849000D01*
X91818421Y-161912447D01*
X91517958Y-162036903D01*
X91247549Y-162217585D01*
X91017585Y-162447549D01*
X90836903Y-162717958D01*
X90712447Y-163018421D01*
X90649000Y-163337391D01*
X90649000Y-163662609D01*
X90712447Y-163981579D01*
X90836903Y-164282042D01*
X91017585Y-164552451D01*
X91247549Y-164782415D01*
X91333731Y-164840000D01*
X91114802Y-164840000D01*
X88160000Y-161885199D01*
X88160000Y-159553652D01*
X90314100Y-159553652D01*
X90314100Y-159846348D01*
X90371202Y-160133421D01*
X90483212Y-160403838D01*
X90645826Y-160647206D01*
X90852794Y-160854174D01*
X91096162Y-161016788D01*
X91366579Y-161128798D01*
X91653652Y-161185900D01*
X91946348Y-161185900D01*
X92233421Y-161128798D01*
X92503838Y-161016788D01*
X92747206Y-160854174D01*
X92954174Y-160647206D01*
X93116788Y-160403838D01*
X93228798Y-160133421D01*
X93285900Y-159846348D01*
X93285900Y-159553652D01*
X93268982Y-159468594D01*
X94950500Y-159468594D01*
X94950500Y-159931406D01*
X95040790Y-160385324D01*
X95217900Y-160812905D01*
X95475024Y-161197719D01*
X95802281Y-161524976D01*
X96187095Y-161782100D01*
X96614676Y-161959210D01*
X97068594Y-162049500D01*
X97531406Y-162049500D01*
X97985324Y-161959210D01*
X98412905Y-161782100D01*
X98797719Y-161524976D01*
X99124976Y-161197719D01*
X99382100Y-160812905D01*
X99559210Y-160385324D01*
X99649500Y-159931406D01*
X99649500Y-159553652D01*
X101314100Y-159553652D01*
X101314100Y-159846348D01*
X101371202Y-160133421D01*
X101483212Y-160403838D01*
X101645826Y-160647206D01*
X101852794Y-160854174D01*
X102096162Y-161016788D01*
X102366579Y-161128798D01*
X102653652Y-161185900D01*
X102946348Y-161185900D01*
X103233421Y-161128798D01*
X103503838Y-161016788D01*
X103747206Y-160854174D01*
X103954174Y-160647206D01*
X104116788Y-160403838D01*
X104228798Y-160133421D01*
X104285900Y-159846348D01*
X104285900Y-159553652D01*
X104228798Y-159266579D01*
X104116788Y-158996162D01*
X103954174Y-158752794D01*
X103747206Y-158545826D01*
X103503838Y-158383212D01*
X103233421Y-158271202D01*
X102946348Y-158214100D01*
X102653652Y-158214100D01*
X102366579Y-158271202D01*
X102096162Y-158383212D01*
X101852794Y-158545826D01*
X101645826Y-158752794D01*
X101483212Y-158996162D01*
X101371202Y-159266579D01*
X101314100Y-159553652D01*
X99649500Y-159553652D01*
X99649500Y-159468594D01*
X99559210Y-159014676D01*
X99382100Y-158587095D01*
X99124976Y-158202281D01*
X98797719Y-157875024D01*
X98412905Y-157617900D01*
X97985324Y-157440790D01*
X97531406Y-157350500D01*
X97068594Y-157350500D01*
X96614676Y-157440790D01*
X96187095Y-157617900D01*
X95802281Y-157875024D01*
X95475024Y-158202281D01*
X95217900Y-158587095D01*
X95040790Y-159014676D01*
X94950500Y-159468594D01*
X93268982Y-159468594D01*
X93228798Y-159266579D01*
X93116788Y-158996162D01*
X92954174Y-158752794D01*
X92747206Y-158545826D01*
X92503838Y-158383212D01*
X92233421Y-158271202D01*
X91946348Y-158214100D01*
X91653652Y-158214100D01*
X91366579Y-158271202D01*
X91096162Y-158383212D01*
X90852794Y-158545826D01*
X90645826Y-158752794D01*
X90483212Y-158996162D01*
X90371202Y-159266579D01*
X90314100Y-159553652D01*
X88160000Y-159553652D01*
X88160000Y-155388675D01*
X90949700Y-155388675D01*
X90949700Y-155611325D01*
X90993137Y-155829696D01*
X91078341Y-156035398D01*
X91202039Y-156220524D01*
X91359476Y-156377961D01*
X91544602Y-156501659D01*
X91750304Y-156586863D01*
X91968675Y-156630300D01*
X92191325Y-156630300D01*
X92409696Y-156586863D01*
X92615398Y-156501659D01*
X92800524Y-156377961D01*
X92957961Y-156220524D01*
X93081659Y-156035398D01*
X93166863Y-155829696D01*
X93210300Y-155611325D01*
X93210300Y-155388675D01*
X101389700Y-155388675D01*
X101389700Y-155611325D01*
X101433137Y-155829696D01*
X101518341Y-156035398D01*
X101642039Y-156220524D01*
X101799476Y-156377961D01*
X101984602Y-156501659D01*
X102190304Y-156586863D01*
X102408675Y-156630300D01*
X102631325Y-156630300D01*
X102849696Y-156586863D01*
X103055398Y-156501659D01*
X103240524Y-156377961D01*
X103397961Y-156220524D01*
X103521659Y-156035398D01*
X103606863Y-155829696D01*
X103650300Y-155611325D01*
X103650300Y-155388675D01*
X103606863Y-155170304D01*
X103521659Y-154964602D01*
X103397961Y-154779476D01*
X103240524Y-154622039D01*
X103055398Y-154498341D01*
X102849696Y-154413137D01*
X102631325Y-154369700D01*
X102408675Y-154369700D01*
X102190304Y-154413137D01*
X101984602Y-154498341D01*
X101799476Y-154622039D01*
X101642039Y-154779476D01*
X101518341Y-154964602D01*
X101433137Y-155170304D01*
X101389700Y-155388675D01*
X93210300Y-155388675D01*
X93166863Y-155170304D01*
X93081659Y-154964602D01*
X92957961Y-154779476D01*
X92800524Y-154622039D01*
X92615398Y-154498341D01*
X92409696Y-154413137D01*
X92191325Y-154369700D01*
X91968675Y-154369700D01*
X91750304Y-154413137D01*
X91544602Y-154498341D01*
X91359476Y-154622039D01*
X91202039Y-154779476D01*
X91078341Y-154964602D01*
X90993137Y-155170304D01*
X90949700Y-155388675D01*
X88160000Y-155388675D01*
X88160000Y-148437391D01*
X95649000Y-148437391D01*
X95649000Y-148762609D01*
X95712447Y-149081579D01*
X95836903Y-149382042D01*
X96017585Y-149652451D01*
X96247549Y-149882415D01*
X96517958Y-150063097D01*
X96818421Y-150187553D01*
X97137391Y-150251000D01*
X97462609Y-150251000D01*
X97781579Y-150187553D01*
X98082042Y-150063097D01*
X98352451Y-149882415D01*
X98582415Y-149652451D01*
X98763097Y-149382042D01*
X98887553Y-149081579D01*
X98951000Y-148762609D01*
X98951000Y-148437391D01*
X98887553Y-148118421D01*
X98763097Y-147817958D01*
X98582415Y-147547549D01*
X98352451Y-147317585D01*
X98082042Y-147136903D01*
X97781579Y-147012447D01*
X97462609Y-146949000D01*
X97137391Y-146949000D01*
X96818421Y-147012447D01*
X96517958Y-147136903D01*
X96247549Y-147317585D01*
X96017585Y-147547549D01*
X95836903Y-147817958D01*
X95712447Y-148118421D01*
X95649000Y-148437391D01*
X88160000Y-148437391D01*
X88160000Y-147317822D01*
X88163676Y-147280499D01*
X88160000Y-147243177D01*
X88160000Y-147243167D01*
X88149003Y-147131514D01*
X88105546Y-146988253D01*
X88084565Y-146949000D01*
X88034974Y-146856223D01*
X87963799Y-146769497D01*
X87940001Y-146740499D01*
X87911003Y-146716701D01*
X87531693Y-146337391D01*
X90649000Y-146337391D01*
X90649000Y-146662609D01*
X90712447Y-146981579D01*
X90836903Y-147282042D01*
X91017585Y-147552451D01*
X91247549Y-147782415D01*
X91517958Y-147963097D01*
X91818421Y-148087553D01*
X92137391Y-148151000D01*
X92462609Y-148151000D01*
X92781579Y-148087553D01*
X93082042Y-147963097D01*
X93352451Y-147782415D01*
X93582415Y-147552451D01*
X93763097Y-147282042D01*
X93887553Y-146981579D01*
X93951000Y-146662609D01*
X93951000Y-146337391D01*
X93887553Y-146018421D01*
X93763097Y-145717958D01*
X93582415Y-145447549D01*
X93352451Y-145217585D01*
X93082042Y-145036903D01*
X92781579Y-144912447D01*
X92462609Y-144849000D01*
X92137391Y-144849000D01*
X91818421Y-144912447D01*
X91517958Y-145036903D01*
X91247549Y-145217585D01*
X91017585Y-145447549D01*
X90836903Y-145717958D01*
X90712447Y-146018421D01*
X90649000Y-146337391D01*
X87531693Y-146337391D01*
X85296833Y-144102532D01*
X85503838Y-144016788D01*
X85747206Y-143854174D01*
X85954174Y-143647206D01*
X86116788Y-143403838D01*
X86228798Y-143133421D01*
X86285900Y-142846348D01*
X86285900Y-142553652D01*
X90314100Y-142553652D01*
X90314100Y-142846348D01*
X90371202Y-143133421D01*
X90483212Y-143403838D01*
X90645826Y-143647206D01*
X90852794Y-143854174D01*
X91096162Y-144016788D01*
X91366579Y-144128798D01*
X91653652Y-144185900D01*
X91946348Y-144185900D01*
X92233421Y-144128798D01*
X92503838Y-144016788D01*
X92747206Y-143854174D01*
X92954174Y-143647206D01*
X93116788Y-143403838D01*
X93228798Y-143133421D01*
X93285900Y-142846348D01*
X93285900Y-142553652D01*
X93268982Y-142468594D01*
X94950500Y-142468594D01*
X94950500Y-142931406D01*
X95040790Y-143385324D01*
X95217900Y-143812905D01*
X95475024Y-144197719D01*
X95802281Y-144524976D01*
X96187095Y-144782100D01*
X96614676Y-144959210D01*
X97068594Y-145049500D01*
X97531406Y-145049500D01*
X97985324Y-144959210D01*
X98412905Y-144782100D01*
X98797719Y-144524976D01*
X99124976Y-144197719D01*
X99382100Y-143812905D01*
X99559210Y-143385324D01*
X99649500Y-142931406D01*
X99649500Y-142553652D01*
X101314100Y-142553652D01*
X101314100Y-142846348D01*
X101371202Y-143133421D01*
X101483212Y-143403838D01*
X101645826Y-143647206D01*
X101852794Y-143854174D01*
X102096162Y-144016788D01*
X102366579Y-144128798D01*
X102653652Y-144185900D01*
X102946348Y-144185900D01*
X103233421Y-144128798D01*
X103503838Y-144016788D01*
X103747206Y-143854174D01*
X103954174Y-143647206D01*
X104116788Y-143403838D01*
X104228798Y-143133421D01*
X104285900Y-142846348D01*
X104285900Y-142553652D01*
X104228798Y-142266579D01*
X104116788Y-141996162D01*
X103954174Y-141752794D01*
X103747206Y-141545826D01*
X103503838Y-141383212D01*
X103233421Y-141271202D01*
X102946348Y-141214100D01*
X102653652Y-141214100D01*
X102366579Y-141271202D01*
X102096162Y-141383212D01*
X101852794Y-141545826D01*
X101645826Y-141752794D01*
X101483212Y-141996162D01*
X101371202Y-142266579D01*
X101314100Y-142553652D01*
X99649500Y-142553652D01*
X99649500Y-142468594D01*
X99559210Y-142014676D01*
X99382100Y-141587095D01*
X99124976Y-141202281D01*
X98797719Y-140875024D01*
X98412905Y-140617900D01*
X97985324Y-140440790D01*
X97531406Y-140350500D01*
X97068594Y-140350500D01*
X96614676Y-140440790D01*
X96187095Y-140617900D01*
X95802281Y-140875024D01*
X95475024Y-141202281D01*
X95217900Y-141587095D01*
X95040790Y-142014676D01*
X94950500Y-142468594D01*
X93268982Y-142468594D01*
X93228798Y-142266579D01*
X93116788Y-141996162D01*
X92954174Y-141752794D01*
X92747206Y-141545826D01*
X92503838Y-141383212D01*
X92233421Y-141271202D01*
X91946348Y-141214100D01*
X91653652Y-141214100D01*
X91366579Y-141271202D01*
X91096162Y-141383212D01*
X90852794Y-141545826D01*
X90645826Y-141752794D01*
X90483212Y-141996162D01*
X90371202Y-142266579D01*
X90314100Y-142553652D01*
X86285900Y-142553652D01*
X86228798Y-142266579D01*
X86116788Y-141996162D01*
X85954174Y-141752794D01*
X85747206Y-141545826D01*
X85503838Y-141383212D01*
X85233421Y-141271202D01*
X84946348Y-141214100D01*
X84653652Y-141214100D01*
X84366579Y-141271202D01*
X84096162Y-141383212D01*
X83852794Y-141545826D01*
X83645826Y-141752794D01*
X83483212Y-141996162D01*
X83397468Y-142203167D01*
X82315000Y-141120699D01*
X82315000Y-141058561D01*
X82275226Y-140858602D01*
X82197205Y-140670244D01*
X82083937Y-140500726D01*
X81939774Y-140356563D01*
X81770256Y-140243295D01*
X81581898Y-140165274D01*
X81381939Y-140125500D01*
X81178061Y-140125500D01*
X80978102Y-140165274D01*
X80789744Y-140243295D01*
X80620226Y-140356563D01*
X80476063Y-140500726D01*
X80401051Y-140612990D01*
X79985324Y-140440790D01*
X79531406Y-140350500D01*
X79068594Y-140350500D01*
X78614676Y-140440790D01*
X78187095Y-140617900D01*
X77802281Y-140875024D01*
X77475024Y-141202281D01*
X77217900Y-141587095D01*
X77040790Y-142014676D01*
X76950500Y-142468594D01*
X75268982Y-142468594D01*
X75228798Y-142266579D01*
X75116788Y-141996162D01*
X74954174Y-141752794D01*
X74747206Y-141545826D01*
X74503838Y-141383212D01*
X74233421Y-141271202D01*
X73946348Y-141214100D01*
X73653652Y-141214100D01*
X73366579Y-141271202D01*
X73096162Y-141383212D01*
X72852794Y-141545826D01*
X72645826Y-141752794D01*
X72483212Y-141996162D01*
X72371202Y-142266579D01*
X72314100Y-142553652D01*
X70160000Y-142553652D01*
X70160000Y-138388675D01*
X72949700Y-138388675D01*
X72949700Y-138611325D01*
X72993137Y-138829696D01*
X73078341Y-139035398D01*
X73202039Y-139220524D01*
X73359476Y-139377961D01*
X73544602Y-139501659D01*
X73750304Y-139586863D01*
X73968675Y-139630300D01*
X74191325Y-139630300D01*
X74409696Y-139586863D01*
X74615398Y-139501659D01*
X74800524Y-139377961D01*
X74957961Y-139220524D01*
X75081659Y-139035398D01*
X75166863Y-138829696D01*
X75210300Y-138611325D01*
X75210300Y-138388675D01*
X83389700Y-138388675D01*
X83389700Y-138611325D01*
X83433137Y-138829696D01*
X83518341Y-139035398D01*
X83642039Y-139220524D01*
X83799476Y-139377961D01*
X83984602Y-139501659D01*
X84190304Y-139586863D01*
X84408675Y-139630300D01*
X84631325Y-139630300D01*
X84849696Y-139586863D01*
X85055398Y-139501659D01*
X85240524Y-139377961D01*
X85397961Y-139220524D01*
X85521659Y-139035398D01*
X85606863Y-138829696D01*
X85650300Y-138611325D01*
X85650300Y-138388675D01*
X90949700Y-138388675D01*
X90949700Y-138611325D01*
X90993137Y-138829696D01*
X91078341Y-139035398D01*
X91202039Y-139220524D01*
X91359476Y-139377961D01*
X91544602Y-139501659D01*
X91750304Y-139586863D01*
X91968675Y-139630300D01*
X92191325Y-139630300D01*
X92409696Y-139586863D01*
X92615398Y-139501659D01*
X92800524Y-139377961D01*
X92957961Y-139220524D01*
X93081659Y-139035398D01*
X93166863Y-138829696D01*
X93210300Y-138611325D01*
X93210300Y-138388675D01*
X101389700Y-138388675D01*
X101389700Y-138611325D01*
X101433137Y-138829696D01*
X101518341Y-139035398D01*
X101642039Y-139220524D01*
X101799476Y-139377961D01*
X101984602Y-139501659D01*
X102190304Y-139586863D01*
X102408675Y-139630300D01*
X102631325Y-139630300D01*
X102849696Y-139586863D01*
X103055398Y-139501659D01*
X103240524Y-139377961D01*
X103397961Y-139220524D01*
X103521659Y-139035398D01*
X103606863Y-138829696D01*
X103650300Y-138611325D01*
X103650300Y-138388675D01*
X103606863Y-138170304D01*
X103521659Y-137964602D01*
X103397961Y-137779476D01*
X103240524Y-137622039D01*
X103055398Y-137498341D01*
X102849696Y-137413137D01*
X102631325Y-137369700D01*
X102408675Y-137369700D01*
X102190304Y-137413137D01*
X101984602Y-137498341D01*
X101799476Y-137622039D01*
X101642039Y-137779476D01*
X101518341Y-137964602D01*
X101433137Y-138170304D01*
X101389700Y-138388675D01*
X93210300Y-138388675D01*
X93166863Y-138170304D01*
X93081659Y-137964602D01*
X92957961Y-137779476D01*
X92800524Y-137622039D01*
X92615398Y-137498341D01*
X92409696Y-137413137D01*
X92191325Y-137369700D01*
X91968675Y-137369700D01*
X91750304Y-137413137D01*
X91544602Y-137498341D01*
X91359476Y-137622039D01*
X91202039Y-137779476D01*
X91078341Y-137964602D01*
X90993137Y-138170304D01*
X90949700Y-138388675D01*
X85650300Y-138388675D01*
X85606863Y-138170304D01*
X85521659Y-137964602D01*
X85397961Y-137779476D01*
X85240524Y-137622039D01*
X85055398Y-137498341D01*
X84849696Y-137413137D01*
X84631325Y-137369700D01*
X84408675Y-137369700D01*
X84190304Y-137413137D01*
X83984602Y-137498341D01*
X83799476Y-137622039D01*
X83642039Y-137779476D01*
X83518341Y-137964602D01*
X83433137Y-138170304D01*
X83389700Y-138388675D01*
X75210300Y-138388675D01*
X75166863Y-138170304D01*
X75081659Y-137964602D01*
X74957961Y-137779476D01*
X74800524Y-137622039D01*
X74615398Y-137498341D01*
X74409696Y-137413137D01*
X74191325Y-137369700D01*
X73968675Y-137369700D01*
X73750304Y-137413137D01*
X73544602Y-137498341D01*
X73359476Y-137622039D01*
X73202039Y-137779476D01*
X73078341Y-137964602D01*
X72993137Y-138170304D01*
X72949700Y-138388675D01*
X70160000Y-138388675D01*
X70160000Y-132437323D01*
X70163676Y-132400000D01*
X70160000Y-132362677D01*
X70160000Y-132362667D01*
X70149003Y-132251014D01*
X70105546Y-132107753D01*
X70060926Y-132024276D01*
X70034974Y-131975723D01*
X69963799Y-131888997D01*
X69940001Y-131859999D01*
X69911003Y-131836201D01*
X67412193Y-129337391D01*
X72649000Y-129337391D01*
X72649000Y-129662609D01*
X72712447Y-129981579D01*
X72836903Y-130282042D01*
X73017585Y-130552451D01*
X73247549Y-130782415D01*
X73517958Y-130963097D01*
X73818421Y-131087553D01*
X74137391Y-131151000D01*
X74462609Y-131151000D01*
X74781579Y-131087553D01*
X75082042Y-130963097D01*
X75352451Y-130782415D01*
X75582415Y-130552451D01*
X75763097Y-130282042D01*
X75887553Y-129981579D01*
X75951000Y-129662609D01*
X75951000Y-129337391D01*
X75887553Y-129018421D01*
X75763097Y-128717958D01*
X75582415Y-128447549D01*
X75352451Y-128217585D01*
X75082042Y-128036903D01*
X74781579Y-127912447D01*
X74462609Y-127849000D01*
X74137391Y-127849000D01*
X73818421Y-127912447D01*
X73517958Y-128036903D01*
X73247549Y-128217585D01*
X73017585Y-128447549D01*
X72836903Y-128717958D01*
X72712447Y-129018421D01*
X72649000Y-129337391D01*
X67412193Y-129337391D01*
X64860000Y-126785199D01*
X64860000Y-125553652D01*
X65314100Y-125553652D01*
X65314100Y-125846348D01*
X65371202Y-126133421D01*
X65483212Y-126403838D01*
X65645826Y-126647206D01*
X65852794Y-126854174D01*
X66096162Y-127016788D01*
X66366579Y-127128798D01*
X66653652Y-127185900D01*
X66946348Y-127185900D01*
X67233421Y-127128798D01*
X67503838Y-127016788D01*
X67747206Y-126854174D01*
X67954174Y-126647206D01*
X68116788Y-126403838D01*
X68228798Y-126133421D01*
X68285900Y-125846348D01*
X68285900Y-125553652D01*
X72314100Y-125553652D01*
X72314100Y-125846348D01*
X72371202Y-126133421D01*
X72483212Y-126403838D01*
X72645826Y-126647206D01*
X72852794Y-126854174D01*
X73096162Y-127016788D01*
X73366579Y-127128798D01*
X73653652Y-127185900D01*
X73946348Y-127185900D01*
X74233421Y-127128798D01*
X74503838Y-127016788D01*
X74747206Y-126854174D01*
X74954174Y-126647206D01*
X75116788Y-126403838D01*
X75228798Y-126133421D01*
X75285900Y-125846348D01*
X75285900Y-125553652D01*
X75228798Y-125266579D01*
X75116788Y-124996162D01*
X74954174Y-124752794D01*
X74747206Y-124545826D01*
X74503838Y-124383212D01*
X74233421Y-124271202D01*
X73946348Y-124214100D01*
X73653652Y-124214100D01*
X73366579Y-124271202D01*
X73096162Y-124383212D01*
X72852794Y-124545826D01*
X72645826Y-124752794D01*
X72483212Y-124996162D01*
X72371202Y-125266579D01*
X72314100Y-125553652D01*
X68285900Y-125553652D01*
X68228798Y-125266579D01*
X68116788Y-124996162D01*
X67954174Y-124752794D01*
X67747206Y-124545826D01*
X67503838Y-124383212D01*
X67233421Y-124271202D01*
X66946348Y-124214100D01*
X66653652Y-124214100D01*
X66366579Y-124271202D01*
X66096162Y-124383212D01*
X65852794Y-124545826D01*
X65645826Y-124752794D01*
X65483212Y-124996162D01*
X65371202Y-125266579D01*
X65314100Y-125553652D01*
X64860000Y-125553652D01*
X64860000Y-125516211D01*
X64875437Y-125500774D01*
X64988705Y-125331256D01*
X65066726Y-125142898D01*
X65106500Y-124942939D01*
X65106500Y-124739061D01*
X65066726Y-124539102D01*
X64988705Y-124350744D01*
X64875437Y-124181226D01*
X64731274Y-124037063D01*
X64561756Y-123923795D01*
X64373398Y-123845774D01*
X64173439Y-123806000D01*
X63969561Y-123806000D01*
X63769602Y-123845774D01*
X63581244Y-123923795D01*
X63411726Y-124037063D01*
X63267563Y-124181226D01*
X63189235Y-124298452D01*
X63124976Y-124202281D01*
X62797719Y-123875024D01*
X62412905Y-123617900D01*
X61985324Y-123440790D01*
X61531406Y-123350500D01*
X61068594Y-123350500D01*
X60614676Y-123440790D01*
X60187095Y-123617900D01*
X59802281Y-123875024D01*
X59475024Y-124202281D01*
X59217900Y-124587095D01*
X59040790Y-125014676D01*
X58950500Y-125468594D01*
X58860000Y-125468594D01*
X58860000Y-121388675D01*
X65389700Y-121388675D01*
X65389700Y-121611325D01*
X65433137Y-121829696D01*
X65518341Y-122035398D01*
X65642039Y-122220524D01*
X65799476Y-122377961D01*
X65984602Y-122501659D01*
X66190304Y-122586863D01*
X66408675Y-122630300D01*
X66631325Y-122630300D01*
X66849696Y-122586863D01*
X67055398Y-122501659D01*
X67240524Y-122377961D01*
X67397961Y-122220524D01*
X67521659Y-122035398D01*
X67606863Y-121829696D01*
X67650300Y-121611325D01*
X67650300Y-121388675D01*
X72949700Y-121388675D01*
X72949700Y-121611325D01*
X72993137Y-121829696D01*
X73078341Y-122035398D01*
X73202039Y-122220524D01*
X73359476Y-122377961D01*
X73544602Y-122501659D01*
X73750304Y-122586863D01*
X73968675Y-122630300D01*
X74191325Y-122630300D01*
X74409696Y-122586863D01*
X74615398Y-122501659D01*
X74800524Y-122377961D01*
X74957961Y-122220524D01*
X75081659Y-122035398D01*
X75166863Y-121829696D01*
X75210300Y-121611325D01*
X75210300Y-121388675D01*
X75166863Y-121170304D01*
X75081659Y-120964602D01*
X74957961Y-120779476D01*
X74800524Y-120622039D01*
X74615398Y-120498341D01*
X74409696Y-120413137D01*
X74191325Y-120369700D01*
X73968675Y-120369700D01*
X73750304Y-120413137D01*
X73544602Y-120498341D01*
X73359476Y-120622039D01*
X73202039Y-120779476D01*
X73078341Y-120964602D01*
X72993137Y-121170304D01*
X72949700Y-121388675D01*
X67650300Y-121388675D01*
X67606863Y-121170304D01*
X67521659Y-120964602D01*
X67397961Y-120779476D01*
X67240524Y-120622039D01*
X67055398Y-120498341D01*
X66849696Y-120413137D01*
X66631325Y-120369700D01*
X66408675Y-120369700D01*
X66190304Y-120413137D01*
X65984602Y-120498341D01*
X65799476Y-120622039D01*
X65642039Y-120779476D01*
X65518341Y-120964602D01*
X65433137Y-121170304D01*
X65389700Y-121388675D01*
X58860000Y-121388675D01*
X58860000Y-113918801D01*
X60106402Y-112672400D01*
X63386478Y-112672400D01*
X63423800Y-112676076D01*
X63461122Y-112672400D01*
X63461133Y-112672400D01*
X63572786Y-112661403D01*
X63716047Y-112617946D01*
X63848076Y-112547374D01*
X63963801Y-112452401D01*
X63987604Y-112423397D01*
X64216199Y-112194802D01*
X64962202Y-111448800D01*
X65024339Y-111448800D01*
X65224298Y-111409026D01*
X65412656Y-111331005D01*
X65582174Y-111217737D01*
X65726337Y-111073574D01*
X65839605Y-110904056D01*
X65917626Y-110715698D01*
X65957400Y-110515739D01*
X65957400Y-110311861D01*
X65917626Y-110111902D01*
X65839605Y-109923544D01*
X65726337Y-109754026D01*
X65582174Y-109609863D01*
X65412656Y-109496595D01*
X65224298Y-109418574D01*
X65024339Y-109378800D01*
X64820461Y-109378800D01*
X64620502Y-109418574D01*
X64432144Y-109496595D01*
X64262626Y-109609863D01*
X64118463Y-109754026D01*
X64005195Y-109923544D01*
X63927174Y-110111902D01*
X63887400Y-110311861D01*
X63887400Y-110373998D01*
X63141398Y-111120001D01*
X63108999Y-111152400D01*
X59828925Y-111152400D01*
X59791600Y-111148724D01*
X59754275Y-111152400D01*
X59754267Y-111152400D01*
X59642614Y-111163397D01*
X59499353Y-111206854D01*
X59367324Y-111277426D01*
X59251599Y-111372399D01*
X59227801Y-111401397D01*
X57947129Y-112682070D01*
X57951000Y-112662609D01*
X57951000Y-112337391D01*
X57887553Y-112018421D01*
X57763097Y-111717958D01*
X57582415Y-111447549D01*
X57352451Y-111217585D01*
X57082042Y-111036903D01*
X56781579Y-110912447D01*
X56462609Y-110849000D01*
X56137391Y-110849000D01*
X55818421Y-110912447D01*
X55517958Y-111036903D01*
X55247549Y-111217585D01*
X55017585Y-111447549D01*
X54836903Y-111717958D01*
X54712447Y-112018421D01*
X54649000Y-112337391D01*
X52960000Y-112337391D01*
X52960000Y-108553652D01*
X54314100Y-108553652D01*
X54314100Y-108846348D01*
X54371202Y-109133421D01*
X54483212Y-109403838D01*
X54645826Y-109647206D01*
X54852794Y-109854174D01*
X55096162Y-110016788D01*
X55366579Y-110128798D01*
X55653652Y-110185900D01*
X55946348Y-110185900D01*
X56233421Y-110128798D01*
X56503838Y-110016788D01*
X56747206Y-109854174D01*
X56954174Y-109647206D01*
X57116788Y-109403838D01*
X57228798Y-109133421D01*
X57285900Y-108846348D01*
X57285900Y-108553652D01*
X57268982Y-108468594D01*
X58950500Y-108468594D01*
X58950500Y-108931406D01*
X59040790Y-109385324D01*
X59217900Y-109812905D01*
X59475024Y-110197719D01*
X59802281Y-110524976D01*
X60187095Y-110782100D01*
X60614676Y-110959210D01*
X61068594Y-111049500D01*
X61531406Y-111049500D01*
X61985324Y-110959210D01*
X62412905Y-110782100D01*
X62797719Y-110524976D01*
X63124976Y-110197719D01*
X63382100Y-109812905D01*
X63559210Y-109385324D01*
X63649500Y-108931406D01*
X63649500Y-108553652D01*
X65314100Y-108553652D01*
X65314100Y-108846348D01*
X65371202Y-109133421D01*
X65483212Y-109403838D01*
X65645826Y-109647206D01*
X65852794Y-109854174D01*
X66096162Y-110016788D01*
X66366579Y-110128798D01*
X66653652Y-110185900D01*
X66946348Y-110185900D01*
X67233421Y-110128798D01*
X67503838Y-110016788D01*
X67747206Y-109854174D01*
X67954174Y-109647206D01*
X68116788Y-109403838D01*
X68228798Y-109133421D01*
X68285900Y-108846348D01*
X68285900Y-108553652D01*
X68228798Y-108266579D01*
X68116788Y-107996162D01*
X67954174Y-107752794D01*
X67747206Y-107545826D01*
X67503838Y-107383212D01*
X67233421Y-107271202D01*
X66946348Y-107214100D01*
X66653652Y-107214100D01*
X66366579Y-107271202D01*
X66096162Y-107383212D01*
X65852794Y-107545826D01*
X65645826Y-107752794D01*
X65483212Y-107996162D01*
X65371202Y-108266579D01*
X65314100Y-108553652D01*
X63649500Y-108553652D01*
X63649500Y-108468594D01*
X63559210Y-108014676D01*
X63382100Y-107587095D01*
X63124976Y-107202281D01*
X62797719Y-106875024D01*
X62412905Y-106617900D01*
X61985324Y-106440790D01*
X61531406Y-106350500D01*
X61068594Y-106350500D01*
X60614676Y-106440790D01*
X60187095Y-106617900D01*
X59802281Y-106875024D01*
X59475024Y-107202281D01*
X59217900Y-107587095D01*
X59040790Y-108014676D01*
X58950500Y-108468594D01*
X57268982Y-108468594D01*
X57228798Y-108266579D01*
X57116788Y-107996162D01*
X56954174Y-107752794D01*
X56747206Y-107545826D01*
X56503838Y-107383212D01*
X56233421Y-107271202D01*
X55946348Y-107214100D01*
X55653652Y-107214100D01*
X55366579Y-107271202D01*
X55096162Y-107383212D01*
X54852794Y-107545826D01*
X54645826Y-107752794D01*
X54483212Y-107996162D01*
X54371202Y-108266579D01*
X54314100Y-108553652D01*
X52960000Y-108553652D01*
X52960000Y-104388675D01*
X54949700Y-104388675D01*
X54949700Y-104611325D01*
X54993137Y-104829696D01*
X55078341Y-105035398D01*
X55202039Y-105220524D01*
X55359476Y-105377961D01*
X55544602Y-105501659D01*
X55750304Y-105586863D01*
X55968675Y-105630300D01*
X56191325Y-105630300D01*
X56409696Y-105586863D01*
X56615398Y-105501659D01*
X56800524Y-105377961D01*
X56957961Y-105220524D01*
X57081659Y-105035398D01*
X57166863Y-104829696D01*
X57210300Y-104611325D01*
X57210300Y-104388675D01*
X65389700Y-104388675D01*
X65389700Y-104611325D01*
X65433137Y-104829696D01*
X65518341Y-105035398D01*
X65642039Y-105220524D01*
X65799476Y-105377961D01*
X65984602Y-105501659D01*
X66190304Y-105586863D01*
X66408675Y-105630300D01*
X66631325Y-105630300D01*
X66849696Y-105586863D01*
X67055398Y-105501659D01*
X67240524Y-105377961D01*
X67397961Y-105220524D01*
X67521659Y-105035398D01*
X67606863Y-104829696D01*
X67650300Y-104611325D01*
X67650300Y-104388675D01*
X67606863Y-104170304D01*
X67521659Y-103964602D01*
X67397961Y-103779476D01*
X67240524Y-103622039D01*
X67055398Y-103498341D01*
X66849696Y-103413137D01*
X66631325Y-103369700D01*
X66408675Y-103369700D01*
X66190304Y-103413137D01*
X65984602Y-103498341D01*
X65799476Y-103622039D01*
X65642039Y-103779476D01*
X65518341Y-103964602D01*
X65433137Y-104170304D01*
X65389700Y-104388675D01*
X57210300Y-104388675D01*
X57166863Y-104170304D01*
X57081659Y-103964602D01*
X56957961Y-103779476D01*
X56800524Y-103622039D01*
X56615398Y-103498341D01*
X56409696Y-103413137D01*
X56191325Y-103369700D01*
X55968675Y-103369700D01*
X55750304Y-103413137D01*
X55544602Y-103498341D01*
X55359476Y-103622039D01*
X55202039Y-103779476D01*
X55078341Y-103964602D01*
X54993137Y-104170304D01*
X54949700Y-104388675D01*
X52960000Y-104388675D01*
X52960000Y-97535661D01*
X57156400Y-97535661D01*
X57156400Y-97739539D01*
X57196174Y-97939498D01*
X57274195Y-98127856D01*
X57387463Y-98297374D01*
X57531626Y-98441537D01*
X57701144Y-98554805D01*
X57889502Y-98632826D01*
X58089461Y-98672600D01*
X58293339Y-98672600D01*
X58493298Y-98632826D01*
X58681656Y-98554805D01*
X58764875Y-98499200D01*
X63538878Y-98499200D01*
X63576200Y-98502876D01*
X63613522Y-98499200D01*
X63613533Y-98499200D01*
X63725186Y-98488203D01*
X63868447Y-98444746D01*
X64000476Y-98374174D01*
X64116201Y-98279201D01*
X64140004Y-98250197D01*
X66410002Y-95980200D01*
X66472139Y-95980200D01*
X66672098Y-95940426D01*
X66827113Y-95876216D01*
X66838492Y-95933422D01*
X66910859Y-96108131D01*
X67015919Y-96265364D01*
X67149636Y-96399081D01*
X67306869Y-96504141D01*
X67481578Y-96576508D01*
X67667048Y-96613400D01*
X67856152Y-96613400D01*
X68041622Y-96576508D01*
X68216331Y-96504141D01*
X68373564Y-96399081D01*
X68507281Y-96265364D01*
X68612341Y-96108131D01*
X68684708Y-95933422D01*
X68721600Y-95747952D01*
X68721600Y-95558848D01*
X68684708Y-95373378D01*
X68612341Y-95198669D01*
X68507281Y-95041436D01*
X68373564Y-94907719D01*
X68216331Y-94802659D01*
X68041622Y-94730292D01*
X67856152Y-94693400D01*
X67667048Y-94693400D01*
X67481578Y-94730292D01*
X67390254Y-94768120D01*
X67365426Y-94643302D01*
X67287405Y-94454944D01*
X67174137Y-94285426D01*
X67029974Y-94141263D01*
X66860456Y-94027995D01*
X66672098Y-93949974D01*
X66472139Y-93910200D01*
X66268261Y-93910200D01*
X66068302Y-93949974D01*
X65879944Y-94027995D01*
X65710426Y-94141263D01*
X65566263Y-94285426D01*
X65452995Y-94454944D01*
X65374974Y-94643302D01*
X65335200Y-94843261D01*
X65335200Y-94905398D01*
X63261399Y-96979200D01*
X58996255Y-96979200D01*
X58995337Y-96977826D01*
X58851174Y-96833663D01*
X58681656Y-96720395D01*
X58493298Y-96642374D01*
X58293339Y-96602600D01*
X58089461Y-96602600D01*
X57889502Y-96642374D01*
X57701144Y-96720395D01*
X57531626Y-96833663D01*
X57387463Y-96977826D01*
X57274195Y-97147344D01*
X57196174Y-97335702D01*
X57156400Y-97535661D01*
X52960000Y-97535661D01*
X52960000Y-95558848D01*
X61021600Y-95558848D01*
X61021600Y-95747952D01*
X61058492Y-95933422D01*
X61130859Y-96108131D01*
X61235919Y-96265364D01*
X61369636Y-96399081D01*
X61526869Y-96504141D01*
X61701578Y-96576508D01*
X61887048Y-96613400D01*
X62076152Y-96613400D01*
X62261622Y-96576508D01*
X62436331Y-96504141D01*
X62593564Y-96399081D01*
X62727281Y-96265364D01*
X62832341Y-96108131D01*
X62904708Y-95933422D01*
X62941600Y-95747952D01*
X62941600Y-95558848D01*
X62904708Y-95373378D01*
X62832341Y-95198669D01*
X62727281Y-95041436D01*
X62593564Y-94907719D01*
X62436331Y-94802659D01*
X62261622Y-94730292D01*
X62076152Y-94693400D01*
X61887048Y-94693400D01*
X61701578Y-94730292D01*
X61526869Y-94802659D01*
X61369636Y-94907719D01*
X61235919Y-95041436D01*
X61130859Y-95198669D01*
X61058492Y-95373378D01*
X61021600Y-95558848D01*
X52960000Y-95558848D01*
X52960000Y-91262479D01*
X52988625Y-90970541D01*
X53064035Y-90720771D01*
X53186522Y-90490408D01*
X53351422Y-90288220D01*
X53552450Y-90121914D01*
X53781954Y-89997822D01*
X54031195Y-89920669D01*
X54321088Y-89890200D01*
X74464166Y-89890200D01*
X74443988Y-89956718D01*
G04 #@! TA.AperFunction,Conductor*
D18*
G36*
X74443988Y-89956718D02*
G01*
X74431728Y-90081200D01*
X74431728Y-91342659D01*
X74348702Y-91359174D01*
X74160344Y-91437195D01*
X73990826Y-91550463D01*
X73846663Y-91694626D01*
X73733395Y-91864144D01*
X73655374Y-92052502D01*
X73615600Y-92252461D01*
X73615600Y-92456339D01*
X73655374Y-92656298D01*
X73733395Y-92844656D01*
X73846663Y-93014174D01*
X73990826Y-93158337D01*
X74160344Y-93271605D01*
X74348702Y-93349626D01*
X74434800Y-93366752D01*
X74434800Y-93562535D01*
X74489947Y-93839774D01*
X74598120Y-94100927D01*
X74755163Y-94335959D01*
X74955041Y-94535837D01*
X75187559Y-94691200D01*
X74955041Y-94846563D01*
X74755163Y-95046441D01*
X74598120Y-95281473D01*
X74489947Y-95542626D01*
X74434800Y-95819865D01*
X74434800Y-96102535D01*
X74489947Y-96379774D01*
X74598120Y-96640927D01*
X74755163Y-96875959D01*
X74955041Y-97075837D01*
X75190073Y-97232880D01*
X75451226Y-97341053D01*
X75728465Y-97396200D01*
X76011135Y-97396200D01*
X76288374Y-97341053D01*
X76549527Y-97232880D01*
X76784559Y-97075837D01*
X76984437Y-96875959D01*
X77141480Y-96640927D01*
X77249653Y-96379774D01*
X77304800Y-96102535D01*
X77304800Y-95819865D01*
X77249653Y-95542626D01*
X77141480Y-95281473D01*
X76984437Y-95046441D01*
X76784559Y-94846563D01*
X76552041Y-94691200D01*
X76784559Y-94535837D01*
X76984437Y-94335959D01*
X77141480Y-94100927D01*
X77249653Y-93839774D01*
X77304800Y-93562535D01*
X77304800Y-93279865D01*
X77249653Y-93002626D01*
X77222304Y-92936600D01*
X77966078Y-92936600D01*
X78003400Y-92940276D01*
X78040722Y-92936600D01*
X78040733Y-92936600D01*
X78152386Y-92925603D01*
X78295647Y-92882146D01*
X78427676Y-92811574D01*
X78543401Y-92716601D01*
X78567204Y-92687597D01*
X79613602Y-91641200D01*
X82271757Y-91641200D01*
X82375163Y-91795959D01*
X82575041Y-91995837D01*
X82807559Y-92151200D01*
X82575041Y-92306563D01*
X82375163Y-92506441D01*
X82218120Y-92741473D01*
X82109947Y-93002626D01*
X82054800Y-93279865D01*
X82054800Y-93562535D01*
X82109947Y-93839774D01*
X82173157Y-93992376D01*
X74715933Y-101449600D01*
X74205333Y-101449600D01*
X74168000Y-101445923D01*
X74130667Y-101449600D01*
X74019014Y-101460597D01*
X73875753Y-101504054D01*
X73743724Y-101574626D01*
X73627999Y-101669599D01*
X73604201Y-101698597D01*
X68856403Y-106446396D01*
X68827399Y-106470199D01*
X68801137Y-106502200D01*
X68732426Y-106585924D01*
X68661855Y-106717953D01*
X68661854Y-106717954D01*
X68618397Y-106861215D01*
X68607400Y-106972868D01*
X68607400Y-106972878D01*
X68603724Y-107010200D01*
X68607400Y-107047523D01*
X68607401Y-109743397D01*
X64510799Y-113840000D01*
X62772227Y-113840000D01*
X62763097Y-113817958D01*
X62582415Y-113547549D01*
X62352451Y-113317585D01*
X62082042Y-113136903D01*
X61781579Y-113012447D01*
X61462609Y-112949000D01*
X61137391Y-112949000D01*
X60818421Y-113012447D01*
X60517958Y-113136903D01*
X60247549Y-113317585D01*
X60017585Y-113547549D01*
X59836903Y-113817958D01*
X59712447Y-114118421D01*
X59649000Y-114437391D01*
X59649000Y-114762609D01*
X59712447Y-115081579D01*
X59836903Y-115382042D01*
X60017585Y-115652451D01*
X60247549Y-115882415D01*
X60517958Y-116063097D01*
X60818421Y-116187553D01*
X61137391Y-116251000D01*
X61462609Y-116251000D01*
X61781579Y-116187553D01*
X62082042Y-116063097D01*
X62352451Y-115882415D01*
X62582415Y-115652451D01*
X62763097Y-115382042D01*
X62772227Y-115360000D01*
X64788278Y-115360000D01*
X64825600Y-115363676D01*
X64862922Y-115360000D01*
X64862933Y-115360000D01*
X64974586Y-115349003D01*
X65117847Y-115305546D01*
X65249876Y-115234974D01*
X65365601Y-115140001D01*
X65389404Y-115110997D01*
X68163010Y-112337391D01*
X72649000Y-112337391D01*
X72649000Y-112662609D01*
X72712447Y-112981579D01*
X72836903Y-113282042D01*
X73017585Y-113552451D01*
X73247549Y-113782415D01*
X73517958Y-113963097D01*
X73818421Y-114087553D01*
X74137391Y-114151000D01*
X74462609Y-114151000D01*
X74781579Y-114087553D01*
X75082042Y-113963097D01*
X75352451Y-113782415D01*
X75582415Y-113552451D01*
X75763097Y-113282042D01*
X75887553Y-112981579D01*
X75951000Y-112662609D01*
X75951000Y-112337391D01*
X75887553Y-112018421D01*
X75763097Y-111717958D01*
X75582415Y-111447549D01*
X75352451Y-111217585D01*
X75082042Y-111036903D01*
X74781579Y-110912447D01*
X74462609Y-110849000D01*
X74137391Y-110849000D01*
X73818421Y-110912447D01*
X73517958Y-111036903D01*
X73247549Y-111217585D01*
X73017585Y-111447549D01*
X72836903Y-111717958D01*
X72712447Y-112018421D01*
X72649000Y-112337391D01*
X68163010Y-112337391D01*
X69878403Y-110621999D01*
X69907401Y-110598201D01*
X70002374Y-110482476D01*
X70072946Y-110350447D01*
X70116403Y-110207186D01*
X70127400Y-110095533D01*
X70127400Y-110095524D01*
X70131076Y-110058201D01*
X70127400Y-110020878D01*
X70127400Y-108553652D01*
X72314100Y-108553652D01*
X72314100Y-108846348D01*
X72371202Y-109133421D01*
X72483212Y-109403838D01*
X72645826Y-109647206D01*
X72852794Y-109854174D01*
X73096162Y-110016788D01*
X73366579Y-110128798D01*
X73653652Y-110185900D01*
X73946348Y-110185900D01*
X74233421Y-110128798D01*
X74503838Y-110016788D01*
X74747206Y-109854174D01*
X74954174Y-109647206D01*
X75116788Y-109403838D01*
X75228798Y-109133421D01*
X75285900Y-108846348D01*
X75285900Y-108553652D01*
X75228798Y-108266579D01*
X75116788Y-107996162D01*
X74954174Y-107752794D01*
X74747206Y-107545826D01*
X74503838Y-107383212D01*
X74233421Y-107271202D01*
X73946348Y-107214100D01*
X73653652Y-107214100D01*
X73366579Y-107271202D01*
X73096162Y-107383212D01*
X72852794Y-107545826D01*
X72645826Y-107752794D01*
X72483212Y-107996162D01*
X72371202Y-108266579D01*
X72314100Y-108553652D01*
X70127400Y-108553652D01*
X70127400Y-107325001D01*
X72949700Y-104502702D01*
X72949700Y-104611325D01*
X72993137Y-104829696D01*
X73078341Y-105035398D01*
X73202039Y-105220524D01*
X73359476Y-105377961D01*
X73544602Y-105501659D01*
X73750304Y-105586863D01*
X73968675Y-105630300D01*
X74191325Y-105630300D01*
X74409696Y-105586863D01*
X74615398Y-105501659D01*
X74800524Y-105377961D01*
X74957961Y-105220524D01*
X75081659Y-105035398D01*
X75166863Y-104829696D01*
X75210300Y-104611325D01*
X75210300Y-104388675D01*
X75166863Y-104170304D01*
X75081659Y-103964602D01*
X74957961Y-103779476D01*
X74800524Y-103622039D01*
X74615398Y-103498341D01*
X74409696Y-103413137D01*
X74191325Y-103369700D01*
X74082702Y-103369700D01*
X74482802Y-102969600D01*
X74993412Y-102969600D01*
X75030734Y-102973276D01*
X75068056Y-102969600D01*
X75068067Y-102969600D01*
X75179720Y-102958603D01*
X75322981Y-102915146D01*
X75455010Y-102844574D01*
X75570735Y-102749601D01*
X75594538Y-102720597D01*
X82080981Y-96234155D01*
X82107969Y-96369830D01*
X81777601Y-96700197D01*
X81748598Y-96724000D01*
X81693470Y-96791175D01*
X81653625Y-96839725D01*
X81594615Y-96950124D01*
X81583053Y-96971755D01*
X81539596Y-97115016D01*
X81528599Y-97226669D01*
X81528599Y-97226679D01*
X81524923Y-97264001D01*
X81528599Y-97301323D01*
X81528600Y-107940776D01*
X81382100Y-107587095D01*
X81124976Y-107202281D01*
X80797719Y-106875024D01*
X80412905Y-106617900D01*
X79985324Y-106440790D01*
X79531406Y-106350500D01*
X79068594Y-106350500D01*
X78614676Y-106440790D01*
X78187095Y-106617900D01*
X77802281Y-106875024D01*
X77475024Y-107202281D01*
X77217900Y-107587095D01*
X77040790Y-108014676D01*
X76950500Y-108468594D01*
X76950500Y-108931406D01*
X77040790Y-109385324D01*
X77217900Y-109812905D01*
X77475024Y-110197719D01*
X77802281Y-110524976D01*
X78187095Y-110782100D01*
X78614676Y-110959210D01*
X79068594Y-111049500D01*
X79531406Y-111049500D01*
X79985324Y-110959210D01*
X80412905Y-110782100D01*
X80797719Y-110524976D01*
X81124976Y-110197719D01*
X81382100Y-109812905D01*
X81528600Y-109459223D01*
X81528600Y-111296598D01*
X79803621Y-113021577D01*
X79781579Y-113012447D01*
X79462609Y-112949000D01*
X79137391Y-112949000D01*
X78818421Y-113012447D01*
X78517958Y-113136903D01*
X78247549Y-113317585D01*
X78017585Y-113547549D01*
X77836903Y-113817958D01*
X77712447Y-114118421D01*
X77649000Y-114437391D01*
X77649000Y-114762609D01*
X77712447Y-115081579D01*
X77836903Y-115382042D01*
X78017585Y-115652451D01*
X78247549Y-115882415D01*
X78517958Y-116063097D01*
X78818421Y-116187553D01*
X79137391Y-116251000D01*
X79462609Y-116251000D01*
X79781579Y-116187553D01*
X79803621Y-116178423D01*
X81640001Y-118014803D01*
X81640000Y-125420836D01*
X81559210Y-125014676D01*
X81382100Y-124587095D01*
X81124976Y-124202281D01*
X80797719Y-123875024D01*
X80412905Y-123617900D01*
X79985324Y-123440790D01*
X79531406Y-123350500D01*
X79068594Y-123350500D01*
X78614676Y-123440790D01*
X78187095Y-123617900D01*
X77802281Y-123875024D01*
X77475024Y-124202281D01*
X77217900Y-124587095D01*
X77040790Y-125014676D01*
X76950500Y-125468594D01*
X76950500Y-125931406D01*
X77040790Y-126385324D01*
X77217900Y-126812905D01*
X77475024Y-127197719D01*
X77802281Y-127524976D01*
X78187095Y-127782100D01*
X78614676Y-127959210D01*
X79068594Y-128049500D01*
X79531406Y-128049500D01*
X79985324Y-127959210D01*
X80412905Y-127782100D01*
X80797719Y-127524976D01*
X81124976Y-127197719D01*
X81382100Y-126812905D01*
X81559210Y-126385324D01*
X81640000Y-125979164D01*
X81640000Y-128185198D01*
X79803621Y-130021577D01*
X79781579Y-130012447D01*
X79462609Y-129949000D01*
X79137391Y-129949000D01*
X78818421Y-130012447D01*
X78517958Y-130136903D01*
X78247549Y-130317585D01*
X78017585Y-130547549D01*
X77836903Y-130817958D01*
X77712447Y-131118421D01*
X77649000Y-131437391D01*
X77649000Y-131762609D01*
X77712447Y-132081579D01*
X77836903Y-132382042D01*
X78017585Y-132652451D01*
X78247549Y-132882415D01*
X78517958Y-133063097D01*
X78818421Y-133187553D01*
X79137391Y-133251000D01*
X79462609Y-133251000D01*
X79781579Y-133187553D01*
X80082042Y-133063097D01*
X80352451Y-132882415D01*
X80582415Y-132652451D01*
X80763097Y-132382042D01*
X80887553Y-132081579D01*
X80951000Y-131762609D01*
X80951000Y-131437391D01*
X95649000Y-131437391D01*
X95649000Y-131762609D01*
X95712447Y-132081579D01*
X95836903Y-132382042D01*
X96017585Y-132652451D01*
X96247549Y-132882415D01*
X96517958Y-133063097D01*
X96818421Y-133187553D01*
X97137391Y-133251000D01*
X97462609Y-133251000D01*
X97781579Y-133187553D01*
X98082042Y-133063097D01*
X98352451Y-132882415D01*
X98582415Y-132652451D01*
X98763097Y-132382042D01*
X98887553Y-132081579D01*
X98951000Y-131762609D01*
X98951000Y-131437391D01*
X98887553Y-131118421D01*
X98763097Y-130817958D01*
X98582415Y-130547549D01*
X98352451Y-130317585D01*
X98082042Y-130136903D01*
X97781579Y-130012447D01*
X97462609Y-129949000D01*
X97137391Y-129949000D01*
X96818421Y-130012447D01*
X96517958Y-130136903D01*
X96247549Y-130317585D01*
X96017585Y-130547549D01*
X95836903Y-130817958D01*
X95712447Y-131118421D01*
X95649000Y-131437391D01*
X80951000Y-131437391D01*
X80887553Y-131118421D01*
X80878423Y-131096379D01*
X82637411Y-129337391D01*
X90649000Y-129337391D01*
X90649000Y-129662609D01*
X90712447Y-129981579D01*
X90836903Y-130282042D01*
X91017585Y-130552451D01*
X91247549Y-130782415D01*
X91517958Y-130963097D01*
X91818421Y-131087553D01*
X92137391Y-131151000D01*
X92462609Y-131151000D01*
X92781579Y-131087553D01*
X93082042Y-130963097D01*
X93352451Y-130782415D01*
X93582415Y-130552451D01*
X93763097Y-130282042D01*
X93887553Y-129981579D01*
X93951000Y-129662609D01*
X93951000Y-129337391D01*
X93887553Y-129018421D01*
X93763097Y-128717958D01*
X93582415Y-128447549D01*
X93352451Y-128217585D01*
X93082042Y-128036903D01*
X92781579Y-127912447D01*
X92462609Y-127849000D01*
X92137391Y-127849000D01*
X91818421Y-127912447D01*
X91517958Y-128036903D01*
X91247549Y-128217585D01*
X91017585Y-128447549D01*
X90836903Y-128717958D01*
X90712447Y-129018421D01*
X90649000Y-129337391D01*
X82637411Y-129337391D01*
X82911004Y-129063798D01*
X82940001Y-129040001D01*
X83022069Y-128940001D01*
X83034974Y-128924277D01*
X83105546Y-128792247D01*
X83135880Y-128692246D01*
X83149003Y-128648986D01*
X83160000Y-128537333D01*
X83160000Y-128537324D01*
X83163676Y-128500001D01*
X83160000Y-128462678D01*
X83160000Y-125553652D01*
X83314100Y-125553652D01*
X83314100Y-125846348D01*
X83371202Y-126133421D01*
X83483212Y-126403838D01*
X83645826Y-126647206D01*
X83852794Y-126854174D01*
X84096162Y-127016788D01*
X84366579Y-127128798D01*
X84653652Y-127185900D01*
X84946348Y-127185900D01*
X85233421Y-127128798D01*
X85503838Y-127016788D01*
X85747206Y-126854174D01*
X85954174Y-126647206D01*
X86116788Y-126403838D01*
X86228798Y-126133421D01*
X86285900Y-125846348D01*
X86285900Y-125553652D01*
X90314100Y-125553652D01*
X90314100Y-125846348D01*
X90371202Y-126133421D01*
X90483212Y-126403838D01*
X90645826Y-126647206D01*
X90852794Y-126854174D01*
X91096162Y-127016788D01*
X91366579Y-127128798D01*
X91653652Y-127185900D01*
X91946348Y-127185900D01*
X92233421Y-127128798D01*
X92503838Y-127016788D01*
X92747206Y-126854174D01*
X92954174Y-126647206D01*
X93116788Y-126403838D01*
X93228798Y-126133421D01*
X93285900Y-125846348D01*
X93285900Y-125553652D01*
X93268982Y-125468594D01*
X94950500Y-125468594D01*
X94950500Y-125931406D01*
X95040790Y-126385324D01*
X95217900Y-126812905D01*
X95475024Y-127197719D01*
X95802281Y-127524976D01*
X96187095Y-127782100D01*
X96614676Y-127959210D01*
X97068594Y-128049500D01*
X97531406Y-128049500D01*
X97985324Y-127959210D01*
X98412905Y-127782100D01*
X98797719Y-127524976D01*
X99124976Y-127197719D01*
X99382100Y-126812905D01*
X99559210Y-126385324D01*
X99649500Y-125931406D01*
X99649500Y-125553652D01*
X101314100Y-125553652D01*
X101314100Y-125846348D01*
X101371202Y-126133421D01*
X101483212Y-126403838D01*
X101645826Y-126647206D01*
X101852794Y-126854174D01*
X102096162Y-127016788D01*
X102366579Y-127128798D01*
X102653652Y-127185900D01*
X102946348Y-127185900D01*
X103233421Y-127128798D01*
X103503838Y-127016788D01*
X103747206Y-126854174D01*
X103954174Y-126647206D01*
X104116788Y-126403838D01*
X104228798Y-126133421D01*
X104285900Y-125846348D01*
X104285900Y-125553652D01*
X104228798Y-125266579D01*
X104116788Y-124996162D01*
X103954174Y-124752794D01*
X103747206Y-124545826D01*
X103503838Y-124383212D01*
X103233421Y-124271202D01*
X102946348Y-124214100D01*
X102653652Y-124214100D01*
X102366579Y-124271202D01*
X102096162Y-124383212D01*
X101852794Y-124545826D01*
X101645826Y-124752794D01*
X101483212Y-124996162D01*
X101371202Y-125266579D01*
X101314100Y-125553652D01*
X99649500Y-125553652D01*
X99649500Y-125468594D01*
X99559210Y-125014676D01*
X99382100Y-124587095D01*
X99124976Y-124202281D01*
X98797719Y-123875024D01*
X98412905Y-123617900D01*
X97985324Y-123440790D01*
X97531406Y-123350500D01*
X97068594Y-123350500D01*
X96614676Y-123440790D01*
X96187095Y-123617900D01*
X95802281Y-123875024D01*
X95475024Y-124202281D01*
X95217900Y-124587095D01*
X95040790Y-125014676D01*
X94950500Y-125468594D01*
X93268982Y-125468594D01*
X93228798Y-125266579D01*
X93116788Y-124996162D01*
X92954174Y-124752794D01*
X92747206Y-124545826D01*
X92503838Y-124383212D01*
X92233421Y-124271202D01*
X91946348Y-124214100D01*
X91653652Y-124214100D01*
X91366579Y-124271202D01*
X91096162Y-124383212D01*
X90852794Y-124545826D01*
X90645826Y-124752794D01*
X90483212Y-124996162D01*
X90371202Y-125266579D01*
X90314100Y-125553652D01*
X86285900Y-125553652D01*
X86228798Y-125266579D01*
X86116788Y-124996162D01*
X85954174Y-124752794D01*
X85747206Y-124545826D01*
X85503838Y-124383212D01*
X85233421Y-124271202D01*
X84946348Y-124214100D01*
X84653652Y-124214100D01*
X84366579Y-124271202D01*
X84096162Y-124383212D01*
X83852794Y-124545826D01*
X83645826Y-124752794D01*
X83483212Y-124996162D01*
X83371202Y-125266579D01*
X83314100Y-125553652D01*
X83160000Y-125553652D01*
X83160000Y-121388675D01*
X83389700Y-121388675D01*
X83389700Y-121611325D01*
X83433137Y-121829696D01*
X83518341Y-122035398D01*
X83642039Y-122220524D01*
X83799476Y-122377961D01*
X83984602Y-122501659D01*
X84190304Y-122586863D01*
X84408675Y-122630300D01*
X84631325Y-122630300D01*
X84849696Y-122586863D01*
X85055398Y-122501659D01*
X85240524Y-122377961D01*
X85397961Y-122220524D01*
X85521659Y-122035398D01*
X85606863Y-121829696D01*
X85650300Y-121611325D01*
X85650300Y-121388675D01*
X90949700Y-121388675D01*
X90949700Y-121611325D01*
X90993137Y-121829696D01*
X91078341Y-122035398D01*
X91202039Y-122220524D01*
X91359476Y-122377961D01*
X91544602Y-122501659D01*
X91750304Y-122586863D01*
X91968675Y-122630300D01*
X92191325Y-122630300D01*
X92409696Y-122586863D01*
X92615398Y-122501659D01*
X92800524Y-122377961D01*
X92957961Y-122220524D01*
X93081659Y-122035398D01*
X93166863Y-121829696D01*
X93210300Y-121611325D01*
X93210300Y-121388675D01*
X101389700Y-121388675D01*
X101389700Y-121611325D01*
X101433137Y-121829696D01*
X101518341Y-122035398D01*
X101642039Y-122220524D01*
X101799476Y-122377961D01*
X101984602Y-122501659D01*
X102190304Y-122586863D01*
X102408675Y-122630300D01*
X102631325Y-122630300D01*
X102849696Y-122586863D01*
X103055398Y-122501659D01*
X103240524Y-122377961D01*
X103397961Y-122220524D01*
X103521659Y-122035398D01*
X103606863Y-121829696D01*
X103650300Y-121611325D01*
X103650300Y-121388675D01*
X103606863Y-121170304D01*
X103521659Y-120964602D01*
X103397961Y-120779476D01*
X103240524Y-120622039D01*
X103055398Y-120498341D01*
X102849696Y-120413137D01*
X102631325Y-120369700D01*
X102408675Y-120369700D01*
X102190304Y-120413137D01*
X101984602Y-120498341D01*
X101799476Y-120622039D01*
X101642039Y-120779476D01*
X101518341Y-120964602D01*
X101433137Y-121170304D01*
X101389700Y-121388675D01*
X93210300Y-121388675D01*
X93166863Y-121170304D01*
X93081659Y-120964602D01*
X92957961Y-120779476D01*
X92800524Y-120622039D01*
X92615398Y-120498341D01*
X92409696Y-120413137D01*
X92191325Y-120369700D01*
X91968675Y-120369700D01*
X91750304Y-120413137D01*
X91544602Y-120498341D01*
X91359476Y-120622039D01*
X91202039Y-120779476D01*
X91078341Y-120964602D01*
X90993137Y-121170304D01*
X90949700Y-121388675D01*
X85650300Y-121388675D01*
X85606863Y-121170304D01*
X85521659Y-120964602D01*
X85397961Y-120779476D01*
X85240524Y-120622039D01*
X85055398Y-120498341D01*
X84849696Y-120413137D01*
X84631325Y-120369700D01*
X84408675Y-120369700D01*
X84190304Y-120413137D01*
X83984602Y-120498341D01*
X83799476Y-120622039D01*
X83642039Y-120779476D01*
X83518341Y-120964602D01*
X83433137Y-121170304D01*
X83389700Y-121388675D01*
X83160000Y-121388675D01*
X83160000Y-117737322D01*
X83163676Y-117699999D01*
X83160000Y-117662676D01*
X83160000Y-117662667D01*
X83149003Y-117551014D01*
X83105546Y-117407753D01*
X83034974Y-117275723D01*
X82963799Y-117188997D01*
X82940001Y-117159999D01*
X82911003Y-117136201D01*
X80878423Y-115103621D01*
X80887553Y-115081579D01*
X80951000Y-114762609D01*
X80951000Y-114437391D01*
X80887553Y-114118421D01*
X80878423Y-114096379D01*
X82637411Y-112337391D01*
X90649000Y-112337391D01*
X90649000Y-112662609D01*
X90712447Y-112981579D01*
X90836903Y-113282042D01*
X91017585Y-113552451D01*
X91247549Y-113782415D01*
X91517958Y-113963097D01*
X91818421Y-114087553D01*
X92137391Y-114151000D01*
X92462609Y-114151000D01*
X92781579Y-114087553D01*
X93082042Y-113963097D01*
X93352451Y-113782415D01*
X93582415Y-113552451D01*
X93763097Y-113282042D01*
X93887553Y-112981579D01*
X93951000Y-112662609D01*
X93951000Y-112337391D01*
X93887553Y-112018421D01*
X93763097Y-111717958D01*
X93582415Y-111447549D01*
X93352451Y-111217585D01*
X93082042Y-111036903D01*
X92781579Y-110912447D01*
X92462609Y-110849000D01*
X92137391Y-110849000D01*
X91818421Y-110912447D01*
X91517958Y-111036903D01*
X91247549Y-111217585D01*
X91017585Y-111447549D01*
X90836903Y-111717958D01*
X90712447Y-112018421D01*
X90649000Y-112337391D01*
X82637411Y-112337391D01*
X82799602Y-112175200D01*
X82828600Y-112151402D01*
X82923573Y-112035677D01*
X82994145Y-111903648D01*
X83037602Y-111760387D01*
X83048599Y-111648734D01*
X83048599Y-111648725D01*
X83052275Y-111611402D01*
X83048599Y-111574079D01*
X83048599Y-108553652D01*
X83314100Y-108553652D01*
X83314100Y-108846348D01*
X83371202Y-109133421D01*
X83483212Y-109403838D01*
X83645826Y-109647206D01*
X83852794Y-109854174D01*
X84096162Y-110016788D01*
X84366579Y-110128798D01*
X84653652Y-110185900D01*
X84946348Y-110185900D01*
X85233421Y-110128798D01*
X85503838Y-110016788D01*
X85747206Y-109854174D01*
X85954174Y-109647206D01*
X86116788Y-109403838D01*
X86228798Y-109133421D01*
X86285900Y-108846348D01*
X86285900Y-108553652D01*
X86228798Y-108266579D01*
X86116788Y-107996162D01*
X85954174Y-107752794D01*
X85747206Y-107545826D01*
X85503838Y-107383212D01*
X85233421Y-107271202D01*
X84946348Y-107214100D01*
X84653652Y-107214100D01*
X84366579Y-107271202D01*
X84096162Y-107383212D01*
X83852794Y-107545826D01*
X83645826Y-107752794D01*
X83483212Y-107996162D01*
X83371202Y-108266579D01*
X83314100Y-108553652D01*
X83048599Y-108553652D01*
X83048599Y-104388675D01*
X83389700Y-104388675D01*
X83389700Y-104611325D01*
X83433137Y-104829696D01*
X83518341Y-105035398D01*
X83642039Y-105220524D01*
X83799476Y-105377961D01*
X83984602Y-105501659D01*
X84190304Y-105586863D01*
X84408675Y-105630300D01*
X84631325Y-105630300D01*
X84849696Y-105586863D01*
X85055398Y-105501659D01*
X85240524Y-105377961D01*
X85397961Y-105220524D01*
X85521659Y-105035398D01*
X85606863Y-104829696D01*
X85650300Y-104611325D01*
X85650300Y-104388675D01*
X85606863Y-104170304D01*
X85521659Y-103964602D01*
X85397961Y-103779476D01*
X85240524Y-103622039D01*
X85055398Y-103498341D01*
X84849696Y-103413137D01*
X84631325Y-103369700D01*
X84408675Y-103369700D01*
X84190304Y-103413137D01*
X83984602Y-103498341D01*
X83799476Y-103622039D01*
X83642039Y-103779476D01*
X83518341Y-103964602D01*
X83433137Y-104170304D01*
X83389700Y-104388675D01*
X83048599Y-104388675D01*
X83048599Y-99871681D01*
X83071226Y-99881053D01*
X83348465Y-99936200D01*
X83595999Y-99936200D01*
X90673000Y-107013202D01*
X90696799Y-107042201D01*
X90725797Y-107065999D01*
X90812524Y-107137174D01*
X90944553Y-107207746D01*
X91087814Y-107251203D01*
X91236800Y-107265877D01*
X91274133Y-107262200D01*
X91411835Y-107262200D01*
X91366579Y-107271202D01*
X91096162Y-107383212D01*
X90852794Y-107545826D01*
X90645826Y-107752794D01*
X90483212Y-107996162D01*
X90371202Y-108266579D01*
X90314100Y-108553652D01*
X90314100Y-108846348D01*
X90371202Y-109133421D01*
X90483212Y-109403838D01*
X90645826Y-109647206D01*
X90852794Y-109854174D01*
X91096162Y-110016788D01*
X91366579Y-110128798D01*
X91653652Y-110185900D01*
X91946348Y-110185900D01*
X92233421Y-110128798D01*
X92503838Y-110016788D01*
X92747206Y-109854174D01*
X92954174Y-109647206D01*
X93116788Y-109403838D01*
X93228798Y-109133421D01*
X93285900Y-108846348D01*
X93285900Y-108553652D01*
X93228798Y-108266579D01*
X93116788Y-107996162D01*
X92954174Y-107752794D01*
X92747206Y-107545826D01*
X92503838Y-107383212D01*
X92233421Y-107271202D01*
X92188165Y-107262200D01*
X92699999Y-107262200D01*
X93296201Y-107858403D01*
X93296200Y-109716077D01*
X93292524Y-109753400D01*
X93296200Y-109790722D01*
X93296200Y-109790732D01*
X93307197Y-109902385D01*
X93341900Y-110016788D01*
X93350654Y-110045646D01*
X93421226Y-110177676D01*
X93461071Y-110226226D01*
X93516199Y-110293401D01*
X93545203Y-110317204D01*
X96426207Y-113198209D01*
X96247549Y-113317585D01*
X96017585Y-113547549D01*
X95836903Y-113817958D01*
X95712447Y-114118421D01*
X95649000Y-114437391D01*
X95649000Y-114762609D01*
X95712447Y-115081579D01*
X95836903Y-115382042D01*
X96017585Y-115652451D01*
X96247549Y-115882415D01*
X96517958Y-116063097D01*
X96818421Y-116187553D01*
X97137391Y-116251000D01*
X97462609Y-116251000D01*
X97781579Y-116187553D01*
X98082042Y-116063097D01*
X98352451Y-115882415D01*
X98582415Y-115652451D01*
X98763097Y-115382042D01*
X98887553Y-115081579D01*
X98951000Y-114762609D01*
X98951000Y-114437391D01*
X98887553Y-114118421D01*
X98763097Y-113817958D01*
X98582415Y-113547549D01*
X98352451Y-113317585D01*
X98082042Y-113136903D01*
X98060000Y-113127773D01*
X98060000Y-113034523D01*
X98063676Y-112997200D01*
X98060000Y-112959877D01*
X98060000Y-112959867D01*
X98049003Y-112848214D01*
X98005546Y-112704953D01*
X97988146Y-112672400D01*
X97934974Y-112572923D01*
X97863799Y-112486197D01*
X97840001Y-112457199D01*
X97811003Y-112433401D01*
X96104540Y-110726939D01*
X96187095Y-110782100D01*
X96614676Y-110959210D01*
X97068594Y-111049500D01*
X97531406Y-111049500D01*
X97985324Y-110959210D01*
X98412905Y-110782100D01*
X98797719Y-110524976D01*
X99124976Y-110197719D01*
X99382100Y-109812905D01*
X99559210Y-109385324D01*
X99649500Y-108931406D01*
X99649500Y-108553652D01*
X101314100Y-108553652D01*
X101314100Y-108846348D01*
X101371202Y-109133421D01*
X101483212Y-109403838D01*
X101645826Y-109647206D01*
X101852794Y-109854174D01*
X102096162Y-110016788D01*
X102366579Y-110128798D01*
X102653652Y-110185900D01*
X102946348Y-110185900D01*
X103233421Y-110128798D01*
X103503838Y-110016788D01*
X103747206Y-109854174D01*
X103954174Y-109647206D01*
X104116788Y-109403838D01*
X104228798Y-109133421D01*
X104285900Y-108846348D01*
X104285900Y-108553652D01*
X104228798Y-108266579D01*
X104116788Y-107996162D01*
X103954174Y-107752794D01*
X103747206Y-107545826D01*
X103503838Y-107383212D01*
X103233421Y-107271202D01*
X102946348Y-107214100D01*
X102653652Y-107214100D01*
X102366579Y-107271202D01*
X102096162Y-107383212D01*
X101852794Y-107545826D01*
X101645826Y-107752794D01*
X101483212Y-107996162D01*
X101371202Y-108266579D01*
X101314100Y-108553652D01*
X99649500Y-108553652D01*
X99649500Y-108468594D01*
X99559210Y-108014676D01*
X99382100Y-107587095D01*
X99124976Y-107202281D01*
X98797719Y-106875024D01*
X98412905Y-106617900D01*
X97985324Y-106440790D01*
X97531406Y-106350500D01*
X97068594Y-106350500D01*
X96614676Y-106440790D01*
X96187095Y-106617900D01*
X95802281Y-106875024D01*
X95475024Y-107202281D01*
X95217900Y-107587095D01*
X95040790Y-108014676D01*
X94950500Y-108468594D01*
X94950500Y-108931406D01*
X95040790Y-109385324D01*
X95217900Y-109812905D01*
X95273062Y-109895461D01*
X94816200Y-109438599D01*
X94816200Y-107580922D01*
X94819876Y-107543599D01*
X94816200Y-107506277D01*
X94816200Y-107506267D01*
X94805203Y-107394614D01*
X94761746Y-107251353D01*
X94735516Y-107202281D01*
X94691174Y-107119323D01*
X94619999Y-107032597D01*
X94596201Y-107003599D01*
X94567203Y-106979801D01*
X93578604Y-105991202D01*
X93554801Y-105962199D01*
X93439076Y-105867226D01*
X93307047Y-105796654D01*
X93163786Y-105753197D01*
X93052133Y-105742200D01*
X93052122Y-105742200D01*
X93014800Y-105738524D01*
X92977478Y-105742200D01*
X91551602Y-105742200D01*
X90198077Y-104388675D01*
X90949700Y-104388675D01*
X90949700Y-104611325D01*
X90993137Y-104829696D01*
X91078341Y-105035398D01*
X91202039Y-105220524D01*
X91359476Y-105377961D01*
X91544602Y-105501659D01*
X91750304Y-105586863D01*
X91968675Y-105630300D01*
X92191325Y-105630300D01*
X92409696Y-105586863D01*
X92615398Y-105501659D01*
X92800524Y-105377961D01*
X92957961Y-105220524D01*
X93081659Y-105035398D01*
X93166863Y-104829696D01*
X93210300Y-104611325D01*
X93210300Y-104388675D01*
X101389700Y-104388675D01*
X101389700Y-104611325D01*
X101433137Y-104829696D01*
X101518341Y-105035398D01*
X101642039Y-105220524D01*
X101799476Y-105377961D01*
X101984602Y-105501659D01*
X102190304Y-105586863D01*
X102408675Y-105630300D01*
X102631325Y-105630300D01*
X102849696Y-105586863D01*
X103055398Y-105501659D01*
X103240524Y-105377961D01*
X103397961Y-105220524D01*
X103521659Y-105035398D01*
X103606863Y-104829696D01*
X103650300Y-104611325D01*
X103650300Y-104388675D01*
X103606863Y-104170304D01*
X103521659Y-103964602D01*
X103397961Y-103779476D01*
X103240524Y-103622039D01*
X103055398Y-103498341D01*
X102849696Y-103413137D01*
X102631325Y-103369700D01*
X102408675Y-103369700D01*
X102190304Y-103413137D01*
X101984602Y-103498341D01*
X101799476Y-103622039D01*
X101642039Y-103779476D01*
X101518341Y-103964602D01*
X101433137Y-104170304D01*
X101389700Y-104388675D01*
X93210300Y-104388675D01*
X93166863Y-104170304D01*
X93081659Y-103964602D01*
X92957961Y-103779476D01*
X92800524Y-103622039D01*
X92615398Y-103498341D01*
X92409696Y-103413137D01*
X92191325Y-103369700D01*
X91968675Y-103369700D01*
X91750304Y-103413137D01*
X91544602Y-103498341D01*
X91359476Y-103622039D01*
X91202039Y-103779476D01*
X91078341Y-103964602D01*
X90993137Y-104170304D01*
X90949700Y-104388675D01*
X90198077Y-104388675D01*
X84828508Y-99019107D01*
X84869653Y-98919774D01*
X84924800Y-98642535D01*
X84924800Y-98359865D01*
X84869653Y-98082626D01*
X84761480Y-97821473D01*
X84604437Y-97586441D01*
X84404559Y-97386563D01*
X84172041Y-97231200D01*
X84404559Y-97075837D01*
X84604437Y-96875959D01*
X84761480Y-96640927D01*
X84869653Y-96379774D01*
X84924800Y-96102535D01*
X84924800Y-95819865D01*
X84869653Y-95542626D01*
X84761480Y-95281473D01*
X84604437Y-95046441D01*
X84404559Y-94846563D01*
X84172041Y-94691200D01*
X84404559Y-94535837D01*
X84604437Y-94335959D01*
X84761480Y-94100927D01*
X84869653Y-93839774D01*
X84924800Y-93562535D01*
X84924800Y-93279865D01*
X84869653Y-93002626D01*
X84761480Y-92741473D01*
X84604437Y-92506441D01*
X84404559Y-92306563D01*
X84172041Y-92151200D01*
X84404559Y-91995837D01*
X84604437Y-91795959D01*
X84761480Y-91560927D01*
X84869653Y-91299774D01*
X84924800Y-91022535D01*
X84924800Y-90739865D01*
X84869653Y-90462626D01*
X84761480Y-90201473D01*
X84604437Y-89966441D01*
X84528196Y-89890200D01*
X104266721Y-89890200D01*
X104558659Y-89918825D01*
X104808429Y-89994235D01*
X105038792Y-90116722D01*
X105240980Y-90281622D01*
X105407286Y-90482650D01*
X105531378Y-90712154D01*
X105608531Y-90961395D01*
X105639001Y-91251295D01*
X105640000Y-166167720D01*
X105611375Y-166459660D01*
X105535965Y-166709429D01*
X105413477Y-166939794D01*
X105248579Y-167141979D01*
X105047546Y-167308288D01*
X104818046Y-167432378D01*
X104568805Y-167509531D01*
X104278911Y-167540000D01*
X54332279Y-167540000D01*
X54040340Y-167511375D01*
X53790571Y-167435965D01*
X53560206Y-167313477D01*
X53358021Y-167148579D01*
X53191712Y-166947546D01*
X53067622Y-166718046D01*
X52990469Y-166468805D01*
X52960000Y-166178911D01*
X52960000Y-159553652D01*
X54314100Y-159553652D01*
X54314100Y-159846348D01*
X54371202Y-160133421D01*
X54483212Y-160403838D01*
X54645826Y-160647206D01*
X54852794Y-160854174D01*
X55096162Y-161016788D01*
X55366579Y-161128798D01*
X55653652Y-161185900D01*
X55946348Y-161185900D01*
X56233421Y-161128798D01*
X56503838Y-161016788D01*
X56747206Y-160854174D01*
X56954174Y-160647206D01*
X57116788Y-160403838D01*
X57228798Y-160133421D01*
X57285900Y-159846348D01*
X57285900Y-159553652D01*
X57228798Y-159266579D01*
X57116788Y-158996162D01*
X56954174Y-158752794D01*
X56747206Y-158545826D01*
X56503838Y-158383212D01*
X56233421Y-158271202D01*
X55946348Y-158214100D01*
X55653652Y-158214100D01*
X55366579Y-158271202D01*
X55096162Y-158383212D01*
X54852794Y-158545826D01*
X54645826Y-158752794D01*
X54483212Y-158996162D01*
X54371202Y-159266579D01*
X54314100Y-159553652D01*
X52960000Y-159553652D01*
X52960000Y-155388675D01*
X54949700Y-155388675D01*
X54949700Y-155611325D01*
X54993137Y-155829696D01*
X55078341Y-156035398D01*
X55202039Y-156220524D01*
X55359476Y-156377961D01*
X55544602Y-156501659D01*
X55750304Y-156586863D01*
X55968675Y-156630300D01*
X56191325Y-156630300D01*
X56409696Y-156586863D01*
X56615398Y-156501659D01*
X56800524Y-156377961D01*
X56957961Y-156220524D01*
X57081659Y-156035398D01*
X57166863Y-155829696D01*
X57210300Y-155611325D01*
X57210300Y-155388675D01*
X57166863Y-155170304D01*
X57081659Y-154964602D01*
X56957961Y-154779476D01*
X56800524Y-154622039D01*
X56615398Y-154498341D01*
X56409696Y-154413137D01*
X56191325Y-154369700D01*
X55968675Y-154369700D01*
X55750304Y-154413137D01*
X55544602Y-154498341D01*
X55359476Y-154622039D01*
X55202039Y-154779476D01*
X55078341Y-154964602D01*
X54993137Y-155170304D01*
X54949700Y-155388675D01*
X52960000Y-155388675D01*
X52960000Y-146337391D01*
X54649000Y-146337391D01*
X54649000Y-146662609D01*
X54712447Y-146981579D01*
X54836903Y-147282042D01*
X55017585Y-147552451D01*
X55247549Y-147782415D01*
X55517958Y-147963097D01*
X55818421Y-148087553D01*
X56137391Y-148151000D01*
X56462609Y-148151000D01*
X56781579Y-148087553D01*
X57082042Y-147963097D01*
X57352451Y-147782415D01*
X57582415Y-147552451D01*
X57763097Y-147282042D01*
X57887553Y-146981579D01*
X57951000Y-146662609D01*
X57951000Y-146337391D01*
X57887553Y-146018421D01*
X57763097Y-145717958D01*
X57582415Y-145447549D01*
X57352451Y-145217585D01*
X57082042Y-145036903D01*
X56781579Y-144912447D01*
X56462609Y-144849000D01*
X56137391Y-144849000D01*
X55818421Y-144912447D01*
X55517958Y-145036903D01*
X55247549Y-145217585D01*
X55017585Y-145447549D01*
X54836903Y-145717958D01*
X54712447Y-146018421D01*
X54649000Y-146337391D01*
X52960000Y-146337391D01*
X52960000Y-142553652D01*
X54314100Y-142553652D01*
X54314100Y-142846348D01*
X54371202Y-143133421D01*
X54483212Y-143403838D01*
X54645826Y-143647206D01*
X54852794Y-143854174D01*
X55096162Y-144016788D01*
X55366579Y-144128798D01*
X55653652Y-144185900D01*
X55946348Y-144185900D01*
X56233421Y-144128798D01*
X56503838Y-144016788D01*
X56747206Y-143854174D01*
X56954174Y-143647206D01*
X57116788Y-143403838D01*
X57228798Y-143133421D01*
X57285900Y-142846348D01*
X57285900Y-142553652D01*
X57268982Y-142468594D01*
X58950500Y-142468594D01*
X58950500Y-142931406D01*
X59040790Y-143385324D01*
X59217900Y-143812905D01*
X59475024Y-144197719D01*
X59802281Y-144524976D01*
X60187095Y-144782100D01*
X60614676Y-144959210D01*
X61068594Y-145049500D01*
X61531406Y-145049500D01*
X61985324Y-144959210D01*
X62412905Y-144782100D01*
X62797719Y-144524976D01*
X63124976Y-144197719D01*
X63382100Y-143812905D01*
X63559210Y-143385324D01*
X63649500Y-142931406D01*
X63649500Y-142468594D01*
X63559210Y-142014676D01*
X63382100Y-141587095D01*
X63124976Y-141202281D01*
X62797719Y-140875024D01*
X62412905Y-140617900D01*
X61985324Y-140440790D01*
X61531406Y-140350500D01*
X61068594Y-140350500D01*
X60614676Y-140440790D01*
X60187095Y-140617900D01*
X59802281Y-140875024D01*
X59475024Y-141202281D01*
X59217900Y-141587095D01*
X59040790Y-142014676D01*
X58950500Y-142468594D01*
X57268982Y-142468594D01*
X57228798Y-142266579D01*
X57116788Y-141996162D01*
X56954174Y-141752794D01*
X56747206Y-141545826D01*
X56503838Y-141383212D01*
X56233421Y-141271202D01*
X55946348Y-141214100D01*
X55653652Y-141214100D01*
X55366579Y-141271202D01*
X55096162Y-141383212D01*
X54852794Y-141545826D01*
X54645826Y-141752794D01*
X54483212Y-141996162D01*
X54371202Y-142266579D01*
X54314100Y-142553652D01*
X52960000Y-142553652D01*
X52960000Y-138388675D01*
X54949700Y-138388675D01*
X54949700Y-138611325D01*
X54993137Y-138829696D01*
X55078341Y-139035398D01*
X55202039Y-139220524D01*
X55359476Y-139377961D01*
X55544602Y-139501659D01*
X55750304Y-139586863D01*
X55968675Y-139630300D01*
X56191325Y-139630300D01*
X56409696Y-139586863D01*
X56615398Y-139501659D01*
X56800524Y-139377961D01*
X56957961Y-139220524D01*
X57081659Y-139035398D01*
X57166863Y-138829696D01*
X57210300Y-138611325D01*
X57210300Y-138388675D01*
X57166863Y-138170304D01*
X57081659Y-137964602D01*
X56957961Y-137779476D01*
X56800524Y-137622039D01*
X56615398Y-137498341D01*
X56409696Y-137413137D01*
X56191325Y-137369700D01*
X55968675Y-137369700D01*
X55750304Y-137413137D01*
X55544602Y-137498341D01*
X55359476Y-137622039D01*
X55202039Y-137779476D01*
X55078341Y-137964602D01*
X54993137Y-138170304D01*
X54949700Y-138388675D01*
X52960000Y-138388675D01*
X52960000Y-125553652D01*
X54314100Y-125553652D01*
X54314100Y-125846348D01*
X54371202Y-126133421D01*
X54483212Y-126403838D01*
X54645826Y-126647206D01*
X54852794Y-126854174D01*
X55096162Y-127016788D01*
X55366579Y-127128798D01*
X55653652Y-127185900D01*
X55946348Y-127185900D01*
X56233421Y-127128798D01*
X56503838Y-127016788D01*
X56747206Y-126854174D01*
X56954174Y-126647206D01*
X57116788Y-126403838D01*
X57228798Y-126133421D01*
X57285900Y-125846348D01*
X57285900Y-125553652D01*
X57228798Y-125266579D01*
X57116788Y-124996162D01*
X56954174Y-124752794D01*
X56747206Y-124545826D01*
X56503838Y-124383212D01*
X56233421Y-124271202D01*
X55946348Y-124214100D01*
X55653652Y-124214100D01*
X55366579Y-124271202D01*
X55096162Y-124383212D01*
X54852794Y-124545826D01*
X54645826Y-124752794D01*
X54483212Y-124996162D01*
X54371202Y-125266579D01*
X54314100Y-125553652D01*
X52960000Y-125553652D01*
X52960000Y-121388675D01*
X54949700Y-121388675D01*
X54949700Y-121611325D01*
X54993137Y-121829696D01*
X55078341Y-122035398D01*
X55202039Y-122220524D01*
X55359476Y-122377961D01*
X55544602Y-122501659D01*
X55750304Y-122586863D01*
X55968675Y-122630300D01*
X56191325Y-122630300D01*
X56409696Y-122586863D01*
X56615398Y-122501659D01*
X56800524Y-122377961D01*
X56957961Y-122220524D01*
X57081659Y-122035398D01*
X57166863Y-121829696D01*
X57210300Y-121611325D01*
X57210300Y-121388675D01*
X57166863Y-121170304D01*
X57081659Y-120964602D01*
X56957961Y-120779476D01*
X56800524Y-120622039D01*
X56615398Y-120498341D01*
X56409696Y-120413137D01*
X56191325Y-120369700D01*
X55968675Y-120369700D01*
X55750304Y-120413137D01*
X55544602Y-120498341D01*
X55359476Y-120622039D01*
X55202039Y-120779476D01*
X55078341Y-120964602D01*
X54993137Y-121170304D01*
X54949700Y-121388675D01*
X52960000Y-121388675D01*
X52960000Y-112337391D01*
X54649000Y-112337391D01*
X54649000Y-112662609D01*
X54712447Y-112981579D01*
X54836903Y-113282042D01*
X55017585Y-113552451D01*
X55247549Y-113782415D01*
X55517958Y-113963097D01*
X55818421Y-114087553D01*
X56137391Y-114151000D01*
X56462609Y-114151000D01*
X56781579Y-114087553D01*
X57082042Y-113963097D01*
X57340001Y-113790734D01*
X57340000Y-128209265D01*
X57082042Y-128036903D01*
X56781579Y-127912447D01*
X56462609Y-127849000D01*
X56137391Y-127849000D01*
X55818421Y-127912447D01*
X55517958Y-128036903D01*
X55247549Y-128217585D01*
X55017585Y-128447549D01*
X54836903Y-128717958D01*
X54712447Y-129018421D01*
X54649000Y-129337391D01*
X54649000Y-129662609D01*
X54712447Y-129981579D01*
X54836903Y-130282042D01*
X55017585Y-130552451D01*
X55247549Y-130782415D01*
X55517958Y-130963097D01*
X55818421Y-131087553D01*
X56137391Y-131151000D01*
X56462609Y-131151000D01*
X56781579Y-131087553D01*
X57082042Y-130963097D01*
X57352451Y-130782415D01*
X57582415Y-130552451D01*
X57763097Y-130282042D01*
X57887553Y-129981579D01*
X57951000Y-129662609D01*
X57951000Y-129337391D01*
X57948122Y-129322923D01*
X59721577Y-131096379D01*
X59712447Y-131118421D01*
X59649000Y-131437391D01*
X59649000Y-131762609D01*
X59712447Y-132081579D01*
X59836903Y-132382042D01*
X60017585Y-132652451D01*
X60247549Y-132882415D01*
X60517958Y-133063097D01*
X60818421Y-133187553D01*
X61137391Y-133251000D01*
X61462609Y-133251000D01*
X61781579Y-133187553D01*
X61803621Y-133178423D01*
X63940001Y-135314803D01*
X63940000Y-144885198D01*
X61803621Y-147021577D01*
X61781579Y-147012447D01*
X61462609Y-146949000D01*
X61137391Y-146949000D01*
X60818421Y-147012447D01*
X60517958Y-147136903D01*
X60247549Y-147317585D01*
X60017585Y-147547549D01*
X59836903Y-147817958D01*
X59712447Y-148118421D01*
X59649000Y-148437391D01*
X59649000Y-148762609D01*
X59712447Y-149081579D01*
X59721577Y-149103621D01*
X57588998Y-151236201D01*
X57560000Y-151259999D01*
X57536202Y-151288997D01*
X57536201Y-151288998D01*
X57465026Y-151375724D01*
X57394454Y-151507754D01*
X57350998Y-151651015D01*
X57336324Y-151800000D01*
X57340001Y-151837332D01*
X57340000Y-162209265D01*
X57082042Y-162036903D01*
X56781579Y-161912447D01*
X56462609Y-161849000D01*
X56137391Y-161849000D01*
X55818421Y-161912447D01*
X55517958Y-162036903D01*
X55247549Y-162217585D01*
X55017585Y-162447549D01*
X54836903Y-162717958D01*
X54712447Y-163018421D01*
X54649000Y-163337391D01*
X54649000Y-163662609D01*
X54712447Y-163981579D01*
X54836903Y-164282042D01*
X55017585Y-164552451D01*
X55247549Y-164782415D01*
X55517958Y-164963097D01*
X55818421Y-165087553D01*
X56137391Y-165151000D01*
X56462609Y-165151000D01*
X56781579Y-165087553D01*
X57082042Y-164963097D01*
X57352451Y-164782415D01*
X57582415Y-164552451D01*
X57763097Y-164282042D01*
X57887553Y-163981579D01*
X57951000Y-163662609D01*
X57951000Y-163337391D01*
X57948122Y-163322923D01*
X59721577Y-165096379D01*
X59712447Y-165118421D01*
X59649000Y-165437391D01*
X59649000Y-165762609D01*
X59712447Y-166081579D01*
X59836903Y-166382042D01*
X60017585Y-166652451D01*
X60247549Y-166882415D01*
X60517958Y-167063097D01*
X60818421Y-167187553D01*
X61137391Y-167251000D01*
X61462609Y-167251000D01*
X61781579Y-167187553D01*
X62082042Y-167063097D01*
X62352451Y-166882415D01*
X62582415Y-166652451D01*
X62763097Y-166382042D01*
X62887553Y-166081579D01*
X62951000Y-165762609D01*
X62951000Y-165437391D01*
X62887553Y-165118421D01*
X62763097Y-164817958D01*
X62582415Y-164547549D01*
X62352451Y-164317585D01*
X62082042Y-164136903D01*
X61781579Y-164012447D01*
X61462609Y-163949000D01*
X61137391Y-163949000D01*
X60818421Y-164012447D01*
X60796379Y-164021577D01*
X60112193Y-163337391D01*
X72649000Y-163337391D01*
X72649000Y-163662609D01*
X72712447Y-163981579D01*
X72836903Y-164282042D01*
X73017585Y-164552451D01*
X73247549Y-164782415D01*
X73517958Y-164963097D01*
X73818421Y-165087553D01*
X74137391Y-165151000D01*
X74462609Y-165151000D01*
X74781579Y-165087553D01*
X75082042Y-164963097D01*
X75352451Y-164782415D01*
X75582415Y-164552451D01*
X75763097Y-164282042D01*
X75887553Y-163981579D01*
X75951000Y-163662609D01*
X75951000Y-163337391D01*
X75887553Y-163018421D01*
X75763097Y-162717958D01*
X75582415Y-162447549D01*
X75352451Y-162217585D01*
X75082042Y-162036903D01*
X74781579Y-161912447D01*
X74462609Y-161849000D01*
X74137391Y-161849000D01*
X73818421Y-161912447D01*
X73517958Y-162036903D01*
X73247549Y-162217585D01*
X73017585Y-162447549D01*
X72836903Y-162717958D01*
X72712447Y-163018421D01*
X72649000Y-163337391D01*
X60112193Y-163337391D01*
X58860000Y-162085199D01*
X58860000Y-159468594D01*
X58950500Y-159468594D01*
X58950500Y-159931406D01*
X59040790Y-160385324D01*
X59217900Y-160812905D01*
X59475024Y-161197719D01*
X59802281Y-161524976D01*
X60187095Y-161782100D01*
X60614676Y-161959210D01*
X61068594Y-162049500D01*
X61531406Y-162049500D01*
X61985324Y-161959210D01*
X62412905Y-161782100D01*
X62797719Y-161524976D01*
X63124976Y-161197719D01*
X63382100Y-160812905D01*
X63559210Y-160385324D01*
X63649500Y-159931406D01*
X63649500Y-159553652D01*
X65314100Y-159553652D01*
X65314100Y-159846348D01*
X65371202Y-160133421D01*
X65483212Y-160403838D01*
X65645826Y-160647206D01*
X65852794Y-160854174D01*
X66096162Y-161016788D01*
X66366579Y-161128798D01*
X66653652Y-161185900D01*
X66946348Y-161185900D01*
X67233421Y-161128798D01*
X67503838Y-161016788D01*
X67747206Y-160854174D01*
X67954174Y-160647206D01*
X68116788Y-160403838D01*
X68228798Y-160133421D01*
X68285900Y-159846348D01*
X68285900Y-159553652D01*
X72314100Y-159553652D01*
X72314100Y-159846348D01*
X72371202Y-160133421D01*
X72483212Y-160403838D01*
X72645826Y-160647206D01*
X72852794Y-160854174D01*
X73096162Y-161016788D01*
X73366579Y-161128798D01*
X73653652Y-161185900D01*
X73946348Y-161185900D01*
X74233421Y-161128798D01*
X74503838Y-161016788D01*
X74747206Y-160854174D01*
X74954174Y-160647206D01*
X75116788Y-160403838D01*
X75228798Y-160133421D01*
X75285900Y-159846348D01*
X75285900Y-159553652D01*
X75268982Y-159468594D01*
X76950500Y-159468594D01*
X76950500Y-159931406D01*
X77040790Y-160385324D01*
X77217900Y-160812905D01*
X77475024Y-161197719D01*
X77802281Y-161524976D01*
X78187095Y-161782100D01*
X78614676Y-161959210D01*
X79068594Y-162049500D01*
X79531406Y-162049500D01*
X79985324Y-161959210D01*
X80412905Y-161782100D01*
X80797719Y-161524976D01*
X81124976Y-161197719D01*
X81382100Y-160812905D01*
X81559210Y-160385324D01*
X81649500Y-159931406D01*
X81649500Y-159468594D01*
X81559210Y-159014676D01*
X81382100Y-158587095D01*
X81124976Y-158202281D01*
X80797719Y-157875024D01*
X80412905Y-157617900D01*
X79985324Y-157440790D01*
X79531406Y-157350500D01*
X79068594Y-157350500D01*
X78614676Y-157440790D01*
X78187095Y-157617900D01*
X77802281Y-157875024D01*
X77475024Y-158202281D01*
X77217900Y-158587095D01*
X77040790Y-159014676D01*
X76950500Y-159468594D01*
X75268982Y-159468594D01*
X75228798Y-159266579D01*
X75116788Y-158996162D01*
X74954174Y-158752794D01*
X74747206Y-158545826D01*
X74503838Y-158383212D01*
X74233421Y-158271202D01*
X73946348Y-158214100D01*
X73653652Y-158214100D01*
X73366579Y-158271202D01*
X73096162Y-158383212D01*
X72852794Y-158545826D01*
X72645826Y-158752794D01*
X72483212Y-158996162D01*
X72371202Y-159266579D01*
X72314100Y-159553652D01*
X68285900Y-159553652D01*
X68228798Y-159266579D01*
X68116788Y-158996162D01*
X67954174Y-158752794D01*
X67747206Y-158545826D01*
X67503838Y-158383212D01*
X67233421Y-158271202D01*
X66946348Y-158214100D01*
X66653652Y-158214100D01*
X66366579Y-158271202D01*
X66096162Y-158383212D01*
X65852794Y-158545826D01*
X65645826Y-158752794D01*
X65483212Y-158996162D01*
X65371202Y-159266579D01*
X65314100Y-159553652D01*
X63649500Y-159553652D01*
X63649500Y-159468594D01*
X63559210Y-159014676D01*
X63382100Y-158587095D01*
X63124976Y-158202281D01*
X62797719Y-157875024D01*
X62412905Y-157617900D01*
X61985324Y-157440790D01*
X61531406Y-157350500D01*
X61068594Y-157350500D01*
X60614676Y-157440790D01*
X60187095Y-157617900D01*
X59802281Y-157875024D01*
X59475024Y-158202281D01*
X59217900Y-158587095D01*
X59040790Y-159014676D01*
X58950500Y-159468594D01*
X58860000Y-159468594D01*
X58860000Y-155388675D01*
X65389700Y-155388675D01*
X65389700Y-155611325D01*
X65433137Y-155829696D01*
X65518341Y-156035398D01*
X65642039Y-156220524D01*
X65799476Y-156377961D01*
X65984602Y-156501659D01*
X66190304Y-156586863D01*
X66408675Y-156630300D01*
X66631325Y-156630300D01*
X66849696Y-156586863D01*
X67055398Y-156501659D01*
X67240524Y-156377961D01*
X67397961Y-156220524D01*
X67521659Y-156035398D01*
X67606863Y-155829696D01*
X67650300Y-155611325D01*
X67650300Y-155388675D01*
X72949700Y-155388675D01*
X72949700Y-155611325D01*
X72993137Y-155829696D01*
X73078341Y-156035398D01*
X73202039Y-156220524D01*
X73359476Y-156377961D01*
X73544602Y-156501659D01*
X73750304Y-156586863D01*
X73968675Y-156630300D01*
X74191325Y-156630300D01*
X74409696Y-156586863D01*
X74615398Y-156501659D01*
X74800524Y-156377961D01*
X74957961Y-156220524D01*
X75081659Y-156035398D01*
X75166863Y-155829696D01*
X75210300Y-155611325D01*
X75210300Y-155388675D01*
X75166863Y-155170304D01*
X75081659Y-154964602D01*
X74957961Y-154779476D01*
X74800524Y-154622039D01*
X74615398Y-154498341D01*
X74409696Y-154413137D01*
X74191325Y-154369700D01*
X73968675Y-154369700D01*
X73750304Y-154413137D01*
X73544602Y-154498341D01*
X73359476Y-154622039D01*
X73202039Y-154779476D01*
X73078341Y-154964602D01*
X72993137Y-155170304D01*
X72949700Y-155388675D01*
X67650300Y-155388675D01*
X67606863Y-155170304D01*
X67521659Y-154964602D01*
X67397961Y-154779476D01*
X67240524Y-154622039D01*
X67055398Y-154498341D01*
X66849696Y-154413137D01*
X66631325Y-154369700D01*
X66408675Y-154369700D01*
X66190304Y-154413137D01*
X65984602Y-154498341D01*
X65799476Y-154622039D01*
X65642039Y-154779476D01*
X65518341Y-154964602D01*
X65433137Y-155170304D01*
X65389700Y-155388675D01*
X58860000Y-155388675D01*
X58860000Y-152114801D01*
X60796379Y-150178423D01*
X60818421Y-150187553D01*
X61137391Y-150251000D01*
X61462609Y-150251000D01*
X61781579Y-150187553D01*
X62082042Y-150063097D01*
X62352451Y-149882415D01*
X62582415Y-149652451D01*
X62763097Y-149382042D01*
X62887553Y-149081579D01*
X62951000Y-148762609D01*
X62951000Y-148437391D01*
X62887553Y-148118421D01*
X62878423Y-148096379D01*
X65211004Y-145763798D01*
X65240001Y-145740001D01*
X65266332Y-145707917D01*
X65334974Y-145624277D01*
X65405546Y-145492247D01*
X65419105Y-145447549D01*
X65449003Y-145348986D01*
X65460000Y-145237333D01*
X65460000Y-145237324D01*
X65463676Y-145200001D01*
X65460000Y-145162678D01*
X65460000Y-143347799D01*
X65483212Y-143403838D01*
X65645826Y-143647206D01*
X65852794Y-143854174D01*
X66096162Y-144016788D01*
X66366579Y-144128798D01*
X66653652Y-144185900D01*
X66946348Y-144185900D01*
X67233421Y-144128798D01*
X67503838Y-144016788D01*
X67747206Y-143854174D01*
X67954174Y-143647206D01*
X68116788Y-143403838D01*
X68228798Y-143133421D01*
X68285900Y-142846348D01*
X68285900Y-142553652D01*
X68228798Y-142266579D01*
X68116788Y-141996162D01*
X67954174Y-141752794D01*
X67747206Y-141545826D01*
X67503838Y-141383212D01*
X67233421Y-141271202D01*
X66946348Y-141214100D01*
X66653652Y-141214100D01*
X66366579Y-141271202D01*
X66096162Y-141383212D01*
X65852794Y-141545826D01*
X65645826Y-141752794D01*
X65483212Y-141996162D01*
X65460000Y-142052201D01*
X65460000Y-138894549D01*
X65518341Y-139035398D01*
X65642039Y-139220524D01*
X65799476Y-139377961D01*
X65984602Y-139501659D01*
X66190304Y-139586863D01*
X66408675Y-139630300D01*
X66631325Y-139630300D01*
X66849696Y-139586863D01*
X67055398Y-139501659D01*
X67240524Y-139377961D01*
X67397961Y-139220524D01*
X67521659Y-139035398D01*
X67606863Y-138829696D01*
X67650300Y-138611325D01*
X67650300Y-138388675D01*
X67606863Y-138170304D01*
X67521659Y-137964602D01*
X67397961Y-137779476D01*
X67240524Y-137622039D01*
X67055398Y-137498341D01*
X66849696Y-137413137D01*
X66631325Y-137369700D01*
X66408675Y-137369700D01*
X66190304Y-137413137D01*
X65984602Y-137498341D01*
X65799476Y-137622039D01*
X65642039Y-137779476D01*
X65518341Y-137964602D01*
X65460000Y-138105451D01*
X65460000Y-135037322D01*
X65463676Y-134999999D01*
X65460000Y-134962676D01*
X65460000Y-134962667D01*
X65449003Y-134851014D01*
X65405546Y-134707753D01*
X65334974Y-134575723D01*
X65263799Y-134488997D01*
X65240001Y-134459999D01*
X65211003Y-134436201D01*
X62878423Y-132103621D01*
X62887553Y-132081579D01*
X62951000Y-131762609D01*
X62951000Y-131437391D01*
X62887553Y-131118421D01*
X62763097Y-130817958D01*
X62582415Y-130547549D01*
X62352451Y-130317585D01*
X62082042Y-130136903D01*
X61781579Y-130012447D01*
X61462609Y-129949000D01*
X61137391Y-129949000D01*
X60818421Y-130012447D01*
X60796379Y-130021577D01*
X58860000Y-128085199D01*
X58860000Y-125468594D01*
X58950500Y-125468594D01*
X58950500Y-125931406D01*
X59040790Y-126385324D01*
X59217900Y-126812905D01*
X59475024Y-127197719D01*
X59802281Y-127524976D01*
X60187095Y-127782100D01*
X60614676Y-127959210D01*
X61068594Y-128049500D01*
X61531406Y-128049500D01*
X61985324Y-127959210D01*
X62412905Y-127782100D01*
X62797719Y-127524976D01*
X63124976Y-127197719D01*
X63340000Y-126875912D01*
X63340000Y-127062677D01*
X63336324Y-127100000D01*
X63340000Y-127137322D01*
X63340000Y-127137332D01*
X63350997Y-127248985D01*
X63394454Y-127392246D01*
X63465026Y-127524276D01*
X63504871Y-127572826D01*
X63559999Y-127640001D01*
X63589003Y-127663804D01*
X68640001Y-132714803D01*
X68640000Y-145462678D01*
X68636324Y-145500000D01*
X68640000Y-145537322D01*
X68640000Y-145537332D01*
X68650997Y-145648985D01*
X68678606Y-145740001D01*
X68694454Y-145792246D01*
X68765026Y-145924276D01*
X68797362Y-145963677D01*
X68859999Y-146040001D01*
X68889003Y-146063804D01*
X71936200Y-149111002D01*
X71959999Y-149140001D01*
X71988997Y-149163799D01*
X72075723Y-149234974D01*
X72207753Y-149305546D01*
X72351014Y-149349003D01*
X72462667Y-149360000D01*
X72462676Y-149360000D01*
X72499999Y-149363676D01*
X72537322Y-149360000D01*
X77827773Y-149360000D01*
X77836903Y-149382042D01*
X78017585Y-149652451D01*
X78247549Y-149882415D01*
X78517958Y-150063097D01*
X78818421Y-150187553D01*
X79137391Y-150251000D01*
X79462609Y-150251000D01*
X79781579Y-150187553D01*
X79803621Y-150178423D01*
X81840001Y-152214803D01*
X81840000Y-161985198D01*
X79803621Y-164021577D01*
X79781579Y-164012447D01*
X79462609Y-163949000D01*
X79137391Y-163949000D01*
X78818421Y-164012447D01*
X78517958Y-164136903D01*
X78247549Y-164317585D01*
X78017585Y-164547549D01*
X77836903Y-164817958D01*
X77712447Y-165118421D01*
X77649000Y-165437391D01*
X77649000Y-165762609D01*
X77712447Y-166081579D01*
X77836903Y-166382042D01*
X78017585Y-166652451D01*
X78247549Y-166882415D01*
X78517958Y-167063097D01*
X78818421Y-167187553D01*
X79137391Y-167251000D01*
X79462609Y-167251000D01*
X79781579Y-167187553D01*
X80082042Y-167063097D01*
X80352451Y-166882415D01*
X80582415Y-166652451D01*
X80763097Y-166382042D01*
X80887553Y-166081579D01*
X80951000Y-165762609D01*
X80951000Y-165437391D01*
X80887553Y-165118421D01*
X80878423Y-165096379D01*
X83111004Y-162863798D01*
X83140001Y-162840001D01*
X83234974Y-162724276D01*
X83305546Y-162592247D01*
X83349003Y-162448986D01*
X83360000Y-162337333D01*
X83360000Y-162337325D01*
X83363676Y-162300000D01*
X83360000Y-162262675D01*
X83360000Y-160077104D01*
X83371202Y-160133421D01*
X83483212Y-160403838D01*
X83645826Y-160647206D01*
X83852794Y-160854174D01*
X84096162Y-161016788D01*
X84366579Y-161128798D01*
X84653652Y-161185900D01*
X84946348Y-161185900D01*
X85233421Y-161128798D01*
X85503838Y-161016788D01*
X85747206Y-160854174D01*
X85954174Y-160647206D01*
X86116788Y-160403838D01*
X86228798Y-160133421D01*
X86285900Y-159846348D01*
X86285900Y-159553652D01*
X86228798Y-159266579D01*
X86116788Y-158996162D01*
X85954174Y-158752794D01*
X85747206Y-158545826D01*
X85503838Y-158383212D01*
X85233421Y-158271202D01*
X84946348Y-158214100D01*
X84653652Y-158214100D01*
X84366579Y-158271202D01*
X84096162Y-158383212D01*
X83852794Y-158545826D01*
X83645826Y-158752794D01*
X83483212Y-158996162D01*
X83371202Y-159266579D01*
X83360000Y-159322896D01*
X83360000Y-155388675D01*
X83389700Y-155388675D01*
X83389700Y-155611325D01*
X83433137Y-155829696D01*
X83518341Y-156035398D01*
X83642039Y-156220524D01*
X83799476Y-156377961D01*
X83984602Y-156501659D01*
X84190304Y-156586863D01*
X84408675Y-156630300D01*
X84631325Y-156630300D01*
X84849696Y-156586863D01*
X85055398Y-156501659D01*
X85240524Y-156377961D01*
X85397961Y-156220524D01*
X85521659Y-156035398D01*
X85606863Y-155829696D01*
X85650300Y-155611325D01*
X85650300Y-155388675D01*
X85606863Y-155170304D01*
X85521659Y-154964602D01*
X85397961Y-154779476D01*
X85240524Y-154622039D01*
X85055398Y-154498341D01*
X84849696Y-154413137D01*
X84631325Y-154369700D01*
X84408675Y-154369700D01*
X84190304Y-154413137D01*
X83984602Y-154498341D01*
X83799476Y-154622039D01*
X83642039Y-154779476D01*
X83518341Y-154964602D01*
X83433137Y-155170304D01*
X83389700Y-155388675D01*
X83360000Y-155388675D01*
X83360000Y-151937325D01*
X83363676Y-151900000D01*
X83360000Y-151862675D01*
X83360000Y-151862667D01*
X83349003Y-151751014D01*
X83305546Y-151607753D01*
X83234974Y-151475724D01*
X83140001Y-151359999D01*
X83111003Y-151336201D01*
X80878423Y-149103621D01*
X80887553Y-149081579D01*
X80951000Y-148762609D01*
X80951000Y-148437391D01*
X80887553Y-148118421D01*
X80763097Y-147817958D01*
X80582415Y-147547549D01*
X80352451Y-147317585D01*
X80082042Y-147136903D01*
X79781579Y-147012447D01*
X79462609Y-146949000D01*
X79137391Y-146949000D01*
X78818421Y-147012447D01*
X78517958Y-147136903D01*
X78247549Y-147317585D01*
X78017585Y-147547549D01*
X77836903Y-147817958D01*
X77827773Y-147840000D01*
X75266269Y-147840000D01*
X75352451Y-147782415D01*
X75582415Y-147552451D01*
X75763097Y-147282042D01*
X75887553Y-146981579D01*
X75951000Y-146662609D01*
X75951000Y-146337391D01*
X75887553Y-146018421D01*
X75763097Y-145717958D01*
X75582415Y-145447549D01*
X75352451Y-145217585D01*
X75082042Y-145036903D01*
X74781579Y-144912447D01*
X74462609Y-144849000D01*
X74137391Y-144849000D01*
X73818421Y-144912447D01*
X73517958Y-145036903D01*
X73247549Y-145217585D01*
X73017585Y-145447549D01*
X72836903Y-145717958D01*
X72712447Y-146018421D01*
X72649000Y-146337391D01*
X72649000Y-146662609D01*
X72712447Y-146981579D01*
X72836903Y-147282042D01*
X73017585Y-147552451D01*
X73247549Y-147782415D01*
X73333731Y-147840000D01*
X72814802Y-147840000D01*
X70160000Y-145185199D01*
X70160000Y-142553652D01*
X72314100Y-142553652D01*
X72314100Y-142846348D01*
X72371202Y-143133421D01*
X72483212Y-143403838D01*
X72645826Y-143647206D01*
X72852794Y-143854174D01*
X73096162Y-144016788D01*
X73366579Y-144128798D01*
X73653652Y-144185900D01*
X73946348Y-144185900D01*
X74233421Y-144128798D01*
X74503838Y-144016788D01*
X74747206Y-143854174D01*
X74954174Y-143647206D01*
X75116788Y-143403838D01*
X75228798Y-143133421D01*
X75285900Y-142846348D01*
X75285900Y-142553652D01*
X75268982Y-142468594D01*
X76950500Y-142468594D01*
X76950500Y-142931406D01*
X77040790Y-143385324D01*
X77217900Y-143812905D01*
X77475024Y-144197719D01*
X77802281Y-144524976D01*
X78187095Y-144782100D01*
X78614676Y-144959210D01*
X79068594Y-145049500D01*
X79531406Y-145049500D01*
X79985324Y-144959210D01*
X80412905Y-144782100D01*
X80797719Y-144524976D01*
X81124976Y-144197719D01*
X81382100Y-143812905D01*
X81559210Y-143385324D01*
X81649500Y-142931406D01*
X81649500Y-142604801D01*
X86640001Y-147595303D01*
X86640000Y-162162678D01*
X86636324Y-162200000D01*
X86640000Y-162237322D01*
X86640000Y-162237332D01*
X86650997Y-162348985D01*
X86694454Y-162492246D01*
X86765026Y-162624276D01*
X86804871Y-162672826D01*
X86859999Y-162740001D01*
X86889003Y-162763804D01*
X90236201Y-166111003D01*
X90259999Y-166140001D01*
X90288997Y-166163799D01*
X90375723Y-166234974D01*
X90506466Y-166304858D01*
X90507753Y-166305546D01*
X90651014Y-166349003D01*
X90762667Y-166360000D01*
X90762676Y-166360000D01*
X90799999Y-166363676D01*
X90837322Y-166360000D01*
X95827773Y-166360000D01*
X95836903Y-166382042D01*
X96017585Y-166652451D01*
X96247549Y-166882415D01*
X96517958Y-167063097D01*
X96818421Y-167187553D01*
X97137391Y-167251000D01*
X97462609Y-167251000D01*
X97781579Y-167187553D01*
X98082042Y-167063097D01*
X98352451Y-166882415D01*
X98582415Y-166652451D01*
X98763097Y-166382042D01*
X98887553Y-166081579D01*
X98951000Y-165762609D01*
X98951000Y-165437391D01*
X98887553Y-165118421D01*
X98763097Y-164817958D01*
X98582415Y-164547549D01*
X98352451Y-164317585D01*
X98082042Y-164136903D01*
X97781579Y-164012447D01*
X97462609Y-163949000D01*
X97137391Y-163949000D01*
X96818421Y-164012447D01*
X96517958Y-164136903D01*
X96247549Y-164317585D01*
X96017585Y-164547549D01*
X95836903Y-164817958D01*
X95827773Y-164840000D01*
X93266269Y-164840000D01*
X93352451Y-164782415D01*
X93582415Y-164552451D01*
X93763097Y-164282042D01*
X93887553Y-163981579D01*
X93951000Y-163662609D01*
X93951000Y-163337391D01*
X93887553Y-163018421D01*
X93763097Y-162717958D01*
X93582415Y-162447549D01*
X93352451Y-162217585D01*
X93082042Y-162036903D01*
X92781579Y-161912447D01*
X92462609Y-161849000D01*
X92137391Y-161849000D01*
X91818421Y-161912447D01*
X91517958Y-162036903D01*
X91247549Y-162217585D01*
X91017585Y-162447549D01*
X90836903Y-162717958D01*
X90712447Y-163018421D01*
X90649000Y-163337391D01*
X90649000Y-163662609D01*
X90712447Y-163981579D01*
X90836903Y-164282042D01*
X91017585Y-164552451D01*
X91247549Y-164782415D01*
X91333731Y-164840000D01*
X91114802Y-164840000D01*
X88160000Y-161885199D01*
X88160000Y-159553652D01*
X90314100Y-159553652D01*
X90314100Y-159846348D01*
X90371202Y-160133421D01*
X90483212Y-160403838D01*
X90645826Y-160647206D01*
X90852794Y-160854174D01*
X91096162Y-161016788D01*
X91366579Y-161128798D01*
X91653652Y-161185900D01*
X91946348Y-161185900D01*
X92233421Y-161128798D01*
X92503838Y-161016788D01*
X92747206Y-160854174D01*
X92954174Y-160647206D01*
X93116788Y-160403838D01*
X93228798Y-160133421D01*
X93285900Y-159846348D01*
X93285900Y-159553652D01*
X93268982Y-159468594D01*
X94950500Y-159468594D01*
X94950500Y-159931406D01*
X95040790Y-160385324D01*
X95217900Y-160812905D01*
X95475024Y-161197719D01*
X95802281Y-161524976D01*
X96187095Y-161782100D01*
X96614676Y-161959210D01*
X97068594Y-162049500D01*
X97531406Y-162049500D01*
X97985324Y-161959210D01*
X98412905Y-161782100D01*
X98797719Y-161524976D01*
X99124976Y-161197719D01*
X99382100Y-160812905D01*
X99559210Y-160385324D01*
X99649500Y-159931406D01*
X99649500Y-159553652D01*
X101314100Y-159553652D01*
X101314100Y-159846348D01*
X101371202Y-160133421D01*
X101483212Y-160403838D01*
X101645826Y-160647206D01*
X101852794Y-160854174D01*
X102096162Y-161016788D01*
X102366579Y-161128798D01*
X102653652Y-161185900D01*
X102946348Y-161185900D01*
X103233421Y-161128798D01*
X103503838Y-161016788D01*
X103747206Y-160854174D01*
X103954174Y-160647206D01*
X104116788Y-160403838D01*
X104228798Y-160133421D01*
X104285900Y-159846348D01*
X104285900Y-159553652D01*
X104228798Y-159266579D01*
X104116788Y-158996162D01*
X103954174Y-158752794D01*
X103747206Y-158545826D01*
X103503838Y-158383212D01*
X103233421Y-158271202D01*
X102946348Y-158214100D01*
X102653652Y-158214100D01*
X102366579Y-158271202D01*
X102096162Y-158383212D01*
X101852794Y-158545826D01*
X101645826Y-158752794D01*
X101483212Y-158996162D01*
X101371202Y-159266579D01*
X101314100Y-159553652D01*
X99649500Y-159553652D01*
X99649500Y-159468594D01*
X99559210Y-159014676D01*
X99382100Y-158587095D01*
X99124976Y-158202281D01*
X98797719Y-157875024D01*
X98412905Y-157617900D01*
X97985324Y-157440790D01*
X97531406Y-157350500D01*
X97068594Y-157350500D01*
X96614676Y-157440790D01*
X96187095Y-157617900D01*
X95802281Y-157875024D01*
X95475024Y-158202281D01*
X95217900Y-158587095D01*
X95040790Y-159014676D01*
X94950500Y-159468594D01*
X93268982Y-159468594D01*
X93228798Y-159266579D01*
X93116788Y-158996162D01*
X92954174Y-158752794D01*
X92747206Y-158545826D01*
X92503838Y-158383212D01*
X92233421Y-158271202D01*
X91946348Y-158214100D01*
X91653652Y-158214100D01*
X91366579Y-158271202D01*
X91096162Y-158383212D01*
X90852794Y-158545826D01*
X90645826Y-158752794D01*
X90483212Y-158996162D01*
X90371202Y-159266579D01*
X90314100Y-159553652D01*
X88160000Y-159553652D01*
X88160000Y-155388675D01*
X90949700Y-155388675D01*
X90949700Y-155611325D01*
X90993137Y-155829696D01*
X91078341Y-156035398D01*
X91202039Y-156220524D01*
X91359476Y-156377961D01*
X91544602Y-156501659D01*
X91750304Y-156586863D01*
X91968675Y-156630300D01*
X92191325Y-156630300D01*
X92409696Y-156586863D01*
X92615398Y-156501659D01*
X92800524Y-156377961D01*
X92957961Y-156220524D01*
X93081659Y-156035398D01*
X93166863Y-155829696D01*
X93210300Y-155611325D01*
X93210300Y-155388675D01*
X101389700Y-155388675D01*
X101389700Y-155611325D01*
X101433137Y-155829696D01*
X101518341Y-156035398D01*
X101642039Y-156220524D01*
X101799476Y-156377961D01*
X101984602Y-156501659D01*
X102190304Y-156586863D01*
X102408675Y-156630300D01*
X102631325Y-156630300D01*
X102849696Y-156586863D01*
X103055398Y-156501659D01*
X103240524Y-156377961D01*
X103397961Y-156220524D01*
X103521659Y-156035398D01*
X103606863Y-155829696D01*
X103650300Y-155611325D01*
X103650300Y-155388675D01*
X103606863Y-155170304D01*
X103521659Y-154964602D01*
X103397961Y-154779476D01*
X103240524Y-154622039D01*
X103055398Y-154498341D01*
X102849696Y-154413137D01*
X102631325Y-154369700D01*
X102408675Y-154369700D01*
X102190304Y-154413137D01*
X101984602Y-154498341D01*
X101799476Y-154622039D01*
X101642039Y-154779476D01*
X101518341Y-154964602D01*
X101433137Y-155170304D01*
X101389700Y-155388675D01*
X93210300Y-155388675D01*
X93166863Y-155170304D01*
X93081659Y-154964602D01*
X92957961Y-154779476D01*
X92800524Y-154622039D01*
X92615398Y-154498341D01*
X92409696Y-154413137D01*
X92191325Y-154369700D01*
X91968675Y-154369700D01*
X91750304Y-154413137D01*
X91544602Y-154498341D01*
X91359476Y-154622039D01*
X91202039Y-154779476D01*
X91078341Y-154964602D01*
X90993137Y-155170304D01*
X90949700Y-155388675D01*
X88160000Y-155388675D01*
X88160000Y-148437391D01*
X95649000Y-148437391D01*
X95649000Y-148762609D01*
X95712447Y-149081579D01*
X95836903Y-149382042D01*
X96017585Y-149652451D01*
X96247549Y-149882415D01*
X96517958Y-150063097D01*
X96818421Y-150187553D01*
X97137391Y-150251000D01*
X97462609Y-150251000D01*
X97781579Y-150187553D01*
X98082042Y-150063097D01*
X98352451Y-149882415D01*
X98582415Y-149652451D01*
X98763097Y-149382042D01*
X98887553Y-149081579D01*
X98951000Y-148762609D01*
X98951000Y-148437391D01*
X98887553Y-148118421D01*
X98763097Y-147817958D01*
X98582415Y-147547549D01*
X98352451Y-147317585D01*
X98082042Y-147136903D01*
X97781579Y-147012447D01*
X97462609Y-146949000D01*
X97137391Y-146949000D01*
X96818421Y-147012447D01*
X96517958Y-147136903D01*
X96247549Y-147317585D01*
X96017585Y-147547549D01*
X95836903Y-147817958D01*
X95712447Y-148118421D01*
X95649000Y-148437391D01*
X88160000Y-148437391D01*
X88160000Y-147317822D01*
X88163676Y-147280499D01*
X88160000Y-147243177D01*
X88160000Y-147243167D01*
X88149003Y-147131514D01*
X88105546Y-146988253D01*
X88084565Y-146949000D01*
X88034974Y-146856223D01*
X87963799Y-146769497D01*
X87940001Y-146740499D01*
X87911003Y-146716701D01*
X87531693Y-146337391D01*
X90649000Y-146337391D01*
X90649000Y-146662609D01*
X90712447Y-146981579D01*
X90836903Y-147282042D01*
X91017585Y-147552451D01*
X91247549Y-147782415D01*
X91517958Y-147963097D01*
X91818421Y-148087553D01*
X92137391Y-148151000D01*
X92462609Y-148151000D01*
X92781579Y-148087553D01*
X93082042Y-147963097D01*
X93352451Y-147782415D01*
X93582415Y-147552451D01*
X93763097Y-147282042D01*
X93887553Y-146981579D01*
X93951000Y-146662609D01*
X93951000Y-146337391D01*
X93887553Y-146018421D01*
X93763097Y-145717958D01*
X93582415Y-145447549D01*
X93352451Y-145217585D01*
X93082042Y-145036903D01*
X92781579Y-144912447D01*
X92462609Y-144849000D01*
X92137391Y-144849000D01*
X91818421Y-144912447D01*
X91517958Y-145036903D01*
X91247549Y-145217585D01*
X91017585Y-145447549D01*
X90836903Y-145717958D01*
X90712447Y-146018421D01*
X90649000Y-146337391D01*
X87531693Y-146337391D01*
X85296833Y-144102532D01*
X85503838Y-144016788D01*
X85747206Y-143854174D01*
X85954174Y-143647206D01*
X86116788Y-143403838D01*
X86228798Y-143133421D01*
X86285900Y-142846348D01*
X86285900Y-142553652D01*
X90314100Y-142553652D01*
X90314100Y-142846348D01*
X90371202Y-143133421D01*
X90483212Y-143403838D01*
X90645826Y-143647206D01*
X90852794Y-143854174D01*
X91096162Y-144016788D01*
X91366579Y-144128798D01*
X91653652Y-144185900D01*
X91946348Y-144185900D01*
X92233421Y-144128798D01*
X92503838Y-144016788D01*
X92747206Y-143854174D01*
X92954174Y-143647206D01*
X93116788Y-143403838D01*
X93228798Y-143133421D01*
X93285900Y-142846348D01*
X93285900Y-142553652D01*
X93268982Y-142468594D01*
X94950500Y-142468594D01*
X94950500Y-142931406D01*
X95040790Y-143385324D01*
X95217900Y-143812905D01*
X95475024Y-144197719D01*
X95802281Y-144524976D01*
X96187095Y-144782100D01*
X96614676Y-144959210D01*
X97068594Y-145049500D01*
X97531406Y-145049500D01*
X97985324Y-144959210D01*
X98412905Y-144782100D01*
X98797719Y-144524976D01*
X99124976Y-144197719D01*
X99382100Y-143812905D01*
X99559210Y-143385324D01*
X99649500Y-142931406D01*
X99649500Y-142553652D01*
X101314100Y-142553652D01*
X101314100Y-142846348D01*
X101371202Y-143133421D01*
X101483212Y-143403838D01*
X101645826Y-143647206D01*
X101852794Y-143854174D01*
X102096162Y-144016788D01*
X102366579Y-144128798D01*
X102653652Y-144185900D01*
X102946348Y-144185900D01*
X103233421Y-144128798D01*
X103503838Y-144016788D01*
X103747206Y-143854174D01*
X103954174Y-143647206D01*
X104116788Y-143403838D01*
X104228798Y-143133421D01*
X104285900Y-142846348D01*
X104285900Y-142553652D01*
X104228798Y-142266579D01*
X104116788Y-141996162D01*
X103954174Y-141752794D01*
X103747206Y-141545826D01*
X103503838Y-141383212D01*
X103233421Y-141271202D01*
X102946348Y-141214100D01*
X102653652Y-141214100D01*
X102366579Y-141271202D01*
X102096162Y-141383212D01*
X101852794Y-141545826D01*
X101645826Y-141752794D01*
X101483212Y-141996162D01*
X101371202Y-142266579D01*
X101314100Y-142553652D01*
X99649500Y-142553652D01*
X99649500Y-142468594D01*
X99559210Y-142014676D01*
X99382100Y-141587095D01*
X99124976Y-141202281D01*
X98797719Y-140875024D01*
X98412905Y-140617900D01*
X97985324Y-140440790D01*
X97531406Y-140350500D01*
X97068594Y-140350500D01*
X96614676Y-140440790D01*
X96187095Y-140617900D01*
X95802281Y-140875024D01*
X95475024Y-141202281D01*
X95217900Y-141587095D01*
X95040790Y-142014676D01*
X94950500Y-142468594D01*
X93268982Y-142468594D01*
X93228798Y-142266579D01*
X93116788Y-141996162D01*
X92954174Y-141752794D01*
X92747206Y-141545826D01*
X92503838Y-141383212D01*
X92233421Y-141271202D01*
X91946348Y-141214100D01*
X91653652Y-141214100D01*
X91366579Y-141271202D01*
X91096162Y-141383212D01*
X90852794Y-141545826D01*
X90645826Y-141752794D01*
X90483212Y-141996162D01*
X90371202Y-142266579D01*
X90314100Y-142553652D01*
X86285900Y-142553652D01*
X86228798Y-142266579D01*
X86116788Y-141996162D01*
X85954174Y-141752794D01*
X85747206Y-141545826D01*
X85503838Y-141383212D01*
X85233421Y-141271202D01*
X84946348Y-141214100D01*
X84653652Y-141214100D01*
X84366579Y-141271202D01*
X84096162Y-141383212D01*
X83852794Y-141545826D01*
X83645826Y-141752794D01*
X83483212Y-141996162D01*
X83397468Y-142203167D01*
X82315000Y-141120699D01*
X82315000Y-141058561D01*
X82275226Y-140858602D01*
X82197205Y-140670244D01*
X82083937Y-140500726D01*
X81939774Y-140356563D01*
X81770256Y-140243295D01*
X81581898Y-140165274D01*
X81381939Y-140125500D01*
X81178061Y-140125500D01*
X80978102Y-140165274D01*
X80789744Y-140243295D01*
X80620226Y-140356563D01*
X80476063Y-140500726D01*
X80401051Y-140612990D01*
X79985324Y-140440790D01*
X79531406Y-140350500D01*
X79068594Y-140350500D01*
X78614676Y-140440790D01*
X78187095Y-140617900D01*
X77802281Y-140875024D01*
X77475024Y-141202281D01*
X77217900Y-141587095D01*
X77040790Y-142014676D01*
X76950500Y-142468594D01*
X75268982Y-142468594D01*
X75228798Y-142266579D01*
X75116788Y-141996162D01*
X74954174Y-141752794D01*
X74747206Y-141545826D01*
X74503838Y-141383212D01*
X74233421Y-141271202D01*
X73946348Y-141214100D01*
X73653652Y-141214100D01*
X73366579Y-141271202D01*
X73096162Y-141383212D01*
X72852794Y-141545826D01*
X72645826Y-141752794D01*
X72483212Y-141996162D01*
X72371202Y-142266579D01*
X72314100Y-142553652D01*
X70160000Y-142553652D01*
X70160000Y-138388675D01*
X72949700Y-138388675D01*
X72949700Y-138611325D01*
X72993137Y-138829696D01*
X73078341Y-139035398D01*
X73202039Y-139220524D01*
X73359476Y-139377961D01*
X73544602Y-139501659D01*
X73750304Y-139586863D01*
X73968675Y-139630300D01*
X74191325Y-139630300D01*
X74409696Y-139586863D01*
X74615398Y-139501659D01*
X74800524Y-139377961D01*
X74957961Y-139220524D01*
X75081659Y-139035398D01*
X75166863Y-138829696D01*
X75210300Y-138611325D01*
X75210300Y-138388675D01*
X83389700Y-138388675D01*
X83389700Y-138611325D01*
X83433137Y-138829696D01*
X83518341Y-139035398D01*
X83642039Y-139220524D01*
X83799476Y-139377961D01*
X83984602Y-139501659D01*
X84190304Y-139586863D01*
X84408675Y-139630300D01*
X84631325Y-139630300D01*
X84849696Y-139586863D01*
X85055398Y-139501659D01*
X85240524Y-139377961D01*
X85397961Y-139220524D01*
X85521659Y-139035398D01*
X85606863Y-138829696D01*
X85650300Y-138611325D01*
X85650300Y-138388675D01*
X90949700Y-138388675D01*
X90949700Y-138611325D01*
X90993137Y-138829696D01*
X91078341Y-139035398D01*
X91202039Y-139220524D01*
X91359476Y-139377961D01*
X91544602Y-139501659D01*
X91750304Y-139586863D01*
X91968675Y-139630300D01*
X92191325Y-139630300D01*
X92409696Y-139586863D01*
X92615398Y-139501659D01*
X92800524Y-139377961D01*
X92957961Y-139220524D01*
X93081659Y-139035398D01*
X93166863Y-138829696D01*
X93210300Y-138611325D01*
X93210300Y-138388675D01*
X101389700Y-138388675D01*
X101389700Y-138611325D01*
X101433137Y-138829696D01*
X101518341Y-139035398D01*
X101642039Y-139220524D01*
X101799476Y-139377961D01*
X101984602Y-139501659D01*
X102190304Y-139586863D01*
X102408675Y-139630300D01*
X102631325Y-139630300D01*
X102849696Y-139586863D01*
X103055398Y-139501659D01*
X103240524Y-139377961D01*
X103397961Y-139220524D01*
X103521659Y-139035398D01*
X103606863Y-138829696D01*
X103650300Y-138611325D01*
X103650300Y-138388675D01*
X103606863Y-138170304D01*
X103521659Y-137964602D01*
X103397961Y-137779476D01*
X103240524Y-137622039D01*
X103055398Y-137498341D01*
X102849696Y-137413137D01*
X102631325Y-137369700D01*
X102408675Y-137369700D01*
X102190304Y-137413137D01*
X101984602Y-137498341D01*
X101799476Y-137622039D01*
X101642039Y-137779476D01*
X101518341Y-137964602D01*
X101433137Y-138170304D01*
X101389700Y-138388675D01*
X93210300Y-138388675D01*
X93166863Y-138170304D01*
X93081659Y-137964602D01*
X92957961Y-137779476D01*
X92800524Y-137622039D01*
X92615398Y-137498341D01*
X92409696Y-137413137D01*
X92191325Y-137369700D01*
X91968675Y-137369700D01*
X91750304Y-137413137D01*
X91544602Y-137498341D01*
X91359476Y-137622039D01*
X91202039Y-137779476D01*
X91078341Y-137964602D01*
X90993137Y-138170304D01*
X90949700Y-138388675D01*
X85650300Y-138388675D01*
X85606863Y-138170304D01*
X85521659Y-137964602D01*
X85397961Y-137779476D01*
X85240524Y-137622039D01*
X85055398Y-137498341D01*
X84849696Y-137413137D01*
X84631325Y-137369700D01*
X84408675Y-137369700D01*
X84190304Y-137413137D01*
X83984602Y-137498341D01*
X83799476Y-137622039D01*
X83642039Y-137779476D01*
X83518341Y-137964602D01*
X83433137Y-138170304D01*
X83389700Y-138388675D01*
X75210300Y-138388675D01*
X75166863Y-138170304D01*
X75081659Y-137964602D01*
X74957961Y-137779476D01*
X74800524Y-137622039D01*
X74615398Y-137498341D01*
X74409696Y-137413137D01*
X74191325Y-137369700D01*
X73968675Y-137369700D01*
X73750304Y-137413137D01*
X73544602Y-137498341D01*
X73359476Y-137622039D01*
X73202039Y-137779476D01*
X73078341Y-137964602D01*
X72993137Y-138170304D01*
X72949700Y-138388675D01*
X70160000Y-138388675D01*
X70160000Y-132437323D01*
X70163676Y-132400000D01*
X70160000Y-132362677D01*
X70160000Y-132362667D01*
X70149003Y-132251014D01*
X70105546Y-132107753D01*
X70060926Y-132024276D01*
X70034974Y-131975723D01*
X69963799Y-131888997D01*
X69940001Y-131859999D01*
X69911003Y-131836201D01*
X67412193Y-129337391D01*
X72649000Y-129337391D01*
X72649000Y-129662609D01*
X72712447Y-129981579D01*
X72836903Y-130282042D01*
X73017585Y-130552451D01*
X73247549Y-130782415D01*
X73517958Y-130963097D01*
X73818421Y-131087553D01*
X74137391Y-131151000D01*
X74462609Y-131151000D01*
X74781579Y-131087553D01*
X75082042Y-130963097D01*
X75352451Y-130782415D01*
X75582415Y-130552451D01*
X75763097Y-130282042D01*
X75887553Y-129981579D01*
X75951000Y-129662609D01*
X75951000Y-129337391D01*
X75887553Y-129018421D01*
X75763097Y-128717958D01*
X75582415Y-128447549D01*
X75352451Y-128217585D01*
X75082042Y-128036903D01*
X74781579Y-127912447D01*
X74462609Y-127849000D01*
X74137391Y-127849000D01*
X73818421Y-127912447D01*
X73517958Y-128036903D01*
X73247549Y-128217585D01*
X73017585Y-128447549D01*
X72836903Y-128717958D01*
X72712447Y-129018421D01*
X72649000Y-129337391D01*
X67412193Y-129337391D01*
X64860000Y-126785199D01*
X64860000Y-125553652D01*
X65314100Y-125553652D01*
X65314100Y-125846348D01*
X65371202Y-126133421D01*
X65483212Y-126403838D01*
X65645826Y-126647206D01*
X65852794Y-126854174D01*
X66096162Y-127016788D01*
X66366579Y-127128798D01*
X66653652Y-127185900D01*
X66946348Y-127185900D01*
X67233421Y-127128798D01*
X67503838Y-127016788D01*
X67747206Y-126854174D01*
X67954174Y-126647206D01*
X68116788Y-126403838D01*
X68228798Y-126133421D01*
X68285900Y-125846348D01*
X68285900Y-125553652D01*
X72314100Y-125553652D01*
X72314100Y-125846348D01*
X72371202Y-126133421D01*
X72483212Y-126403838D01*
X72645826Y-126647206D01*
X72852794Y-126854174D01*
X73096162Y-127016788D01*
X73366579Y-127128798D01*
X73653652Y-127185900D01*
X73946348Y-127185900D01*
X74233421Y-127128798D01*
X74503838Y-127016788D01*
X74747206Y-126854174D01*
X74954174Y-126647206D01*
X75116788Y-126403838D01*
X75228798Y-126133421D01*
X75285900Y-125846348D01*
X75285900Y-125553652D01*
X75228798Y-125266579D01*
X75116788Y-124996162D01*
X74954174Y-124752794D01*
X74747206Y-124545826D01*
X74503838Y-124383212D01*
X74233421Y-124271202D01*
X73946348Y-124214100D01*
X73653652Y-124214100D01*
X73366579Y-124271202D01*
X73096162Y-124383212D01*
X72852794Y-124545826D01*
X72645826Y-124752794D01*
X72483212Y-124996162D01*
X72371202Y-125266579D01*
X72314100Y-125553652D01*
X68285900Y-125553652D01*
X68228798Y-125266579D01*
X68116788Y-124996162D01*
X67954174Y-124752794D01*
X67747206Y-124545826D01*
X67503838Y-124383212D01*
X67233421Y-124271202D01*
X66946348Y-124214100D01*
X66653652Y-124214100D01*
X66366579Y-124271202D01*
X66096162Y-124383212D01*
X65852794Y-124545826D01*
X65645826Y-124752794D01*
X65483212Y-124996162D01*
X65371202Y-125266579D01*
X65314100Y-125553652D01*
X64860000Y-125553652D01*
X64860000Y-125516211D01*
X64875437Y-125500774D01*
X64988705Y-125331256D01*
X65066726Y-125142898D01*
X65106500Y-124942939D01*
X65106500Y-124739061D01*
X65066726Y-124539102D01*
X64988705Y-124350744D01*
X64875437Y-124181226D01*
X64731274Y-124037063D01*
X64561756Y-123923795D01*
X64373398Y-123845774D01*
X64173439Y-123806000D01*
X63969561Y-123806000D01*
X63769602Y-123845774D01*
X63581244Y-123923795D01*
X63411726Y-124037063D01*
X63267563Y-124181226D01*
X63189235Y-124298452D01*
X63124976Y-124202281D01*
X62797719Y-123875024D01*
X62412905Y-123617900D01*
X61985324Y-123440790D01*
X61531406Y-123350500D01*
X61068594Y-123350500D01*
X60614676Y-123440790D01*
X60187095Y-123617900D01*
X59802281Y-123875024D01*
X59475024Y-124202281D01*
X59217900Y-124587095D01*
X59040790Y-125014676D01*
X58950500Y-125468594D01*
X58860000Y-125468594D01*
X58860000Y-121388675D01*
X65389700Y-121388675D01*
X65389700Y-121611325D01*
X65433137Y-121829696D01*
X65518341Y-122035398D01*
X65642039Y-122220524D01*
X65799476Y-122377961D01*
X65984602Y-122501659D01*
X66190304Y-122586863D01*
X66408675Y-122630300D01*
X66631325Y-122630300D01*
X66849696Y-122586863D01*
X67055398Y-122501659D01*
X67240524Y-122377961D01*
X67397961Y-122220524D01*
X67521659Y-122035398D01*
X67606863Y-121829696D01*
X67650300Y-121611325D01*
X67650300Y-121388675D01*
X72949700Y-121388675D01*
X72949700Y-121611325D01*
X72993137Y-121829696D01*
X73078341Y-122035398D01*
X73202039Y-122220524D01*
X73359476Y-122377961D01*
X73544602Y-122501659D01*
X73750304Y-122586863D01*
X73968675Y-122630300D01*
X74191325Y-122630300D01*
X74409696Y-122586863D01*
X74615398Y-122501659D01*
X74800524Y-122377961D01*
X74957961Y-122220524D01*
X75081659Y-122035398D01*
X75166863Y-121829696D01*
X75210300Y-121611325D01*
X75210300Y-121388675D01*
X75166863Y-121170304D01*
X75081659Y-120964602D01*
X74957961Y-120779476D01*
X74800524Y-120622039D01*
X74615398Y-120498341D01*
X74409696Y-120413137D01*
X74191325Y-120369700D01*
X73968675Y-120369700D01*
X73750304Y-120413137D01*
X73544602Y-120498341D01*
X73359476Y-120622039D01*
X73202039Y-120779476D01*
X73078341Y-120964602D01*
X72993137Y-121170304D01*
X72949700Y-121388675D01*
X67650300Y-121388675D01*
X67606863Y-121170304D01*
X67521659Y-120964602D01*
X67397961Y-120779476D01*
X67240524Y-120622039D01*
X67055398Y-120498341D01*
X66849696Y-120413137D01*
X66631325Y-120369700D01*
X66408675Y-120369700D01*
X66190304Y-120413137D01*
X65984602Y-120498341D01*
X65799476Y-120622039D01*
X65642039Y-120779476D01*
X65518341Y-120964602D01*
X65433137Y-121170304D01*
X65389700Y-121388675D01*
X58860000Y-121388675D01*
X58860000Y-113918801D01*
X60106402Y-112672400D01*
X63386478Y-112672400D01*
X63423800Y-112676076D01*
X63461122Y-112672400D01*
X63461133Y-112672400D01*
X63572786Y-112661403D01*
X63716047Y-112617946D01*
X63848076Y-112547374D01*
X63963801Y-112452401D01*
X63987604Y-112423397D01*
X64216199Y-112194802D01*
X64962202Y-111448800D01*
X65024339Y-111448800D01*
X65224298Y-111409026D01*
X65412656Y-111331005D01*
X65582174Y-111217737D01*
X65726337Y-111073574D01*
X65839605Y-110904056D01*
X65917626Y-110715698D01*
X65957400Y-110515739D01*
X65957400Y-110311861D01*
X65917626Y-110111902D01*
X65839605Y-109923544D01*
X65726337Y-109754026D01*
X65582174Y-109609863D01*
X65412656Y-109496595D01*
X65224298Y-109418574D01*
X65024339Y-109378800D01*
X64820461Y-109378800D01*
X64620502Y-109418574D01*
X64432144Y-109496595D01*
X64262626Y-109609863D01*
X64118463Y-109754026D01*
X64005195Y-109923544D01*
X63927174Y-110111902D01*
X63887400Y-110311861D01*
X63887400Y-110373998D01*
X63141398Y-111120001D01*
X63108999Y-111152400D01*
X59828925Y-111152400D01*
X59791600Y-111148724D01*
X59754275Y-111152400D01*
X59754267Y-111152400D01*
X59642614Y-111163397D01*
X59499353Y-111206854D01*
X59367324Y-111277426D01*
X59251599Y-111372399D01*
X59227801Y-111401397D01*
X57947129Y-112682070D01*
X57951000Y-112662609D01*
X57951000Y-112337391D01*
X57887553Y-112018421D01*
X57763097Y-111717958D01*
X57582415Y-111447549D01*
X57352451Y-111217585D01*
X57082042Y-111036903D01*
X56781579Y-110912447D01*
X56462609Y-110849000D01*
X56137391Y-110849000D01*
X55818421Y-110912447D01*
X55517958Y-111036903D01*
X55247549Y-111217585D01*
X55017585Y-111447549D01*
X54836903Y-111717958D01*
X54712447Y-112018421D01*
X54649000Y-112337391D01*
X52960000Y-112337391D01*
X52960000Y-108553652D01*
X54314100Y-108553652D01*
X54314100Y-108846348D01*
X54371202Y-109133421D01*
X54483212Y-109403838D01*
X54645826Y-109647206D01*
X54852794Y-109854174D01*
X55096162Y-110016788D01*
X55366579Y-110128798D01*
X55653652Y-110185900D01*
X55946348Y-110185900D01*
X56233421Y-110128798D01*
X56503838Y-110016788D01*
X56747206Y-109854174D01*
X56954174Y-109647206D01*
X57116788Y-109403838D01*
X57228798Y-109133421D01*
X57285900Y-108846348D01*
X57285900Y-108553652D01*
X57268982Y-108468594D01*
X58950500Y-108468594D01*
X58950500Y-108931406D01*
X59040790Y-109385324D01*
X59217900Y-109812905D01*
X59475024Y-110197719D01*
X59802281Y-110524976D01*
X60187095Y-110782100D01*
X60614676Y-110959210D01*
X61068594Y-111049500D01*
X61531406Y-111049500D01*
X61985324Y-110959210D01*
X62412905Y-110782100D01*
X62797719Y-110524976D01*
X63124976Y-110197719D01*
X63382100Y-109812905D01*
X63559210Y-109385324D01*
X63649500Y-108931406D01*
X63649500Y-108553652D01*
X65314100Y-108553652D01*
X65314100Y-108846348D01*
X65371202Y-109133421D01*
X65483212Y-109403838D01*
X65645826Y-109647206D01*
X65852794Y-109854174D01*
X66096162Y-110016788D01*
X66366579Y-110128798D01*
X66653652Y-110185900D01*
X66946348Y-110185900D01*
X67233421Y-110128798D01*
X67503838Y-110016788D01*
X67747206Y-109854174D01*
X67954174Y-109647206D01*
X68116788Y-109403838D01*
X68228798Y-109133421D01*
X68285900Y-108846348D01*
X68285900Y-108553652D01*
X68228798Y-108266579D01*
X68116788Y-107996162D01*
X67954174Y-107752794D01*
X67747206Y-107545826D01*
X67503838Y-107383212D01*
X67233421Y-107271202D01*
X66946348Y-107214100D01*
X66653652Y-107214100D01*
X66366579Y-107271202D01*
X66096162Y-107383212D01*
X65852794Y-107545826D01*
X65645826Y-107752794D01*
X65483212Y-107996162D01*
X65371202Y-108266579D01*
X65314100Y-108553652D01*
X63649500Y-108553652D01*
X63649500Y-108468594D01*
X63559210Y-108014676D01*
X63382100Y-107587095D01*
X63124976Y-107202281D01*
X62797719Y-106875024D01*
X62412905Y-106617900D01*
X61985324Y-106440790D01*
X61531406Y-106350500D01*
X61068594Y-106350500D01*
X60614676Y-106440790D01*
X60187095Y-106617900D01*
X59802281Y-106875024D01*
X59475024Y-107202281D01*
X59217900Y-107587095D01*
X59040790Y-108014676D01*
X58950500Y-108468594D01*
X57268982Y-108468594D01*
X57228798Y-108266579D01*
X57116788Y-107996162D01*
X56954174Y-107752794D01*
X56747206Y-107545826D01*
X56503838Y-107383212D01*
X56233421Y-107271202D01*
X55946348Y-107214100D01*
X55653652Y-107214100D01*
X55366579Y-107271202D01*
X55096162Y-107383212D01*
X54852794Y-107545826D01*
X54645826Y-107752794D01*
X54483212Y-107996162D01*
X54371202Y-108266579D01*
X54314100Y-108553652D01*
X52960000Y-108553652D01*
X52960000Y-104388675D01*
X54949700Y-104388675D01*
X54949700Y-104611325D01*
X54993137Y-104829696D01*
X55078341Y-105035398D01*
X55202039Y-105220524D01*
X55359476Y-105377961D01*
X55544602Y-105501659D01*
X55750304Y-105586863D01*
X55968675Y-105630300D01*
X56191325Y-105630300D01*
X56409696Y-105586863D01*
X56615398Y-105501659D01*
X56800524Y-105377961D01*
X56957961Y-105220524D01*
X57081659Y-105035398D01*
X57166863Y-104829696D01*
X57210300Y-104611325D01*
X57210300Y-104388675D01*
X65389700Y-104388675D01*
X65389700Y-104611325D01*
X65433137Y-104829696D01*
X65518341Y-105035398D01*
X65642039Y-105220524D01*
X65799476Y-105377961D01*
X65984602Y-105501659D01*
X66190304Y-105586863D01*
X66408675Y-105630300D01*
X66631325Y-105630300D01*
X66849696Y-105586863D01*
X67055398Y-105501659D01*
X67240524Y-105377961D01*
X67397961Y-105220524D01*
X67521659Y-105035398D01*
X67606863Y-104829696D01*
X67650300Y-104611325D01*
X67650300Y-104388675D01*
X67606863Y-104170304D01*
X67521659Y-103964602D01*
X67397961Y-103779476D01*
X67240524Y-103622039D01*
X67055398Y-103498341D01*
X66849696Y-103413137D01*
X66631325Y-103369700D01*
X66408675Y-103369700D01*
X66190304Y-103413137D01*
X65984602Y-103498341D01*
X65799476Y-103622039D01*
X65642039Y-103779476D01*
X65518341Y-103964602D01*
X65433137Y-104170304D01*
X65389700Y-104388675D01*
X57210300Y-104388675D01*
X57166863Y-104170304D01*
X57081659Y-103964602D01*
X56957961Y-103779476D01*
X56800524Y-103622039D01*
X56615398Y-103498341D01*
X56409696Y-103413137D01*
X56191325Y-103369700D01*
X55968675Y-103369700D01*
X55750304Y-103413137D01*
X55544602Y-103498341D01*
X55359476Y-103622039D01*
X55202039Y-103779476D01*
X55078341Y-103964602D01*
X54993137Y-104170304D01*
X54949700Y-104388675D01*
X52960000Y-104388675D01*
X52960000Y-97535661D01*
X57156400Y-97535661D01*
X57156400Y-97739539D01*
X57196174Y-97939498D01*
X57274195Y-98127856D01*
X57387463Y-98297374D01*
X57531626Y-98441537D01*
X57701144Y-98554805D01*
X57889502Y-98632826D01*
X58089461Y-98672600D01*
X58293339Y-98672600D01*
X58493298Y-98632826D01*
X58681656Y-98554805D01*
X58764875Y-98499200D01*
X63538878Y-98499200D01*
X63576200Y-98502876D01*
X63613522Y-98499200D01*
X63613533Y-98499200D01*
X63725186Y-98488203D01*
X63868447Y-98444746D01*
X64000476Y-98374174D01*
X64116201Y-98279201D01*
X64140004Y-98250197D01*
X66410002Y-95980200D01*
X66472139Y-95980200D01*
X66672098Y-95940426D01*
X66827113Y-95876216D01*
X66838492Y-95933422D01*
X66910859Y-96108131D01*
X67015919Y-96265364D01*
X67149636Y-96399081D01*
X67306869Y-96504141D01*
X67481578Y-96576508D01*
X67667048Y-96613400D01*
X67856152Y-96613400D01*
X68041622Y-96576508D01*
X68216331Y-96504141D01*
X68373564Y-96399081D01*
X68507281Y-96265364D01*
X68612341Y-96108131D01*
X68684708Y-95933422D01*
X68721600Y-95747952D01*
X68721600Y-95558848D01*
X68684708Y-95373378D01*
X68612341Y-95198669D01*
X68507281Y-95041436D01*
X68373564Y-94907719D01*
X68216331Y-94802659D01*
X68041622Y-94730292D01*
X67856152Y-94693400D01*
X67667048Y-94693400D01*
X67481578Y-94730292D01*
X67390254Y-94768120D01*
X67365426Y-94643302D01*
X67287405Y-94454944D01*
X67174137Y-94285426D01*
X67029974Y-94141263D01*
X66860456Y-94027995D01*
X66672098Y-93949974D01*
X66472139Y-93910200D01*
X66268261Y-93910200D01*
X66068302Y-93949974D01*
X65879944Y-94027995D01*
X65710426Y-94141263D01*
X65566263Y-94285426D01*
X65452995Y-94454944D01*
X65374974Y-94643302D01*
X65335200Y-94843261D01*
X65335200Y-94905398D01*
X63261399Y-96979200D01*
X58996255Y-96979200D01*
X58995337Y-96977826D01*
X58851174Y-96833663D01*
X58681656Y-96720395D01*
X58493298Y-96642374D01*
X58293339Y-96602600D01*
X58089461Y-96602600D01*
X57889502Y-96642374D01*
X57701144Y-96720395D01*
X57531626Y-96833663D01*
X57387463Y-96977826D01*
X57274195Y-97147344D01*
X57196174Y-97335702D01*
X57156400Y-97535661D01*
X52960000Y-97535661D01*
X52960000Y-95558848D01*
X61021600Y-95558848D01*
X61021600Y-95747952D01*
X61058492Y-95933422D01*
X61130859Y-96108131D01*
X61235919Y-96265364D01*
X61369636Y-96399081D01*
X61526869Y-96504141D01*
X61701578Y-96576508D01*
X61887048Y-96613400D01*
X62076152Y-96613400D01*
X62261622Y-96576508D01*
X62436331Y-96504141D01*
X62593564Y-96399081D01*
X62727281Y-96265364D01*
X62832341Y-96108131D01*
X62904708Y-95933422D01*
X62941600Y-95747952D01*
X62941600Y-95558848D01*
X62904708Y-95373378D01*
X62832341Y-95198669D01*
X62727281Y-95041436D01*
X62593564Y-94907719D01*
X62436331Y-94802659D01*
X62261622Y-94730292D01*
X62076152Y-94693400D01*
X61887048Y-94693400D01*
X61701578Y-94730292D01*
X61526869Y-94802659D01*
X61369636Y-94907719D01*
X61235919Y-95041436D01*
X61130859Y-95198669D01*
X61058492Y-95373378D01*
X61021600Y-95558848D01*
X52960000Y-95558848D01*
X52960000Y-91262479D01*
X52988625Y-90970541D01*
X53064035Y-90720771D01*
X53186522Y-90490408D01*
X53351422Y-90288220D01*
X53552450Y-90121914D01*
X53781954Y-89997822D01*
X54031195Y-89920669D01*
X54321088Y-89890200D01*
X74464166Y-89890200D01*
X74443988Y-89956718D01*
G37*
G04 #@! TD.AperFunction*
D17*
X82375163Y-89966441D02*
X82271757Y-90121200D01*
X79336122Y-90121200D01*
X79298799Y-90117524D01*
X79261476Y-90121200D01*
X79261467Y-90121200D01*
X79149814Y-90132197D01*
X79006553Y-90175654D01*
X78874524Y-90246226D01*
X78758799Y-90341199D01*
X78735001Y-90370197D01*
X77688599Y-91416600D01*
X77307872Y-91416600D01*
X77307872Y-90081200D01*
X77295612Y-89956718D01*
X77275434Y-89890200D01*
X82451404Y-89890200D01*
X82375163Y-89966441D01*
G04 #@! TA.AperFunction,Conductor*
D18*
G36*
X82375163Y-89966441D02*
G01*
X82271757Y-90121200D01*
X79336122Y-90121200D01*
X79298799Y-90117524D01*
X79261476Y-90121200D01*
X79261467Y-90121200D01*
X79149814Y-90132197D01*
X79006553Y-90175654D01*
X78874524Y-90246226D01*
X78758799Y-90341199D01*
X78735001Y-90370197D01*
X77688599Y-91416600D01*
X77307872Y-91416600D01*
X77307872Y-90081200D01*
X77295612Y-89956718D01*
X77275434Y-89890200D01*
X82451404Y-89890200D01*
X82375163Y-89966441D01*
G37*
G04 #@! TD.AperFunction*
G04 #@! TD*
M02*
