G04 #@! TF.GenerationSoftware,KiCad,Pcbnew,(5.1.10)-1*
G04 #@! TF.CreationDate,2021-08-23T14:46:07-04:00*
G04 #@! TF.ProjectId,charliepad,63686172-6c69-4657-9061-642e6b696361,rev?*
G04 #@! TF.SameCoordinates,Original*
G04 #@! TF.FileFunction,Soldermask,Bot*
G04 #@! TF.FilePolarity,Negative*
%FSLAX46Y46*%
G04 Gerber Fmt 4.6, Leading zero omitted, Abs format (unit mm)*
G04 Created by KiCad (PCBNEW (5.1.10)-1) date 2021-08-23 14:46:07*
%MOMM*%
%LPD*%
G01*
G04 APERTURE LIST*
%ADD10C,0.650000*%
%ADD11O,1.050000X2.100000*%
%ADD12O,1.000000X2.000000*%
%ADD13C,4.400000*%
%ADD14C,0.700000*%
%ADD15C,1.701800*%
%ADD16C,0.990600*%
%ADD17C,2.032000*%
%ADD18C,3.429000*%
%ADD19O,1.600000X1.600000*%
%ADD20R,1.600000X1.600000*%
G04 APERTURE END LIST*
D10*
G04 #@! TO.C,J1*
X70790000Y-95180000D03*
X65010000Y-95180000D03*
D11*
X63580000Y-95680000D03*
X72220000Y-95680000D03*
D12*
X63580000Y-91500000D03*
X72220000Y-91500000D03*
G04 #@! TD*
D13*
G04 #@! TO.C,M2*
X65700000Y-164100000D03*
D14*
X67350000Y-164100000D03*
X66866726Y-165266726D03*
X65700000Y-165750000D03*
X64533274Y-165266726D03*
X64050000Y-164100000D03*
X64533274Y-162933274D03*
X65700000Y-162450000D03*
X66866726Y-162933274D03*
G04 #@! TD*
G04 #@! TO.C,M2*
X103066726Y-93433274D03*
X101900000Y-92950000D03*
X100733274Y-93433274D03*
X100250000Y-94600000D03*
X100733274Y-95766726D03*
X101900000Y-96250000D03*
X103066726Y-95766726D03*
X103550000Y-94600000D03*
D13*
X101900000Y-94600000D03*
G04 #@! TD*
G04 #@! TO.C,M2*
X101700000Y-164000000D03*
D14*
X103350000Y-164000000D03*
X102866726Y-165166726D03*
X101700000Y-165650000D03*
X100533274Y-165166726D03*
X100050000Y-164000000D03*
X100533274Y-162833274D03*
X101700000Y-162350000D03*
X102866726Y-162833274D03*
G04 #@! TD*
G04 #@! TO.C,M2*
X57916726Y-93233274D03*
X56750000Y-92750000D03*
X55583274Y-93233274D03*
X55100000Y-94400000D03*
X55583274Y-95566726D03*
X56750000Y-96050000D03*
X57916726Y-95566726D03*
X58400000Y-94400000D03*
D13*
X56750000Y-94400000D03*
G04 #@! TD*
D15*
G04 #@! TO.C,SW8*
X73800000Y-142700000D03*
X84800000Y-142700000D03*
D16*
X84520000Y-138500000D03*
D17*
X79300000Y-148600000D03*
X74300000Y-146500000D03*
D18*
X79300000Y-142700000D03*
D16*
X74080000Y-138500000D03*
G04 #@! TD*
D15*
G04 #@! TO.C,SW9*
X91800000Y-142700000D03*
X102800000Y-142700000D03*
D16*
X102520000Y-138500000D03*
D17*
X97300000Y-148600000D03*
X92300000Y-146500000D03*
D18*
X97300000Y-142700000D03*
D16*
X92080000Y-138500000D03*
G04 #@! TD*
D19*
G04 #@! TO.C,U1*
X96900000Y-99020000D03*
X89280000Y-91400000D03*
X94360000Y-99020000D03*
X91820000Y-91400000D03*
X91820000Y-99020000D03*
X94360000Y-91400000D03*
X89280000Y-99020000D03*
D20*
X96900000Y-91400000D03*
G04 #@! TD*
D15*
G04 #@! TO.C,SW12*
X91800000Y-159700000D03*
X102800000Y-159700000D03*
D16*
X102520000Y-155500000D03*
D17*
X97300000Y-165600000D03*
X92300000Y-163500000D03*
D18*
X97300000Y-159700000D03*
D16*
X92080000Y-155500000D03*
G04 #@! TD*
D15*
G04 #@! TO.C,SW11*
X73800000Y-159700000D03*
X84800000Y-159700000D03*
D16*
X84520000Y-155500000D03*
D17*
X79300000Y-165600000D03*
X74300000Y-163500000D03*
D18*
X79300000Y-159700000D03*
D16*
X74080000Y-155500000D03*
G04 #@! TD*
D15*
G04 #@! TO.C,SW10*
X55800000Y-159700000D03*
X66800000Y-159700000D03*
D16*
X66520000Y-155500000D03*
D17*
X61300000Y-165600000D03*
X56300000Y-163500000D03*
D18*
X61300000Y-159700000D03*
D16*
X56080000Y-155500000D03*
G04 #@! TD*
D15*
G04 #@! TO.C,SW7*
X55800000Y-142700000D03*
X66800000Y-142700000D03*
D16*
X66520000Y-138500000D03*
D17*
X61300000Y-148600000D03*
X56300000Y-146500000D03*
D18*
X61300000Y-142700000D03*
D16*
X56080000Y-138500000D03*
G04 #@! TD*
D15*
G04 #@! TO.C,SW6*
X91800000Y-125700000D03*
X102800000Y-125700000D03*
D16*
X102520000Y-121500000D03*
D17*
X97300000Y-131600000D03*
X92300000Y-129500000D03*
D18*
X97300000Y-125700000D03*
D16*
X92080000Y-121500000D03*
G04 #@! TD*
D15*
G04 #@! TO.C,SW5*
X73800000Y-125700000D03*
X84800000Y-125700000D03*
D16*
X84520000Y-121500000D03*
D17*
X79300000Y-131600000D03*
X74300000Y-129500000D03*
D18*
X79300000Y-125700000D03*
D16*
X74080000Y-121500000D03*
G04 #@! TD*
D15*
G04 #@! TO.C,SW4*
X55800000Y-125700000D03*
X66800000Y-125700000D03*
D16*
X66520000Y-121500000D03*
D17*
X61300000Y-131600000D03*
X56300000Y-129500000D03*
D18*
X61300000Y-125700000D03*
D16*
X56080000Y-121500000D03*
G04 #@! TD*
D15*
G04 #@! TO.C,SW3*
X91800000Y-108700000D03*
X102800000Y-108700000D03*
D16*
X102520000Y-104500000D03*
D17*
X97300000Y-114600000D03*
X92300000Y-112500000D03*
D18*
X97300000Y-108700000D03*
D16*
X92080000Y-104500000D03*
G04 #@! TD*
D15*
G04 #@! TO.C,SW2*
X73800000Y-108700000D03*
X84800000Y-108700000D03*
D16*
X84520000Y-104500000D03*
D17*
X79300000Y-114600000D03*
X74300000Y-112500000D03*
D18*
X79300000Y-108700000D03*
D16*
X74080000Y-104500000D03*
G04 #@! TD*
D15*
G04 #@! TO.C,SW1*
X55800000Y-108700000D03*
X66800000Y-108700000D03*
D16*
X66520000Y-104500000D03*
D17*
X61300000Y-114600000D03*
X56300000Y-112500000D03*
D18*
X61300000Y-108700000D03*
D16*
X56080000Y-104500000D03*
G04 #@! TD*
M02*
