G04 #@! TF.GenerationSoftware,KiCad,Pcbnew,5.1.10-88a1d61d58~90~ubuntu20.04.1*
G04 #@! TF.CreationDate,2021-09-03T02:40:30-04:00*
G04 #@! TF.ProjectId,charliepad,63686172-6c69-4657-9061-642e6b696361,rev?*
G04 #@! TF.SameCoordinates,Original*
G04 #@! TF.FileFunction,Soldermask,Bot*
G04 #@! TF.FilePolarity,Negative*
%FSLAX46Y46*%
G04 Gerber Fmt 4.6, Leading zero omitted, Abs format (unit mm)*
G04 Created by KiCad (PCBNEW 5.1.10-88a1d61d58~90~ubuntu20.04.1) date 2021-09-03 02:40:30*
%MOMM*%
%LPD*%
G01*
G04 APERTURE LIST*
%ADD10O,1.600000X1.600000*%
%ADD11R,1.600000X1.600000*%
%ADD12C,0.650000*%
%ADD13O,1.050000X2.100000*%
%ADD14O,1.000000X2.000000*%
%ADD15C,1.701800*%
%ADD16C,0.990600*%
%ADD17C,2.032000*%
%ADD18C,3.429000*%
G04 APERTURE END LIST*
D10*
G04 #@! TO.C,U1*
X83489800Y-90881200D03*
X75869800Y-98501200D03*
X83489800Y-93421200D03*
X75869800Y-95961200D03*
X83489800Y-95961200D03*
X75869800Y-93421200D03*
X83489800Y-98501200D03*
D11*
X75869800Y-90881200D03*
G04 #@! TD*
D12*
G04 #@! TO.C,J1*
X67761600Y-95653400D03*
X61981600Y-95653400D03*
D13*
X60551600Y-96153400D03*
X69191600Y-96153400D03*
D14*
X60551600Y-91973400D03*
X69191600Y-91973400D03*
G04 #@! TD*
D15*
G04 #@! TO.C,SW8*
X73800000Y-142700000D03*
X84800000Y-142700000D03*
D16*
X84520000Y-138500000D03*
D17*
X79300000Y-148600000D03*
X74300000Y-146500000D03*
D18*
X79300000Y-142700000D03*
D16*
X74080000Y-138500000D03*
G04 #@! TD*
D15*
G04 #@! TO.C,SW9*
X91800000Y-142700000D03*
X102800000Y-142700000D03*
D16*
X102520000Y-138500000D03*
D17*
X97300000Y-148600000D03*
X92300000Y-146500000D03*
D18*
X97300000Y-142700000D03*
D16*
X92080000Y-138500000D03*
G04 #@! TD*
D15*
G04 #@! TO.C,SW12*
X91800000Y-159700000D03*
X102800000Y-159700000D03*
D16*
X102520000Y-155500000D03*
D17*
X97300000Y-165600000D03*
X92300000Y-163500000D03*
D18*
X97300000Y-159700000D03*
D16*
X92080000Y-155500000D03*
G04 #@! TD*
D15*
G04 #@! TO.C,SW11*
X73800000Y-159700000D03*
X84800000Y-159700000D03*
D16*
X84520000Y-155500000D03*
D17*
X79300000Y-165600000D03*
X74300000Y-163500000D03*
D18*
X79300000Y-159700000D03*
D16*
X74080000Y-155500000D03*
G04 #@! TD*
D15*
G04 #@! TO.C,SW10*
X55800000Y-159700000D03*
X66800000Y-159700000D03*
D16*
X66520000Y-155500000D03*
D17*
X61300000Y-165600000D03*
X56300000Y-163500000D03*
D18*
X61300000Y-159700000D03*
D16*
X56080000Y-155500000D03*
G04 #@! TD*
D15*
G04 #@! TO.C,SW7*
X55800000Y-142700000D03*
X66800000Y-142700000D03*
D16*
X66520000Y-138500000D03*
D17*
X61300000Y-148600000D03*
X56300000Y-146500000D03*
D18*
X61300000Y-142700000D03*
D16*
X56080000Y-138500000D03*
G04 #@! TD*
D15*
G04 #@! TO.C,SW6*
X91800000Y-125700000D03*
X102800000Y-125700000D03*
D16*
X102520000Y-121500000D03*
D17*
X97300000Y-131600000D03*
X92300000Y-129500000D03*
D18*
X97300000Y-125700000D03*
D16*
X92080000Y-121500000D03*
G04 #@! TD*
D15*
G04 #@! TO.C,SW5*
X73800000Y-125700000D03*
X84800000Y-125700000D03*
D16*
X84520000Y-121500000D03*
D17*
X79300000Y-131600000D03*
X74300000Y-129500000D03*
D18*
X79300000Y-125700000D03*
D16*
X74080000Y-121500000D03*
G04 #@! TD*
D15*
G04 #@! TO.C,SW4*
X55800000Y-125700000D03*
X66800000Y-125700000D03*
D16*
X66520000Y-121500000D03*
D17*
X61300000Y-131600000D03*
X56300000Y-129500000D03*
D18*
X61300000Y-125700000D03*
D16*
X56080000Y-121500000D03*
G04 #@! TD*
D15*
G04 #@! TO.C,SW3*
X91800000Y-108700000D03*
X102800000Y-108700000D03*
D16*
X102520000Y-104500000D03*
D17*
X97300000Y-114600000D03*
X92300000Y-112500000D03*
D18*
X97300000Y-108700000D03*
D16*
X92080000Y-104500000D03*
G04 #@! TD*
D15*
G04 #@! TO.C,SW2*
X73800000Y-108700000D03*
X84800000Y-108700000D03*
D16*
X84520000Y-104500000D03*
D17*
X79300000Y-114600000D03*
X74300000Y-112500000D03*
D18*
X79300000Y-108700000D03*
D16*
X74080000Y-104500000D03*
G04 #@! TD*
D15*
G04 #@! TO.C,SW1*
X55800000Y-108700000D03*
X66800000Y-108700000D03*
D16*
X66520000Y-104500000D03*
D17*
X61300000Y-114600000D03*
X56300000Y-112500000D03*
D18*
X61300000Y-108700000D03*
D16*
X56080000Y-104500000D03*
G04 #@! TD*
M02*
