M48
; DRILL file {KiCad 5.1.10-88a1d61d58~90~ubuntu20.04.1} date Fri Sep  3 02:40:33 2021
; FORMAT={-:-/ absolute / metric / decimal}
; #@! TF.CreationDate,2021-09-03T02:40:33-04:00
; #@! TF.GenerationSoftware,Kicad,Pcbnew,5.1.10-88a1d61d58~90~ubuntu20.04.1
; #@! TF.FileFunction,NonPlated,1,2,NPTH
FMAT,2
METRIC
T1C0.650
T2C0.991
T3C1.702
T4C3.429
%
G90
G05
T1
X61.982Y-95.653
X67.762Y-95.653
T2
X56.08Y-104.5
X56.08Y-121.5
X56.08Y-138.5
X56.08Y-155.5
X66.52Y-104.5
X66.52Y-121.5
X66.52Y-138.5
X66.52Y-155.5
X74.08Y-104.5
X74.08Y-121.5
X74.08Y-138.5
X74.08Y-155.5
X84.52Y-104.5
X84.52Y-121.5
X84.52Y-138.5
X84.52Y-155.5
X92.08Y-104.5
X92.08Y-121.5
X92.08Y-138.5
X92.08Y-155.5
X102.52Y-104.5
X102.52Y-121.5
X102.52Y-138.5
X102.52Y-155.5
T3
X55.8Y-108.7
X55.8Y-125.7
X55.8Y-142.7
X55.8Y-159.7
X66.8Y-108.7
X66.8Y-125.7
X66.8Y-142.7
X66.8Y-159.7
X73.8Y-108.7
X73.8Y-125.7
X73.8Y-142.7
X73.8Y-159.7
X84.8Y-108.7
X84.8Y-125.7
X84.8Y-142.7
X84.8Y-159.7
X91.8Y-108.7
X91.8Y-125.7
X91.8Y-142.7
X91.8Y-159.7
X102.8Y-108.7
X102.8Y-125.7
X102.8Y-142.7
X102.8Y-159.7
T4
X61.3Y-108.7
X61.3Y-125.7
X61.3Y-142.7
X61.3Y-159.7
X79.3Y-108.7
X79.3Y-125.7
X79.3Y-142.7
X79.3Y-159.7
X97.3Y-108.7
X97.3Y-125.7
X97.3Y-142.7
X97.3Y-159.7
T0
M30
