%FSLAX45Y45*%
G04 Gerber Fmt 4.5, Leading zero omitted, Abs format (unit mm)*
G04 Created by KiCad (PCBNEW 5.1.10-88a1d61d58~90~ubuntu20.04.1) date 2021-09-03 02:40:34*
%MOMM*%
%LPD*%
G01*
G04 APERTURE LIST*
%TA.AperFunction,Profile*%
%ADD10C,0.050000*%
%TD*%
%ADD11C,0.200000*%
%ADD12C,0.300000*%
G04 APERTURE END LIST*
D10*
X5654040Y-8923020D02*
X5430000Y-8923020D01*
X10429900Y-8923020D02*
X5654040Y-8923020D01*
X5230000Y-9123020D02*
G75*
G02*
X5430000Y-8923020I200000J0D01*
G01*
X10429900Y-8923020D02*
G75*
G02*
X10629900Y-9123020I0J-200000D01*
G01*
X10630000Y-16620000D02*
G75*
G02*
X10430000Y-16820000I-200000J0D01*
G01*
X5430000Y-16820000D02*
G75*
G02*
X5230000Y-16620000I0J200000D01*
G01*
X10630000Y-16620000D02*
X10629900Y-9123020D01*
X5430000Y-16820000D02*
X10430000Y-16820000D01*
X5230000Y-16620000D02*
X5230000Y-9123020D01*
D11*
X6165660Y-9532840D02*
X6230660Y-9597840D01*
X6230660Y-9532840D02*
X6165660Y-9597840D01*
X6743660Y-9532840D02*
X6808660Y-9597840D01*
X6808660Y-9532840D02*
X6743660Y-9597840D01*
X5657530Y-10450000D02*
G75*
G03*
X5657530Y-10450000I-49530J0D01*
G01*
X5657530Y-12150000D02*
G75*
G03*
X5657530Y-12150000I-49530J0D01*
G01*
X5657530Y-13850000D02*
G75*
G03*
X5657530Y-13850000I-49530J0D01*
G01*
X5657530Y-15550000D02*
G75*
G03*
X5657530Y-15550000I-49530J0D01*
G01*
X6701530Y-10450000D02*
G75*
G03*
X6701530Y-10450000I-49530J0D01*
G01*
X6701530Y-12150000D02*
G75*
G03*
X6701530Y-12150000I-49530J0D01*
G01*
X6701530Y-13850000D02*
G75*
G03*
X6701530Y-13850000I-49530J0D01*
G01*
X6701530Y-15550000D02*
G75*
G03*
X6701530Y-15550000I-49530J0D01*
G01*
X7457530Y-10450000D02*
G75*
G03*
X7457530Y-10450000I-49530J0D01*
G01*
X7457530Y-12150000D02*
G75*
G03*
X7457530Y-12150000I-49530J0D01*
G01*
X7457530Y-13850000D02*
G75*
G03*
X7457530Y-13850000I-49530J0D01*
G01*
X7457530Y-15550000D02*
G75*
G03*
X7457530Y-15550000I-49530J0D01*
G01*
X8501530Y-10450000D02*
G75*
G03*
X8501530Y-10450000I-49530J0D01*
G01*
X8501530Y-12150000D02*
G75*
G03*
X8501530Y-12150000I-49530J0D01*
G01*
X8501530Y-13850000D02*
G75*
G03*
X8501530Y-13850000I-49530J0D01*
G01*
X8501530Y-15550000D02*
G75*
G03*
X8501530Y-15550000I-49530J0D01*
G01*
X9257530Y-10450000D02*
G75*
G03*
X9257530Y-10450000I-49530J0D01*
G01*
X9257530Y-12150000D02*
G75*
G03*
X9257530Y-12150000I-49530J0D01*
G01*
X9257530Y-13850000D02*
G75*
G03*
X9257530Y-13850000I-49530J0D01*
G01*
X9257530Y-15550000D02*
G75*
G03*
X9257530Y-15550000I-49530J0D01*
G01*
X10301530Y-10450000D02*
G75*
G03*
X10301530Y-10450000I-49530J0D01*
G01*
X10301530Y-12150000D02*
G75*
G03*
X10301530Y-12150000I-49530J0D01*
G01*
X10301530Y-13850000D02*
G75*
G03*
X10301530Y-13850000I-49530J0D01*
G01*
X10301530Y-15550000D02*
G75*
G03*
X10301530Y-15550000I-49530J0D01*
G01*
X5580000Y-10784910D02*
X5580000Y-10955090D01*
X5494910Y-10870000D02*
X5665090Y-10870000D01*
X5580000Y-12484910D02*
X5580000Y-12655090D01*
X5494910Y-12570000D02*
X5665090Y-12570000D01*
X5580000Y-14184910D02*
X5580000Y-14355090D01*
X5494910Y-14270000D02*
X5665090Y-14270000D01*
X5580000Y-15884910D02*
X5580000Y-16055090D01*
X5494910Y-15970000D02*
X5665090Y-15970000D01*
X6680000Y-10784910D02*
X6680000Y-10955090D01*
X6594910Y-10870000D02*
X6765090Y-10870000D01*
X6680000Y-12484910D02*
X6680000Y-12655090D01*
X6594910Y-12570000D02*
X6765090Y-12570000D01*
X6680000Y-14184910D02*
X6680000Y-14355090D01*
X6594910Y-14270000D02*
X6765090Y-14270000D01*
X6680000Y-15884910D02*
X6680000Y-16055090D01*
X6594910Y-15970000D02*
X6765090Y-15970000D01*
X7380000Y-10784910D02*
X7380000Y-10955090D01*
X7294910Y-10870000D02*
X7465090Y-10870000D01*
X7380000Y-12484910D02*
X7380000Y-12655090D01*
X7294910Y-12570000D02*
X7465090Y-12570000D01*
X7380000Y-14184910D02*
X7380000Y-14355090D01*
X7294910Y-14270000D02*
X7465090Y-14270000D01*
X7380000Y-15884910D02*
X7380000Y-16055090D01*
X7294910Y-15970000D02*
X7465090Y-15970000D01*
X8480000Y-10784910D02*
X8480000Y-10955090D01*
X8394910Y-10870000D02*
X8565090Y-10870000D01*
X8480000Y-12484910D02*
X8480000Y-12655090D01*
X8394910Y-12570000D02*
X8565090Y-12570000D01*
X8480000Y-14184910D02*
X8480000Y-14355090D01*
X8394910Y-14270000D02*
X8565090Y-14270000D01*
X8480000Y-15884910D02*
X8480000Y-16055090D01*
X8394910Y-15970000D02*
X8565090Y-15970000D01*
X9180000Y-10784910D02*
X9180000Y-10955090D01*
X9094910Y-10870000D02*
X9265090Y-10870000D01*
X9180000Y-12484910D02*
X9180000Y-12655090D01*
X9094910Y-12570000D02*
X9265090Y-12570000D01*
X9180000Y-14184910D02*
X9180000Y-14355090D01*
X9094910Y-14270000D02*
X9265090Y-14270000D01*
X9180000Y-15884910D02*
X9180000Y-16055090D01*
X9094910Y-15970000D02*
X9265090Y-15970000D01*
X10280000Y-10784910D02*
X10280000Y-10955090D01*
X10194910Y-10870000D02*
X10365090Y-10870000D01*
X10280000Y-12484910D02*
X10280000Y-12655090D01*
X10194910Y-12570000D02*
X10365090Y-12570000D01*
X10280000Y-14184910D02*
X10280000Y-14355090D01*
X10194910Y-14270000D02*
X10365090Y-14270000D01*
X10280000Y-15884910D02*
X10280000Y-16055090D01*
X10194910Y-15970000D02*
X10365090Y-15970000D01*
X6251235Y-10991235D02*
X6251235Y-10748765D01*
X6008765Y-10748765D01*
X6008765Y-10991235D01*
X6251235Y-10991235D01*
X6251235Y-12691235D02*
X6251235Y-12448765D01*
X6008765Y-12448765D01*
X6008765Y-12691235D01*
X6251235Y-12691235D01*
X6251235Y-14391235D02*
X6251235Y-14148765D01*
X6008765Y-14148765D01*
X6008765Y-14391235D01*
X6251235Y-14391235D01*
X6251235Y-16091235D02*
X6251235Y-15848765D01*
X6008765Y-15848765D01*
X6008765Y-16091235D01*
X6251235Y-16091235D01*
X8051235Y-10991235D02*
X8051235Y-10748765D01*
X7808765Y-10748765D01*
X7808765Y-10991235D01*
X8051235Y-10991235D01*
X8051235Y-12691235D02*
X8051235Y-12448765D01*
X7808765Y-12448765D01*
X7808765Y-12691235D01*
X8051235Y-12691235D01*
X8051235Y-14391235D02*
X8051235Y-14148765D01*
X7808765Y-14148765D01*
X7808765Y-14391235D01*
X8051235Y-14391235D01*
X8051235Y-16091235D02*
X8051235Y-15848765D01*
X7808765Y-15848765D01*
X7808765Y-16091235D01*
X8051235Y-16091235D01*
X9851235Y-10991235D02*
X9851235Y-10748765D01*
X9608765Y-10748765D01*
X9608765Y-10991235D01*
X9851235Y-10991235D01*
X9851235Y-12691235D02*
X9851235Y-12448765D01*
X9608765Y-12448765D01*
X9608765Y-12691235D01*
X9851235Y-12691235D01*
X9851235Y-14391235D02*
X9851235Y-14148765D01*
X9608765Y-14148765D01*
X9608765Y-14391235D01*
X9851235Y-14391235D01*
X9851235Y-16091235D02*
X9851235Y-15848765D01*
X9608765Y-15848765D01*
X9608765Y-16091235D01*
X9851235Y-16091235D01*
D12*
X5513928Y-17288214D02*
X5513928Y-16988214D01*
X5585357Y-16988214D01*
X5628214Y-17002500D01*
X5656786Y-17031072D01*
X5671071Y-17059643D01*
X5685357Y-17116786D01*
X5685357Y-17159643D01*
X5671071Y-17216786D01*
X5656786Y-17245357D01*
X5628214Y-17273929D01*
X5585357Y-17288214D01*
X5513928Y-17288214D01*
X5813928Y-17288214D02*
X5813928Y-17088214D01*
X5813928Y-17145357D02*
X5828214Y-17116786D01*
X5842500Y-17102500D01*
X5871071Y-17088214D01*
X5899643Y-17088214D01*
X5999643Y-17288214D02*
X5999643Y-17088214D01*
X5999643Y-16988214D02*
X5985357Y-17002500D01*
X5999643Y-17016786D01*
X6013928Y-17002500D01*
X5999643Y-16988214D01*
X5999643Y-17016786D01*
X6185357Y-17288214D02*
X6156786Y-17273929D01*
X6142500Y-17245357D01*
X6142500Y-16988214D01*
X6342500Y-17288214D02*
X6313928Y-17273929D01*
X6299643Y-17245357D01*
X6299643Y-16988214D01*
X6685357Y-17288214D02*
X6685357Y-16988214D01*
X6785357Y-17202500D01*
X6885357Y-16988214D01*
X6885357Y-17288214D01*
X7156786Y-17288214D02*
X7156786Y-17131072D01*
X7142500Y-17102500D01*
X7113928Y-17088214D01*
X7056786Y-17088214D01*
X7028214Y-17102500D01*
X7156786Y-17273929D02*
X7128214Y-17288214D01*
X7056786Y-17288214D01*
X7028214Y-17273929D01*
X7013928Y-17245357D01*
X7013928Y-17216786D01*
X7028214Y-17188214D01*
X7056786Y-17173929D01*
X7128214Y-17173929D01*
X7156786Y-17159643D01*
X7299643Y-17088214D02*
X7299643Y-17388214D01*
X7299643Y-17102500D02*
X7328214Y-17088214D01*
X7385357Y-17088214D01*
X7413928Y-17102500D01*
X7428214Y-17116786D01*
X7442500Y-17145357D01*
X7442500Y-17231072D01*
X7428214Y-17259643D01*
X7413928Y-17273929D01*
X7385357Y-17288214D01*
X7328214Y-17288214D01*
X7299643Y-17273929D01*
X7571071Y-17259643D02*
X7585357Y-17273929D01*
X7571071Y-17288214D01*
X7556786Y-17273929D01*
X7571071Y-17259643D01*
X7571071Y-17288214D01*
X7571071Y-17102500D02*
X7585357Y-17116786D01*
X7571071Y-17131072D01*
X7556786Y-17116786D01*
X7571071Y-17102500D01*
X7571071Y-17131072D01*
X5162500Y-17750000D02*
X5227500Y-17815000D01*
X5227500Y-17750000D02*
X5162500Y-17815000D01*
X5571071Y-17618214D02*
X5599643Y-17618214D01*
X5628214Y-17632500D01*
X5642500Y-17646786D01*
X5656786Y-17675357D01*
X5671071Y-17732500D01*
X5671071Y-17803929D01*
X5656786Y-17861072D01*
X5642500Y-17889643D01*
X5628214Y-17903929D01*
X5599643Y-17918214D01*
X5571071Y-17918214D01*
X5542500Y-17903929D01*
X5528214Y-17889643D01*
X5513928Y-17861072D01*
X5499643Y-17803929D01*
X5499643Y-17732500D01*
X5513928Y-17675357D01*
X5528214Y-17646786D01*
X5542500Y-17632500D01*
X5571071Y-17618214D01*
X5799643Y-17889643D02*
X5813928Y-17903929D01*
X5799643Y-17918214D01*
X5785357Y-17903929D01*
X5799643Y-17889643D01*
X5799643Y-17918214D01*
X6071071Y-17618214D02*
X6013928Y-17618214D01*
X5985357Y-17632500D01*
X5971071Y-17646786D01*
X5942500Y-17689643D01*
X5928214Y-17746786D01*
X5928214Y-17861072D01*
X5942500Y-17889643D01*
X5956786Y-17903929D01*
X5985357Y-17918214D01*
X6042500Y-17918214D01*
X6071071Y-17903929D01*
X6085357Y-17889643D01*
X6099643Y-17861072D01*
X6099643Y-17789643D01*
X6085357Y-17761072D01*
X6071071Y-17746786D01*
X6042500Y-17732500D01*
X5985357Y-17732500D01*
X5956786Y-17746786D01*
X5942500Y-17761072D01*
X5928214Y-17789643D01*
X6371071Y-17618214D02*
X6228214Y-17618214D01*
X6213928Y-17761072D01*
X6228214Y-17746786D01*
X6256786Y-17732500D01*
X6328214Y-17732500D01*
X6356786Y-17746786D01*
X6371071Y-17761072D01*
X6385357Y-17789643D01*
X6385357Y-17861072D01*
X6371071Y-17889643D01*
X6356786Y-17903929D01*
X6328214Y-17918214D01*
X6256786Y-17918214D01*
X6228214Y-17903929D01*
X6213928Y-17889643D01*
X6571071Y-17618214D02*
X6599643Y-17618214D01*
X6628214Y-17632500D01*
X6642500Y-17646786D01*
X6656786Y-17675357D01*
X6671071Y-17732500D01*
X6671071Y-17803929D01*
X6656786Y-17861072D01*
X6642500Y-17889643D01*
X6628214Y-17903929D01*
X6599643Y-17918214D01*
X6571071Y-17918214D01*
X6542500Y-17903929D01*
X6528214Y-17889643D01*
X6513928Y-17861072D01*
X6499643Y-17803929D01*
X6499643Y-17732500D01*
X6513928Y-17675357D01*
X6528214Y-17646786D01*
X6542500Y-17632500D01*
X6571071Y-17618214D01*
X6799643Y-17918214D02*
X6799643Y-17718214D01*
X6799643Y-17746786D02*
X6813928Y-17732500D01*
X6842500Y-17718214D01*
X6885357Y-17718214D01*
X6913928Y-17732500D01*
X6928214Y-17761072D01*
X6928214Y-17918214D01*
X6928214Y-17761072D02*
X6942500Y-17732500D01*
X6971071Y-17718214D01*
X7013928Y-17718214D01*
X7042500Y-17732500D01*
X7056786Y-17761072D01*
X7056786Y-17918214D01*
X7199643Y-17918214D02*
X7199643Y-17718214D01*
X7199643Y-17746786D02*
X7213928Y-17732500D01*
X7242500Y-17718214D01*
X7285357Y-17718214D01*
X7313928Y-17732500D01*
X7328214Y-17761072D01*
X7328214Y-17918214D01*
X7328214Y-17761072D02*
X7342500Y-17732500D01*
X7371071Y-17718214D01*
X7413928Y-17718214D01*
X7442500Y-17732500D01*
X7456786Y-17761072D01*
X7456786Y-17918214D01*
X8042500Y-17603929D02*
X7785357Y-17989643D01*
X8428214Y-17618214D02*
X8456786Y-17618214D01*
X8485357Y-17632500D01*
X8499643Y-17646786D01*
X8513928Y-17675357D01*
X8528214Y-17732500D01*
X8528214Y-17803929D01*
X8513928Y-17861072D01*
X8499643Y-17889643D01*
X8485357Y-17903929D01*
X8456786Y-17918214D01*
X8428214Y-17918214D01*
X8399643Y-17903929D01*
X8385357Y-17889643D01*
X8371071Y-17861072D01*
X8356786Y-17803929D01*
X8356786Y-17732500D01*
X8371071Y-17675357D01*
X8385357Y-17646786D01*
X8399643Y-17632500D01*
X8428214Y-17618214D01*
X8656786Y-17889643D02*
X8671071Y-17903929D01*
X8656786Y-17918214D01*
X8642500Y-17903929D01*
X8656786Y-17889643D01*
X8656786Y-17918214D01*
X8856786Y-17618214D02*
X8885357Y-17618214D01*
X8913928Y-17632500D01*
X8928214Y-17646786D01*
X8942500Y-17675357D01*
X8956786Y-17732500D01*
X8956786Y-17803929D01*
X8942500Y-17861072D01*
X8928214Y-17889643D01*
X8913928Y-17903929D01*
X8885357Y-17918214D01*
X8856786Y-17918214D01*
X8828214Y-17903929D01*
X8813928Y-17889643D01*
X8799643Y-17861072D01*
X8785357Y-17803929D01*
X8785357Y-17732500D01*
X8799643Y-17675357D01*
X8813928Y-17646786D01*
X8828214Y-17632500D01*
X8856786Y-17618214D01*
X9071071Y-17646786D02*
X9085357Y-17632500D01*
X9113928Y-17618214D01*
X9185357Y-17618214D01*
X9213928Y-17632500D01*
X9228214Y-17646786D01*
X9242500Y-17675357D01*
X9242500Y-17703929D01*
X9228214Y-17746786D01*
X9056786Y-17918214D01*
X9242500Y-17918214D01*
X9513928Y-17618214D02*
X9371071Y-17618214D01*
X9356786Y-17761072D01*
X9371071Y-17746786D01*
X9399643Y-17732500D01*
X9471071Y-17732500D01*
X9499643Y-17746786D01*
X9513928Y-17761072D01*
X9528214Y-17789643D01*
X9528214Y-17861072D01*
X9513928Y-17889643D01*
X9499643Y-17903929D01*
X9471071Y-17918214D01*
X9399643Y-17918214D01*
X9371071Y-17903929D01*
X9356786Y-17889643D01*
X9785357Y-17618214D02*
X9728214Y-17618214D01*
X9699643Y-17632500D01*
X9685357Y-17646786D01*
X9656786Y-17689643D01*
X9642500Y-17746786D01*
X9642500Y-17861072D01*
X9656786Y-17889643D01*
X9671071Y-17903929D01*
X9699643Y-17918214D01*
X9756786Y-17918214D01*
X9785357Y-17903929D01*
X9799643Y-17889643D01*
X9813928Y-17861072D01*
X9813928Y-17789643D01*
X9799643Y-17761072D01*
X9785357Y-17746786D01*
X9756786Y-17732500D01*
X9699643Y-17732500D01*
X9671071Y-17746786D01*
X9656786Y-17761072D01*
X9642500Y-17789643D01*
X9928214Y-17618214D02*
X9928214Y-17675357D01*
X10042500Y-17618214D02*
X10042500Y-17675357D01*
X10485357Y-18032500D02*
X10471071Y-18018214D01*
X10442500Y-17975357D01*
X10428214Y-17946786D01*
X10413928Y-17903929D01*
X10399643Y-17832500D01*
X10399643Y-17775357D01*
X10413928Y-17703929D01*
X10428214Y-17661072D01*
X10442500Y-17632500D01*
X10471071Y-17589643D01*
X10485357Y-17575357D01*
X10585357Y-17646786D02*
X10599643Y-17632500D01*
X10628214Y-17618214D01*
X10699643Y-17618214D01*
X10728214Y-17632500D01*
X10742500Y-17646786D01*
X10756786Y-17675357D01*
X10756786Y-17703929D01*
X10742500Y-17746786D01*
X10571071Y-17918214D01*
X10756786Y-17918214D01*
X11113928Y-17918214D02*
X11113928Y-17618214D01*
X11242500Y-17918214D02*
X11242500Y-17761072D01*
X11228214Y-17732500D01*
X11199643Y-17718214D01*
X11156786Y-17718214D01*
X11128214Y-17732500D01*
X11113928Y-17746786D01*
X11428214Y-17918214D02*
X11399643Y-17903929D01*
X11385357Y-17889643D01*
X11371071Y-17861072D01*
X11371071Y-17775357D01*
X11385357Y-17746786D01*
X11399643Y-17732500D01*
X11428214Y-17718214D01*
X11471071Y-17718214D01*
X11499643Y-17732500D01*
X11513928Y-17746786D01*
X11528214Y-17775357D01*
X11528214Y-17861072D01*
X11513928Y-17889643D01*
X11499643Y-17903929D01*
X11471071Y-17918214D01*
X11428214Y-17918214D01*
X11699643Y-17918214D02*
X11671071Y-17903929D01*
X11656786Y-17875357D01*
X11656786Y-17618214D01*
X11928214Y-17903929D02*
X11899643Y-17918214D01*
X11842500Y-17918214D01*
X11813928Y-17903929D01*
X11799643Y-17875357D01*
X11799643Y-17761072D01*
X11813928Y-17732500D01*
X11842500Y-17718214D01*
X11899643Y-17718214D01*
X11928214Y-17732500D01*
X11942500Y-17761072D01*
X11942500Y-17789643D01*
X11799643Y-17818214D01*
X12056786Y-17903929D02*
X12085357Y-17918214D01*
X12142500Y-17918214D01*
X12171071Y-17903929D01*
X12185357Y-17875357D01*
X12185357Y-17861072D01*
X12171071Y-17832500D01*
X12142500Y-17818214D01*
X12099643Y-17818214D01*
X12071071Y-17803929D01*
X12056786Y-17775357D01*
X12056786Y-17761072D01*
X12071071Y-17732500D01*
X12099643Y-17718214D01*
X12142500Y-17718214D01*
X12171071Y-17732500D01*
X12285357Y-18032500D02*
X12299643Y-18018214D01*
X12328214Y-17975357D01*
X12342500Y-17946786D01*
X12356786Y-17903929D01*
X12371071Y-17832500D01*
X12371071Y-17775357D01*
X12356786Y-17703929D01*
X12342500Y-17661072D01*
X12328214Y-17632500D01*
X12299643Y-17589643D01*
X12285357Y-17575357D01*
X12828214Y-18032500D02*
X12813928Y-18018214D01*
X12785357Y-17975357D01*
X12771071Y-17946786D01*
X12756786Y-17903929D01*
X12742500Y-17832500D01*
X12742500Y-17775357D01*
X12756786Y-17703929D01*
X12771071Y-17661072D01*
X12785357Y-17632500D01*
X12813928Y-17589643D01*
X12828214Y-17575357D01*
X12942500Y-17718214D02*
X12942500Y-17918214D01*
X12942500Y-17746786D02*
X12956786Y-17732500D01*
X12985357Y-17718214D01*
X13028214Y-17718214D01*
X13056786Y-17732500D01*
X13071071Y-17761072D01*
X13071071Y-17918214D01*
X13256786Y-17918214D02*
X13228214Y-17903929D01*
X13213928Y-17889643D01*
X13199643Y-17861072D01*
X13199643Y-17775357D01*
X13213928Y-17746786D01*
X13228214Y-17732500D01*
X13256786Y-17718214D01*
X13299643Y-17718214D01*
X13328214Y-17732500D01*
X13342500Y-17746786D01*
X13356786Y-17775357D01*
X13356786Y-17861072D01*
X13342500Y-17889643D01*
X13328214Y-17903929D01*
X13299643Y-17918214D01*
X13256786Y-17918214D01*
X13442500Y-17718214D02*
X13556786Y-17718214D01*
X13485357Y-17618214D02*
X13485357Y-17875357D01*
X13499643Y-17903929D01*
X13528214Y-17918214D01*
X13556786Y-17918214D01*
X13885357Y-17718214D02*
X13885357Y-18018214D01*
X13885357Y-17732500D02*
X13913928Y-17718214D01*
X13971071Y-17718214D01*
X13999643Y-17732500D01*
X14013928Y-17746786D01*
X14028214Y-17775357D01*
X14028214Y-17861072D01*
X14013928Y-17889643D01*
X13999643Y-17903929D01*
X13971071Y-17918214D01*
X13913928Y-17918214D01*
X13885357Y-17903929D01*
X14199643Y-17918214D02*
X14171071Y-17903929D01*
X14156786Y-17875357D01*
X14156786Y-17618214D01*
X14442500Y-17918214D02*
X14442500Y-17761072D01*
X14428214Y-17732500D01*
X14399643Y-17718214D01*
X14342500Y-17718214D01*
X14313928Y-17732500D01*
X14442500Y-17903929D02*
X14413928Y-17918214D01*
X14342500Y-17918214D01*
X14313928Y-17903929D01*
X14299643Y-17875357D01*
X14299643Y-17846786D01*
X14313928Y-17818214D01*
X14342500Y-17803929D01*
X14413928Y-17803929D01*
X14442500Y-17789643D01*
X14542500Y-17718214D02*
X14656786Y-17718214D01*
X14585357Y-17618214D02*
X14585357Y-17875357D01*
X14599643Y-17903929D01*
X14628214Y-17918214D01*
X14656786Y-17918214D01*
X14871071Y-17903929D02*
X14842500Y-17918214D01*
X14785357Y-17918214D01*
X14756786Y-17903929D01*
X14742500Y-17875357D01*
X14742500Y-17761072D01*
X14756786Y-17732500D01*
X14785357Y-17718214D01*
X14842500Y-17718214D01*
X14871071Y-17732500D01*
X14885357Y-17761072D01*
X14885357Y-17789643D01*
X14742500Y-17818214D01*
X15142500Y-17918214D02*
X15142500Y-17618214D01*
X15142500Y-17903929D02*
X15113928Y-17918214D01*
X15056786Y-17918214D01*
X15028214Y-17903929D01*
X15013928Y-17889643D01*
X14999643Y-17861072D01*
X14999643Y-17775357D01*
X15013928Y-17746786D01*
X15028214Y-17732500D01*
X15056786Y-17718214D01*
X15113928Y-17718214D01*
X15142500Y-17732500D01*
X15256786Y-18032500D02*
X15271071Y-18018214D01*
X15299643Y-17975357D01*
X15313928Y-17946786D01*
X15328214Y-17903929D01*
X15342500Y-17832500D01*
X15342500Y-17775357D01*
X15328214Y-17703929D01*
X15313928Y-17661072D01*
X15299643Y-17632500D01*
X15271071Y-17589643D01*
X15256786Y-17575357D01*
X5227500Y-18178500D02*
G75*
G03*
X5227500Y-18178500I-49530J0D01*
G01*
X5571071Y-18014214D02*
X5599643Y-18014214D01*
X5628214Y-18028500D01*
X5642500Y-18042786D01*
X5656786Y-18071357D01*
X5671071Y-18128500D01*
X5671071Y-18199929D01*
X5656786Y-18257072D01*
X5642500Y-18285643D01*
X5628214Y-18299929D01*
X5599643Y-18314214D01*
X5571071Y-18314214D01*
X5542500Y-18299929D01*
X5528214Y-18285643D01*
X5513928Y-18257072D01*
X5499643Y-18199929D01*
X5499643Y-18128500D01*
X5513928Y-18071357D01*
X5528214Y-18042786D01*
X5542500Y-18028500D01*
X5571071Y-18014214D01*
X5799643Y-18285643D02*
X5813928Y-18299929D01*
X5799643Y-18314214D01*
X5785357Y-18299929D01*
X5799643Y-18285643D01*
X5799643Y-18314214D01*
X5956786Y-18314214D02*
X6013928Y-18314214D01*
X6042500Y-18299929D01*
X6056786Y-18285643D01*
X6085357Y-18242786D01*
X6099643Y-18185643D01*
X6099643Y-18071357D01*
X6085357Y-18042786D01*
X6071071Y-18028500D01*
X6042500Y-18014214D01*
X5985357Y-18014214D01*
X5956786Y-18028500D01*
X5942500Y-18042786D01*
X5928214Y-18071357D01*
X5928214Y-18142786D01*
X5942500Y-18171357D01*
X5956786Y-18185643D01*
X5985357Y-18199929D01*
X6042500Y-18199929D01*
X6071071Y-18185643D01*
X6085357Y-18171357D01*
X6099643Y-18142786D01*
X6242500Y-18314214D02*
X6299643Y-18314214D01*
X6328214Y-18299929D01*
X6342500Y-18285643D01*
X6371071Y-18242786D01*
X6385357Y-18185643D01*
X6385357Y-18071357D01*
X6371071Y-18042786D01*
X6356786Y-18028500D01*
X6328214Y-18014214D01*
X6271071Y-18014214D01*
X6242500Y-18028500D01*
X6228214Y-18042786D01*
X6213928Y-18071357D01*
X6213928Y-18142786D01*
X6228214Y-18171357D01*
X6242500Y-18185643D01*
X6271071Y-18199929D01*
X6328214Y-18199929D01*
X6356786Y-18185643D01*
X6371071Y-18171357D01*
X6385357Y-18142786D01*
X6671071Y-18314214D02*
X6499643Y-18314214D01*
X6585357Y-18314214D02*
X6585357Y-18014214D01*
X6556786Y-18057072D01*
X6528214Y-18085643D01*
X6499643Y-18099929D01*
X6799643Y-18314214D02*
X6799643Y-18114214D01*
X6799643Y-18142786D02*
X6813928Y-18128500D01*
X6842500Y-18114214D01*
X6885357Y-18114214D01*
X6913928Y-18128500D01*
X6928214Y-18157072D01*
X6928214Y-18314214D01*
X6928214Y-18157072D02*
X6942500Y-18128500D01*
X6971071Y-18114214D01*
X7013928Y-18114214D01*
X7042500Y-18128500D01*
X7056786Y-18157072D01*
X7056786Y-18314214D01*
X7199643Y-18314214D02*
X7199643Y-18114214D01*
X7199643Y-18142786D02*
X7213928Y-18128500D01*
X7242500Y-18114214D01*
X7285357Y-18114214D01*
X7313928Y-18128500D01*
X7328214Y-18157072D01*
X7328214Y-18314214D01*
X7328214Y-18157072D02*
X7342500Y-18128500D01*
X7371071Y-18114214D01*
X7413928Y-18114214D01*
X7442500Y-18128500D01*
X7456786Y-18157072D01*
X7456786Y-18314214D01*
X8042500Y-17999929D02*
X7785357Y-18385643D01*
X8428214Y-18014214D02*
X8456786Y-18014214D01*
X8485357Y-18028500D01*
X8499643Y-18042786D01*
X8513928Y-18071357D01*
X8528214Y-18128500D01*
X8528214Y-18199929D01*
X8513928Y-18257072D01*
X8499643Y-18285643D01*
X8485357Y-18299929D01*
X8456786Y-18314214D01*
X8428214Y-18314214D01*
X8399643Y-18299929D01*
X8385357Y-18285643D01*
X8371071Y-18257072D01*
X8356786Y-18199929D01*
X8356786Y-18128500D01*
X8371071Y-18071357D01*
X8385357Y-18042786D01*
X8399643Y-18028500D01*
X8428214Y-18014214D01*
X8656786Y-18285643D02*
X8671071Y-18299929D01*
X8656786Y-18314214D01*
X8642500Y-18299929D01*
X8656786Y-18285643D01*
X8656786Y-18314214D01*
X8856786Y-18014214D02*
X8885357Y-18014214D01*
X8913928Y-18028500D01*
X8928214Y-18042786D01*
X8942500Y-18071357D01*
X8956786Y-18128500D01*
X8956786Y-18199929D01*
X8942500Y-18257072D01*
X8928214Y-18285643D01*
X8913928Y-18299929D01*
X8885357Y-18314214D01*
X8856786Y-18314214D01*
X8828214Y-18299929D01*
X8813928Y-18285643D01*
X8799643Y-18257072D01*
X8785357Y-18199929D01*
X8785357Y-18128500D01*
X8799643Y-18071357D01*
X8813928Y-18042786D01*
X8828214Y-18028500D01*
X8856786Y-18014214D01*
X9056786Y-18014214D02*
X9242500Y-18014214D01*
X9142500Y-18128500D01*
X9185357Y-18128500D01*
X9213928Y-18142786D01*
X9228214Y-18157072D01*
X9242500Y-18185643D01*
X9242500Y-18257072D01*
X9228214Y-18285643D01*
X9213928Y-18299929D01*
X9185357Y-18314214D01*
X9099643Y-18314214D01*
X9071071Y-18299929D01*
X9056786Y-18285643D01*
X9385357Y-18314214D02*
X9442500Y-18314214D01*
X9471071Y-18299929D01*
X9485357Y-18285643D01*
X9513928Y-18242786D01*
X9528214Y-18185643D01*
X9528214Y-18071357D01*
X9513928Y-18042786D01*
X9499643Y-18028500D01*
X9471071Y-18014214D01*
X9413928Y-18014214D01*
X9385357Y-18028500D01*
X9371071Y-18042786D01*
X9356786Y-18071357D01*
X9356786Y-18142786D01*
X9371071Y-18171357D01*
X9385357Y-18185643D01*
X9413928Y-18199929D01*
X9471071Y-18199929D01*
X9499643Y-18185643D01*
X9513928Y-18171357D01*
X9528214Y-18142786D01*
X9713928Y-18014214D02*
X9742500Y-18014214D01*
X9771071Y-18028500D01*
X9785357Y-18042786D01*
X9799643Y-18071357D01*
X9813928Y-18128500D01*
X9813928Y-18199929D01*
X9799643Y-18257072D01*
X9785357Y-18285643D01*
X9771071Y-18299929D01*
X9742500Y-18314214D01*
X9713928Y-18314214D01*
X9685357Y-18299929D01*
X9671071Y-18285643D01*
X9656786Y-18257072D01*
X9642500Y-18199929D01*
X9642500Y-18128500D01*
X9656786Y-18071357D01*
X9671071Y-18042786D01*
X9685357Y-18028500D01*
X9713928Y-18014214D01*
X9928214Y-18014214D02*
X9928214Y-18071357D01*
X10042500Y-18014214D02*
X10042500Y-18071357D01*
X10485357Y-18428500D02*
X10471071Y-18414214D01*
X10442500Y-18371357D01*
X10428214Y-18342786D01*
X10413928Y-18299929D01*
X10399643Y-18228500D01*
X10399643Y-18171357D01*
X10413928Y-18099929D01*
X10428214Y-18057072D01*
X10442500Y-18028500D01*
X10471071Y-17985643D01*
X10485357Y-17971357D01*
X10585357Y-18042786D02*
X10599643Y-18028500D01*
X10628214Y-18014214D01*
X10699643Y-18014214D01*
X10728214Y-18028500D01*
X10742500Y-18042786D01*
X10756786Y-18071357D01*
X10756786Y-18099929D01*
X10742500Y-18142786D01*
X10571071Y-18314214D01*
X10756786Y-18314214D01*
X11013928Y-18114214D02*
X11013928Y-18314214D01*
X10942500Y-17999929D02*
X10871071Y-18214214D01*
X11056786Y-18214214D01*
X11399643Y-18314214D02*
X11399643Y-18014214D01*
X11528214Y-18314214D02*
X11528214Y-18157072D01*
X11513928Y-18128500D01*
X11485357Y-18114214D01*
X11442500Y-18114214D01*
X11413928Y-18128500D01*
X11399643Y-18142786D01*
X11713928Y-18314214D02*
X11685357Y-18299929D01*
X11671071Y-18285643D01*
X11656786Y-18257072D01*
X11656786Y-18171357D01*
X11671071Y-18142786D01*
X11685357Y-18128500D01*
X11713928Y-18114214D01*
X11756786Y-18114214D01*
X11785357Y-18128500D01*
X11799643Y-18142786D01*
X11813928Y-18171357D01*
X11813928Y-18257072D01*
X11799643Y-18285643D01*
X11785357Y-18299929D01*
X11756786Y-18314214D01*
X11713928Y-18314214D01*
X11985357Y-18314214D02*
X11956786Y-18299929D01*
X11942500Y-18271357D01*
X11942500Y-18014214D01*
X12213928Y-18299929D02*
X12185357Y-18314214D01*
X12128214Y-18314214D01*
X12099643Y-18299929D01*
X12085357Y-18271357D01*
X12085357Y-18157072D01*
X12099643Y-18128500D01*
X12128214Y-18114214D01*
X12185357Y-18114214D01*
X12213928Y-18128500D01*
X12228214Y-18157072D01*
X12228214Y-18185643D01*
X12085357Y-18214214D01*
X12342500Y-18299929D02*
X12371071Y-18314214D01*
X12428214Y-18314214D01*
X12456786Y-18299929D01*
X12471071Y-18271357D01*
X12471071Y-18257072D01*
X12456786Y-18228500D01*
X12428214Y-18214214D01*
X12385357Y-18214214D01*
X12356786Y-18199929D01*
X12342500Y-18171357D01*
X12342500Y-18157072D01*
X12356786Y-18128500D01*
X12385357Y-18114214D01*
X12428214Y-18114214D01*
X12456786Y-18128500D01*
X12571071Y-18428500D02*
X12585357Y-18414214D01*
X12613928Y-18371357D01*
X12628214Y-18342786D01*
X12642500Y-18299929D01*
X12656786Y-18228500D01*
X12656786Y-18171357D01*
X12642500Y-18099929D01*
X12628214Y-18057072D01*
X12613928Y-18028500D01*
X12585357Y-17985643D01*
X12571071Y-17971357D01*
X13113928Y-18428500D02*
X13099643Y-18414214D01*
X13071071Y-18371357D01*
X13056786Y-18342786D01*
X13042500Y-18299929D01*
X13028214Y-18228500D01*
X13028214Y-18171357D01*
X13042500Y-18099929D01*
X13056786Y-18057072D01*
X13071071Y-18028500D01*
X13099643Y-17985643D01*
X13113928Y-17971357D01*
X13228214Y-18114214D02*
X13228214Y-18314214D01*
X13228214Y-18142786D02*
X13242500Y-18128500D01*
X13271071Y-18114214D01*
X13313928Y-18114214D01*
X13342500Y-18128500D01*
X13356786Y-18157072D01*
X13356786Y-18314214D01*
X13542500Y-18314214D02*
X13513928Y-18299929D01*
X13499643Y-18285643D01*
X13485357Y-18257072D01*
X13485357Y-18171357D01*
X13499643Y-18142786D01*
X13513928Y-18128500D01*
X13542500Y-18114214D01*
X13585357Y-18114214D01*
X13613928Y-18128500D01*
X13628214Y-18142786D01*
X13642500Y-18171357D01*
X13642500Y-18257072D01*
X13628214Y-18285643D01*
X13613928Y-18299929D01*
X13585357Y-18314214D01*
X13542500Y-18314214D01*
X13728214Y-18114214D02*
X13842500Y-18114214D01*
X13771071Y-18014214D02*
X13771071Y-18271357D01*
X13785357Y-18299929D01*
X13813928Y-18314214D01*
X13842500Y-18314214D01*
X14171071Y-18114214D02*
X14171071Y-18414214D01*
X14171071Y-18128500D02*
X14199643Y-18114214D01*
X14256786Y-18114214D01*
X14285357Y-18128500D01*
X14299643Y-18142786D01*
X14313928Y-18171357D01*
X14313928Y-18257072D01*
X14299643Y-18285643D01*
X14285357Y-18299929D01*
X14256786Y-18314214D01*
X14199643Y-18314214D01*
X14171071Y-18299929D01*
X14485357Y-18314214D02*
X14456786Y-18299929D01*
X14442500Y-18271357D01*
X14442500Y-18014214D01*
X14728214Y-18314214D02*
X14728214Y-18157072D01*
X14713928Y-18128500D01*
X14685357Y-18114214D01*
X14628214Y-18114214D01*
X14599643Y-18128500D01*
X14728214Y-18299929D02*
X14699643Y-18314214D01*
X14628214Y-18314214D01*
X14599643Y-18299929D01*
X14585357Y-18271357D01*
X14585357Y-18242786D01*
X14599643Y-18214214D01*
X14628214Y-18199929D01*
X14699643Y-18199929D01*
X14728214Y-18185643D01*
X14828214Y-18114214D02*
X14942500Y-18114214D01*
X14871071Y-18014214D02*
X14871071Y-18271357D01*
X14885357Y-18299929D01*
X14913928Y-18314214D01*
X14942500Y-18314214D01*
X15156786Y-18299929D02*
X15128214Y-18314214D01*
X15071071Y-18314214D01*
X15042500Y-18299929D01*
X15028214Y-18271357D01*
X15028214Y-18157072D01*
X15042500Y-18128500D01*
X15071071Y-18114214D01*
X15128214Y-18114214D01*
X15156786Y-18128500D01*
X15171071Y-18157072D01*
X15171071Y-18185643D01*
X15028214Y-18214214D01*
X15428214Y-18314214D02*
X15428214Y-18014214D01*
X15428214Y-18299929D02*
X15399643Y-18314214D01*
X15342500Y-18314214D01*
X15313928Y-18299929D01*
X15299643Y-18285643D01*
X15285357Y-18257072D01*
X15285357Y-18171357D01*
X15299643Y-18142786D01*
X15313928Y-18128500D01*
X15342500Y-18114214D01*
X15399643Y-18114214D01*
X15428214Y-18128500D01*
X15542500Y-18428500D02*
X15556786Y-18414214D01*
X15585357Y-18371357D01*
X15599643Y-18342786D01*
X15613928Y-18299929D01*
X15628214Y-18228500D01*
X15628214Y-18171357D01*
X15613928Y-18099929D01*
X15599643Y-18057072D01*
X15585357Y-18028500D01*
X15556786Y-17985643D01*
X15542500Y-17971357D01*
X5142410Y-18489410D02*
X5142410Y-18659590D01*
X5057320Y-18574500D02*
X5227500Y-18574500D01*
X5671071Y-18710214D02*
X5499643Y-18710214D01*
X5585357Y-18710214D02*
X5585357Y-18410214D01*
X5556786Y-18453072D01*
X5528214Y-18481643D01*
X5499643Y-18495929D01*
X5799643Y-18681643D02*
X5813928Y-18695929D01*
X5799643Y-18710214D01*
X5785357Y-18695929D01*
X5799643Y-18681643D01*
X5799643Y-18710214D01*
X5913928Y-18410214D02*
X6113928Y-18410214D01*
X5985357Y-18710214D01*
X6285357Y-18410214D02*
X6313928Y-18410214D01*
X6342500Y-18424500D01*
X6356786Y-18438786D01*
X6371071Y-18467357D01*
X6385357Y-18524500D01*
X6385357Y-18595929D01*
X6371071Y-18653072D01*
X6356786Y-18681643D01*
X6342500Y-18695929D01*
X6313928Y-18710214D01*
X6285357Y-18710214D01*
X6256786Y-18695929D01*
X6242500Y-18681643D01*
X6228214Y-18653072D01*
X6213928Y-18595929D01*
X6213928Y-18524500D01*
X6228214Y-18467357D01*
X6242500Y-18438786D01*
X6256786Y-18424500D01*
X6285357Y-18410214D01*
X6499643Y-18438786D02*
X6513928Y-18424500D01*
X6542500Y-18410214D01*
X6613928Y-18410214D01*
X6642500Y-18424500D01*
X6656786Y-18438786D01*
X6671071Y-18467357D01*
X6671071Y-18495929D01*
X6656786Y-18538786D01*
X6485357Y-18710214D01*
X6671071Y-18710214D01*
X6799643Y-18710214D02*
X6799643Y-18510214D01*
X6799643Y-18538786D02*
X6813928Y-18524500D01*
X6842500Y-18510214D01*
X6885357Y-18510214D01*
X6913928Y-18524500D01*
X6928214Y-18553072D01*
X6928214Y-18710214D01*
X6928214Y-18553072D02*
X6942500Y-18524500D01*
X6971071Y-18510214D01*
X7013928Y-18510214D01*
X7042500Y-18524500D01*
X7056786Y-18553072D01*
X7056786Y-18710214D01*
X7199643Y-18710214D02*
X7199643Y-18510214D01*
X7199643Y-18538786D02*
X7213928Y-18524500D01*
X7242500Y-18510214D01*
X7285357Y-18510214D01*
X7313928Y-18524500D01*
X7328214Y-18553072D01*
X7328214Y-18710214D01*
X7328214Y-18553072D02*
X7342500Y-18524500D01*
X7371071Y-18510214D01*
X7413928Y-18510214D01*
X7442500Y-18524500D01*
X7456786Y-18553072D01*
X7456786Y-18710214D01*
X8042500Y-18395929D02*
X7785357Y-18781643D01*
X8428214Y-18410214D02*
X8456786Y-18410214D01*
X8485357Y-18424500D01*
X8499643Y-18438786D01*
X8513928Y-18467357D01*
X8528214Y-18524500D01*
X8528214Y-18595929D01*
X8513928Y-18653072D01*
X8499643Y-18681643D01*
X8485357Y-18695929D01*
X8456786Y-18710214D01*
X8428214Y-18710214D01*
X8399643Y-18695929D01*
X8385357Y-18681643D01*
X8371071Y-18653072D01*
X8356786Y-18595929D01*
X8356786Y-18524500D01*
X8371071Y-18467357D01*
X8385357Y-18438786D01*
X8399643Y-18424500D01*
X8428214Y-18410214D01*
X8656786Y-18681643D02*
X8671071Y-18695929D01*
X8656786Y-18710214D01*
X8642500Y-18695929D01*
X8656786Y-18681643D01*
X8656786Y-18710214D01*
X8856786Y-18410214D02*
X8885357Y-18410214D01*
X8913928Y-18424500D01*
X8928214Y-18438786D01*
X8942500Y-18467357D01*
X8956786Y-18524500D01*
X8956786Y-18595929D01*
X8942500Y-18653072D01*
X8928214Y-18681643D01*
X8913928Y-18695929D01*
X8885357Y-18710214D01*
X8856786Y-18710214D01*
X8828214Y-18695929D01*
X8813928Y-18681643D01*
X8799643Y-18653072D01*
X8785357Y-18595929D01*
X8785357Y-18524500D01*
X8799643Y-18467357D01*
X8813928Y-18438786D01*
X8828214Y-18424500D01*
X8856786Y-18410214D01*
X9213928Y-18410214D02*
X9156786Y-18410214D01*
X9128214Y-18424500D01*
X9113928Y-18438786D01*
X9085357Y-18481643D01*
X9071071Y-18538786D01*
X9071071Y-18653072D01*
X9085357Y-18681643D01*
X9099643Y-18695929D01*
X9128214Y-18710214D01*
X9185357Y-18710214D01*
X9213928Y-18695929D01*
X9228214Y-18681643D01*
X9242500Y-18653072D01*
X9242500Y-18581643D01*
X9228214Y-18553072D01*
X9213928Y-18538786D01*
X9185357Y-18524500D01*
X9128214Y-18524500D01*
X9099643Y-18538786D01*
X9085357Y-18553072D01*
X9071071Y-18581643D01*
X9342500Y-18410214D02*
X9542500Y-18410214D01*
X9413928Y-18710214D01*
X9713928Y-18410214D02*
X9742500Y-18410214D01*
X9771071Y-18424500D01*
X9785357Y-18438786D01*
X9799643Y-18467357D01*
X9813928Y-18524500D01*
X9813928Y-18595929D01*
X9799643Y-18653072D01*
X9785357Y-18681643D01*
X9771071Y-18695929D01*
X9742500Y-18710214D01*
X9713928Y-18710214D01*
X9685357Y-18695929D01*
X9671071Y-18681643D01*
X9656786Y-18653072D01*
X9642500Y-18595929D01*
X9642500Y-18524500D01*
X9656786Y-18467357D01*
X9671071Y-18438786D01*
X9685357Y-18424500D01*
X9713928Y-18410214D01*
X9928214Y-18410214D02*
X9928214Y-18467357D01*
X10042500Y-18410214D02*
X10042500Y-18467357D01*
X10485357Y-18824500D02*
X10471071Y-18810214D01*
X10442500Y-18767357D01*
X10428214Y-18738786D01*
X10413928Y-18695929D01*
X10399643Y-18624500D01*
X10399643Y-18567357D01*
X10413928Y-18495929D01*
X10428214Y-18453072D01*
X10442500Y-18424500D01*
X10471071Y-18381643D01*
X10485357Y-18367357D01*
X10585357Y-18438786D02*
X10599643Y-18424500D01*
X10628214Y-18410214D01*
X10699643Y-18410214D01*
X10728214Y-18424500D01*
X10742500Y-18438786D01*
X10756786Y-18467357D01*
X10756786Y-18495929D01*
X10742500Y-18538786D01*
X10571071Y-18710214D01*
X10756786Y-18710214D01*
X11013928Y-18510214D02*
X11013928Y-18710214D01*
X10942500Y-18395929D02*
X10871071Y-18610214D01*
X11056786Y-18610214D01*
X11399643Y-18710214D02*
X11399643Y-18410214D01*
X11528214Y-18710214D02*
X11528214Y-18553072D01*
X11513928Y-18524500D01*
X11485357Y-18510214D01*
X11442500Y-18510214D01*
X11413928Y-18524500D01*
X11399643Y-18538786D01*
X11713928Y-18710214D02*
X11685357Y-18695929D01*
X11671071Y-18681643D01*
X11656786Y-18653072D01*
X11656786Y-18567357D01*
X11671071Y-18538786D01*
X11685357Y-18524500D01*
X11713928Y-18510214D01*
X11756786Y-18510214D01*
X11785357Y-18524500D01*
X11799643Y-18538786D01*
X11813928Y-18567357D01*
X11813928Y-18653072D01*
X11799643Y-18681643D01*
X11785357Y-18695929D01*
X11756786Y-18710214D01*
X11713928Y-18710214D01*
X11985357Y-18710214D02*
X11956786Y-18695929D01*
X11942500Y-18667357D01*
X11942500Y-18410214D01*
X12213928Y-18695929D02*
X12185357Y-18710214D01*
X12128214Y-18710214D01*
X12099643Y-18695929D01*
X12085357Y-18667357D01*
X12085357Y-18553072D01*
X12099643Y-18524500D01*
X12128214Y-18510214D01*
X12185357Y-18510214D01*
X12213928Y-18524500D01*
X12228214Y-18553072D01*
X12228214Y-18581643D01*
X12085357Y-18610214D01*
X12342500Y-18695929D02*
X12371071Y-18710214D01*
X12428214Y-18710214D01*
X12456786Y-18695929D01*
X12471071Y-18667357D01*
X12471071Y-18653072D01*
X12456786Y-18624500D01*
X12428214Y-18610214D01*
X12385357Y-18610214D01*
X12356786Y-18595929D01*
X12342500Y-18567357D01*
X12342500Y-18553072D01*
X12356786Y-18524500D01*
X12385357Y-18510214D01*
X12428214Y-18510214D01*
X12456786Y-18524500D01*
X12571071Y-18824500D02*
X12585357Y-18810214D01*
X12613928Y-18767357D01*
X12628214Y-18738786D01*
X12642500Y-18695929D01*
X12656786Y-18624500D01*
X12656786Y-18567357D01*
X12642500Y-18495929D01*
X12628214Y-18453072D01*
X12613928Y-18424500D01*
X12585357Y-18381643D01*
X12571071Y-18367357D01*
X13113928Y-18824500D02*
X13099643Y-18810214D01*
X13071071Y-18767357D01*
X13056786Y-18738786D01*
X13042500Y-18695929D01*
X13028214Y-18624500D01*
X13028214Y-18567357D01*
X13042500Y-18495929D01*
X13056786Y-18453072D01*
X13071071Y-18424500D01*
X13099643Y-18381643D01*
X13113928Y-18367357D01*
X13228214Y-18510214D02*
X13228214Y-18710214D01*
X13228214Y-18538786D02*
X13242500Y-18524500D01*
X13271071Y-18510214D01*
X13313928Y-18510214D01*
X13342500Y-18524500D01*
X13356786Y-18553072D01*
X13356786Y-18710214D01*
X13542500Y-18710214D02*
X13513928Y-18695929D01*
X13499643Y-18681643D01*
X13485357Y-18653072D01*
X13485357Y-18567357D01*
X13499643Y-18538786D01*
X13513928Y-18524500D01*
X13542500Y-18510214D01*
X13585357Y-18510214D01*
X13613928Y-18524500D01*
X13628214Y-18538786D01*
X13642500Y-18567357D01*
X13642500Y-18653072D01*
X13628214Y-18681643D01*
X13613928Y-18695929D01*
X13585357Y-18710214D01*
X13542500Y-18710214D01*
X13728214Y-18510214D02*
X13842500Y-18510214D01*
X13771071Y-18410214D02*
X13771071Y-18667357D01*
X13785357Y-18695929D01*
X13813928Y-18710214D01*
X13842500Y-18710214D01*
X14171071Y-18510214D02*
X14171071Y-18810214D01*
X14171071Y-18524500D02*
X14199643Y-18510214D01*
X14256786Y-18510214D01*
X14285357Y-18524500D01*
X14299643Y-18538786D01*
X14313928Y-18567357D01*
X14313928Y-18653072D01*
X14299643Y-18681643D01*
X14285357Y-18695929D01*
X14256786Y-18710214D01*
X14199643Y-18710214D01*
X14171071Y-18695929D01*
X14485357Y-18710214D02*
X14456786Y-18695929D01*
X14442500Y-18667357D01*
X14442500Y-18410214D01*
X14728214Y-18710214D02*
X14728214Y-18553072D01*
X14713928Y-18524500D01*
X14685357Y-18510214D01*
X14628214Y-18510214D01*
X14599643Y-18524500D01*
X14728214Y-18695929D02*
X14699643Y-18710214D01*
X14628214Y-18710214D01*
X14599643Y-18695929D01*
X14585357Y-18667357D01*
X14585357Y-18638786D01*
X14599643Y-18610214D01*
X14628214Y-18595929D01*
X14699643Y-18595929D01*
X14728214Y-18581643D01*
X14828214Y-18510214D02*
X14942500Y-18510214D01*
X14871071Y-18410214D02*
X14871071Y-18667357D01*
X14885357Y-18695929D01*
X14913928Y-18710214D01*
X14942500Y-18710214D01*
X15156786Y-18695929D02*
X15128214Y-18710214D01*
X15071071Y-18710214D01*
X15042500Y-18695929D01*
X15028214Y-18667357D01*
X15028214Y-18553072D01*
X15042500Y-18524500D01*
X15071071Y-18510214D01*
X15128214Y-18510214D01*
X15156786Y-18524500D01*
X15171071Y-18553072D01*
X15171071Y-18581643D01*
X15028214Y-18610214D01*
X15428214Y-18710214D02*
X15428214Y-18410214D01*
X15428214Y-18695929D02*
X15399643Y-18710214D01*
X15342500Y-18710214D01*
X15313928Y-18695929D01*
X15299643Y-18681643D01*
X15285357Y-18653072D01*
X15285357Y-18567357D01*
X15299643Y-18538786D01*
X15313928Y-18524500D01*
X15342500Y-18510214D01*
X15399643Y-18510214D01*
X15428214Y-18524500D01*
X15542500Y-18824500D02*
X15556786Y-18810214D01*
X15585357Y-18767357D01*
X15599643Y-18738786D01*
X15613928Y-18695929D01*
X15628214Y-18624500D01*
X15628214Y-18567357D01*
X15613928Y-18495929D01*
X15599643Y-18453072D01*
X15585357Y-18424500D01*
X15556786Y-18381643D01*
X15542500Y-18367357D01*
X5177285Y-19091735D02*
X5177285Y-18849266D01*
X4934815Y-18849266D01*
X4934815Y-19091735D01*
X5177285Y-19091735D01*
X5485357Y-18806214D02*
X5671071Y-18806214D01*
X5571071Y-18920500D01*
X5613928Y-18920500D01*
X5642500Y-18934786D01*
X5656786Y-18949072D01*
X5671071Y-18977643D01*
X5671071Y-19049072D01*
X5656786Y-19077643D01*
X5642500Y-19091929D01*
X5613928Y-19106214D01*
X5528214Y-19106214D01*
X5499643Y-19091929D01*
X5485357Y-19077643D01*
X5799643Y-19077643D02*
X5813928Y-19091929D01*
X5799643Y-19106214D01*
X5785357Y-19091929D01*
X5799643Y-19077643D01*
X5799643Y-19106214D01*
X6071071Y-18906214D02*
X6071071Y-19106214D01*
X5999643Y-18791929D02*
X5928214Y-19006214D01*
X6113928Y-19006214D01*
X6213928Y-18834786D02*
X6228214Y-18820500D01*
X6256786Y-18806214D01*
X6328214Y-18806214D01*
X6356786Y-18820500D01*
X6371071Y-18834786D01*
X6385357Y-18863357D01*
X6385357Y-18891929D01*
X6371071Y-18934786D01*
X6199643Y-19106214D01*
X6385357Y-19106214D01*
X6528214Y-19106214D02*
X6585357Y-19106214D01*
X6613928Y-19091929D01*
X6628214Y-19077643D01*
X6656786Y-19034786D01*
X6671071Y-18977643D01*
X6671071Y-18863357D01*
X6656786Y-18834786D01*
X6642500Y-18820500D01*
X6613928Y-18806214D01*
X6556786Y-18806214D01*
X6528214Y-18820500D01*
X6513928Y-18834786D01*
X6499643Y-18863357D01*
X6499643Y-18934786D01*
X6513928Y-18963357D01*
X6528214Y-18977643D01*
X6556786Y-18991929D01*
X6613928Y-18991929D01*
X6642500Y-18977643D01*
X6656786Y-18963357D01*
X6671071Y-18934786D01*
X6799643Y-19106214D02*
X6799643Y-18906214D01*
X6799643Y-18934786D02*
X6813928Y-18920500D01*
X6842500Y-18906214D01*
X6885357Y-18906214D01*
X6913928Y-18920500D01*
X6928214Y-18949072D01*
X6928214Y-19106214D01*
X6928214Y-18949072D02*
X6942500Y-18920500D01*
X6971071Y-18906214D01*
X7013928Y-18906214D01*
X7042500Y-18920500D01*
X7056786Y-18949072D01*
X7056786Y-19106214D01*
X7199643Y-19106214D02*
X7199643Y-18906214D01*
X7199643Y-18934786D02*
X7213928Y-18920500D01*
X7242500Y-18906214D01*
X7285357Y-18906214D01*
X7313928Y-18920500D01*
X7328214Y-18949072D01*
X7328214Y-19106214D01*
X7328214Y-18949072D02*
X7342500Y-18920500D01*
X7371071Y-18906214D01*
X7413928Y-18906214D01*
X7442500Y-18920500D01*
X7456786Y-18949072D01*
X7456786Y-19106214D01*
X8042500Y-18791929D02*
X7785357Y-19177643D01*
X8428214Y-18806214D02*
X8456786Y-18806214D01*
X8485357Y-18820500D01*
X8499643Y-18834786D01*
X8513928Y-18863357D01*
X8528214Y-18920500D01*
X8528214Y-18991929D01*
X8513928Y-19049072D01*
X8499643Y-19077643D01*
X8485357Y-19091929D01*
X8456786Y-19106214D01*
X8428214Y-19106214D01*
X8399643Y-19091929D01*
X8385357Y-19077643D01*
X8371071Y-19049072D01*
X8356786Y-18991929D01*
X8356786Y-18920500D01*
X8371071Y-18863357D01*
X8385357Y-18834786D01*
X8399643Y-18820500D01*
X8428214Y-18806214D01*
X8656786Y-19077643D02*
X8671071Y-19091929D01*
X8656786Y-19106214D01*
X8642500Y-19091929D01*
X8656786Y-19077643D01*
X8656786Y-19106214D01*
X8956786Y-19106214D02*
X8785357Y-19106214D01*
X8871071Y-19106214D02*
X8871071Y-18806214D01*
X8842500Y-18849072D01*
X8813928Y-18877643D01*
X8785357Y-18891929D01*
X9056786Y-18806214D02*
X9242500Y-18806214D01*
X9142500Y-18920500D01*
X9185357Y-18920500D01*
X9213928Y-18934786D01*
X9228214Y-18949072D01*
X9242500Y-18977643D01*
X9242500Y-19049072D01*
X9228214Y-19077643D01*
X9213928Y-19091929D01*
X9185357Y-19106214D01*
X9099643Y-19106214D01*
X9071071Y-19091929D01*
X9056786Y-19077643D01*
X9513928Y-18806214D02*
X9371071Y-18806214D01*
X9356786Y-18949072D01*
X9371071Y-18934786D01*
X9399643Y-18920500D01*
X9471071Y-18920500D01*
X9499643Y-18934786D01*
X9513928Y-18949072D01*
X9528214Y-18977643D01*
X9528214Y-19049072D01*
X9513928Y-19077643D01*
X9499643Y-19091929D01*
X9471071Y-19106214D01*
X9399643Y-19106214D01*
X9371071Y-19091929D01*
X9356786Y-19077643D01*
X9713928Y-18806214D02*
X9742500Y-18806214D01*
X9771071Y-18820500D01*
X9785357Y-18834786D01*
X9799643Y-18863357D01*
X9813928Y-18920500D01*
X9813928Y-18991929D01*
X9799643Y-19049072D01*
X9785357Y-19077643D01*
X9771071Y-19091929D01*
X9742500Y-19106214D01*
X9713928Y-19106214D01*
X9685357Y-19091929D01*
X9671071Y-19077643D01*
X9656786Y-19049072D01*
X9642500Y-18991929D01*
X9642500Y-18920500D01*
X9656786Y-18863357D01*
X9671071Y-18834786D01*
X9685357Y-18820500D01*
X9713928Y-18806214D01*
X9928214Y-18806214D02*
X9928214Y-18863357D01*
X10042500Y-18806214D02*
X10042500Y-18863357D01*
X10485357Y-19220500D02*
X10471071Y-19206214D01*
X10442500Y-19163357D01*
X10428214Y-19134786D01*
X10413928Y-19091929D01*
X10399643Y-19020500D01*
X10399643Y-18963357D01*
X10413928Y-18891929D01*
X10428214Y-18849072D01*
X10442500Y-18820500D01*
X10471071Y-18777643D01*
X10485357Y-18763357D01*
X10756786Y-19106214D02*
X10585357Y-19106214D01*
X10671071Y-19106214D02*
X10671071Y-18806214D01*
X10642500Y-18849072D01*
X10613928Y-18877643D01*
X10585357Y-18891929D01*
X10871071Y-18834786D02*
X10885357Y-18820500D01*
X10913928Y-18806214D01*
X10985357Y-18806214D01*
X11013928Y-18820500D01*
X11028214Y-18834786D01*
X11042500Y-18863357D01*
X11042500Y-18891929D01*
X11028214Y-18934786D01*
X10856786Y-19106214D01*
X11042500Y-19106214D01*
X11399643Y-19106214D02*
X11399643Y-18806214D01*
X11528214Y-19106214D02*
X11528214Y-18949072D01*
X11513928Y-18920500D01*
X11485357Y-18906214D01*
X11442500Y-18906214D01*
X11413928Y-18920500D01*
X11399643Y-18934786D01*
X11713928Y-19106214D02*
X11685357Y-19091929D01*
X11671071Y-19077643D01*
X11656786Y-19049072D01*
X11656786Y-18963357D01*
X11671071Y-18934786D01*
X11685357Y-18920500D01*
X11713928Y-18906214D01*
X11756786Y-18906214D01*
X11785357Y-18920500D01*
X11799643Y-18934786D01*
X11813928Y-18963357D01*
X11813928Y-19049072D01*
X11799643Y-19077643D01*
X11785357Y-19091929D01*
X11756786Y-19106214D01*
X11713928Y-19106214D01*
X11985357Y-19106214D02*
X11956786Y-19091929D01*
X11942500Y-19063357D01*
X11942500Y-18806214D01*
X12213928Y-19091929D02*
X12185357Y-19106214D01*
X12128214Y-19106214D01*
X12099643Y-19091929D01*
X12085357Y-19063357D01*
X12085357Y-18949072D01*
X12099643Y-18920500D01*
X12128214Y-18906214D01*
X12185357Y-18906214D01*
X12213928Y-18920500D01*
X12228214Y-18949072D01*
X12228214Y-18977643D01*
X12085357Y-19006214D01*
X12342500Y-19091929D02*
X12371071Y-19106214D01*
X12428214Y-19106214D01*
X12456786Y-19091929D01*
X12471071Y-19063357D01*
X12471071Y-19049072D01*
X12456786Y-19020500D01*
X12428214Y-19006214D01*
X12385357Y-19006214D01*
X12356786Y-18991929D01*
X12342500Y-18963357D01*
X12342500Y-18949072D01*
X12356786Y-18920500D01*
X12385357Y-18906214D01*
X12428214Y-18906214D01*
X12456786Y-18920500D01*
X12571071Y-19220500D02*
X12585357Y-19206214D01*
X12613928Y-19163357D01*
X12628214Y-19134786D01*
X12642500Y-19091929D01*
X12656786Y-19020500D01*
X12656786Y-18963357D01*
X12642500Y-18891929D01*
X12628214Y-18849072D01*
X12613928Y-18820500D01*
X12585357Y-18777643D01*
X12571071Y-18763357D01*
X13113928Y-19220500D02*
X13099643Y-19206214D01*
X13071071Y-19163357D01*
X13056786Y-19134786D01*
X13042500Y-19091929D01*
X13028214Y-19020500D01*
X13028214Y-18963357D01*
X13042500Y-18891929D01*
X13056786Y-18849072D01*
X13071071Y-18820500D01*
X13099643Y-18777643D01*
X13113928Y-18763357D01*
X13228214Y-18906214D02*
X13228214Y-19106214D01*
X13228214Y-18934786D02*
X13242500Y-18920500D01*
X13271071Y-18906214D01*
X13313928Y-18906214D01*
X13342500Y-18920500D01*
X13356786Y-18949072D01*
X13356786Y-19106214D01*
X13542500Y-19106214D02*
X13513928Y-19091929D01*
X13499643Y-19077643D01*
X13485357Y-19049072D01*
X13485357Y-18963357D01*
X13499643Y-18934786D01*
X13513928Y-18920500D01*
X13542500Y-18906214D01*
X13585357Y-18906214D01*
X13613928Y-18920500D01*
X13628214Y-18934786D01*
X13642500Y-18963357D01*
X13642500Y-19049072D01*
X13628214Y-19077643D01*
X13613928Y-19091929D01*
X13585357Y-19106214D01*
X13542500Y-19106214D01*
X13728214Y-18906214D02*
X13842500Y-18906214D01*
X13771071Y-18806214D02*
X13771071Y-19063357D01*
X13785357Y-19091929D01*
X13813928Y-19106214D01*
X13842500Y-19106214D01*
X14171071Y-18906214D02*
X14171071Y-19206214D01*
X14171071Y-18920500D02*
X14199643Y-18906214D01*
X14256786Y-18906214D01*
X14285357Y-18920500D01*
X14299643Y-18934786D01*
X14313928Y-18963357D01*
X14313928Y-19049072D01*
X14299643Y-19077643D01*
X14285357Y-19091929D01*
X14256786Y-19106214D01*
X14199643Y-19106214D01*
X14171071Y-19091929D01*
X14485357Y-19106214D02*
X14456786Y-19091929D01*
X14442500Y-19063357D01*
X14442500Y-18806214D01*
X14728214Y-19106214D02*
X14728214Y-18949072D01*
X14713928Y-18920500D01*
X14685357Y-18906214D01*
X14628214Y-18906214D01*
X14599643Y-18920500D01*
X14728214Y-19091929D02*
X14699643Y-19106214D01*
X14628214Y-19106214D01*
X14599643Y-19091929D01*
X14585357Y-19063357D01*
X14585357Y-19034786D01*
X14599643Y-19006214D01*
X14628214Y-18991929D01*
X14699643Y-18991929D01*
X14728214Y-18977643D01*
X14828214Y-18906214D02*
X14942500Y-18906214D01*
X14871071Y-18806214D02*
X14871071Y-19063357D01*
X14885357Y-19091929D01*
X14913928Y-19106214D01*
X14942500Y-19106214D01*
X15156786Y-19091929D02*
X15128214Y-19106214D01*
X15071071Y-19106214D01*
X15042500Y-19091929D01*
X15028214Y-19063357D01*
X15028214Y-18949072D01*
X15042500Y-18920500D01*
X15071071Y-18906214D01*
X15128214Y-18906214D01*
X15156786Y-18920500D01*
X15171071Y-18949072D01*
X15171071Y-18977643D01*
X15028214Y-19006214D01*
X15428214Y-19106214D02*
X15428214Y-18806214D01*
X15428214Y-19091929D02*
X15399643Y-19106214D01*
X15342500Y-19106214D01*
X15313928Y-19091929D01*
X15299643Y-19077643D01*
X15285357Y-19049072D01*
X15285357Y-18963357D01*
X15299643Y-18934786D01*
X15313928Y-18920500D01*
X15342500Y-18906214D01*
X15399643Y-18906214D01*
X15428214Y-18920500D01*
X15542500Y-19220500D02*
X15556786Y-19206214D01*
X15585357Y-19163357D01*
X15599643Y-19134786D01*
X15613928Y-19091929D01*
X15628214Y-19020500D01*
X15628214Y-18963357D01*
X15613928Y-18891929D01*
X15599643Y-18849072D01*
X15585357Y-18820500D01*
X15556786Y-18777643D01*
X15542500Y-18763357D01*
M02*
